%TF.GenerationSoftware,KiCad,Pcbnew,(5.1.9)-1*%
%TF.CreationDate,2021-03-20T03:42:33+00:00*%
%TF.ProjectId,filaSens-attiny84,66696c61-5365-46e7-932d-617474696e79,rev?*%
%TF.SameCoordinates,Original*%
%TF.FileFunction,Copper,L1,Top*%
%TF.FilePolarity,Positive*%
%FSLAX46Y46*%
G04 Gerber Fmt 4.6, Leading zero omitted, Abs format (unit mm)*
G04 Created by KiCad (PCBNEW (5.1.9)-1) date 2021-03-20 03:42:33*
%MOMM*%
%LPD*%
G01*
G04 APERTURE LIST*
%TA.AperFunction,ComponentPad*%
%ADD10O,1.700000X1.700000*%
%TD*%
%TA.AperFunction,ComponentPad*%
%ADD11R,1.700000X1.700000*%
%TD*%
%TA.AperFunction,ComponentPad*%
%ADD12C,5.500000*%
%TD*%
%TA.AperFunction,ComponentPad*%
%ADD13O,1.050000X1.300000*%
%TD*%
%TA.AperFunction,SMDPad,CuDef*%
%ADD14R,1.300000X1.550000*%
%TD*%
%TA.AperFunction,SMDPad,CuDef*%
%ADD15R,1.330000X0.530000*%
%TD*%
%TA.AperFunction,ComponentPad*%
%ADD16C,1.400000*%
%TD*%
%TA.AperFunction,ComponentPad*%
%ADD17O,1.400000X1.400000*%
%TD*%
%TA.AperFunction,ViaPad*%
%ADD18C,0.800000*%
%TD*%
%TA.AperFunction,Conductor*%
%ADD19C,0.250000*%
%TD*%
%TA.AperFunction,Conductor*%
%ADD20C,0.200000*%
%TD*%
%TA.AperFunction,Conductor*%
%ADD21C,0.203200*%
%TD*%
%TA.AperFunction,Conductor*%
%ADD22C,0.100000*%
%TD*%
G04 APERTURE END LIST*
D10*
%TO.P,J3,6*%
%TO.N,GND*%
X152979600Y-101028500D03*
%TO.P,J3,5*%
%TO.N,/RESET*%
X152979600Y-98488500D03*
%TO.P,J3,4*%
%TO.N,/SDA*%
X155519600Y-101028500D03*
%TO.P,J3,3*%
%TO.N,/SCL*%
X155519600Y-98488500D03*
%TO.P,J3,2*%
%TO.N,/+5v*%
X158059600Y-101028500D03*
D11*
%TO.P,J3,1*%
%TO.N,/MISO*%
X158059600Y-98488500D03*
%TD*%
%TO.P,U1,1*%
%TO.N,/+5v*%
%TA.AperFunction,SMDPad,CuDef*%
G36*
G01*
X139596000Y-110257000D02*
X139296000Y-110257000D01*
G75*
G02*
X139146000Y-110107000I0J150000D01*
G01*
X139146000Y-108457000D01*
G75*
G02*
X139296000Y-108307000I150000J0D01*
G01*
X139596000Y-108307000D01*
G75*
G02*
X139746000Y-108457000I0J-150000D01*
G01*
X139746000Y-110107000D01*
G75*
G02*
X139596000Y-110257000I-150000J0D01*
G01*
G37*
%TD.AperFunction*%
%TO.P,U1,2*%
%TO.N,/TX*%
%TA.AperFunction,SMDPad,CuDef*%
G36*
G01*
X140866000Y-110257000D02*
X140566000Y-110257000D01*
G75*
G02*
X140416000Y-110107000I0J150000D01*
G01*
X140416000Y-108457000D01*
G75*
G02*
X140566000Y-108307000I150000J0D01*
G01*
X140866000Y-108307000D01*
G75*
G02*
X141016000Y-108457000I0J-150000D01*
G01*
X141016000Y-110107000D01*
G75*
G02*
X140866000Y-110257000I-150000J0D01*
G01*
G37*
%TD.AperFunction*%
%TO.P,U1,3*%
%TO.N,/RX*%
%TA.AperFunction,SMDPad,CuDef*%
G36*
G01*
X142136000Y-110257000D02*
X141836000Y-110257000D01*
G75*
G02*
X141686000Y-110107000I0J150000D01*
G01*
X141686000Y-108457000D01*
G75*
G02*
X141836000Y-108307000I150000J0D01*
G01*
X142136000Y-108307000D01*
G75*
G02*
X142286000Y-108457000I0J-150000D01*
G01*
X142286000Y-110107000D01*
G75*
G02*
X142136000Y-110257000I-150000J0D01*
G01*
G37*
%TD.AperFunction*%
%TO.P,U1,4*%
%TO.N,/RESET*%
%TA.AperFunction,SMDPad,CuDef*%
G36*
G01*
X143406000Y-110257000D02*
X143106000Y-110257000D01*
G75*
G02*
X142956000Y-110107000I0J150000D01*
G01*
X142956000Y-108457000D01*
G75*
G02*
X143106000Y-108307000I150000J0D01*
G01*
X143406000Y-108307000D01*
G75*
G02*
X143556000Y-108457000I0J-150000D01*
G01*
X143556000Y-110107000D01*
G75*
G02*
X143406000Y-110257000I-150000J0D01*
G01*
G37*
%TD.AperFunction*%
%TO.P,U1,5*%
%TO.N,Net-(S1-Pad1)*%
%TA.AperFunction,SMDPad,CuDef*%
G36*
G01*
X144676000Y-110257000D02*
X144376000Y-110257000D01*
G75*
G02*
X144226000Y-110107000I0J150000D01*
G01*
X144226000Y-108457000D01*
G75*
G02*
X144376000Y-108307000I150000J0D01*
G01*
X144676000Y-108307000D01*
G75*
G02*
X144826000Y-108457000I0J-150000D01*
G01*
X144826000Y-110107000D01*
G75*
G02*
X144676000Y-110257000I-150000J0D01*
G01*
G37*
%TD.AperFunction*%
%TO.P,U1,6*%
%TO.N,/PWM*%
%TA.AperFunction,SMDPad,CuDef*%
G36*
G01*
X145946000Y-110257000D02*
X145646000Y-110257000D01*
G75*
G02*
X145496000Y-110107000I0J150000D01*
G01*
X145496000Y-108457000D01*
G75*
G02*
X145646000Y-108307000I150000J0D01*
G01*
X145946000Y-108307000D01*
G75*
G02*
X146096000Y-108457000I0J-150000D01*
G01*
X146096000Y-110107000D01*
G75*
G02*
X145946000Y-110257000I-150000J0D01*
G01*
G37*
%TD.AperFunction*%
%TO.P,U1,7*%
%TO.N,/SDA*%
%TA.AperFunction,SMDPad,CuDef*%
G36*
G01*
X147216000Y-110257000D02*
X146916000Y-110257000D01*
G75*
G02*
X146766000Y-110107000I0J150000D01*
G01*
X146766000Y-108457000D01*
G75*
G02*
X146916000Y-108307000I150000J0D01*
G01*
X147216000Y-108307000D01*
G75*
G02*
X147366000Y-108457000I0J-150000D01*
G01*
X147366000Y-110107000D01*
G75*
G02*
X147216000Y-110257000I-150000J0D01*
G01*
G37*
%TD.AperFunction*%
%TO.P,U1,8*%
%TO.N,/MISO*%
%TA.AperFunction,SMDPad,CuDef*%
G36*
G01*
X147216000Y-105307000D02*
X146916000Y-105307000D01*
G75*
G02*
X146766000Y-105157000I0J150000D01*
G01*
X146766000Y-103507000D01*
G75*
G02*
X146916000Y-103357000I150000J0D01*
G01*
X147216000Y-103357000D01*
G75*
G02*
X147366000Y-103507000I0J-150000D01*
G01*
X147366000Y-105157000D01*
G75*
G02*
X147216000Y-105307000I-150000J0D01*
G01*
G37*
%TD.AperFunction*%
%TO.P,U1,9*%
%TO.N,/SCL*%
%TA.AperFunction,SMDPad,CuDef*%
G36*
G01*
X145946000Y-105307000D02*
X145646000Y-105307000D01*
G75*
G02*
X145496000Y-105157000I0J150000D01*
G01*
X145496000Y-103507000D01*
G75*
G02*
X145646000Y-103357000I150000J0D01*
G01*
X145946000Y-103357000D01*
G75*
G02*
X146096000Y-103507000I0J-150000D01*
G01*
X146096000Y-105157000D01*
G75*
G02*
X145946000Y-105307000I-150000J0D01*
G01*
G37*
%TD.AperFunction*%
%TO.P,U1,10*%
%TO.N,/IN*%
%TA.AperFunction,SMDPad,CuDef*%
G36*
G01*
X144676000Y-105307000D02*
X144376000Y-105307000D01*
G75*
G02*
X144226000Y-105157000I0J150000D01*
G01*
X144226000Y-103507000D01*
G75*
G02*
X144376000Y-103357000I150000J0D01*
G01*
X144676000Y-103357000D01*
G75*
G02*
X144826000Y-103507000I0J-150000D01*
G01*
X144826000Y-105157000D01*
G75*
G02*
X144676000Y-105307000I-150000J0D01*
G01*
G37*
%TD.AperFunction*%
%TO.P,U1,11*%
%TO.N,/MEM*%
%TA.AperFunction,SMDPad,CuDef*%
G36*
G01*
X143406000Y-105307000D02*
X143106000Y-105307000D01*
G75*
G02*
X142956000Y-105157000I0J150000D01*
G01*
X142956000Y-103507000D01*
G75*
G02*
X143106000Y-103357000I150000J0D01*
G01*
X143406000Y-103357000D01*
G75*
G02*
X143556000Y-103507000I0J-150000D01*
G01*
X143556000Y-105157000D01*
G75*
G02*
X143406000Y-105307000I-150000J0D01*
G01*
G37*
%TD.AperFunction*%
%TO.P,U1,12*%
%TO.N,/FAULT*%
%TA.AperFunction,SMDPad,CuDef*%
G36*
G01*
X142136000Y-105307000D02*
X141836000Y-105307000D01*
G75*
G02*
X141686000Y-105157000I0J150000D01*
G01*
X141686000Y-103507000D01*
G75*
G02*
X141836000Y-103357000I150000J0D01*
G01*
X142136000Y-103357000D01*
G75*
G02*
X142286000Y-103507000I0J-150000D01*
G01*
X142286000Y-105157000D01*
G75*
G02*
X142136000Y-105307000I-150000J0D01*
G01*
G37*
%TD.AperFunction*%
%TO.P,U1,13*%
%TO.N,/STATUS*%
%TA.AperFunction,SMDPad,CuDef*%
G36*
G01*
X140866000Y-105307000D02*
X140566000Y-105307000D01*
G75*
G02*
X140416000Y-105157000I0J150000D01*
G01*
X140416000Y-103507000D01*
G75*
G02*
X140566000Y-103357000I150000J0D01*
G01*
X140866000Y-103357000D01*
G75*
G02*
X141016000Y-103507000I0J-150000D01*
G01*
X141016000Y-105157000D01*
G75*
G02*
X140866000Y-105307000I-150000J0D01*
G01*
G37*
%TD.AperFunction*%
%TO.P,U1,14*%
%TO.N,GND*%
%TA.AperFunction,SMDPad,CuDef*%
G36*
G01*
X139596000Y-105307000D02*
X139296000Y-105307000D01*
G75*
G02*
X139146000Y-105157000I0J150000D01*
G01*
X139146000Y-103507000D01*
G75*
G02*
X139296000Y-103357000I150000J0D01*
G01*
X139596000Y-103357000D01*
G75*
G02*
X139746000Y-103507000I0J-150000D01*
G01*
X139746000Y-105157000D01*
G75*
G02*
X139596000Y-105307000I-150000J0D01*
G01*
G37*
%TD.AperFunction*%
%TD*%
%TO.P,D1,1*%
%TO.N,Net-(D1-Pad1)*%
%TA.AperFunction,SMDPad,CuDef*%
G36*
G01*
X134286800Y-102904300D02*
X134286800Y-102429300D01*
G75*
G02*
X134524300Y-102191800I237500J0D01*
G01*
X135099300Y-102191800D01*
G75*
G02*
X135336800Y-102429300I0J-237500D01*
G01*
X135336800Y-102904300D01*
G75*
G02*
X135099300Y-103141800I-237500J0D01*
G01*
X134524300Y-103141800D01*
G75*
G02*
X134286800Y-102904300I0J237500D01*
G01*
G37*
%TD.AperFunction*%
%TO.P,D1,2*%
%TO.N,/STATUS*%
%TA.AperFunction,SMDPad,CuDef*%
G36*
G01*
X136036800Y-102904300D02*
X136036800Y-102429300D01*
G75*
G02*
X136274300Y-102191800I237500J0D01*
G01*
X136849300Y-102191800D01*
G75*
G02*
X137086800Y-102429300I0J-237500D01*
G01*
X137086800Y-102904300D01*
G75*
G02*
X136849300Y-103141800I-237500J0D01*
G01*
X136274300Y-103141800D01*
G75*
G02*
X136036800Y-102904300I0J237500D01*
G01*
G37*
%TD.AperFunction*%
%TD*%
D12*
%TO.P,H1,1*%
%TO.N,GND*%
X156601100Y-110203600D03*
%TD*%
%TO.P,H2,1*%
%TO.N,GND*%
X127801100Y-99703600D03*
%TD*%
D13*
%TO.P,U3,2*%
%TO.N,GND*%
X140011100Y-97979400D03*
%TO.P,U3,3*%
%TO.N,Net-(JP1-Pad1)*%
X138741100Y-97979400D03*
%TO.P,U3,1*%
%TO.N,/+5v*%
%TA.AperFunction,ComponentPad*%
G36*
G01*
X141806100Y-97579300D02*
X141806100Y-98379500D01*
G75*
G02*
X141556200Y-98629400I-249900J0D01*
G01*
X141006000Y-98629400D01*
G75*
G02*
X140756100Y-98379500I0J249900D01*
G01*
X140756100Y-97579300D01*
G75*
G02*
X141006000Y-97329400I249900J0D01*
G01*
X141556200Y-97329400D01*
G75*
G02*
X141806100Y-97579300I0J-249900D01*
G01*
G37*
%TD.AperFunction*%
%TD*%
%TO.P,R1,2*%
%TO.N,Net-(D1-Pad1)*%
%TA.AperFunction,SMDPad,CuDef*%
G36*
G01*
X132968300Y-102826800D02*
X132968300Y-102506800D01*
G75*
G02*
X133128300Y-102346800I160000J0D01*
G01*
X133523300Y-102346800D01*
G75*
G02*
X133683300Y-102506800I0J-160000D01*
G01*
X133683300Y-102826800D01*
G75*
G02*
X133523300Y-102986800I-160000J0D01*
G01*
X133128300Y-102986800D01*
G75*
G02*
X132968300Y-102826800I0J160000D01*
G01*
G37*
%TD.AperFunction*%
%TO.P,R1,1*%
%TO.N,GND*%
%TA.AperFunction,SMDPad,CuDef*%
G36*
G01*
X131773300Y-102826800D02*
X131773300Y-102506800D01*
G75*
G02*
X131933300Y-102346800I160000J0D01*
G01*
X132328300Y-102346800D01*
G75*
G02*
X132488300Y-102506800I0J-160000D01*
G01*
X132488300Y-102826800D01*
G75*
G02*
X132328300Y-102986800I-160000J0D01*
G01*
X131933300Y-102986800D01*
G75*
G02*
X131773300Y-102826800I0J160000D01*
G01*
G37*
%TD.AperFunction*%
%TD*%
%TO.P,R2,2*%
%TO.N,/PWM*%
%TA.AperFunction,SMDPad,CuDef*%
G36*
G01*
X145584925Y-100956100D02*
X145904925Y-100956100D01*
G75*
G02*
X146064925Y-101116100I0J-160000D01*
G01*
X146064925Y-101511100D01*
G75*
G02*
X145904925Y-101671100I-160000J0D01*
G01*
X145584925Y-101671100D01*
G75*
G02*
X145424925Y-101511100I0J160000D01*
G01*
X145424925Y-101116100D01*
G75*
G02*
X145584925Y-100956100I160000J0D01*
G01*
G37*
%TD.AperFunction*%
%TO.P,R2,1*%
%TO.N,/OUT*%
%TA.AperFunction,SMDPad,CuDef*%
G36*
G01*
X145584925Y-99761100D02*
X145904925Y-99761100D01*
G75*
G02*
X146064925Y-99921100I0J-160000D01*
G01*
X146064925Y-100316100D01*
G75*
G02*
X145904925Y-100476100I-160000J0D01*
G01*
X145584925Y-100476100D01*
G75*
G02*
X145424925Y-100316100I0J160000D01*
G01*
X145424925Y-99921100D01*
G75*
G02*
X145584925Y-99761100I160000J0D01*
G01*
G37*
%TD.AperFunction*%
%TD*%
%TO.P,R3,1*%
%TO.N,GND*%
%TA.AperFunction,SMDPad,CuDef*%
G36*
G01*
X147155950Y-101671100D02*
X146835950Y-101671100D01*
G75*
G02*
X146675950Y-101511100I0J160000D01*
G01*
X146675950Y-101116100D01*
G75*
G02*
X146835950Y-100956100I160000J0D01*
G01*
X147155950Y-100956100D01*
G75*
G02*
X147315950Y-101116100I0J-160000D01*
G01*
X147315950Y-101511100D01*
G75*
G02*
X147155950Y-101671100I-160000J0D01*
G01*
G37*
%TD.AperFunction*%
%TO.P,R3,2*%
%TO.N,/OUT*%
%TA.AperFunction,SMDPad,CuDef*%
G36*
G01*
X147155950Y-100476100D02*
X146835950Y-100476100D01*
G75*
G02*
X146675950Y-100316100I0J160000D01*
G01*
X146675950Y-99921100D01*
G75*
G02*
X146835950Y-99761100I160000J0D01*
G01*
X147155950Y-99761100D01*
G75*
G02*
X147315950Y-99921100I0J-160000D01*
G01*
X147315950Y-100316100D01*
G75*
G02*
X147155950Y-100476100I-160000J0D01*
G01*
G37*
%TD.AperFunction*%
%TD*%
%TO.P,R4,1*%
%TO.N,/OUT*%
%TA.AperFunction,SMDPad,CuDef*%
G36*
G01*
X148406975Y-101671100D02*
X148086975Y-101671100D01*
G75*
G02*
X147926975Y-101511100I0J160000D01*
G01*
X147926975Y-101116100D01*
G75*
G02*
X148086975Y-100956100I160000J0D01*
G01*
X148406975Y-100956100D01*
G75*
G02*
X148566975Y-101116100I0J-160000D01*
G01*
X148566975Y-101511100D01*
G75*
G02*
X148406975Y-101671100I-160000J0D01*
G01*
G37*
%TD.AperFunction*%
%TO.P,R4,2*%
%TO.N,/+5v*%
%TA.AperFunction,SMDPad,CuDef*%
G36*
G01*
X148406975Y-100476100D02*
X148086975Y-100476100D01*
G75*
G02*
X147926975Y-100316100I0J160000D01*
G01*
X147926975Y-99921100D01*
G75*
G02*
X148086975Y-99761100I160000J0D01*
G01*
X148406975Y-99761100D01*
G75*
G02*
X148566975Y-99921100I0J-160000D01*
G01*
X148566975Y-100316100D01*
G75*
G02*
X148406975Y-100476100I-160000J0D01*
G01*
G37*
%TD.AperFunction*%
%TD*%
D14*
%TO.P,S1,2*%
%TO.N,GND*%
X124902400Y-105041800D03*
%TO.P,S1,1*%
%TO.N,N/C*%
X129402400Y-105041800D03*
%TO.N,Net-(S1-Pad1)*%
X129402400Y-112991800D03*
%TO.P,S1,2*%
%TO.N,GND*%
X124902400Y-112991800D03*
%TD*%
%TO.P,C1,1*%
%TO.N,/OUT*%
%TA.AperFunction,SMDPad,CuDef*%
G36*
G01*
X144471400Y-102116100D02*
X143996400Y-102116100D01*
G75*
G02*
X143758900Y-101878600I0J237500D01*
G01*
X143758900Y-101303600D01*
G75*
G02*
X143996400Y-101066100I237500J0D01*
G01*
X144471400Y-101066100D01*
G75*
G02*
X144708900Y-101303600I0J-237500D01*
G01*
X144708900Y-101878600D01*
G75*
G02*
X144471400Y-102116100I-237500J0D01*
G01*
G37*
%TD.AperFunction*%
%TO.P,C1,2*%
%TO.N,GND*%
%TA.AperFunction,SMDPad,CuDef*%
G36*
G01*
X144471400Y-100366100D02*
X143996400Y-100366100D01*
G75*
G02*
X143758900Y-100128600I0J237500D01*
G01*
X143758900Y-99553600D01*
G75*
G02*
X143996400Y-99316100I237500J0D01*
G01*
X144471400Y-99316100D01*
G75*
G02*
X144708900Y-99553600I0J-237500D01*
G01*
X144708900Y-100128600D01*
G75*
G02*
X144471400Y-100366100I-237500J0D01*
G01*
G37*
%TD.AperFunction*%
%TD*%
%TO.P,C2,2*%
%TO.N,GND*%
%TA.AperFunction,SMDPad,CuDef*%
G36*
G01*
X157859600Y-104283500D02*
X157859600Y-104758500D01*
G75*
G02*
X157622100Y-104996000I-237500J0D01*
G01*
X157047100Y-104996000D01*
G75*
G02*
X156809600Y-104758500I0J237500D01*
G01*
X156809600Y-104283500D01*
G75*
G02*
X157047100Y-104046000I237500J0D01*
G01*
X157622100Y-104046000D01*
G75*
G02*
X157859600Y-104283500I0J-237500D01*
G01*
G37*
%TD.AperFunction*%
%TO.P,C2,1*%
%TO.N,/+5v*%
%TA.AperFunction,SMDPad,CuDef*%
G36*
G01*
X159609600Y-104283500D02*
X159609600Y-104758500D01*
G75*
G02*
X159372100Y-104996000I-237500J0D01*
G01*
X158797100Y-104996000D01*
G75*
G02*
X158559600Y-104758500I0J237500D01*
G01*
X158559600Y-104283500D01*
G75*
G02*
X158797100Y-104046000I237500J0D01*
G01*
X159372100Y-104046000D01*
G75*
G02*
X159609600Y-104283500I0J-237500D01*
G01*
G37*
%TD.AperFunction*%
%TD*%
%TO.P,D2,1*%
%TO.N,Net-(D2-Pad1)*%
%TA.AperFunction,SMDPad,CuDef*%
G36*
G01*
X134286800Y-97514401D02*
X134286800Y-97039401D01*
G75*
G02*
X134524300Y-96801901I237500J0D01*
G01*
X135099300Y-96801901D01*
G75*
G02*
X135336800Y-97039401I0J-237500D01*
G01*
X135336800Y-97514401D01*
G75*
G02*
X135099300Y-97751901I-237500J0D01*
G01*
X134524300Y-97751901D01*
G75*
G02*
X134286800Y-97514401I0J237500D01*
G01*
G37*
%TD.AperFunction*%
%TO.P,D2,2*%
%TO.N,/+5v*%
%TA.AperFunction,SMDPad,CuDef*%
G36*
G01*
X136036800Y-97514401D02*
X136036800Y-97039401D01*
G75*
G02*
X136274300Y-96801901I237500J0D01*
G01*
X136849300Y-96801901D01*
G75*
G02*
X137086800Y-97039401I0J-237500D01*
G01*
X137086800Y-97514401D01*
G75*
G02*
X136849300Y-97751901I-237500J0D01*
G01*
X136274300Y-97751901D01*
G75*
G02*
X136036800Y-97514401I0J237500D01*
G01*
G37*
%TD.AperFunction*%
%TD*%
%TO.P,R6,1*%
%TO.N,GND*%
%TA.AperFunction,SMDPad,CuDef*%
G36*
G01*
X131773300Y-97436901D02*
X131773300Y-97116901D01*
G75*
G02*
X131933300Y-96956901I160000J0D01*
G01*
X132328300Y-96956901D01*
G75*
G02*
X132488300Y-97116901I0J-160000D01*
G01*
X132488300Y-97436901D01*
G75*
G02*
X132328300Y-97596901I-160000J0D01*
G01*
X131933300Y-97596901D01*
G75*
G02*
X131773300Y-97436901I0J160000D01*
G01*
G37*
%TD.AperFunction*%
%TO.P,R6,2*%
%TO.N,Net-(D2-Pad1)*%
%TA.AperFunction,SMDPad,CuDef*%
G36*
G01*
X132968300Y-97436901D02*
X132968300Y-97116901D01*
G75*
G02*
X133128300Y-96956901I160000J0D01*
G01*
X133523300Y-96956901D01*
G75*
G02*
X133683300Y-97116901I0J-160000D01*
G01*
X133683300Y-97436901D01*
G75*
G02*
X133523300Y-97596901I-160000J0D01*
G01*
X133128300Y-97596901D01*
G75*
G02*
X132968300Y-97436901I0J160000D01*
G01*
G37*
%TD.AperFunction*%
%TD*%
%TO.P,S2,2*%
%TO.N,GND*%
X136852850Y-112991800D03*
%TO.P,S2,1*%
%TO.N,/RESET*%
X132352850Y-112991800D03*
%TO.N,N/C*%
X132352850Y-105041800D03*
%TO.P,S2,2*%
%TO.N,GND*%
X136852850Y-105041800D03*
%TD*%
%TO.P,D3,1*%
%TO.N,Net-(D3-Pad1)*%
%TA.AperFunction,SMDPad,CuDef*%
G36*
G01*
X134286800Y-100209350D02*
X134286800Y-99734350D01*
G75*
G02*
X134524300Y-99496850I237500J0D01*
G01*
X135099300Y-99496850D01*
G75*
G02*
X135336800Y-99734350I0J-237500D01*
G01*
X135336800Y-100209350D01*
G75*
G02*
X135099300Y-100446850I-237500J0D01*
G01*
X134524300Y-100446850D01*
G75*
G02*
X134286800Y-100209350I0J237500D01*
G01*
G37*
%TD.AperFunction*%
%TO.P,D3,2*%
%TO.N,/FAULT*%
%TA.AperFunction,SMDPad,CuDef*%
G36*
G01*
X136036800Y-100209350D02*
X136036800Y-99734350D01*
G75*
G02*
X136274300Y-99496850I237500J0D01*
G01*
X136849300Y-99496850D01*
G75*
G02*
X137086800Y-99734350I0J-237500D01*
G01*
X137086800Y-100209350D01*
G75*
G02*
X136849300Y-100446850I-237500J0D01*
G01*
X136274300Y-100446850D01*
G75*
G02*
X136036800Y-100209350I0J237500D01*
G01*
G37*
%TD.AperFunction*%
%TD*%
%TO.P,R9,2*%
%TO.N,Net-(D3-Pad1)*%
%TA.AperFunction,SMDPad,CuDef*%
G36*
G01*
X132968300Y-100131850D02*
X132968300Y-99811850D01*
G75*
G02*
X133128300Y-99651850I160000J0D01*
G01*
X133523300Y-99651850D01*
G75*
G02*
X133683300Y-99811850I0J-160000D01*
G01*
X133683300Y-100131850D01*
G75*
G02*
X133523300Y-100291850I-160000J0D01*
G01*
X133128300Y-100291850D01*
G75*
G02*
X132968300Y-100131850I0J160000D01*
G01*
G37*
%TD.AperFunction*%
%TO.P,R9,1*%
%TO.N,GND*%
%TA.AperFunction,SMDPad,CuDef*%
G36*
G01*
X131773300Y-100131850D02*
X131773300Y-99811850D01*
G75*
G02*
X131933300Y-99651850I160000J0D01*
G01*
X132328300Y-99651850D01*
G75*
G02*
X132488300Y-99811850I0J-160000D01*
G01*
X132488300Y-100131850D01*
G75*
G02*
X132328300Y-100291850I-160000J0D01*
G01*
X131933300Y-100291850D01*
G75*
G02*
X131773300Y-100131850I0J160000D01*
G01*
G37*
%TD.AperFunction*%
%TD*%
D15*
%TO.P,U2,1*%
%TO.N,GND*%
X149160500Y-105537000D03*
%TO.P,U2,2*%
%TO.N,/MEM*%
X149160500Y-106807000D03*
%TO.P,U2,3*%
%TO.N,Net-(U2-Pad3)*%
X149160500Y-108077000D03*
%TO.P,U2,4*%
%TO.N,Net-(U2-Pad4)*%
X152210500Y-108077000D03*
%TO.P,U2,5*%
%TO.N,Net-(U2-Pad5)*%
X152210500Y-106807000D03*
%TO.P,U2,6*%
%TO.N,Net-(U2-Pad6)*%
X152210500Y-105537000D03*
%TD*%
D11*
%TO.P,J4,1*%
%TO.N,GND*%
X168701100Y-109888100D03*
D10*
%TO.P,J4,2*%
%TO.N,/OUT*%
X166161100Y-109888100D03*
%TO.P,J4,3*%
%TO.N,/FAULT*%
X163621100Y-109888100D03*
%TD*%
D11*
%TO.P,J1,1*%
%TO.N,GND*%
X168719500Y-100131800D03*
D10*
%TO.P,J1,2*%
%TO.N,/SCL*%
X166179500Y-100131800D03*
%TO.P,J1,3*%
%TO.N,/SDA*%
X163639500Y-100131800D03*
%TD*%
%TO.P,J5,3*%
%TO.N,/TX*%
X140701000Y-112433100D03*
%TO.P,J5,2*%
%TO.N,/RX*%
X143241000Y-112433100D03*
D11*
%TO.P,J5,1*%
%TO.N,GND*%
X145781000Y-112433100D03*
%TD*%
%TO.P,J2,1*%
%TO.N,GND*%
X164655350Y-106278600D03*
D10*
%TO.P,J2,2*%
%TO.N,/+5v*%
X164655350Y-103738600D03*
%TD*%
%TO.P,R7,1*%
%TO.N,/+5v*%
%TA.AperFunction,SMDPad,CuDef*%
G36*
G01*
X149280900Y-97431500D02*
X149600900Y-97431500D01*
G75*
G02*
X149760900Y-97591500I0J-160000D01*
G01*
X149760900Y-97986500D01*
G75*
G02*
X149600900Y-98146500I-160000J0D01*
G01*
X149280900Y-98146500D01*
G75*
G02*
X149120900Y-97986500I0J160000D01*
G01*
X149120900Y-97591500D01*
G75*
G02*
X149280900Y-97431500I160000J0D01*
G01*
G37*
%TD.AperFunction*%
%TO.P,R7,2*%
%TO.N,/RESET*%
%TA.AperFunction,SMDPad,CuDef*%
G36*
G01*
X149280900Y-98626500D02*
X149600900Y-98626500D01*
G75*
G02*
X149760900Y-98786500I0J-160000D01*
G01*
X149760900Y-99181500D01*
G75*
G02*
X149600900Y-99341500I-160000J0D01*
G01*
X149280900Y-99341500D01*
G75*
G02*
X149120900Y-99181500I0J160000D01*
G01*
X149120900Y-98786500D01*
G75*
G02*
X149280900Y-98626500I160000J0D01*
G01*
G37*
%TD.AperFunction*%
%TD*%
D16*
%TO.P,R5,1*%
%TO.N,/IN*%
X141231100Y-100482400D03*
D17*
%TO.P,R5,2*%
%TO.N,Net-(JP1-Pad1)*%
X138691100Y-100482400D03*
%TD*%
D18*
%TO.N,GND*%
X145923000Y-102362000D03*
X147980400Y-105511600D03*
%TO.N,/FAULT*%
X144462500Y-107569000D03*
%TO.N,/OUT*%
X149250400Y-101313600D03*
%TO.N,/RESET*%
X143256000Y-107759500D03*
X132397500Y-111569500D03*
%TO.N,/+5v*%
X139738100Y-106006900D03*
%TO.N,/MEM*%
X144589500Y-106172000D03*
X147828000Y-106807000D03*
%TD*%
D19*
%TO.N,GND*%
X146971400Y-101313600D02*
X145923000Y-102362000D01*
X146995950Y-101313600D02*
X146971400Y-101313600D01*
X148005800Y-105537000D02*
X147980400Y-105511600D01*
X149160500Y-105537000D02*
X148005800Y-105537000D01*
%TO.N,/FAULT*%
X136561800Y-99971850D02*
X137110960Y-100521010D01*
X141986000Y-105092500D02*
X144462500Y-107569000D01*
X141986000Y-104332000D02*
X141986000Y-105092500D01*
X141986000Y-103357000D02*
X141986000Y-104332000D01*
X140918790Y-102289790D02*
X141986000Y-103357000D01*
X138879740Y-102289790D02*
X140918790Y-102289790D01*
X136561800Y-99971850D02*
X138879740Y-102289790D01*
%TO.N,/OUT*%
X144272425Y-101591100D02*
X145744925Y-100118600D01*
X144233900Y-101591100D02*
X144272425Y-101591100D01*
X145744925Y-100118600D02*
X146995950Y-100118600D01*
X147051975Y-100118600D02*
X148246975Y-101313600D01*
X146995950Y-100118600D02*
X147051975Y-100118600D01*
D20*
X149232000Y-101313600D02*
X149250400Y-101295200D01*
D19*
X148246975Y-101313600D02*
X149250400Y-101313600D01*
%TO.N,/SDA*%
X155319500Y-101028500D02*
X155519600Y-101028500D01*
X155335398Y-101028500D02*
X155519600Y-101028500D01*
X151293499Y-105070399D02*
X155335398Y-101028500D01*
X151293499Y-107327603D02*
X151293499Y-105070399D01*
X149339102Y-109282000D02*
X151293499Y-107327603D01*
X147066000Y-109282000D02*
X149339102Y-109282000D01*
%TO.N,/RESET*%
X143256000Y-107759500D02*
X143256000Y-109282000D01*
X132352850Y-111614150D02*
X132397500Y-111569500D01*
X132352850Y-112991800D02*
X132352850Y-111614150D01*
X152484100Y-98984000D02*
X152979600Y-98488500D01*
X149440900Y-98984000D02*
X152484100Y-98984000D01*
%TO.N,/MISO*%
X156957599Y-99590501D02*
X158059600Y-98488500D01*
X155326637Y-99590501D02*
X156957599Y-99590501D01*
X154417599Y-100499539D02*
X155326637Y-99590501D01*
X154417599Y-101221463D02*
X154417599Y-100499539D01*
X151307062Y-104332000D02*
X154417599Y-101221463D01*
X147066000Y-104332000D02*
X151307062Y-104332000D01*
%TO.N,/IN*%
X144526000Y-103777300D02*
X144526000Y-104332000D01*
X141231100Y-100482400D02*
X144526000Y-103777300D01*
%TO.N,/+5v*%
X141622900Y-97637600D02*
X141281100Y-97979400D01*
X147936122Y-100118600D02*
X148246975Y-100118600D01*
X145796922Y-97979400D02*
X147936122Y-100118600D01*
X141281100Y-97979400D02*
X145796922Y-97979400D01*
X140379090Y-97077390D02*
X141281100Y-97979400D01*
X136761311Y-97077390D02*
X140379090Y-97077390D01*
X136561800Y-97276901D02*
X136761311Y-97077390D01*
X158284500Y-100803600D02*
X158059600Y-101028500D01*
X158059600Y-103496000D02*
X159084600Y-104521000D01*
X158059600Y-101028500D02*
X158059600Y-103496000D01*
X161945250Y-101028500D02*
X164655350Y-103738600D01*
X158059600Y-101028500D02*
X161945250Y-101028500D01*
X148246975Y-98982925D02*
X149440900Y-97789000D01*
X148246975Y-100118600D02*
X148246975Y-98982925D01*
X149843401Y-97386499D02*
X149440900Y-97789000D01*
X159111201Y-97386499D02*
X149843401Y-97386499D01*
X159161601Y-97436899D02*
X159111201Y-97386499D01*
X159161601Y-99926499D02*
X159161601Y-97436899D01*
X158059600Y-101028500D02*
X159161601Y-99926499D01*
X139446000Y-106299000D02*
X139738100Y-106006900D01*
X139446000Y-109282000D02*
X139446000Y-106299000D01*
%TO.N,Net-(S1-Pad1)*%
X144526000Y-110257000D02*
X144526000Y-109282000D01*
X130429401Y-114018801D02*
X129402400Y-112991800D01*
X143286261Y-114018801D02*
X130429401Y-114018801D01*
X144526000Y-112779062D02*
X143286261Y-114018801D01*
X144526000Y-109282000D02*
X144526000Y-112779062D01*
%TO.N,/PWM*%
X145243990Y-108729990D02*
X145796000Y-109282000D01*
X145243990Y-101814535D02*
X145243990Y-108729990D01*
X145744925Y-101313600D02*
X145243990Y-101814535D01*
%TO.N,/SCL*%
X145796000Y-103357000D02*
X145796000Y-104332000D01*
X146048010Y-103104990D02*
X145796000Y-103357000D01*
X148423972Y-103104990D02*
X146048010Y-103104990D01*
X151938461Y-99590501D02*
X148423972Y-103104990D01*
X154417599Y-99590501D02*
X151938461Y-99590501D01*
X155519600Y-98488500D02*
X154417599Y-99590501D01*
%TO.N,Net-(D1-Pad1)*%
X133325800Y-102666800D02*
X134811800Y-102666800D01*
%TO.N,Net-(D2-Pad1)*%
X133325800Y-97276901D02*
X134811800Y-97276901D01*
%TO.N,Net-(D3-Pad1)*%
X134811800Y-99971850D02*
X133325800Y-99971850D01*
%TO.N,/STATUS*%
X140716000Y-103357000D02*
X140716000Y-104332000D01*
X140025800Y-102666800D02*
X140716000Y-103357000D01*
X136561800Y-102666800D02*
X140025800Y-102666800D01*
%TO.N,/MEM*%
X143256000Y-104838500D02*
X144589500Y-106172000D01*
X143256000Y-104332000D02*
X143256000Y-104838500D01*
X147828000Y-106807000D02*
X149160500Y-106807000D01*
%TO.N,/RX*%
X141986000Y-111178100D02*
X143241000Y-112433100D01*
X141986000Y-109282000D02*
X141986000Y-111178100D01*
%TO.N,/TX*%
X140716000Y-112418100D02*
X140701000Y-112433100D01*
X140716000Y-109282000D02*
X140716000Y-112418100D01*
%TO.N,Net-(JP1-Pad1)*%
X138721500Y-97999000D02*
X138741100Y-97979400D01*
X138691100Y-98029400D02*
X138741100Y-97979400D01*
X138691100Y-100482400D02*
X138691100Y-98029400D01*
%TD*%
D21*
%TO.N,GND*%
X171864860Y-95166476D02*
X172214763Y-95272116D01*
X172537486Y-95443712D01*
X172820730Y-95674720D01*
X173053716Y-95956350D01*
X173227558Y-96277864D01*
X173335641Y-96627024D01*
X173374473Y-96996491D01*
X173374499Y-97003759D01*
X173374500Y-112997396D01*
X173338224Y-113367361D01*
X173232581Y-113717269D01*
X173060987Y-114039988D01*
X172829975Y-114323235D01*
X172548351Y-114556215D01*
X172226838Y-114730057D01*
X171877676Y-114838141D01*
X171508209Y-114876973D01*
X171500941Y-114876999D01*
X125507294Y-114876999D01*
X125137339Y-114840724D01*
X124787431Y-114735081D01*
X124464712Y-114563487D01*
X124181465Y-114332475D01*
X124170691Y-114319452D01*
X124252400Y-114327500D01*
X124636300Y-114324800D01*
X124775800Y-114185300D01*
X124775800Y-113118400D01*
X125029000Y-113118400D01*
X125029000Y-114185300D01*
X125168500Y-114324800D01*
X125552400Y-114327500D01*
X125661787Y-114316726D01*
X125766971Y-114284819D01*
X125863908Y-114233005D01*
X125948875Y-114163275D01*
X126018605Y-114078308D01*
X126070419Y-113981371D01*
X126102326Y-113876187D01*
X126113100Y-113766800D01*
X126110400Y-113257900D01*
X125970900Y-113118400D01*
X125029000Y-113118400D01*
X124775800Y-113118400D01*
X123833900Y-113118400D01*
X123694400Y-113257900D01*
X123693293Y-113466539D01*
X123666559Y-113380176D01*
X123627727Y-113010709D01*
X123627701Y-113003441D01*
X123627701Y-112216800D01*
X123691700Y-112216800D01*
X123694400Y-112725700D01*
X123833900Y-112865200D01*
X124775800Y-112865200D01*
X124775800Y-111798300D01*
X125029000Y-111798300D01*
X125029000Y-112865200D01*
X125970900Y-112865200D01*
X126110400Y-112725700D01*
X126113100Y-112216800D01*
X128522694Y-112216800D01*
X128522694Y-113766800D01*
X128527108Y-113811613D01*
X128540179Y-113854705D01*
X128561406Y-113894418D01*
X128589973Y-113929227D01*
X128624782Y-113957794D01*
X128664495Y-113979021D01*
X128707587Y-113992092D01*
X128752400Y-113996506D01*
X129907041Y-113996506D01*
X130167088Y-114256553D01*
X130178159Y-114270043D01*
X130198774Y-114286961D01*
X130232001Y-114314231D01*
X130273918Y-114336635D01*
X130293430Y-114347065D01*
X130360083Y-114367284D01*
X130412039Y-114372401D01*
X130412041Y-114372401D01*
X130429401Y-114374111D01*
X130446761Y-114372401D01*
X143268909Y-114372401D01*
X143286261Y-114374110D01*
X143303613Y-114372401D01*
X143303623Y-114372401D01*
X143355579Y-114367284D01*
X143422232Y-114347065D01*
X143483661Y-114314230D01*
X143537503Y-114270043D01*
X143548574Y-114256553D01*
X144388421Y-113416706D01*
X144412981Y-113497671D01*
X144464795Y-113594608D01*
X144534525Y-113679575D01*
X144619492Y-113749305D01*
X144716429Y-113801119D01*
X144821613Y-113833026D01*
X144931000Y-113843800D01*
X145514900Y-113841100D01*
X145654400Y-113701600D01*
X145654400Y-112559700D01*
X145907600Y-112559700D01*
X145907600Y-113701600D01*
X146047100Y-113841100D01*
X146631000Y-113843800D01*
X146740387Y-113833026D01*
X146845571Y-113801119D01*
X146942508Y-113749305D01*
X147027475Y-113679575D01*
X147097205Y-113594608D01*
X147149019Y-113497671D01*
X147180926Y-113392487D01*
X147191700Y-113283100D01*
X147189000Y-112699200D01*
X147049500Y-112559700D01*
X145907600Y-112559700D01*
X145654400Y-112559700D01*
X145634400Y-112559700D01*
X145634400Y-112543126D01*
X154440614Y-112543126D01*
X154751138Y-112965239D01*
X155325453Y-113273085D01*
X155948791Y-113462972D01*
X156597197Y-113527603D01*
X157245753Y-113464494D01*
X157869536Y-113276072D01*
X158444573Y-112969575D01*
X158451062Y-112965239D01*
X158761586Y-112543126D01*
X156601100Y-110382639D01*
X154440614Y-112543126D01*
X145634400Y-112543126D01*
X145634400Y-112306500D01*
X145654400Y-112306500D01*
X145654400Y-111164600D01*
X145907600Y-111164600D01*
X145907600Y-112306500D01*
X147049500Y-112306500D01*
X147189000Y-112167000D01*
X147191700Y-111583100D01*
X147180926Y-111473713D01*
X147149019Y-111368529D01*
X147097205Y-111271592D01*
X147027475Y-111186625D01*
X146942508Y-111116895D01*
X146845571Y-111065081D01*
X146740387Y-111033174D01*
X146631000Y-111022400D01*
X146047100Y-111025100D01*
X145907600Y-111164600D01*
X145654400Y-111164600D01*
X145514900Y-111025100D01*
X144931000Y-111022400D01*
X144879600Y-111027463D01*
X144879600Y-110426644D01*
X144886953Y-110422714D01*
X144944493Y-110375493D01*
X144991714Y-110317953D01*
X145026803Y-110252307D01*
X145048410Y-110181077D01*
X145055706Y-110107000D01*
X145055706Y-109041771D01*
X145266294Y-109252359D01*
X145266294Y-110107000D01*
X145273590Y-110181077D01*
X145295197Y-110252307D01*
X145330286Y-110317953D01*
X145377507Y-110375493D01*
X145435047Y-110422714D01*
X145500693Y-110457803D01*
X145571923Y-110479410D01*
X145646000Y-110486706D01*
X145946000Y-110486706D01*
X146020077Y-110479410D01*
X146091307Y-110457803D01*
X146156953Y-110422714D01*
X146214493Y-110375493D01*
X146261714Y-110317953D01*
X146296803Y-110252307D01*
X146318410Y-110181077D01*
X146325706Y-110107000D01*
X146325706Y-108457000D01*
X146318410Y-108382923D01*
X146296803Y-108311693D01*
X146261714Y-108246047D01*
X146214493Y-108188507D01*
X146156953Y-108141286D01*
X146091307Y-108106197D01*
X146020077Y-108084590D01*
X145946000Y-108077294D01*
X145646000Y-108077294D01*
X145597590Y-108082062D01*
X145597590Y-106745088D01*
X147199400Y-106745088D01*
X147199400Y-106868912D01*
X147223556Y-106990356D01*
X147270941Y-107104754D01*
X147339734Y-107207709D01*
X147427291Y-107295266D01*
X147530246Y-107364059D01*
X147644644Y-107411444D01*
X147766088Y-107435600D01*
X147889912Y-107435600D01*
X148011356Y-107411444D01*
X148125754Y-107364059D01*
X148228709Y-107295266D01*
X148313454Y-107210521D01*
X148333073Y-107234427D01*
X148367882Y-107262994D01*
X148407595Y-107284221D01*
X148450687Y-107297292D01*
X148495500Y-107301706D01*
X149825500Y-107301706D01*
X149870313Y-107297292D01*
X149913405Y-107284221D01*
X149953118Y-107262994D01*
X149987927Y-107234427D01*
X150016494Y-107199618D01*
X150037721Y-107159905D01*
X150050792Y-107116813D01*
X150055206Y-107072000D01*
X150055206Y-106542000D01*
X150050792Y-106497187D01*
X150037721Y-106454095D01*
X150016494Y-106414382D01*
X149987927Y-106379573D01*
X149953118Y-106351006D01*
X149947586Y-106348049D01*
X150039769Y-106320144D01*
X150136737Y-106268386D01*
X150221744Y-106198706D01*
X150291523Y-106113780D01*
X150343394Y-106016872D01*
X150375362Y-105911708D01*
X150383500Y-105803100D01*
X150244000Y-105663600D01*
X149287100Y-105663600D01*
X149287100Y-105683600D01*
X149033900Y-105683600D01*
X149033900Y-105663600D01*
X148077000Y-105663600D01*
X147937500Y-105803100D01*
X147945638Y-105911708D01*
X147977606Y-106016872D01*
X148029477Y-106113780D01*
X148099256Y-106198706D01*
X148184263Y-106268386D01*
X148281231Y-106320144D01*
X148373414Y-106348049D01*
X148367882Y-106351006D01*
X148333073Y-106379573D01*
X148313454Y-106403479D01*
X148228709Y-106318734D01*
X148125754Y-106249941D01*
X148011356Y-106202556D01*
X147889912Y-106178400D01*
X147766088Y-106178400D01*
X147644644Y-106202556D01*
X147530246Y-106249941D01*
X147427291Y-106318734D01*
X147339734Y-106406291D01*
X147270941Y-106509246D01*
X147223556Y-106623644D01*
X147199400Y-106745088D01*
X145597590Y-106745088D01*
X145597590Y-105531938D01*
X145646000Y-105536706D01*
X145946000Y-105536706D01*
X146020077Y-105529410D01*
X146091307Y-105507803D01*
X146156953Y-105472714D01*
X146214493Y-105425493D01*
X146261714Y-105367953D01*
X146296803Y-105302307D01*
X146318410Y-105231077D01*
X146325706Y-105157000D01*
X146325706Y-103507000D01*
X146320938Y-103458590D01*
X146541062Y-103458590D01*
X146536294Y-103507000D01*
X146536294Y-105157000D01*
X146543590Y-105231077D01*
X146565197Y-105302307D01*
X146600286Y-105367953D01*
X146647507Y-105425493D01*
X146705047Y-105472714D01*
X146770693Y-105507803D01*
X146841923Y-105529410D01*
X146916000Y-105536706D01*
X147216000Y-105536706D01*
X147290077Y-105529410D01*
X147361307Y-105507803D01*
X147426953Y-105472714D01*
X147484493Y-105425493D01*
X147531714Y-105367953D01*
X147566803Y-105302307D01*
X147576330Y-105270900D01*
X147937500Y-105270900D01*
X148077000Y-105410400D01*
X149033900Y-105410400D01*
X149033900Y-104853500D01*
X149287100Y-104853500D01*
X149287100Y-105410400D01*
X150244000Y-105410400D01*
X150383500Y-105270900D01*
X150375362Y-105162292D01*
X150343394Y-105057128D01*
X150291523Y-104960220D01*
X150221744Y-104875294D01*
X150136737Y-104805614D01*
X150039769Y-104753856D01*
X149934567Y-104722010D01*
X149825173Y-104711300D01*
X149426600Y-104714000D01*
X149287100Y-104853500D01*
X149033900Y-104853500D01*
X148894400Y-104714000D01*
X148495827Y-104711300D01*
X148386433Y-104722010D01*
X148281231Y-104753856D01*
X148184263Y-104805614D01*
X148099256Y-104875294D01*
X148029477Y-104960220D01*
X147977606Y-105057128D01*
X147945638Y-105162292D01*
X147937500Y-105270900D01*
X147576330Y-105270900D01*
X147588410Y-105231077D01*
X147595706Y-105157000D01*
X147595706Y-104685600D01*
X151178233Y-104685600D01*
X151055742Y-104808091D01*
X151042258Y-104819157D01*
X151031192Y-104832641D01*
X151031190Y-104832643D01*
X150998070Y-104873000D01*
X150977983Y-104910581D01*
X150965236Y-104934428D01*
X150945017Y-105001081D01*
X150945017Y-105001083D01*
X150938190Y-105070399D01*
X150939900Y-105087761D01*
X150939899Y-107181138D01*
X150055206Y-108065831D01*
X150055206Y-107812000D01*
X150050792Y-107767187D01*
X150037721Y-107724095D01*
X150016494Y-107684382D01*
X149987927Y-107649573D01*
X149953118Y-107621006D01*
X149913405Y-107599779D01*
X149870313Y-107586708D01*
X149825500Y-107582294D01*
X148495500Y-107582294D01*
X148450687Y-107586708D01*
X148407595Y-107599779D01*
X148367882Y-107621006D01*
X148333073Y-107649573D01*
X148304506Y-107684382D01*
X148283279Y-107724095D01*
X148270208Y-107767187D01*
X148265794Y-107812000D01*
X148265794Y-108342000D01*
X148270208Y-108386813D01*
X148283279Y-108429905D01*
X148304506Y-108469618D01*
X148333073Y-108504427D01*
X148367882Y-108532994D01*
X148407595Y-108554221D01*
X148450687Y-108567292D01*
X148495500Y-108571706D01*
X149549331Y-108571706D01*
X149192637Y-108928400D01*
X147595706Y-108928400D01*
X147595706Y-108457000D01*
X147588410Y-108382923D01*
X147566803Y-108311693D01*
X147531714Y-108246047D01*
X147484493Y-108188507D01*
X147426953Y-108141286D01*
X147361307Y-108106197D01*
X147290077Y-108084590D01*
X147216000Y-108077294D01*
X146916000Y-108077294D01*
X146841923Y-108084590D01*
X146770693Y-108106197D01*
X146705047Y-108141286D01*
X146647507Y-108188507D01*
X146600286Y-108246047D01*
X146565197Y-108311693D01*
X146543590Y-108382923D01*
X146536294Y-108457000D01*
X146536294Y-110107000D01*
X146543590Y-110181077D01*
X146565197Y-110252307D01*
X146600286Y-110317953D01*
X146647507Y-110375493D01*
X146705047Y-110422714D01*
X146770693Y-110457803D01*
X146841923Y-110479410D01*
X146916000Y-110486706D01*
X147216000Y-110486706D01*
X147290077Y-110479410D01*
X147361307Y-110457803D01*
X147426953Y-110422714D01*
X147484493Y-110375493D01*
X147531714Y-110317953D01*
X147566803Y-110252307D01*
X147582761Y-110199697D01*
X153277097Y-110199697D01*
X153340206Y-110848253D01*
X153528628Y-111472036D01*
X153835125Y-112047073D01*
X153839461Y-112053562D01*
X154261574Y-112364086D01*
X156422061Y-110203600D01*
X156780139Y-110203600D01*
X158940626Y-112364086D01*
X159362739Y-112053562D01*
X159670585Y-111479247D01*
X159860472Y-110855909D01*
X159925103Y-110207503D01*
X159883686Y-109781867D01*
X162542500Y-109781867D01*
X162542500Y-109994333D01*
X162583950Y-110202716D01*
X162665257Y-110399009D01*
X162783297Y-110575667D01*
X162933533Y-110725903D01*
X163110191Y-110843943D01*
X163306484Y-110925250D01*
X163514867Y-110966700D01*
X163727333Y-110966700D01*
X163935716Y-110925250D01*
X164132009Y-110843943D01*
X164308667Y-110725903D01*
X164458903Y-110575667D01*
X164576943Y-110399009D01*
X164658250Y-110202716D01*
X164699700Y-109994333D01*
X164699700Y-109781867D01*
X165082500Y-109781867D01*
X165082500Y-109994333D01*
X165123950Y-110202716D01*
X165205257Y-110399009D01*
X165323297Y-110575667D01*
X165473533Y-110725903D01*
X165650191Y-110843943D01*
X165846484Y-110925250D01*
X166054867Y-110966700D01*
X166267333Y-110966700D01*
X166475716Y-110925250D01*
X166672009Y-110843943D01*
X166830413Y-110738100D01*
X167290400Y-110738100D01*
X167301174Y-110847487D01*
X167333081Y-110952671D01*
X167384895Y-111049608D01*
X167454625Y-111134575D01*
X167539592Y-111204305D01*
X167636529Y-111256119D01*
X167741713Y-111288026D01*
X167851100Y-111298800D01*
X168435000Y-111296100D01*
X168574500Y-111156600D01*
X168574500Y-110014700D01*
X168827700Y-110014700D01*
X168827700Y-111156600D01*
X168967200Y-111296100D01*
X169551100Y-111298800D01*
X169660487Y-111288026D01*
X169765671Y-111256119D01*
X169862608Y-111204305D01*
X169947575Y-111134575D01*
X170017305Y-111049608D01*
X170069119Y-110952671D01*
X170101026Y-110847487D01*
X170111800Y-110738100D01*
X170109100Y-110154200D01*
X169969600Y-110014700D01*
X168827700Y-110014700D01*
X168574500Y-110014700D01*
X167432600Y-110014700D01*
X167293100Y-110154200D01*
X167290400Y-110738100D01*
X166830413Y-110738100D01*
X166848667Y-110725903D01*
X166998903Y-110575667D01*
X167116943Y-110399009D01*
X167198250Y-110202716D01*
X167239700Y-109994333D01*
X167239700Y-109781867D01*
X167198250Y-109573484D01*
X167116943Y-109377191D01*
X166998903Y-109200533D01*
X166848667Y-109050297D01*
X166830414Y-109038100D01*
X167290400Y-109038100D01*
X167293100Y-109622000D01*
X167432600Y-109761500D01*
X168574500Y-109761500D01*
X168574500Y-108619600D01*
X168827700Y-108619600D01*
X168827700Y-109761500D01*
X169969600Y-109761500D01*
X170109100Y-109622000D01*
X170111800Y-109038100D01*
X170101026Y-108928713D01*
X170069119Y-108823529D01*
X170017305Y-108726592D01*
X169947575Y-108641625D01*
X169862608Y-108571895D01*
X169765671Y-108520081D01*
X169660487Y-108488174D01*
X169551100Y-108477400D01*
X168967200Y-108480100D01*
X168827700Y-108619600D01*
X168574500Y-108619600D01*
X168435000Y-108480100D01*
X167851100Y-108477400D01*
X167741713Y-108488174D01*
X167636529Y-108520081D01*
X167539592Y-108571895D01*
X167454625Y-108641625D01*
X167384895Y-108726592D01*
X167333081Y-108823529D01*
X167301174Y-108928713D01*
X167290400Y-109038100D01*
X166830414Y-109038100D01*
X166672009Y-108932257D01*
X166475716Y-108850950D01*
X166267333Y-108809500D01*
X166054867Y-108809500D01*
X165846484Y-108850950D01*
X165650191Y-108932257D01*
X165473533Y-109050297D01*
X165323297Y-109200533D01*
X165205257Y-109377191D01*
X165123950Y-109573484D01*
X165082500Y-109781867D01*
X164699700Y-109781867D01*
X164658250Y-109573484D01*
X164576943Y-109377191D01*
X164458903Y-109200533D01*
X164308667Y-109050297D01*
X164132009Y-108932257D01*
X163935716Y-108850950D01*
X163727333Y-108809500D01*
X163514867Y-108809500D01*
X163306484Y-108850950D01*
X163110191Y-108932257D01*
X162933533Y-109050297D01*
X162783297Y-109200533D01*
X162665257Y-109377191D01*
X162583950Y-109573484D01*
X162542500Y-109781867D01*
X159883686Y-109781867D01*
X159861994Y-109558947D01*
X159673572Y-108935164D01*
X159367075Y-108360127D01*
X159362739Y-108353638D01*
X158940626Y-108043114D01*
X156780139Y-110203600D01*
X156422061Y-110203600D01*
X154261574Y-108043114D01*
X153839461Y-108353638D01*
X153531615Y-108927953D01*
X153341728Y-109551291D01*
X153277097Y-110199697D01*
X147582761Y-110199697D01*
X147588410Y-110181077D01*
X147595706Y-110107000D01*
X147595706Y-109635600D01*
X149321750Y-109635600D01*
X149339102Y-109637309D01*
X149356454Y-109635600D01*
X149356464Y-109635600D01*
X149408420Y-109630483D01*
X149475073Y-109610264D01*
X149536502Y-109577429D01*
X149590344Y-109533242D01*
X149601415Y-109519752D01*
X151316518Y-107804649D01*
X151315794Y-107812000D01*
X151315794Y-108342000D01*
X151320208Y-108386813D01*
X151333279Y-108429905D01*
X151354506Y-108469618D01*
X151383073Y-108504427D01*
X151417882Y-108532994D01*
X151457595Y-108554221D01*
X151500687Y-108567292D01*
X151545500Y-108571706D01*
X152875500Y-108571706D01*
X152920313Y-108567292D01*
X152963405Y-108554221D01*
X153003118Y-108532994D01*
X153037927Y-108504427D01*
X153066494Y-108469618D01*
X153087721Y-108429905D01*
X153100792Y-108386813D01*
X153105206Y-108342000D01*
X153105206Y-107864074D01*
X154440614Y-107864074D01*
X156601100Y-110024561D01*
X158761586Y-107864074D01*
X158451062Y-107441961D01*
X157876747Y-107134115D01*
X157858644Y-107128600D01*
X163244650Y-107128600D01*
X163255424Y-107237987D01*
X163287331Y-107343171D01*
X163339145Y-107440108D01*
X163408875Y-107525075D01*
X163493842Y-107594805D01*
X163590779Y-107646619D01*
X163695963Y-107678526D01*
X163805350Y-107689300D01*
X164389250Y-107686600D01*
X164528750Y-107547100D01*
X164528750Y-106405200D01*
X164781950Y-106405200D01*
X164781950Y-107547100D01*
X164921450Y-107686600D01*
X165505350Y-107689300D01*
X165614737Y-107678526D01*
X165719921Y-107646619D01*
X165816858Y-107594805D01*
X165901825Y-107525075D01*
X165971555Y-107440108D01*
X166023369Y-107343171D01*
X166055276Y-107237987D01*
X166066050Y-107128600D01*
X166063350Y-106544700D01*
X165923850Y-106405200D01*
X164781950Y-106405200D01*
X164528750Y-106405200D01*
X163386850Y-106405200D01*
X163247350Y-106544700D01*
X163244650Y-107128600D01*
X157858644Y-107128600D01*
X157253409Y-106944228D01*
X156605003Y-106879597D01*
X155956447Y-106942706D01*
X155332664Y-107131128D01*
X154757627Y-107437625D01*
X154751138Y-107441961D01*
X154440614Y-107864074D01*
X153105206Y-107864074D01*
X153105206Y-107812000D01*
X153100792Y-107767187D01*
X153087721Y-107724095D01*
X153066494Y-107684382D01*
X153037927Y-107649573D01*
X153003118Y-107621006D01*
X152963405Y-107599779D01*
X152920313Y-107586708D01*
X152875500Y-107582294D01*
X151545500Y-107582294D01*
X151539861Y-107582849D01*
X151544740Y-107578845D01*
X151558483Y-107562100D01*
X151588929Y-107525003D01*
X151621762Y-107463575D01*
X151621763Y-107463574D01*
X151641982Y-107396921D01*
X151647099Y-107344965D01*
X151647099Y-107344963D01*
X151648809Y-107327603D01*
X151647099Y-107310243D01*
X151647099Y-107301706D01*
X152875500Y-107301706D01*
X152920313Y-107297292D01*
X152963405Y-107284221D01*
X153003118Y-107262994D01*
X153037927Y-107234427D01*
X153066494Y-107199618D01*
X153087721Y-107159905D01*
X153100792Y-107116813D01*
X153105206Y-107072000D01*
X153105206Y-106542000D01*
X153100792Y-106497187D01*
X153087721Y-106454095D01*
X153066494Y-106414382D01*
X153037927Y-106379573D01*
X153003118Y-106351006D01*
X152963405Y-106329779D01*
X152920313Y-106316708D01*
X152875500Y-106312294D01*
X151647099Y-106312294D01*
X151647099Y-106031706D01*
X152875500Y-106031706D01*
X152920313Y-106027292D01*
X152963405Y-106014221D01*
X153003118Y-105992994D01*
X153037927Y-105964427D01*
X153066494Y-105929618D01*
X153087721Y-105889905D01*
X153100792Y-105846813D01*
X153105206Y-105802000D01*
X153105206Y-105272000D01*
X153100792Y-105227187D01*
X153087721Y-105184095D01*
X153066494Y-105144382D01*
X153037927Y-105109573D01*
X153003118Y-105081006D01*
X152963405Y-105059779D01*
X152920313Y-105046708D01*
X152875500Y-105042294D01*
X151821669Y-105042294D01*
X151867963Y-104996000D01*
X156248900Y-104996000D01*
X156259674Y-105105387D01*
X156291581Y-105210571D01*
X156343395Y-105307508D01*
X156413125Y-105392475D01*
X156498092Y-105462205D01*
X156595029Y-105514019D01*
X156700213Y-105545926D01*
X156809600Y-105556700D01*
X157068500Y-105554000D01*
X157208000Y-105414500D01*
X157208000Y-104647600D01*
X156391100Y-104647600D01*
X156251600Y-104787100D01*
X156248900Y-104996000D01*
X151867963Y-104996000D01*
X152817963Y-104046000D01*
X156248900Y-104046000D01*
X156251600Y-104254900D01*
X156391100Y-104394400D01*
X157208000Y-104394400D01*
X157208000Y-103627500D01*
X157068500Y-103488000D01*
X156809600Y-103485300D01*
X156700213Y-103496074D01*
X156595029Y-103527981D01*
X156498092Y-103579795D01*
X156413125Y-103649525D01*
X156343395Y-103734492D01*
X156291581Y-103831429D01*
X156259674Y-103936613D01*
X156248900Y-104046000D01*
X152817963Y-104046000D01*
X154931319Y-101932645D01*
X155008691Y-101984343D01*
X155204984Y-102065650D01*
X155413367Y-102107100D01*
X155625833Y-102107100D01*
X155834216Y-102065650D01*
X156030509Y-101984343D01*
X156207167Y-101866303D01*
X156357403Y-101716067D01*
X156475443Y-101539409D01*
X156556750Y-101343116D01*
X156598200Y-101134733D01*
X156598200Y-100922267D01*
X156556750Y-100713884D01*
X156475443Y-100517591D01*
X156357403Y-100340933D01*
X156207167Y-100190697D01*
X156030509Y-100072657D01*
X155834216Y-99991350D01*
X155625833Y-99949900D01*
X155467304Y-99949900D01*
X155473103Y-99944101D01*
X156940247Y-99944101D01*
X156957599Y-99945810D01*
X156974951Y-99944101D01*
X156974961Y-99944101D01*
X157026917Y-99938984D01*
X157093570Y-99918765D01*
X157154999Y-99885930D01*
X157208841Y-99841743D01*
X157219912Y-99828253D01*
X157479959Y-99568206D01*
X158808001Y-99568206D01*
X158808001Y-99780033D01*
X158531525Y-100056509D01*
X158374216Y-99991350D01*
X158165833Y-99949900D01*
X157953367Y-99949900D01*
X157744984Y-99991350D01*
X157548691Y-100072657D01*
X157372033Y-100190697D01*
X157221797Y-100340933D01*
X157103757Y-100517591D01*
X157022450Y-100713884D01*
X156981000Y-100922267D01*
X156981000Y-101134733D01*
X157022450Y-101343116D01*
X157103757Y-101539409D01*
X157221797Y-101716067D01*
X157372033Y-101866303D01*
X157548691Y-101984343D01*
X157706000Y-102049503D01*
X157706001Y-103478638D01*
X157705186Y-103486910D01*
X157600700Y-103488000D01*
X157461200Y-103627500D01*
X157461200Y-104394400D01*
X157481200Y-104394400D01*
X157481200Y-104647600D01*
X157461200Y-104647600D01*
X157461200Y-105414500D01*
X157600700Y-105554000D01*
X157859600Y-105556700D01*
X157968987Y-105545926D01*
X158074171Y-105514019D01*
X158171108Y-105462205D01*
X158212056Y-105428600D01*
X163244650Y-105428600D01*
X163247350Y-106012500D01*
X163386850Y-106152000D01*
X164528750Y-106152000D01*
X164528750Y-105010100D01*
X164781950Y-105010100D01*
X164781950Y-106152000D01*
X165923850Y-106152000D01*
X166063350Y-106012500D01*
X166066050Y-105428600D01*
X166055276Y-105319213D01*
X166023369Y-105214029D01*
X165971555Y-105117092D01*
X165901825Y-105032125D01*
X165816858Y-104962395D01*
X165719921Y-104910581D01*
X165614737Y-104878674D01*
X165505350Y-104867900D01*
X164921450Y-104870600D01*
X164781950Y-105010100D01*
X164528750Y-105010100D01*
X164389250Y-104870600D01*
X163805350Y-104867900D01*
X163695963Y-104878674D01*
X163590779Y-104910581D01*
X163493842Y-104962395D01*
X163408875Y-105032125D01*
X163339145Y-105117092D01*
X163287331Y-105214029D01*
X163255424Y-105319213D01*
X163244650Y-105428600D01*
X158212056Y-105428600D01*
X158256075Y-105392475D01*
X158325805Y-105307508D01*
X158377619Y-105210571D01*
X158409526Y-105105387D01*
X158417109Y-105028396D01*
X158466735Y-105088865D01*
X158537534Y-105146968D01*
X158618308Y-105190142D01*
X158705953Y-105216729D01*
X158797100Y-105225706D01*
X159372100Y-105225706D01*
X159463247Y-105216729D01*
X159550892Y-105190142D01*
X159631666Y-105146968D01*
X159702465Y-105088865D01*
X159760568Y-105018066D01*
X159803742Y-104937292D01*
X159830329Y-104849647D01*
X159839306Y-104758500D01*
X159839306Y-104283500D01*
X159830329Y-104192353D01*
X159803742Y-104104708D01*
X159760568Y-104023934D01*
X159702465Y-103953135D01*
X159631666Y-103895032D01*
X159550892Y-103851858D01*
X159463247Y-103825271D01*
X159372100Y-103816294D01*
X158879960Y-103816294D01*
X158413200Y-103349535D01*
X158413200Y-102049502D01*
X158570509Y-101984343D01*
X158747167Y-101866303D01*
X158897403Y-101716067D01*
X159015443Y-101539409D01*
X159080602Y-101382100D01*
X161798785Y-101382100D01*
X163683359Y-103266675D01*
X163618200Y-103423984D01*
X163576750Y-103632367D01*
X163576750Y-103844833D01*
X163618200Y-104053216D01*
X163699507Y-104249509D01*
X163817547Y-104426167D01*
X163967783Y-104576403D01*
X164144441Y-104694443D01*
X164340734Y-104775750D01*
X164549117Y-104817200D01*
X164761583Y-104817200D01*
X164969966Y-104775750D01*
X165166259Y-104694443D01*
X165342917Y-104576403D01*
X165493153Y-104426167D01*
X165611193Y-104249509D01*
X165692500Y-104053216D01*
X165733950Y-103844833D01*
X165733950Y-103632367D01*
X165692500Y-103423984D01*
X165611193Y-103227691D01*
X165493153Y-103051033D01*
X165342917Y-102900797D01*
X165166259Y-102782757D01*
X164969966Y-102701450D01*
X164761583Y-102660000D01*
X164549117Y-102660000D01*
X164340734Y-102701450D01*
X164183425Y-102766609D01*
X162207563Y-100790748D01*
X162196492Y-100777258D01*
X162142650Y-100733071D01*
X162081221Y-100700236D01*
X162014568Y-100680017D01*
X161962612Y-100674900D01*
X161962602Y-100674900D01*
X161945250Y-100673191D01*
X161927898Y-100674900D01*
X159080602Y-100674900D01*
X159031591Y-100556575D01*
X159399363Y-100188803D01*
X159412842Y-100177741D01*
X159423905Y-100164261D01*
X159423910Y-100164256D01*
X159457031Y-100123899D01*
X159489864Y-100062471D01*
X159489865Y-100062470D01*
X159501059Y-100025567D01*
X162560900Y-100025567D01*
X162560900Y-100238033D01*
X162602350Y-100446416D01*
X162683657Y-100642709D01*
X162801697Y-100819367D01*
X162951933Y-100969603D01*
X163128591Y-101087643D01*
X163324884Y-101168950D01*
X163533267Y-101210400D01*
X163745733Y-101210400D01*
X163954116Y-101168950D01*
X164150409Y-101087643D01*
X164327067Y-100969603D01*
X164477303Y-100819367D01*
X164595343Y-100642709D01*
X164676650Y-100446416D01*
X164718100Y-100238033D01*
X164718100Y-100025567D01*
X165100900Y-100025567D01*
X165100900Y-100238033D01*
X165142350Y-100446416D01*
X165223657Y-100642709D01*
X165341697Y-100819367D01*
X165491933Y-100969603D01*
X165668591Y-101087643D01*
X165864884Y-101168950D01*
X166073267Y-101210400D01*
X166285733Y-101210400D01*
X166494116Y-101168950D01*
X166690409Y-101087643D01*
X166848813Y-100981800D01*
X167308800Y-100981800D01*
X167319574Y-101091187D01*
X167351481Y-101196371D01*
X167403295Y-101293308D01*
X167473025Y-101378275D01*
X167557992Y-101448005D01*
X167654929Y-101499819D01*
X167760113Y-101531726D01*
X167869500Y-101542500D01*
X168453400Y-101539800D01*
X168592900Y-101400300D01*
X168592900Y-100258400D01*
X168846100Y-100258400D01*
X168846100Y-101400300D01*
X168985600Y-101539800D01*
X169569500Y-101542500D01*
X169678887Y-101531726D01*
X169784071Y-101499819D01*
X169881008Y-101448005D01*
X169965975Y-101378275D01*
X170035705Y-101293308D01*
X170087519Y-101196371D01*
X170119426Y-101091187D01*
X170130200Y-100981800D01*
X170127500Y-100397900D01*
X169988000Y-100258400D01*
X168846100Y-100258400D01*
X168592900Y-100258400D01*
X167451000Y-100258400D01*
X167311500Y-100397900D01*
X167308800Y-100981800D01*
X166848813Y-100981800D01*
X166867067Y-100969603D01*
X167017303Y-100819367D01*
X167135343Y-100642709D01*
X167216650Y-100446416D01*
X167258100Y-100238033D01*
X167258100Y-100025567D01*
X167216650Y-99817184D01*
X167135343Y-99620891D01*
X167017303Y-99444233D01*
X166867067Y-99293997D01*
X166848814Y-99281800D01*
X167308800Y-99281800D01*
X167311500Y-99865700D01*
X167451000Y-100005200D01*
X168592900Y-100005200D01*
X168592900Y-98863300D01*
X168846100Y-98863300D01*
X168846100Y-100005200D01*
X169988000Y-100005200D01*
X170127500Y-99865700D01*
X170130200Y-99281800D01*
X170119426Y-99172413D01*
X170087519Y-99067229D01*
X170035705Y-98970292D01*
X169965975Y-98885325D01*
X169881008Y-98815595D01*
X169784071Y-98763781D01*
X169678887Y-98731874D01*
X169569500Y-98721100D01*
X168985600Y-98723800D01*
X168846100Y-98863300D01*
X168592900Y-98863300D01*
X168453400Y-98723800D01*
X167869500Y-98721100D01*
X167760113Y-98731874D01*
X167654929Y-98763781D01*
X167557992Y-98815595D01*
X167473025Y-98885325D01*
X167403295Y-98970292D01*
X167351481Y-99067229D01*
X167319574Y-99172413D01*
X167308800Y-99281800D01*
X166848814Y-99281800D01*
X166690409Y-99175957D01*
X166494116Y-99094650D01*
X166285733Y-99053200D01*
X166073267Y-99053200D01*
X165864884Y-99094650D01*
X165668591Y-99175957D01*
X165491933Y-99293997D01*
X165341697Y-99444233D01*
X165223657Y-99620891D01*
X165142350Y-99817184D01*
X165100900Y-100025567D01*
X164718100Y-100025567D01*
X164676650Y-99817184D01*
X164595343Y-99620891D01*
X164477303Y-99444233D01*
X164327067Y-99293997D01*
X164150409Y-99175957D01*
X163954116Y-99094650D01*
X163745733Y-99053200D01*
X163533267Y-99053200D01*
X163324884Y-99094650D01*
X163128591Y-99175957D01*
X162951933Y-99293997D01*
X162801697Y-99444233D01*
X162683657Y-99620891D01*
X162602350Y-99817184D01*
X162560900Y-100025567D01*
X159501059Y-100025567D01*
X159510084Y-99995817D01*
X159515201Y-99943861D01*
X159515201Y-99943859D01*
X159516911Y-99926499D01*
X159515201Y-99909139D01*
X159515201Y-97454250D01*
X159516910Y-97436898D01*
X159515201Y-97419546D01*
X159515201Y-97419537D01*
X159510084Y-97367581D01*
X159489865Y-97300928D01*
X159457030Y-97239499D01*
X159412843Y-97185657D01*
X159399353Y-97174586D01*
X159373514Y-97148747D01*
X159362443Y-97135257D01*
X159308601Y-97091070D01*
X159247172Y-97058235D01*
X159180519Y-97038016D01*
X159128563Y-97032899D01*
X159128553Y-97032899D01*
X159111201Y-97031190D01*
X159093849Y-97032899D01*
X149860752Y-97032899D01*
X149843400Y-97031190D01*
X149826048Y-97032899D01*
X149826039Y-97032899D01*
X149774083Y-97038016D01*
X149707430Y-97058235D01*
X149659948Y-97083615D01*
X149646001Y-97091070D01*
X149609757Y-97120815D01*
X149592159Y-97135257D01*
X149581093Y-97148742D01*
X149528040Y-97201794D01*
X149280900Y-97201794D01*
X149204872Y-97209282D01*
X149131766Y-97231459D01*
X149064391Y-97267471D01*
X149005336Y-97315936D01*
X148956871Y-97374991D01*
X148920859Y-97442366D01*
X148898682Y-97515472D01*
X148891194Y-97591500D01*
X148891194Y-97838640D01*
X148009218Y-98720617D01*
X147995734Y-98731683D01*
X147984668Y-98745167D01*
X147984666Y-98745169D01*
X147951546Y-98785526D01*
X147918712Y-98846954D01*
X147898493Y-98913607D01*
X147898493Y-98913609D01*
X147891666Y-98982925D01*
X147893376Y-99000287D01*
X147893375Y-99575788D01*
X146059235Y-97741648D01*
X146048164Y-97728158D01*
X145994322Y-97683971D01*
X145932893Y-97651136D01*
X145866240Y-97630917D01*
X145814284Y-97625800D01*
X145814274Y-97625800D01*
X145796922Y-97624091D01*
X145779570Y-97625800D01*
X142035806Y-97625800D01*
X142035806Y-97579300D01*
X142026591Y-97485734D01*
X141999298Y-97395763D01*
X141954978Y-97312845D01*
X141895333Y-97240167D01*
X141822655Y-97180522D01*
X141739737Y-97136202D01*
X141649766Y-97108909D01*
X141556200Y-97099694D01*
X141006000Y-97099694D01*
X140912434Y-97108909D01*
X140911084Y-97109319D01*
X140641403Y-96839638D01*
X140630332Y-96826148D01*
X140576490Y-96781961D01*
X140515061Y-96749126D01*
X140448408Y-96728907D01*
X140396452Y-96723790D01*
X140396442Y-96723790D01*
X140379090Y-96722081D01*
X140361738Y-96723790D01*
X137191773Y-96723790D01*
X137179665Y-96709036D01*
X137108866Y-96650933D01*
X137028092Y-96607759D01*
X136940447Y-96581172D01*
X136849300Y-96572195D01*
X136274300Y-96572195D01*
X136183153Y-96581172D01*
X136095508Y-96607759D01*
X136014734Y-96650933D01*
X135943935Y-96709036D01*
X135885832Y-96779835D01*
X135842658Y-96860609D01*
X135816071Y-96948254D01*
X135807094Y-97039401D01*
X135807094Y-97514401D01*
X135816071Y-97605548D01*
X135842658Y-97693193D01*
X135885832Y-97773967D01*
X135943935Y-97844766D01*
X136014734Y-97902869D01*
X136095508Y-97946043D01*
X136183153Y-97972630D01*
X136274300Y-97981607D01*
X136849300Y-97981607D01*
X136940447Y-97972630D01*
X137028092Y-97946043D01*
X137108866Y-97902869D01*
X137179665Y-97844766D01*
X137237768Y-97773967D01*
X137280942Y-97693193D01*
X137307529Y-97605548D01*
X137316506Y-97514401D01*
X137316506Y-97430990D01*
X138113695Y-97430990D01*
X138111473Y-97433697D01*
X138041496Y-97564615D01*
X137998404Y-97706669D01*
X137987500Y-97817381D01*
X137987500Y-98141418D01*
X137998404Y-98252130D01*
X138041496Y-98394184D01*
X138111473Y-98525102D01*
X138205646Y-98639854D01*
X138320397Y-98734027D01*
X138337501Y-98743169D01*
X138337500Y-99623756D01*
X138251243Y-99659485D01*
X138099152Y-99761109D01*
X137969809Y-99890452D01*
X137868185Y-100042543D01*
X137798186Y-100211537D01*
X137762500Y-100390941D01*
X137762500Y-100573859D01*
X137786989Y-100696974D01*
X137373273Y-100283258D01*
X137373270Y-100283254D01*
X137314969Y-100224953D01*
X137316506Y-100209350D01*
X137316506Y-99734350D01*
X137307529Y-99643203D01*
X137280942Y-99555558D01*
X137237768Y-99474784D01*
X137179665Y-99403985D01*
X137108866Y-99345882D01*
X137028092Y-99302708D01*
X136940447Y-99276121D01*
X136849300Y-99267144D01*
X136274300Y-99267144D01*
X136183153Y-99276121D01*
X136095508Y-99302708D01*
X136014734Y-99345882D01*
X135943935Y-99403985D01*
X135885832Y-99474784D01*
X135842658Y-99555558D01*
X135816071Y-99643203D01*
X135807094Y-99734350D01*
X135807094Y-100209350D01*
X135816071Y-100300497D01*
X135842658Y-100388142D01*
X135885832Y-100468916D01*
X135943935Y-100539715D01*
X136014734Y-100597818D01*
X136095508Y-100640992D01*
X136183153Y-100667579D01*
X136274300Y-100676556D01*
X136766440Y-100676556D01*
X136873204Y-100783320D01*
X136873208Y-100783323D01*
X138403084Y-102313200D01*
X137299960Y-102313200D01*
X137280942Y-102250508D01*
X137237768Y-102169734D01*
X137179665Y-102098935D01*
X137108866Y-102040832D01*
X137028092Y-101997658D01*
X136940447Y-101971071D01*
X136849300Y-101962094D01*
X136274300Y-101962094D01*
X136183153Y-101971071D01*
X136095508Y-101997658D01*
X136014734Y-102040832D01*
X135943935Y-102098935D01*
X135885832Y-102169734D01*
X135842658Y-102250508D01*
X135816071Y-102338153D01*
X135807094Y-102429300D01*
X135807094Y-102904300D01*
X135816071Y-102995447D01*
X135842658Y-103083092D01*
X135885832Y-103163866D01*
X135943935Y-103234665D01*
X136014734Y-103292768D01*
X136095508Y-103335942D01*
X136183153Y-103362529D01*
X136274300Y-103371506D01*
X136849300Y-103371506D01*
X136940447Y-103362529D01*
X137028092Y-103335942D01*
X137108866Y-103292768D01*
X137179665Y-103234665D01*
X137237768Y-103163866D01*
X137280942Y-103083092D01*
X137299960Y-103020400D01*
X138700387Y-103020400D01*
X138679795Y-103045492D01*
X138627981Y-103142429D01*
X138596074Y-103247613D01*
X138585300Y-103357000D01*
X138588000Y-104065900D01*
X138727500Y-104205400D01*
X139319400Y-104205400D01*
X139319400Y-104185400D01*
X139572600Y-104185400D01*
X139572600Y-104205400D01*
X139592600Y-104205400D01*
X139592600Y-104458600D01*
X139572600Y-104458600D01*
X139572600Y-104478600D01*
X139319400Y-104478600D01*
X139319400Y-104458600D01*
X138727500Y-104458600D01*
X138588000Y-104598100D01*
X138585300Y-105307000D01*
X138596074Y-105416387D01*
X138627981Y-105521571D01*
X138679795Y-105618508D01*
X138749525Y-105703475D01*
X138834492Y-105773205D01*
X138931429Y-105825019D01*
X139036613Y-105856926D01*
X139125279Y-105865659D01*
X139109500Y-105944988D01*
X139109500Y-106068812D01*
X139125392Y-106148708D01*
X139117737Y-106163029D01*
X139097518Y-106229682D01*
X139096965Y-106235300D01*
X139090691Y-106299000D01*
X139092401Y-106316362D01*
X139092400Y-108137355D01*
X139085047Y-108141286D01*
X139027507Y-108188507D01*
X138980286Y-108246047D01*
X138945197Y-108311693D01*
X138923590Y-108382923D01*
X138916294Y-108457000D01*
X138916294Y-110107000D01*
X138923590Y-110181077D01*
X138945197Y-110252307D01*
X138980286Y-110317953D01*
X139027507Y-110375493D01*
X139085047Y-110422714D01*
X139150693Y-110457803D01*
X139221923Y-110479410D01*
X139296000Y-110486706D01*
X139596000Y-110486706D01*
X139670077Y-110479410D01*
X139741307Y-110457803D01*
X139806953Y-110422714D01*
X139864493Y-110375493D01*
X139911714Y-110317953D01*
X139946803Y-110252307D01*
X139968410Y-110181077D01*
X139975706Y-110107000D01*
X139975706Y-108457000D01*
X139968410Y-108382923D01*
X139946803Y-108311693D01*
X139911714Y-108246047D01*
X139864493Y-108188507D01*
X139806953Y-108141286D01*
X139799600Y-108137356D01*
X139799600Y-106635500D01*
X139800012Y-106635500D01*
X139921456Y-106611344D01*
X140035854Y-106563959D01*
X140138809Y-106495166D01*
X140226366Y-106407609D01*
X140295159Y-106304654D01*
X140342544Y-106190256D01*
X140366700Y-106068812D01*
X140366700Y-105944988D01*
X140342544Y-105823544D01*
X140295159Y-105709146D01*
X140226366Y-105606191D01*
X140221428Y-105601253D01*
X140264019Y-105521571D01*
X140294336Y-105421629D01*
X140297507Y-105425493D01*
X140355047Y-105472714D01*
X140420693Y-105507803D01*
X140491923Y-105529410D01*
X140566000Y-105536706D01*
X140866000Y-105536706D01*
X140940077Y-105529410D01*
X141011307Y-105507803D01*
X141076953Y-105472714D01*
X141134493Y-105425493D01*
X141181714Y-105367953D01*
X141216803Y-105302307D01*
X141238410Y-105231077D01*
X141245706Y-105157000D01*
X141245706Y-103507000D01*
X141238410Y-103432923D01*
X141216803Y-103361693D01*
X141181714Y-103296047D01*
X141134493Y-103238507D01*
X141076953Y-103191286D01*
X141011307Y-103156197D01*
X141007751Y-103155118D01*
X141004231Y-103150829D01*
X140978309Y-103119243D01*
X140978304Y-103119238D01*
X140967241Y-103105758D01*
X140953762Y-103094696D01*
X140502455Y-102643390D01*
X140772325Y-102643390D01*
X141487089Y-103358154D01*
X141485197Y-103361693D01*
X141463590Y-103432923D01*
X141456294Y-103507000D01*
X141456294Y-105157000D01*
X141463590Y-105231077D01*
X141485197Y-105302307D01*
X141520286Y-105367953D01*
X141567507Y-105425493D01*
X141625047Y-105472714D01*
X141690693Y-105507803D01*
X141761923Y-105529410D01*
X141836000Y-105536706D01*
X141930141Y-105536706D01*
X143844953Y-107451519D01*
X143833900Y-107507088D01*
X143833900Y-107512061D01*
X143813059Y-107461746D01*
X143744266Y-107358791D01*
X143656709Y-107271234D01*
X143553754Y-107202441D01*
X143439356Y-107155056D01*
X143317912Y-107130900D01*
X143194088Y-107130900D01*
X143072644Y-107155056D01*
X142958246Y-107202441D01*
X142855291Y-107271234D01*
X142767734Y-107358791D01*
X142698941Y-107461746D01*
X142651556Y-107576144D01*
X142627400Y-107697588D01*
X142627400Y-107821412D01*
X142651556Y-107942856D01*
X142698941Y-108057254D01*
X142767734Y-108160209D01*
X142818812Y-108211287D01*
X142790286Y-108246047D01*
X142755197Y-108311693D01*
X142733590Y-108382923D01*
X142726294Y-108457000D01*
X142726294Y-110107000D01*
X142733590Y-110181077D01*
X142755197Y-110252307D01*
X142790286Y-110317953D01*
X142837507Y-110375493D01*
X142895047Y-110422714D01*
X142960693Y-110457803D01*
X143031923Y-110479410D01*
X143106000Y-110486706D01*
X143406000Y-110486706D01*
X143480077Y-110479410D01*
X143551307Y-110457803D01*
X143616953Y-110422714D01*
X143674493Y-110375493D01*
X143721714Y-110317953D01*
X143756803Y-110252307D01*
X143778410Y-110181077D01*
X143785706Y-110107000D01*
X143785706Y-108457000D01*
X143778410Y-108382923D01*
X143756803Y-108311693D01*
X143721714Y-108246047D01*
X143693188Y-108211287D01*
X143744266Y-108160209D01*
X143813059Y-108057254D01*
X143860444Y-107942856D01*
X143884600Y-107821412D01*
X143884600Y-107816439D01*
X143905441Y-107866754D01*
X143974234Y-107969709D01*
X144061791Y-108057266D01*
X144164746Y-108126059D01*
X144180965Y-108132777D01*
X144165047Y-108141286D01*
X144107507Y-108188507D01*
X144060286Y-108246047D01*
X144025197Y-108311693D01*
X144003590Y-108382923D01*
X143996294Y-108457000D01*
X143996294Y-110107000D01*
X144003590Y-110181077D01*
X144025197Y-110252307D01*
X144060286Y-110317953D01*
X144107507Y-110375493D01*
X144165047Y-110422714D01*
X144172400Y-110426644D01*
X144172401Y-111885611D01*
X144078803Y-111745533D01*
X143928567Y-111595297D01*
X143751909Y-111477257D01*
X143555616Y-111395950D01*
X143347233Y-111354500D01*
X143134767Y-111354500D01*
X142926384Y-111395950D01*
X142769075Y-111461109D01*
X142339600Y-111031635D01*
X142339600Y-110426644D01*
X142346953Y-110422714D01*
X142404493Y-110375493D01*
X142451714Y-110317953D01*
X142486803Y-110252307D01*
X142508410Y-110181077D01*
X142515706Y-110107000D01*
X142515706Y-108457000D01*
X142508410Y-108382923D01*
X142486803Y-108311693D01*
X142451714Y-108246047D01*
X142404493Y-108188507D01*
X142346953Y-108141286D01*
X142281307Y-108106197D01*
X142210077Y-108084590D01*
X142136000Y-108077294D01*
X141836000Y-108077294D01*
X141761923Y-108084590D01*
X141690693Y-108106197D01*
X141625047Y-108141286D01*
X141567507Y-108188507D01*
X141520286Y-108246047D01*
X141485197Y-108311693D01*
X141463590Y-108382923D01*
X141456294Y-108457000D01*
X141456294Y-110107000D01*
X141463590Y-110181077D01*
X141485197Y-110252307D01*
X141520286Y-110317953D01*
X141567507Y-110375493D01*
X141625047Y-110422714D01*
X141632401Y-110426645D01*
X141632401Y-111160738D01*
X141630691Y-111178100D01*
X141632401Y-111195462D01*
X141637518Y-111247418D01*
X141652286Y-111296100D01*
X141657737Y-111314071D01*
X141686846Y-111368529D01*
X141690572Y-111375500D01*
X141734759Y-111429342D01*
X141748243Y-111440408D01*
X142269009Y-111961175D01*
X142203850Y-112118484D01*
X142162400Y-112326867D01*
X142162400Y-112539333D01*
X142203850Y-112747716D01*
X142285157Y-112944009D01*
X142403197Y-113120667D01*
X142553433Y-113270903D01*
X142730091Y-113388943D01*
X142926384Y-113470250D01*
X143134767Y-113511700D01*
X143293297Y-113511700D01*
X143139796Y-113665201D01*
X138063011Y-113665201D01*
X138060850Y-113257900D01*
X137921350Y-113118400D01*
X136979450Y-113118400D01*
X136979450Y-113138400D01*
X136726250Y-113138400D01*
X136726250Y-113118400D01*
X135784350Y-113118400D01*
X135644850Y-113257900D01*
X135642689Y-113665201D01*
X133232556Y-113665201D01*
X133232556Y-112216800D01*
X135642150Y-112216800D01*
X135644850Y-112725700D01*
X135784350Y-112865200D01*
X136726250Y-112865200D01*
X136726250Y-111798300D01*
X136979450Y-111798300D01*
X136979450Y-112865200D01*
X137921350Y-112865200D01*
X138060850Y-112725700D01*
X138062966Y-112326867D01*
X139622400Y-112326867D01*
X139622400Y-112539333D01*
X139663850Y-112747716D01*
X139745157Y-112944009D01*
X139863197Y-113120667D01*
X140013433Y-113270903D01*
X140190091Y-113388943D01*
X140386384Y-113470250D01*
X140594767Y-113511700D01*
X140807233Y-113511700D01*
X141015616Y-113470250D01*
X141211909Y-113388943D01*
X141388567Y-113270903D01*
X141538803Y-113120667D01*
X141656843Y-112944009D01*
X141738150Y-112747716D01*
X141779600Y-112539333D01*
X141779600Y-112326867D01*
X141738150Y-112118484D01*
X141656843Y-111922191D01*
X141538803Y-111745533D01*
X141388567Y-111595297D01*
X141211909Y-111477257D01*
X141069600Y-111418311D01*
X141069600Y-110426644D01*
X141076953Y-110422714D01*
X141134493Y-110375493D01*
X141181714Y-110317953D01*
X141216803Y-110252307D01*
X141238410Y-110181077D01*
X141245706Y-110107000D01*
X141245706Y-108457000D01*
X141238410Y-108382923D01*
X141216803Y-108311693D01*
X141181714Y-108246047D01*
X141134493Y-108188507D01*
X141076953Y-108141286D01*
X141011307Y-108106197D01*
X140940077Y-108084590D01*
X140866000Y-108077294D01*
X140566000Y-108077294D01*
X140491923Y-108084590D01*
X140420693Y-108106197D01*
X140355047Y-108141286D01*
X140297507Y-108188507D01*
X140250286Y-108246047D01*
X140215197Y-108311693D01*
X140193590Y-108382923D01*
X140186294Y-108457000D01*
X140186294Y-110107000D01*
X140193590Y-110181077D01*
X140215197Y-110252307D01*
X140250286Y-110317953D01*
X140297507Y-110375493D01*
X140355047Y-110422714D01*
X140362400Y-110426645D01*
X140362401Y-111405884D01*
X140190091Y-111477257D01*
X140013433Y-111595297D01*
X139863197Y-111745533D01*
X139745157Y-111922191D01*
X139663850Y-112118484D01*
X139622400Y-112326867D01*
X138062966Y-112326867D01*
X138063550Y-112216800D01*
X138052776Y-112107413D01*
X138020869Y-112002229D01*
X137969055Y-111905292D01*
X137899325Y-111820325D01*
X137814358Y-111750595D01*
X137717421Y-111698781D01*
X137612237Y-111666874D01*
X137502850Y-111656100D01*
X137118950Y-111658800D01*
X136979450Y-111798300D01*
X136726250Y-111798300D01*
X136586750Y-111658800D01*
X136202850Y-111656100D01*
X136093463Y-111666874D01*
X135988279Y-111698781D01*
X135891342Y-111750595D01*
X135806375Y-111820325D01*
X135736645Y-111905292D01*
X135684831Y-112002229D01*
X135652924Y-112107413D01*
X135642150Y-112216800D01*
X133232556Y-112216800D01*
X133228142Y-112171987D01*
X133215071Y-112128895D01*
X133193844Y-112089182D01*
X133165277Y-112054373D01*
X133130468Y-112025806D01*
X133090755Y-112004579D01*
X133047663Y-111991508D01*
X133002850Y-111987094D01*
X132868881Y-111987094D01*
X132885766Y-111970209D01*
X132954559Y-111867254D01*
X133001944Y-111752856D01*
X133026100Y-111631412D01*
X133026100Y-111507588D01*
X133001944Y-111386144D01*
X132954559Y-111271746D01*
X132885766Y-111168791D01*
X132798209Y-111081234D01*
X132695254Y-111012441D01*
X132580856Y-110965056D01*
X132459412Y-110940900D01*
X132335588Y-110940900D01*
X132214144Y-110965056D01*
X132099746Y-111012441D01*
X131996791Y-111081234D01*
X131909234Y-111168791D01*
X131840441Y-111271746D01*
X131793056Y-111386144D01*
X131768900Y-111507588D01*
X131768900Y-111631412D01*
X131793056Y-111752856D01*
X131840441Y-111867254D01*
X131909234Y-111970209D01*
X131926119Y-111987094D01*
X131702850Y-111987094D01*
X131658037Y-111991508D01*
X131614945Y-112004579D01*
X131575232Y-112025806D01*
X131540423Y-112054373D01*
X131511856Y-112089182D01*
X131490629Y-112128895D01*
X131477558Y-112171987D01*
X131473144Y-112216800D01*
X131473144Y-113665201D01*
X130575866Y-113665201D01*
X130282106Y-113371441D01*
X130282106Y-112216800D01*
X130277692Y-112171987D01*
X130264621Y-112128895D01*
X130243394Y-112089182D01*
X130214827Y-112054373D01*
X130180018Y-112025806D01*
X130140305Y-112004579D01*
X130097213Y-111991508D01*
X130052400Y-111987094D01*
X128752400Y-111987094D01*
X128707587Y-111991508D01*
X128664495Y-112004579D01*
X128624782Y-112025806D01*
X128589973Y-112054373D01*
X128561406Y-112089182D01*
X128540179Y-112128895D01*
X128527108Y-112171987D01*
X128522694Y-112216800D01*
X126113100Y-112216800D01*
X126102326Y-112107413D01*
X126070419Y-112002229D01*
X126018605Y-111905292D01*
X125948875Y-111820325D01*
X125863908Y-111750595D01*
X125766971Y-111698781D01*
X125661787Y-111666874D01*
X125552400Y-111656100D01*
X125168500Y-111658800D01*
X125029000Y-111798300D01*
X124775800Y-111798300D01*
X124636300Y-111658800D01*
X124252400Y-111656100D01*
X124143013Y-111666874D01*
X124037829Y-111698781D01*
X123940892Y-111750595D01*
X123855925Y-111820325D01*
X123786195Y-111905292D01*
X123734381Y-112002229D01*
X123702474Y-112107413D01*
X123691700Y-112216800D01*
X123627701Y-112216800D01*
X123627701Y-105816800D01*
X123691700Y-105816800D01*
X123702474Y-105926187D01*
X123734381Y-106031371D01*
X123786195Y-106128308D01*
X123855925Y-106213275D01*
X123940892Y-106283005D01*
X124037829Y-106334819D01*
X124143013Y-106366726D01*
X124252400Y-106377500D01*
X124636300Y-106374800D01*
X124775800Y-106235300D01*
X124775800Y-105168400D01*
X125029000Y-105168400D01*
X125029000Y-106235300D01*
X125168500Y-106374800D01*
X125552400Y-106377500D01*
X125661787Y-106366726D01*
X125766971Y-106334819D01*
X125863908Y-106283005D01*
X125948875Y-106213275D01*
X126018605Y-106128308D01*
X126070419Y-106031371D01*
X126102326Y-105926187D01*
X126113100Y-105816800D01*
X126110400Y-105307900D01*
X125970900Y-105168400D01*
X125029000Y-105168400D01*
X124775800Y-105168400D01*
X123833900Y-105168400D01*
X123694400Y-105307900D01*
X123691700Y-105816800D01*
X123627701Y-105816800D01*
X123627701Y-104266800D01*
X123691700Y-104266800D01*
X123694400Y-104775700D01*
X123833900Y-104915200D01*
X124775800Y-104915200D01*
X124775800Y-103848300D01*
X125029000Y-103848300D01*
X125029000Y-104915200D01*
X125970900Y-104915200D01*
X126110400Y-104775700D01*
X126113100Y-104266800D01*
X128522694Y-104266800D01*
X128522694Y-105816800D01*
X128527108Y-105861613D01*
X128540179Y-105904705D01*
X128561406Y-105944418D01*
X128589973Y-105979227D01*
X128624782Y-106007794D01*
X128664495Y-106029021D01*
X128707587Y-106042092D01*
X128752400Y-106046506D01*
X130052400Y-106046506D01*
X130097213Y-106042092D01*
X130140305Y-106029021D01*
X130180018Y-106007794D01*
X130214827Y-105979227D01*
X130243394Y-105944418D01*
X130264621Y-105904705D01*
X130277692Y-105861613D01*
X130282106Y-105816800D01*
X130282106Y-104266800D01*
X131473144Y-104266800D01*
X131473144Y-105816800D01*
X131477558Y-105861613D01*
X131490629Y-105904705D01*
X131511856Y-105944418D01*
X131540423Y-105979227D01*
X131575232Y-106007794D01*
X131614945Y-106029021D01*
X131658037Y-106042092D01*
X131702850Y-106046506D01*
X133002850Y-106046506D01*
X133047663Y-106042092D01*
X133090755Y-106029021D01*
X133130468Y-106007794D01*
X133165277Y-105979227D01*
X133193844Y-105944418D01*
X133215071Y-105904705D01*
X133228142Y-105861613D01*
X133232556Y-105816800D01*
X135642150Y-105816800D01*
X135652924Y-105926187D01*
X135684831Y-106031371D01*
X135736645Y-106128308D01*
X135806375Y-106213275D01*
X135891342Y-106283005D01*
X135988279Y-106334819D01*
X136093463Y-106366726D01*
X136202850Y-106377500D01*
X136586750Y-106374800D01*
X136726250Y-106235300D01*
X136726250Y-105168400D01*
X136979450Y-105168400D01*
X136979450Y-106235300D01*
X137118950Y-106374800D01*
X137502850Y-106377500D01*
X137612237Y-106366726D01*
X137717421Y-106334819D01*
X137814358Y-106283005D01*
X137899325Y-106213275D01*
X137969055Y-106128308D01*
X138020869Y-106031371D01*
X138052776Y-105926187D01*
X138063550Y-105816800D01*
X138060850Y-105307900D01*
X137921350Y-105168400D01*
X136979450Y-105168400D01*
X136726250Y-105168400D01*
X135784350Y-105168400D01*
X135644850Y-105307900D01*
X135642150Y-105816800D01*
X133232556Y-105816800D01*
X133232556Y-104266800D01*
X135642150Y-104266800D01*
X135644850Y-104775700D01*
X135784350Y-104915200D01*
X136726250Y-104915200D01*
X136726250Y-103848300D01*
X136979450Y-103848300D01*
X136979450Y-104915200D01*
X137921350Y-104915200D01*
X138060850Y-104775700D01*
X138063550Y-104266800D01*
X138052776Y-104157413D01*
X138020869Y-104052229D01*
X137969055Y-103955292D01*
X137899325Y-103870325D01*
X137814358Y-103800595D01*
X137717421Y-103748781D01*
X137612237Y-103716874D01*
X137502850Y-103706100D01*
X137118950Y-103708800D01*
X136979450Y-103848300D01*
X136726250Y-103848300D01*
X136586750Y-103708800D01*
X136202850Y-103706100D01*
X136093463Y-103716874D01*
X135988279Y-103748781D01*
X135891342Y-103800595D01*
X135806375Y-103870325D01*
X135736645Y-103955292D01*
X135684831Y-104052229D01*
X135652924Y-104157413D01*
X135642150Y-104266800D01*
X133232556Y-104266800D01*
X133228142Y-104221987D01*
X133215071Y-104178895D01*
X133193844Y-104139182D01*
X133165277Y-104104373D01*
X133130468Y-104075806D01*
X133090755Y-104054579D01*
X133047663Y-104041508D01*
X133002850Y-104037094D01*
X131702850Y-104037094D01*
X131658037Y-104041508D01*
X131614945Y-104054579D01*
X131575232Y-104075806D01*
X131540423Y-104104373D01*
X131511856Y-104139182D01*
X131490629Y-104178895D01*
X131477558Y-104221987D01*
X131473144Y-104266800D01*
X130282106Y-104266800D01*
X130277692Y-104221987D01*
X130264621Y-104178895D01*
X130243394Y-104139182D01*
X130214827Y-104104373D01*
X130180018Y-104075806D01*
X130140305Y-104054579D01*
X130097213Y-104041508D01*
X130052400Y-104037094D01*
X128752400Y-104037094D01*
X128707587Y-104041508D01*
X128664495Y-104054579D01*
X128624782Y-104075806D01*
X128589973Y-104104373D01*
X128561406Y-104139182D01*
X128540179Y-104178895D01*
X128527108Y-104221987D01*
X128522694Y-104266800D01*
X126113100Y-104266800D01*
X126102326Y-104157413D01*
X126070419Y-104052229D01*
X126018605Y-103955292D01*
X125948875Y-103870325D01*
X125863908Y-103800595D01*
X125766971Y-103748781D01*
X125661787Y-103716874D01*
X125552400Y-103706100D01*
X125168500Y-103708800D01*
X125029000Y-103848300D01*
X124775800Y-103848300D01*
X124636300Y-103708800D01*
X124252400Y-103706100D01*
X124143013Y-103716874D01*
X124037829Y-103748781D01*
X123940892Y-103800595D01*
X123855925Y-103870325D01*
X123786195Y-103955292D01*
X123734381Y-104052229D01*
X123702474Y-104157413D01*
X123691700Y-104266800D01*
X123627701Y-104266800D01*
X123627701Y-102043126D01*
X125640614Y-102043126D01*
X125951138Y-102465239D01*
X126525453Y-102773085D01*
X127148791Y-102962972D01*
X127797197Y-103027603D01*
X128216519Y-102986800D01*
X131212600Y-102986800D01*
X131223374Y-103096187D01*
X131255281Y-103201371D01*
X131307095Y-103298308D01*
X131376825Y-103383275D01*
X131461792Y-103453005D01*
X131558729Y-103504819D01*
X131663913Y-103536726D01*
X131773300Y-103547500D01*
X131864700Y-103544800D01*
X132004200Y-103405300D01*
X132004200Y-102793400D01*
X131354800Y-102793400D01*
X131215300Y-102932900D01*
X131212600Y-102986800D01*
X128216519Y-102986800D01*
X128445753Y-102964494D01*
X129069536Y-102776072D01*
X129644573Y-102469575D01*
X129651062Y-102465239D01*
X129738190Y-102346800D01*
X131212600Y-102346800D01*
X131215300Y-102400700D01*
X131354800Y-102540200D01*
X132004200Y-102540200D01*
X132004200Y-101928300D01*
X132257400Y-101928300D01*
X132257400Y-102540200D01*
X132277400Y-102540200D01*
X132277400Y-102793400D01*
X132257400Y-102793400D01*
X132257400Y-103405300D01*
X132396900Y-103544800D01*
X132488300Y-103547500D01*
X132597687Y-103536726D01*
X132702871Y-103504819D01*
X132799808Y-103453005D01*
X132884775Y-103383275D01*
X132954505Y-103298308D01*
X133006319Y-103201371D01*
X133008067Y-103195608D01*
X133052272Y-103209018D01*
X133128300Y-103216506D01*
X133523300Y-103216506D01*
X133599328Y-103209018D01*
X133672434Y-103186841D01*
X133739809Y-103150829D01*
X133798864Y-103102364D01*
X133847329Y-103043309D01*
X133859574Y-103020400D01*
X134073640Y-103020400D01*
X134092658Y-103083092D01*
X134135832Y-103163866D01*
X134193935Y-103234665D01*
X134264734Y-103292768D01*
X134345508Y-103335942D01*
X134433153Y-103362529D01*
X134524300Y-103371506D01*
X135099300Y-103371506D01*
X135190447Y-103362529D01*
X135278092Y-103335942D01*
X135358866Y-103292768D01*
X135429665Y-103234665D01*
X135487768Y-103163866D01*
X135530942Y-103083092D01*
X135557529Y-102995447D01*
X135566506Y-102904300D01*
X135566506Y-102429300D01*
X135557529Y-102338153D01*
X135530942Y-102250508D01*
X135487768Y-102169734D01*
X135429665Y-102098935D01*
X135358866Y-102040832D01*
X135278092Y-101997658D01*
X135190447Y-101971071D01*
X135099300Y-101962094D01*
X134524300Y-101962094D01*
X134433153Y-101971071D01*
X134345508Y-101997658D01*
X134264734Y-102040832D01*
X134193935Y-102098935D01*
X134135832Y-102169734D01*
X134092658Y-102250508D01*
X134073640Y-102313200D01*
X133859574Y-102313200D01*
X133847329Y-102290291D01*
X133798864Y-102231236D01*
X133739809Y-102182771D01*
X133672434Y-102146759D01*
X133599328Y-102124582D01*
X133523300Y-102117094D01*
X133128300Y-102117094D01*
X133052272Y-102124582D01*
X133008067Y-102137992D01*
X133006319Y-102132229D01*
X132954505Y-102035292D01*
X132884775Y-101950325D01*
X132799808Y-101880595D01*
X132702871Y-101828781D01*
X132597687Y-101796874D01*
X132488300Y-101786100D01*
X132396900Y-101788800D01*
X132257400Y-101928300D01*
X132004200Y-101928300D01*
X131864700Y-101788800D01*
X131773300Y-101786100D01*
X131663913Y-101796874D01*
X131558729Y-101828781D01*
X131461792Y-101880595D01*
X131376825Y-101950325D01*
X131307095Y-102035292D01*
X131255281Y-102132229D01*
X131223374Y-102237413D01*
X131212600Y-102346800D01*
X129738190Y-102346800D01*
X129961586Y-102043126D01*
X127801100Y-99882639D01*
X125640614Y-102043126D01*
X123627701Y-102043126D01*
X123627701Y-99699697D01*
X124477097Y-99699697D01*
X124540206Y-100348253D01*
X124728628Y-100972036D01*
X125035125Y-101547073D01*
X125039461Y-101553562D01*
X125461574Y-101864086D01*
X127622061Y-99703600D01*
X127980139Y-99703600D01*
X130140626Y-101864086D01*
X130562739Y-101553562D01*
X130870585Y-100979247D01*
X131060472Y-100355909D01*
X131066857Y-100291850D01*
X131212600Y-100291850D01*
X131223374Y-100401237D01*
X131255281Y-100506421D01*
X131307095Y-100603358D01*
X131376825Y-100688325D01*
X131461792Y-100758055D01*
X131558729Y-100809869D01*
X131663913Y-100841776D01*
X131773300Y-100852550D01*
X131864700Y-100849850D01*
X132004200Y-100710350D01*
X132004200Y-100098450D01*
X131354800Y-100098450D01*
X131215300Y-100237950D01*
X131212600Y-100291850D01*
X131066857Y-100291850D01*
X131125103Y-99707503D01*
X131119688Y-99651850D01*
X131212600Y-99651850D01*
X131215300Y-99705750D01*
X131354800Y-99845250D01*
X132004200Y-99845250D01*
X132004200Y-99233350D01*
X132257400Y-99233350D01*
X132257400Y-99845250D01*
X132277400Y-99845250D01*
X132277400Y-100098450D01*
X132257400Y-100098450D01*
X132257400Y-100710350D01*
X132396900Y-100849850D01*
X132488300Y-100852550D01*
X132597687Y-100841776D01*
X132702871Y-100809869D01*
X132799808Y-100758055D01*
X132884775Y-100688325D01*
X132954505Y-100603358D01*
X133006319Y-100506421D01*
X133008067Y-100500658D01*
X133052272Y-100514068D01*
X133128300Y-100521556D01*
X133523300Y-100521556D01*
X133599328Y-100514068D01*
X133672434Y-100491891D01*
X133739809Y-100455879D01*
X133798864Y-100407414D01*
X133847329Y-100348359D01*
X133859574Y-100325450D01*
X134073640Y-100325450D01*
X134092658Y-100388142D01*
X134135832Y-100468916D01*
X134193935Y-100539715D01*
X134264734Y-100597818D01*
X134345508Y-100640992D01*
X134433153Y-100667579D01*
X134524300Y-100676556D01*
X135099300Y-100676556D01*
X135190447Y-100667579D01*
X135278092Y-100640992D01*
X135358866Y-100597818D01*
X135429665Y-100539715D01*
X135487768Y-100468916D01*
X135530942Y-100388142D01*
X135557529Y-100300497D01*
X135566506Y-100209350D01*
X135566506Y-99734350D01*
X135557529Y-99643203D01*
X135530942Y-99555558D01*
X135487768Y-99474784D01*
X135429665Y-99403985D01*
X135358866Y-99345882D01*
X135278092Y-99302708D01*
X135190447Y-99276121D01*
X135099300Y-99267144D01*
X134524300Y-99267144D01*
X134433153Y-99276121D01*
X134345508Y-99302708D01*
X134264734Y-99345882D01*
X134193935Y-99403985D01*
X134135832Y-99474784D01*
X134092658Y-99555558D01*
X134073640Y-99618250D01*
X133859574Y-99618250D01*
X133847329Y-99595341D01*
X133798864Y-99536286D01*
X133739809Y-99487821D01*
X133672434Y-99451809D01*
X133599328Y-99429632D01*
X133523300Y-99422144D01*
X133128300Y-99422144D01*
X133052272Y-99429632D01*
X133008067Y-99443042D01*
X133006319Y-99437279D01*
X132954505Y-99340342D01*
X132884775Y-99255375D01*
X132799808Y-99185645D01*
X132702871Y-99133831D01*
X132597687Y-99101924D01*
X132488300Y-99091150D01*
X132396900Y-99093850D01*
X132257400Y-99233350D01*
X132004200Y-99233350D01*
X131864700Y-99093850D01*
X131773300Y-99091150D01*
X131663913Y-99101924D01*
X131558729Y-99133831D01*
X131461792Y-99185645D01*
X131376825Y-99255375D01*
X131307095Y-99340342D01*
X131255281Y-99437279D01*
X131223374Y-99542463D01*
X131212600Y-99651850D01*
X131119688Y-99651850D01*
X131061994Y-99058947D01*
X130873572Y-98435164D01*
X130567075Y-97860127D01*
X130562739Y-97853638D01*
X130213742Y-97596901D01*
X131212600Y-97596901D01*
X131223374Y-97706288D01*
X131255281Y-97811472D01*
X131307095Y-97908409D01*
X131376825Y-97993376D01*
X131461792Y-98063106D01*
X131558729Y-98114920D01*
X131663913Y-98146827D01*
X131773300Y-98157601D01*
X131864700Y-98154901D01*
X132004200Y-98015401D01*
X132004200Y-97403501D01*
X131354800Y-97403501D01*
X131215300Y-97543001D01*
X131212600Y-97596901D01*
X130213742Y-97596901D01*
X130140626Y-97543114D01*
X127980139Y-99703600D01*
X127622061Y-99703600D01*
X125461574Y-97543114D01*
X125039461Y-97853638D01*
X124731615Y-98427953D01*
X124541728Y-99051291D01*
X124477097Y-99699697D01*
X123627701Y-99699697D01*
X123627701Y-97364074D01*
X125640614Y-97364074D01*
X127801100Y-99524561D01*
X129961586Y-97364074D01*
X129662053Y-96956901D01*
X131212600Y-96956901D01*
X131215300Y-97010801D01*
X131354800Y-97150301D01*
X132004200Y-97150301D01*
X132004200Y-96538401D01*
X132257400Y-96538401D01*
X132257400Y-97150301D01*
X132277400Y-97150301D01*
X132277400Y-97403501D01*
X132257400Y-97403501D01*
X132257400Y-98015401D01*
X132396900Y-98154901D01*
X132488300Y-98157601D01*
X132597687Y-98146827D01*
X132702871Y-98114920D01*
X132799808Y-98063106D01*
X132884775Y-97993376D01*
X132954505Y-97908409D01*
X133006319Y-97811472D01*
X133008067Y-97805709D01*
X133052272Y-97819119D01*
X133128300Y-97826607D01*
X133523300Y-97826607D01*
X133599328Y-97819119D01*
X133672434Y-97796942D01*
X133739809Y-97760930D01*
X133798864Y-97712465D01*
X133847329Y-97653410D01*
X133859574Y-97630501D01*
X134073640Y-97630501D01*
X134092658Y-97693193D01*
X134135832Y-97773967D01*
X134193935Y-97844766D01*
X134264734Y-97902869D01*
X134345508Y-97946043D01*
X134433153Y-97972630D01*
X134524300Y-97981607D01*
X135099300Y-97981607D01*
X135190447Y-97972630D01*
X135278092Y-97946043D01*
X135358866Y-97902869D01*
X135429665Y-97844766D01*
X135487768Y-97773967D01*
X135530942Y-97693193D01*
X135557529Y-97605548D01*
X135566506Y-97514401D01*
X135566506Y-97039401D01*
X135557529Y-96948254D01*
X135530942Y-96860609D01*
X135487768Y-96779835D01*
X135429665Y-96709036D01*
X135358866Y-96650933D01*
X135278092Y-96607759D01*
X135190447Y-96581172D01*
X135099300Y-96572195D01*
X134524300Y-96572195D01*
X134433153Y-96581172D01*
X134345508Y-96607759D01*
X134264734Y-96650933D01*
X134193935Y-96709036D01*
X134135832Y-96779835D01*
X134092658Y-96860609D01*
X134073640Y-96923301D01*
X133859574Y-96923301D01*
X133847329Y-96900392D01*
X133798864Y-96841337D01*
X133739809Y-96792872D01*
X133672434Y-96756860D01*
X133599328Y-96734683D01*
X133523300Y-96727195D01*
X133128300Y-96727195D01*
X133052272Y-96734683D01*
X133008067Y-96748093D01*
X133006319Y-96742330D01*
X132954505Y-96645393D01*
X132884775Y-96560426D01*
X132799808Y-96490696D01*
X132702871Y-96438882D01*
X132597687Y-96406975D01*
X132488300Y-96396201D01*
X132396900Y-96398901D01*
X132257400Y-96538401D01*
X132004200Y-96538401D01*
X131864700Y-96398901D01*
X131773300Y-96396201D01*
X131663913Y-96406975D01*
X131558729Y-96438882D01*
X131461792Y-96490696D01*
X131376825Y-96560426D01*
X131307095Y-96645393D01*
X131255281Y-96742330D01*
X131223374Y-96847514D01*
X131212600Y-96956901D01*
X129662053Y-96956901D01*
X129651062Y-96941961D01*
X129076747Y-96634115D01*
X128453409Y-96444228D01*
X127805003Y-96379597D01*
X127156447Y-96442706D01*
X126532664Y-96631128D01*
X125957627Y-96937625D01*
X125951138Y-96941961D01*
X125640614Y-97364074D01*
X123627701Y-97364074D01*
X123627701Y-97009794D01*
X123663976Y-96639840D01*
X123769616Y-96289937D01*
X123941212Y-95967214D01*
X124172220Y-95683970D01*
X124453850Y-95450984D01*
X124775364Y-95277142D01*
X125124524Y-95169059D01*
X125493991Y-95130227D01*
X125501259Y-95130201D01*
X171494906Y-95130201D01*
X171864860Y-95166476D01*
%TA.AperFunction,Conductor*%
D22*
G36*
X171864860Y-95166476D02*
G01*
X172214763Y-95272116D01*
X172537486Y-95443712D01*
X172820730Y-95674720D01*
X173053716Y-95956350D01*
X173227558Y-96277864D01*
X173335641Y-96627024D01*
X173374473Y-96996491D01*
X173374499Y-97003759D01*
X173374500Y-112997396D01*
X173338224Y-113367361D01*
X173232581Y-113717269D01*
X173060987Y-114039988D01*
X172829975Y-114323235D01*
X172548351Y-114556215D01*
X172226838Y-114730057D01*
X171877676Y-114838141D01*
X171508209Y-114876973D01*
X171500941Y-114876999D01*
X125507294Y-114876999D01*
X125137339Y-114840724D01*
X124787431Y-114735081D01*
X124464712Y-114563487D01*
X124181465Y-114332475D01*
X124170691Y-114319452D01*
X124252400Y-114327500D01*
X124636300Y-114324800D01*
X124775800Y-114185300D01*
X124775800Y-113118400D01*
X125029000Y-113118400D01*
X125029000Y-114185300D01*
X125168500Y-114324800D01*
X125552400Y-114327500D01*
X125661787Y-114316726D01*
X125766971Y-114284819D01*
X125863908Y-114233005D01*
X125948875Y-114163275D01*
X126018605Y-114078308D01*
X126070419Y-113981371D01*
X126102326Y-113876187D01*
X126113100Y-113766800D01*
X126110400Y-113257900D01*
X125970900Y-113118400D01*
X125029000Y-113118400D01*
X124775800Y-113118400D01*
X123833900Y-113118400D01*
X123694400Y-113257900D01*
X123693293Y-113466539D01*
X123666559Y-113380176D01*
X123627727Y-113010709D01*
X123627701Y-113003441D01*
X123627701Y-112216800D01*
X123691700Y-112216800D01*
X123694400Y-112725700D01*
X123833900Y-112865200D01*
X124775800Y-112865200D01*
X124775800Y-111798300D01*
X125029000Y-111798300D01*
X125029000Y-112865200D01*
X125970900Y-112865200D01*
X126110400Y-112725700D01*
X126113100Y-112216800D01*
X128522694Y-112216800D01*
X128522694Y-113766800D01*
X128527108Y-113811613D01*
X128540179Y-113854705D01*
X128561406Y-113894418D01*
X128589973Y-113929227D01*
X128624782Y-113957794D01*
X128664495Y-113979021D01*
X128707587Y-113992092D01*
X128752400Y-113996506D01*
X129907041Y-113996506D01*
X130167088Y-114256553D01*
X130178159Y-114270043D01*
X130198774Y-114286961D01*
X130232001Y-114314231D01*
X130273918Y-114336635D01*
X130293430Y-114347065D01*
X130360083Y-114367284D01*
X130412039Y-114372401D01*
X130412041Y-114372401D01*
X130429401Y-114374111D01*
X130446761Y-114372401D01*
X143268909Y-114372401D01*
X143286261Y-114374110D01*
X143303613Y-114372401D01*
X143303623Y-114372401D01*
X143355579Y-114367284D01*
X143422232Y-114347065D01*
X143483661Y-114314230D01*
X143537503Y-114270043D01*
X143548574Y-114256553D01*
X144388421Y-113416706D01*
X144412981Y-113497671D01*
X144464795Y-113594608D01*
X144534525Y-113679575D01*
X144619492Y-113749305D01*
X144716429Y-113801119D01*
X144821613Y-113833026D01*
X144931000Y-113843800D01*
X145514900Y-113841100D01*
X145654400Y-113701600D01*
X145654400Y-112559700D01*
X145907600Y-112559700D01*
X145907600Y-113701600D01*
X146047100Y-113841100D01*
X146631000Y-113843800D01*
X146740387Y-113833026D01*
X146845571Y-113801119D01*
X146942508Y-113749305D01*
X147027475Y-113679575D01*
X147097205Y-113594608D01*
X147149019Y-113497671D01*
X147180926Y-113392487D01*
X147191700Y-113283100D01*
X147189000Y-112699200D01*
X147049500Y-112559700D01*
X145907600Y-112559700D01*
X145654400Y-112559700D01*
X145634400Y-112559700D01*
X145634400Y-112543126D01*
X154440614Y-112543126D01*
X154751138Y-112965239D01*
X155325453Y-113273085D01*
X155948791Y-113462972D01*
X156597197Y-113527603D01*
X157245753Y-113464494D01*
X157869536Y-113276072D01*
X158444573Y-112969575D01*
X158451062Y-112965239D01*
X158761586Y-112543126D01*
X156601100Y-110382639D01*
X154440614Y-112543126D01*
X145634400Y-112543126D01*
X145634400Y-112306500D01*
X145654400Y-112306500D01*
X145654400Y-111164600D01*
X145907600Y-111164600D01*
X145907600Y-112306500D01*
X147049500Y-112306500D01*
X147189000Y-112167000D01*
X147191700Y-111583100D01*
X147180926Y-111473713D01*
X147149019Y-111368529D01*
X147097205Y-111271592D01*
X147027475Y-111186625D01*
X146942508Y-111116895D01*
X146845571Y-111065081D01*
X146740387Y-111033174D01*
X146631000Y-111022400D01*
X146047100Y-111025100D01*
X145907600Y-111164600D01*
X145654400Y-111164600D01*
X145514900Y-111025100D01*
X144931000Y-111022400D01*
X144879600Y-111027463D01*
X144879600Y-110426644D01*
X144886953Y-110422714D01*
X144944493Y-110375493D01*
X144991714Y-110317953D01*
X145026803Y-110252307D01*
X145048410Y-110181077D01*
X145055706Y-110107000D01*
X145055706Y-109041771D01*
X145266294Y-109252359D01*
X145266294Y-110107000D01*
X145273590Y-110181077D01*
X145295197Y-110252307D01*
X145330286Y-110317953D01*
X145377507Y-110375493D01*
X145435047Y-110422714D01*
X145500693Y-110457803D01*
X145571923Y-110479410D01*
X145646000Y-110486706D01*
X145946000Y-110486706D01*
X146020077Y-110479410D01*
X146091307Y-110457803D01*
X146156953Y-110422714D01*
X146214493Y-110375493D01*
X146261714Y-110317953D01*
X146296803Y-110252307D01*
X146318410Y-110181077D01*
X146325706Y-110107000D01*
X146325706Y-108457000D01*
X146318410Y-108382923D01*
X146296803Y-108311693D01*
X146261714Y-108246047D01*
X146214493Y-108188507D01*
X146156953Y-108141286D01*
X146091307Y-108106197D01*
X146020077Y-108084590D01*
X145946000Y-108077294D01*
X145646000Y-108077294D01*
X145597590Y-108082062D01*
X145597590Y-106745088D01*
X147199400Y-106745088D01*
X147199400Y-106868912D01*
X147223556Y-106990356D01*
X147270941Y-107104754D01*
X147339734Y-107207709D01*
X147427291Y-107295266D01*
X147530246Y-107364059D01*
X147644644Y-107411444D01*
X147766088Y-107435600D01*
X147889912Y-107435600D01*
X148011356Y-107411444D01*
X148125754Y-107364059D01*
X148228709Y-107295266D01*
X148313454Y-107210521D01*
X148333073Y-107234427D01*
X148367882Y-107262994D01*
X148407595Y-107284221D01*
X148450687Y-107297292D01*
X148495500Y-107301706D01*
X149825500Y-107301706D01*
X149870313Y-107297292D01*
X149913405Y-107284221D01*
X149953118Y-107262994D01*
X149987927Y-107234427D01*
X150016494Y-107199618D01*
X150037721Y-107159905D01*
X150050792Y-107116813D01*
X150055206Y-107072000D01*
X150055206Y-106542000D01*
X150050792Y-106497187D01*
X150037721Y-106454095D01*
X150016494Y-106414382D01*
X149987927Y-106379573D01*
X149953118Y-106351006D01*
X149947586Y-106348049D01*
X150039769Y-106320144D01*
X150136737Y-106268386D01*
X150221744Y-106198706D01*
X150291523Y-106113780D01*
X150343394Y-106016872D01*
X150375362Y-105911708D01*
X150383500Y-105803100D01*
X150244000Y-105663600D01*
X149287100Y-105663600D01*
X149287100Y-105683600D01*
X149033900Y-105683600D01*
X149033900Y-105663600D01*
X148077000Y-105663600D01*
X147937500Y-105803100D01*
X147945638Y-105911708D01*
X147977606Y-106016872D01*
X148029477Y-106113780D01*
X148099256Y-106198706D01*
X148184263Y-106268386D01*
X148281231Y-106320144D01*
X148373414Y-106348049D01*
X148367882Y-106351006D01*
X148333073Y-106379573D01*
X148313454Y-106403479D01*
X148228709Y-106318734D01*
X148125754Y-106249941D01*
X148011356Y-106202556D01*
X147889912Y-106178400D01*
X147766088Y-106178400D01*
X147644644Y-106202556D01*
X147530246Y-106249941D01*
X147427291Y-106318734D01*
X147339734Y-106406291D01*
X147270941Y-106509246D01*
X147223556Y-106623644D01*
X147199400Y-106745088D01*
X145597590Y-106745088D01*
X145597590Y-105531938D01*
X145646000Y-105536706D01*
X145946000Y-105536706D01*
X146020077Y-105529410D01*
X146091307Y-105507803D01*
X146156953Y-105472714D01*
X146214493Y-105425493D01*
X146261714Y-105367953D01*
X146296803Y-105302307D01*
X146318410Y-105231077D01*
X146325706Y-105157000D01*
X146325706Y-103507000D01*
X146320938Y-103458590D01*
X146541062Y-103458590D01*
X146536294Y-103507000D01*
X146536294Y-105157000D01*
X146543590Y-105231077D01*
X146565197Y-105302307D01*
X146600286Y-105367953D01*
X146647507Y-105425493D01*
X146705047Y-105472714D01*
X146770693Y-105507803D01*
X146841923Y-105529410D01*
X146916000Y-105536706D01*
X147216000Y-105536706D01*
X147290077Y-105529410D01*
X147361307Y-105507803D01*
X147426953Y-105472714D01*
X147484493Y-105425493D01*
X147531714Y-105367953D01*
X147566803Y-105302307D01*
X147576330Y-105270900D01*
X147937500Y-105270900D01*
X148077000Y-105410400D01*
X149033900Y-105410400D01*
X149033900Y-104853500D01*
X149287100Y-104853500D01*
X149287100Y-105410400D01*
X150244000Y-105410400D01*
X150383500Y-105270900D01*
X150375362Y-105162292D01*
X150343394Y-105057128D01*
X150291523Y-104960220D01*
X150221744Y-104875294D01*
X150136737Y-104805614D01*
X150039769Y-104753856D01*
X149934567Y-104722010D01*
X149825173Y-104711300D01*
X149426600Y-104714000D01*
X149287100Y-104853500D01*
X149033900Y-104853500D01*
X148894400Y-104714000D01*
X148495827Y-104711300D01*
X148386433Y-104722010D01*
X148281231Y-104753856D01*
X148184263Y-104805614D01*
X148099256Y-104875294D01*
X148029477Y-104960220D01*
X147977606Y-105057128D01*
X147945638Y-105162292D01*
X147937500Y-105270900D01*
X147576330Y-105270900D01*
X147588410Y-105231077D01*
X147595706Y-105157000D01*
X147595706Y-104685600D01*
X151178233Y-104685600D01*
X151055742Y-104808091D01*
X151042258Y-104819157D01*
X151031192Y-104832641D01*
X151031190Y-104832643D01*
X150998070Y-104873000D01*
X150977983Y-104910581D01*
X150965236Y-104934428D01*
X150945017Y-105001081D01*
X150945017Y-105001083D01*
X150938190Y-105070399D01*
X150939900Y-105087761D01*
X150939899Y-107181138D01*
X150055206Y-108065831D01*
X150055206Y-107812000D01*
X150050792Y-107767187D01*
X150037721Y-107724095D01*
X150016494Y-107684382D01*
X149987927Y-107649573D01*
X149953118Y-107621006D01*
X149913405Y-107599779D01*
X149870313Y-107586708D01*
X149825500Y-107582294D01*
X148495500Y-107582294D01*
X148450687Y-107586708D01*
X148407595Y-107599779D01*
X148367882Y-107621006D01*
X148333073Y-107649573D01*
X148304506Y-107684382D01*
X148283279Y-107724095D01*
X148270208Y-107767187D01*
X148265794Y-107812000D01*
X148265794Y-108342000D01*
X148270208Y-108386813D01*
X148283279Y-108429905D01*
X148304506Y-108469618D01*
X148333073Y-108504427D01*
X148367882Y-108532994D01*
X148407595Y-108554221D01*
X148450687Y-108567292D01*
X148495500Y-108571706D01*
X149549331Y-108571706D01*
X149192637Y-108928400D01*
X147595706Y-108928400D01*
X147595706Y-108457000D01*
X147588410Y-108382923D01*
X147566803Y-108311693D01*
X147531714Y-108246047D01*
X147484493Y-108188507D01*
X147426953Y-108141286D01*
X147361307Y-108106197D01*
X147290077Y-108084590D01*
X147216000Y-108077294D01*
X146916000Y-108077294D01*
X146841923Y-108084590D01*
X146770693Y-108106197D01*
X146705047Y-108141286D01*
X146647507Y-108188507D01*
X146600286Y-108246047D01*
X146565197Y-108311693D01*
X146543590Y-108382923D01*
X146536294Y-108457000D01*
X146536294Y-110107000D01*
X146543590Y-110181077D01*
X146565197Y-110252307D01*
X146600286Y-110317953D01*
X146647507Y-110375493D01*
X146705047Y-110422714D01*
X146770693Y-110457803D01*
X146841923Y-110479410D01*
X146916000Y-110486706D01*
X147216000Y-110486706D01*
X147290077Y-110479410D01*
X147361307Y-110457803D01*
X147426953Y-110422714D01*
X147484493Y-110375493D01*
X147531714Y-110317953D01*
X147566803Y-110252307D01*
X147582761Y-110199697D01*
X153277097Y-110199697D01*
X153340206Y-110848253D01*
X153528628Y-111472036D01*
X153835125Y-112047073D01*
X153839461Y-112053562D01*
X154261574Y-112364086D01*
X156422061Y-110203600D01*
X156780139Y-110203600D01*
X158940626Y-112364086D01*
X159362739Y-112053562D01*
X159670585Y-111479247D01*
X159860472Y-110855909D01*
X159925103Y-110207503D01*
X159883686Y-109781867D01*
X162542500Y-109781867D01*
X162542500Y-109994333D01*
X162583950Y-110202716D01*
X162665257Y-110399009D01*
X162783297Y-110575667D01*
X162933533Y-110725903D01*
X163110191Y-110843943D01*
X163306484Y-110925250D01*
X163514867Y-110966700D01*
X163727333Y-110966700D01*
X163935716Y-110925250D01*
X164132009Y-110843943D01*
X164308667Y-110725903D01*
X164458903Y-110575667D01*
X164576943Y-110399009D01*
X164658250Y-110202716D01*
X164699700Y-109994333D01*
X164699700Y-109781867D01*
X165082500Y-109781867D01*
X165082500Y-109994333D01*
X165123950Y-110202716D01*
X165205257Y-110399009D01*
X165323297Y-110575667D01*
X165473533Y-110725903D01*
X165650191Y-110843943D01*
X165846484Y-110925250D01*
X166054867Y-110966700D01*
X166267333Y-110966700D01*
X166475716Y-110925250D01*
X166672009Y-110843943D01*
X166830413Y-110738100D01*
X167290400Y-110738100D01*
X167301174Y-110847487D01*
X167333081Y-110952671D01*
X167384895Y-111049608D01*
X167454625Y-111134575D01*
X167539592Y-111204305D01*
X167636529Y-111256119D01*
X167741713Y-111288026D01*
X167851100Y-111298800D01*
X168435000Y-111296100D01*
X168574500Y-111156600D01*
X168574500Y-110014700D01*
X168827700Y-110014700D01*
X168827700Y-111156600D01*
X168967200Y-111296100D01*
X169551100Y-111298800D01*
X169660487Y-111288026D01*
X169765671Y-111256119D01*
X169862608Y-111204305D01*
X169947575Y-111134575D01*
X170017305Y-111049608D01*
X170069119Y-110952671D01*
X170101026Y-110847487D01*
X170111800Y-110738100D01*
X170109100Y-110154200D01*
X169969600Y-110014700D01*
X168827700Y-110014700D01*
X168574500Y-110014700D01*
X167432600Y-110014700D01*
X167293100Y-110154200D01*
X167290400Y-110738100D01*
X166830413Y-110738100D01*
X166848667Y-110725903D01*
X166998903Y-110575667D01*
X167116943Y-110399009D01*
X167198250Y-110202716D01*
X167239700Y-109994333D01*
X167239700Y-109781867D01*
X167198250Y-109573484D01*
X167116943Y-109377191D01*
X166998903Y-109200533D01*
X166848667Y-109050297D01*
X166830414Y-109038100D01*
X167290400Y-109038100D01*
X167293100Y-109622000D01*
X167432600Y-109761500D01*
X168574500Y-109761500D01*
X168574500Y-108619600D01*
X168827700Y-108619600D01*
X168827700Y-109761500D01*
X169969600Y-109761500D01*
X170109100Y-109622000D01*
X170111800Y-109038100D01*
X170101026Y-108928713D01*
X170069119Y-108823529D01*
X170017305Y-108726592D01*
X169947575Y-108641625D01*
X169862608Y-108571895D01*
X169765671Y-108520081D01*
X169660487Y-108488174D01*
X169551100Y-108477400D01*
X168967200Y-108480100D01*
X168827700Y-108619600D01*
X168574500Y-108619600D01*
X168435000Y-108480100D01*
X167851100Y-108477400D01*
X167741713Y-108488174D01*
X167636529Y-108520081D01*
X167539592Y-108571895D01*
X167454625Y-108641625D01*
X167384895Y-108726592D01*
X167333081Y-108823529D01*
X167301174Y-108928713D01*
X167290400Y-109038100D01*
X166830414Y-109038100D01*
X166672009Y-108932257D01*
X166475716Y-108850950D01*
X166267333Y-108809500D01*
X166054867Y-108809500D01*
X165846484Y-108850950D01*
X165650191Y-108932257D01*
X165473533Y-109050297D01*
X165323297Y-109200533D01*
X165205257Y-109377191D01*
X165123950Y-109573484D01*
X165082500Y-109781867D01*
X164699700Y-109781867D01*
X164658250Y-109573484D01*
X164576943Y-109377191D01*
X164458903Y-109200533D01*
X164308667Y-109050297D01*
X164132009Y-108932257D01*
X163935716Y-108850950D01*
X163727333Y-108809500D01*
X163514867Y-108809500D01*
X163306484Y-108850950D01*
X163110191Y-108932257D01*
X162933533Y-109050297D01*
X162783297Y-109200533D01*
X162665257Y-109377191D01*
X162583950Y-109573484D01*
X162542500Y-109781867D01*
X159883686Y-109781867D01*
X159861994Y-109558947D01*
X159673572Y-108935164D01*
X159367075Y-108360127D01*
X159362739Y-108353638D01*
X158940626Y-108043114D01*
X156780139Y-110203600D01*
X156422061Y-110203600D01*
X154261574Y-108043114D01*
X153839461Y-108353638D01*
X153531615Y-108927953D01*
X153341728Y-109551291D01*
X153277097Y-110199697D01*
X147582761Y-110199697D01*
X147588410Y-110181077D01*
X147595706Y-110107000D01*
X147595706Y-109635600D01*
X149321750Y-109635600D01*
X149339102Y-109637309D01*
X149356454Y-109635600D01*
X149356464Y-109635600D01*
X149408420Y-109630483D01*
X149475073Y-109610264D01*
X149536502Y-109577429D01*
X149590344Y-109533242D01*
X149601415Y-109519752D01*
X151316518Y-107804649D01*
X151315794Y-107812000D01*
X151315794Y-108342000D01*
X151320208Y-108386813D01*
X151333279Y-108429905D01*
X151354506Y-108469618D01*
X151383073Y-108504427D01*
X151417882Y-108532994D01*
X151457595Y-108554221D01*
X151500687Y-108567292D01*
X151545500Y-108571706D01*
X152875500Y-108571706D01*
X152920313Y-108567292D01*
X152963405Y-108554221D01*
X153003118Y-108532994D01*
X153037927Y-108504427D01*
X153066494Y-108469618D01*
X153087721Y-108429905D01*
X153100792Y-108386813D01*
X153105206Y-108342000D01*
X153105206Y-107864074D01*
X154440614Y-107864074D01*
X156601100Y-110024561D01*
X158761586Y-107864074D01*
X158451062Y-107441961D01*
X157876747Y-107134115D01*
X157858644Y-107128600D01*
X163244650Y-107128600D01*
X163255424Y-107237987D01*
X163287331Y-107343171D01*
X163339145Y-107440108D01*
X163408875Y-107525075D01*
X163493842Y-107594805D01*
X163590779Y-107646619D01*
X163695963Y-107678526D01*
X163805350Y-107689300D01*
X164389250Y-107686600D01*
X164528750Y-107547100D01*
X164528750Y-106405200D01*
X164781950Y-106405200D01*
X164781950Y-107547100D01*
X164921450Y-107686600D01*
X165505350Y-107689300D01*
X165614737Y-107678526D01*
X165719921Y-107646619D01*
X165816858Y-107594805D01*
X165901825Y-107525075D01*
X165971555Y-107440108D01*
X166023369Y-107343171D01*
X166055276Y-107237987D01*
X166066050Y-107128600D01*
X166063350Y-106544700D01*
X165923850Y-106405200D01*
X164781950Y-106405200D01*
X164528750Y-106405200D01*
X163386850Y-106405200D01*
X163247350Y-106544700D01*
X163244650Y-107128600D01*
X157858644Y-107128600D01*
X157253409Y-106944228D01*
X156605003Y-106879597D01*
X155956447Y-106942706D01*
X155332664Y-107131128D01*
X154757627Y-107437625D01*
X154751138Y-107441961D01*
X154440614Y-107864074D01*
X153105206Y-107864074D01*
X153105206Y-107812000D01*
X153100792Y-107767187D01*
X153087721Y-107724095D01*
X153066494Y-107684382D01*
X153037927Y-107649573D01*
X153003118Y-107621006D01*
X152963405Y-107599779D01*
X152920313Y-107586708D01*
X152875500Y-107582294D01*
X151545500Y-107582294D01*
X151539861Y-107582849D01*
X151544740Y-107578845D01*
X151558483Y-107562100D01*
X151588929Y-107525003D01*
X151621762Y-107463575D01*
X151621763Y-107463574D01*
X151641982Y-107396921D01*
X151647099Y-107344965D01*
X151647099Y-107344963D01*
X151648809Y-107327603D01*
X151647099Y-107310243D01*
X151647099Y-107301706D01*
X152875500Y-107301706D01*
X152920313Y-107297292D01*
X152963405Y-107284221D01*
X153003118Y-107262994D01*
X153037927Y-107234427D01*
X153066494Y-107199618D01*
X153087721Y-107159905D01*
X153100792Y-107116813D01*
X153105206Y-107072000D01*
X153105206Y-106542000D01*
X153100792Y-106497187D01*
X153087721Y-106454095D01*
X153066494Y-106414382D01*
X153037927Y-106379573D01*
X153003118Y-106351006D01*
X152963405Y-106329779D01*
X152920313Y-106316708D01*
X152875500Y-106312294D01*
X151647099Y-106312294D01*
X151647099Y-106031706D01*
X152875500Y-106031706D01*
X152920313Y-106027292D01*
X152963405Y-106014221D01*
X153003118Y-105992994D01*
X153037927Y-105964427D01*
X153066494Y-105929618D01*
X153087721Y-105889905D01*
X153100792Y-105846813D01*
X153105206Y-105802000D01*
X153105206Y-105272000D01*
X153100792Y-105227187D01*
X153087721Y-105184095D01*
X153066494Y-105144382D01*
X153037927Y-105109573D01*
X153003118Y-105081006D01*
X152963405Y-105059779D01*
X152920313Y-105046708D01*
X152875500Y-105042294D01*
X151821669Y-105042294D01*
X151867963Y-104996000D01*
X156248900Y-104996000D01*
X156259674Y-105105387D01*
X156291581Y-105210571D01*
X156343395Y-105307508D01*
X156413125Y-105392475D01*
X156498092Y-105462205D01*
X156595029Y-105514019D01*
X156700213Y-105545926D01*
X156809600Y-105556700D01*
X157068500Y-105554000D01*
X157208000Y-105414500D01*
X157208000Y-104647600D01*
X156391100Y-104647600D01*
X156251600Y-104787100D01*
X156248900Y-104996000D01*
X151867963Y-104996000D01*
X152817963Y-104046000D01*
X156248900Y-104046000D01*
X156251600Y-104254900D01*
X156391100Y-104394400D01*
X157208000Y-104394400D01*
X157208000Y-103627500D01*
X157068500Y-103488000D01*
X156809600Y-103485300D01*
X156700213Y-103496074D01*
X156595029Y-103527981D01*
X156498092Y-103579795D01*
X156413125Y-103649525D01*
X156343395Y-103734492D01*
X156291581Y-103831429D01*
X156259674Y-103936613D01*
X156248900Y-104046000D01*
X152817963Y-104046000D01*
X154931319Y-101932645D01*
X155008691Y-101984343D01*
X155204984Y-102065650D01*
X155413367Y-102107100D01*
X155625833Y-102107100D01*
X155834216Y-102065650D01*
X156030509Y-101984343D01*
X156207167Y-101866303D01*
X156357403Y-101716067D01*
X156475443Y-101539409D01*
X156556750Y-101343116D01*
X156598200Y-101134733D01*
X156598200Y-100922267D01*
X156556750Y-100713884D01*
X156475443Y-100517591D01*
X156357403Y-100340933D01*
X156207167Y-100190697D01*
X156030509Y-100072657D01*
X155834216Y-99991350D01*
X155625833Y-99949900D01*
X155467304Y-99949900D01*
X155473103Y-99944101D01*
X156940247Y-99944101D01*
X156957599Y-99945810D01*
X156974951Y-99944101D01*
X156974961Y-99944101D01*
X157026917Y-99938984D01*
X157093570Y-99918765D01*
X157154999Y-99885930D01*
X157208841Y-99841743D01*
X157219912Y-99828253D01*
X157479959Y-99568206D01*
X158808001Y-99568206D01*
X158808001Y-99780033D01*
X158531525Y-100056509D01*
X158374216Y-99991350D01*
X158165833Y-99949900D01*
X157953367Y-99949900D01*
X157744984Y-99991350D01*
X157548691Y-100072657D01*
X157372033Y-100190697D01*
X157221797Y-100340933D01*
X157103757Y-100517591D01*
X157022450Y-100713884D01*
X156981000Y-100922267D01*
X156981000Y-101134733D01*
X157022450Y-101343116D01*
X157103757Y-101539409D01*
X157221797Y-101716067D01*
X157372033Y-101866303D01*
X157548691Y-101984343D01*
X157706000Y-102049503D01*
X157706001Y-103478638D01*
X157705186Y-103486910D01*
X157600700Y-103488000D01*
X157461200Y-103627500D01*
X157461200Y-104394400D01*
X157481200Y-104394400D01*
X157481200Y-104647600D01*
X157461200Y-104647600D01*
X157461200Y-105414500D01*
X157600700Y-105554000D01*
X157859600Y-105556700D01*
X157968987Y-105545926D01*
X158074171Y-105514019D01*
X158171108Y-105462205D01*
X158212056Y-105428600D01*
X163244650Y-105428600D01*
X163247350Y-106012500D01*
X163386850Y-106152000D01*
X164528750Y-106152000D01*
X164528750Y-105010100D01*
X164781950Y-105010100D01*
X164781950Y-106152000D01*
X165923850Y-106152000D01*
X166063350Y-106012500D01*
X166066050Y-105428600D01*
X166055276Y-105319213D01*
X166023369Y-105214029D01*
X165971555Y-105117092D01*
X165901825Y-105032125D01*
X165816858Y-104962395D01*
X165719921Y-104910581D01*
X165614737Y-104878674D01*
X165505350Y-104867900D01*
X164921450Y-104870600D01*
X164781950Y-105010100D01*
X164528750Y-105010100D01*
X164389250Y-104870600D01*
X163805350Y-104867900D01*
X163695963Y-104878674D01*
X163590779Y-104910581D01*
X163493842Y-104962395D01*
X163408875Y-105032125D01*
X163339145Y-105117092D01*
X163287331Y-105214029D01*
X163255424Y-105319213D01*
X163244650Y-105428600D01*
X158212056Y-105428600D01*
X158256075Y-105392475D01*
X158325805Y-105307508D01*
X158377619Y-105210571D01*
X158409526Y-105105387D01*
X158417109Y-105028396D01*
X158466735Y-105088865D01*
X158537534Y-105146968D01*
X158618308Y-105190142D01*
X158705953Y-105216729D01*
X158797100Y-105225706D01*
X159372100Y-105225706D01*
X159463247Y-105216729D01*
X159550892Y-105190142D01*
X159631666Y-105146968D01*
X159702465Y-105088865D01*
X159760568Y-105018066D01*
X159803742Y-104937292D01*
X159830329Y-104849647D01*
X159839306Y-104758500D01*
X159839306Y-104283500D01*
X159830329Y-104192353D01*
X159803742Y-104104708D01*
X159760568Y-104023934D01*
X159702465Y-103953135D01*
X159631666Y-103895032D01*
X159550892Y-103851858D01*
X159463247Y-103825271D01*
X159372100Y-103816294D01*
X158879960Y-103816294D01*
X158413200Y-103349535D01*
X158413200Y-102049502D01*
X158570509Y-101984343D01*
X158747167Y-101866303D01*
X158897403Y-101716067D01*
X159015443Y-101539409D01*
X159080602Y-101382100D01*
X161798785Y-101382100D01*
X163683359Y-103266675D01*
X163618200Y-103423984D01*
X163576750Y-103632367D01*
X163576750Y-103844833D01*
X163618200Y-104053216D01*
X163699507Y-104249509D01*
X163817547Y-104426167D01*
X163967783Y-104576403D01*
X164144441Y-104694443D01*
X164340734Y-104775750D01*
X164549117Y-104817200D01*
X164761583Y-104817200D01*
X164969966Y-104775750D01*
X165166259Y-104694443D01*
X165342917Y-104576403D01*
X165493153Y-104426167D01*
X165611193Y-104249509D01*
X165692500Y-104053216D01*
X165733950Y-103844833D01*
X165733950Y-103632367D01*
X165692500Y-103423984D01*
X165611193Y-103227691D01*
X165493153Y-103051033D01*
X165342917Y-102900797D01*
X165166259Y-102782757D01*
X164969966Y-102701450D01*
X164761583Y-102660000D01*
X164549117Y-102660000D01*
X164340734Y-102701450D01*
X164183425Y-102766609D01*
X162207563Y-100790748D01*
X162196492Y-100777258D01*
X162142650Y-100733071D01*
X162081221Y-100700236D01*
X162014568Y-100680017D01*
X161962612Y-100674900D01*
X161962602Y-100674900D01*
X161945250Y-100673191D01*
X161927898Y-100674900D01*
X159080602Y-100674900D01*
X159031591Y-100556575D01*
X159399363Y-100188803D01*
X159412842Y-100177741D01*
X159423905Y-100164261D01*
X159423910Y-100164256D01*
X159457031Y-100123899D01*
X159489864Y-100062471D01*
X159489865Y-100062470D01*
X159501059Y-100025567D01*
X162560900Y-100025567D01*
X162560900Y-100238033D01*
X162602350Y-100446416D01*
X162683657Y-100642709D01*
X162801697Y-100819367D01*
X162951933Y-100969603D01*
X163128591Y-101087643D01*
X163324884Y-101168950D01*
X163533267Y-101210400D01*
X163745733Y-101210400D01*
X163954116Y-101168950D01*
X164150409Y-101087643D01*
X164327067Y-100969603D01*
X164477303Y-100819367D01*
X164595343Y-100642709D01*
X164676650Y-100446416D01*
X164718100Y-100238033D01*
X164718100Y-100025567D01*
X165100900Y-100025567D01*
X165100900Y-100238033D01*
X165142350Y-100446416D01*
X165223657Y-100642709D01*
X165341697Y-100819367D01*
X165491933Y-100969603D01*
X165668591Y-101087643D01*
X165864884Y-101168950D01*
X166073267Y-101210400D01*
X166285733Y-101210400D01*
X166494116Y-101168950D01*
X166690409Y-101087643D01*
X166848813Y-100981800D01*
X167308800Y-100981800D01*
X167319574Y-101091187D01*
X167351481Y-101196371D01*
X167403295Y-101293308D01*
X167473025Y-101378275D01*
X167557992Y-101448005D01*
X167654929Y-101499819D01*
X167760113Y-101531726D01*
X167869500Y-101542500D01*
X168453400Y-101539800D01*
X168592900Y-101400300D01*
X168592900Y-100258400D01*
X168846100Y-100258400D01*
X168846100Y-101400300D01*
X168985600Y-101539800D01*
X169569500Y-101542500D01*
X169678887Y-101531726D01*
X169784071Y-101499819D01*
X169881008Y-101448005D01*
X169965975Y-101378275D01*
X170035705Y-101293308D01*
X170087519Y-101196371D01*
X170119426Y-101091187D01*
X170130200Y-100981800D01*
X170127500Y-100397900D01*
X169988000Y-100258400D01*
X168846100Y-100258400D01*
X168592900Y-100258400D01*
X167451000Y-100258400D01*
X167311500Y-100397900D01*
X167308800Y-100981800D01*
X166848813Y-100981800D01*
X166867067Y-100969603D01*
X167017303Y-100819367D01*
X167135343Y-100642709D01*
X167216650Y-100446416D01*
X167258100Y-100238033D01*
X167258100Y-100025567D01*
X167216650Y-99817184D01*
X167135343Y-99620891D01*
X167017303Y-99444233D01*
X166867067Y-99293997D01*
X166848814Y-99281800D01*
X167308800Y-99281800D01*
X167311500Y-99865700D01*
X167451000Y-100005200D01*
X168592900Y-100005200D01*
X168592900Y-98863300D01*
X168846100Y-98863300D01*
X168846100Y-100005200D01*
X169988000Y-100005200D01*
X170127500Y-99865700D01*
X170130200Y-99281800D01*
X170119426Y-99172413D01*
X170087519Y-99067229D01*
X170035705Y-98970292D01*
X169965975Y-98885325D01*
X169881008Y-98815595D01*
X169784071Y-98763781D01*
X169678887Y-98731874D01*
X169569500Y-98721100D01*
X168985600Y-98723800D01*
X168846100Y-98863300D01*
X168592900Y-98863300D01*
X168453400Y-98723800D01*
X167869500Y-98721100D01*
X167760113Y-98731874D01*
X167654929Y-98763781D01*
X167557992Y-98815595D01*
X167473025Y-98885325D01*
X167403295Y-98970292D01*
X167351481Y-99067229D01*
X167319574Y-99172413D01*
X167308800Y-99281800D01*
X166848814Y-99281800D01*
X166690409Y-99175957D01*
X166494116Y-99094650D01*
X166285733Y-99053200D01*
X166073267Y-99053200D01*
X165864884Y-99094650D01*
X165668591Y-99175957D01*
X165491933Y-99293997D01*
X165341697Y-99444233D01*
X165223657Y-99620891D01*
X165142350Y-99817184D01*
X165100900Y-100025567D01*
X164718100Y-100025567D01*
X164676650Y-99817184D01*
X164595343Y-99620891D01*
X164477303Y-99444233D01*
X164327067Y-99293997D01*
X164150409Y-99175957D01*
X163954116Y-99094650D01*
X163745733Y-99053200D01*
X163533267Y-99053200D01*
X163324884Y-99094650D01*
X163128591Y-99175957D01*
X162951933Y-99293997D01*
X162801697Y-99444233D01*
X162683657Y-99620891D01*
X162602350Y-99817184D01*
X162560900Y-100025567D01*
X159501059Y-100025567D01*
X159510084Y-99995817D01*
X159515201Y-99943861D01*
X159515201Y-99943859D01*
X159516911Y-99926499D01*
X159515201Y-99909139D01*
X159515201Y-97454250D01*
X159516910Y-97436898D01*
X159515201Y-97419546D01*
X159515201Y-97419537D01*
X159510084Y-97367581D01*
X159489865Y-97300928D01*
X159457030Y-97239499D01*
X159412843Y-97185657D01*
X159399353Y-97174586D01*
X159373514Y-97148747D01*
X159362443Y-97135257D01*
X159308601Y-97091070D01*
X159247172Y-97058235D01*
X159180519Y-97038016D01*
X159128563Y-97032899D01*
X159128553Y-97032899D01*
X159111201Y-97031190D01*
X159093849Y-97032899D01*
X149860752Y-97032899D01*
X149843400Y-97031190D01*
X149826048Y-97032899D01*
X149826039Y-97032899D01*
X149774083Y-97038016D01*
X149707430Y-97058235D01*
X149659948Y-97083615D01*
X149646001Y-97091070D01*
X149609757Y-97120815D01*
X149592159Y-97135257D01*
X149581093Y-97148742D01*
X149528040Y-97201794D01*
X149280900Y-97201794D01*
X149204872Y-97209282D01*
X149131766Y-97231459D01*
X149064391Y-97267471D01*
X149005336Y-97315936D01*
X148956871Y-97374991D01*
X148920859Y-97442366D01*
X148898682Y-97515472D01*
X148891194Y-97591500D01*
X148891194Y-97838640D01*
X148009218Y-98720617D01*
X147995734Y-98731683D01*
X147984668Y-98745167D01*
X147984666Y-98745169D01*
X147951546Y-98785526D01*
X147918712Y-98846954D01*
X147898493Y-98913607D01*
X147898493Y-98913609D01*
X147891666Y-98982925D01*
X147893376Y-99000287D01*
X147893375Y-99575788D01*
X146059235Y-97741648D01*
X146048164Y-97728158D01*
X145994322Y-97683971D01*
X145932893Y-97651136D01*
X145866240Y-97630917D01*
X145814284Y-97625800D01*
X145814274Y-97625800D01*
X145796922Y-97624091D01*
X145779570Y-97625800D01*
X142035806Y-97625800D01*
X142035806Y-97579300D01*
X142026591Y-97485734D01*
X141999298Y-97395763D01*
X141954978Y-97312845D01*
X141895333Y-97240167D01*
X141822655Y-97180522D01*
X141739737Y-97136202D01*
X141649766Y-97108909D01*
X141556200Y-97099694D01*
X141006000Y-97099694D01*
X140912434Y-97108909D01*
X140911084Y-97109319D01*
X140641403Y-96839638D01*
X140630332Y-96826148D01*
X140576490Y-96781961D01*
X140515061Y-96749126D01*
X140448408Y-96728907D01*
X140396452Y-96723790D01*
X140396442Y-96723790D01*
X140379090Y-96722081D01*
X140361738Y-96723790D01*
X137191773Y-96723790D01*
X137179665Y-96709036D01*
X137108866Y-96650933D01*
X137028092Y-96607759D01*
X136940447Y-96581172D01*
X136849300Y-96572195D01*
X136274300Y-96572195D01*
X136183153Y-96581172D01*
X136095508Y-96607759D01*
X136014734Y-96650933D01*
X135943935Y-96709036D01*
X135885832Y-96779835D01*
X135842658Y-96860609D01*
X135816071Y-96948254D01*
X135807094Y-97039401D01*
X135807094Y-97514401D01*
X135816071Y-97605548D01*
X135842658Y-97693193D01*
X135885832Y-97773967D01*
X135943935Y-97844766D01*
X136014734Y-97902869D01*
X136095508Y-97946043D01*
X136183153Y-97972630D01*
X136274300Y-97981607D01*
X136849300Y-97981607D01*
X136940447Y-97972630D01*
X137028092Y-97946043D01*
X137108866Y-97902869D01*
X137179665Y-97844766D01*
X137237768Y-97773967D01*
X137280942Y-97693193D01*
X137307529Y-97605548D01*
X137316506Y-97514401D01*
X137316506Y-97430990D01*
X138113695Y-97430990D01*
X138111473Y-97433697D01*
X138041496Y-97564615D01*
X137998404Y-97706669D01*
X137987500Y-97817381D01*
X137987500Y-98141418D01*
X137998404Y-98252130D01*
X138041496Y-98394184D01*
X138111473Y-98525102D01*
X138205646Y-98639854D01*
X138320397Y-98734027D01*
X138337501Y-98743169D01*
X138337500Y-99623756D01*
X138251243Y-99659485D01*
X138099152Y-99761109D01*
X137969809Y-99890452D01*
X137868185Y-100042543D01*
X137798186Y-100211537D01*
X137762500Y-100390941D01*
X137762500Y-100573859D01*
X137786989Y-100696974D01*
X137373273Y-100283258D01*
X137373270Y-100283254D01*
X137314969Y-100224953D01*
X137316506Y-100209350D01*
X137316506Y-99734350D01*
X137307529Y-99643203D01*
X137280942Y-99555558D01*
X137237768Y-99474784D01*
X137179665Y-99403985D01*
X137108866Y-99345882D01*
X137028092Y-99302708D01*
X136940447Y-99276121D01*
X136849300Y-99267144D01*
X136274300Y-99267144D01*
X136183153Y-99276121D01*
X136095508Y-99302708D01*
X136014734Y-99345882D01*
X135943935Y-99403985D01*
X135885832Y-99474784D01*
X135842658Y-99555558D01*
X135816071Y-99643203D01*
X135807094Y-99734350D01*
X135807094Y-100209350D01*
X135816071Y-100300497D01*
X135842658Y-100388142D01*
X135885832Y-100468916D01*
X135943935Y-100539715D01*
X136014734Y-100597818D01*
X136095508Y-100640992D01*
X136183153Y-100667579D01*
X136274300Y-100676556D01*
X136766440Y-100676556D01*
X136873204Y-100783320D01*
X136873208Y-100783323D01*
X138403084Y-102313200D01*
X137299960Y-102313200D01*
X137280942Y-102250508D01*
X137237768Y-102169734D01*
X137179665Y-102098935D01*
X137108866Y-102040832D01*
X137028092Y-101997658D01*
X136940447Y-101971071D01*
X136849300Y-101962094D01*
X136274300Y-101962094D01*
X136183153Y-101971071D01*
X136095508Y-101997658D01*
X136014734Y-102040832D01*
X135943935Y-102098935D01*
X135885832Y-102169734D01*
X135842658Y-102250508D01*
X135816071Y-102338153D01*
X135807094Y-102429300D01*
X135807094Y-102904300D01*
X135816071Y-102995447D01*
X135842658Y-103083092D01*
X135885832Y-103163866D01*
X135943935Y-103234665D01*
X136014734Y-103292768D01*
X136095508Y-103335942D01*
X136183153Y-103362529D01*
X136274300Y-103371506D01*
X136849300Y-103371506D01*
X136940447Y-103362529D01*
X137028092Y-103335942D01*
X137108866Y-103292768D01*
X137179665Y-103234665D01*
X137237768Y-103163866D01*
X137280942Y-103083092D01*
X137299960Y-103020400D01*
X138700387Y-103020400D01*
X138679795Y-103045492D01*
X138627981Y-103142429D01*
X138596074Y-103247613D01*
X138585300Y-103357000D01*
X138588000Y-104065900D01*
X138727500Y-104205400D01*
X139319400Y-104205400D01*
X139319400Y-104185400D01*
X139572600Y-104185400D01*
X139572600Y-104205400D01*
X139592600Y-104205400D01*
X139592600Y-104458600D01*
X139572600Y-104458600D01*
X139572600Y-104478600D01*
X139319400Y-104478600D01*
X139319400Y-104458600D01*
X138727500Y-104458600D01*
X138588000Y-104598100D01*
X138585300Y-105307000D01*
X138596074Y-105416387D01*
X138627981Y-105521571D01*
X138679795Y-105618508D01*
X138749525Y-105703475D01*
X138834492Y-105773205D01*
X138931429Y-105825019D01*
X139036613Y-105856926D01*
X139125279Y-105865659D01*
X139109500Y-105944988D01*
X139109500Y-106068812D01*
X139125392Y-106148708D01*
X139117737Y-106163029D01*
X139097518Y-106229682D01*
X139096965Y-106235300D01*
X139090691Y-106299000D01*
X139092401Y-106316362D01*
X139092400Y-108137355D01*
X139085047Y-108141286D01*
X139027507Y-108188507D01*
X138980286Y-108246047D01*
X138945197Y-108311693D01*
X138923590Y-108382923D01*
X138916294Y-108457000D01*
X138916294Y-110107000D01*
X138923590Y-110181077D01*
X138945197Y-110252307D01*
X138980286Y-110317953D01*
X139027507Y-110375493D01*
X139085047Y-110422714D01*
X139150693Y-110457803D01*
X139221923Y-110479410D01*
X139296000Y-110486706D01*
X139596000Y-110486706D01*
X139670077Y-110479410D01*
X139741307Y-110457803D01*
X139806953Y-110422714D01*
X139864493Y-110375493D01*
X139911714Y-110317953D01*
X139946803Y-110252307D01*
X139968410Y-110181077D01*
X139975706Y-110107000D01*
X139975706Y-108457000D01*
X139968410Y-108382923D01*
X139946803Y-108311693D01*
X139911714Y-108246047D01*
X139864493Y-108188507D01*
X139806953Y-108141286D01*
X139799600Y-108137356D01*
X139799600Y-106635500D01*
X139800012Y-106635500D01*
X139921456Y-106611344D01*
X140035854Y-106563959D01*
X140138809Y-106495166D01*
X140226366Y-106407609D01*
X140295159Y-106304654D01*
X140342544Y-106190256D01*
X140366700Y-106068812D01*
X140366700Y-105944988D01*
X140342544Y-105823544D01*
X140295159Y-105709146D01*
X140226366Y-105606191D01*
X140221428Y-105601253D01*
X140264019Y-105521571D01*
X140294336Y-105421629D01*
X140297507Y-105425493D01*
X140355047Y-105472714D01*
X140420693Y-105507803D01*
X140491923Y-105529410D01*
X140566000Y-105536706D01*
X140866000Y-105536706D01*
X140940077Y-105529410D01*
X141011307Y-105507803D01*
X141076953Y-105472714D01*
X141134493Y-105425493D01*
X141181714Y-105367953D01*
X141216803Y-105302307D01*
X141238410Y-105231077D01*
X141245706Y-105157000D01*
X141245706Y-103507000D01*
X141238410Y-103432923D01*
X141216803Y-103361693D01*
X141181714Y-103296047D01*
X141134493Y-103238507D01*
X141076953Y-103191286D01*
X141011307Y-103156197D01*
X141007751Y-103155118D01*
X141004231Y-103150829D01*
X140978309Y-103119243D01*
X140978304Y-103119238D01*
X140967241Y-103105758D01*
X140953762Y-103094696D01*
X140502455Y-102643390D01*
X140772325Y-102643390D01*
X141487089Y-103358154D01*
X141485197Y-103361693D01*
X141463590Y-103432923D01*
X141456294Y-103507000D01*
X141456294Y-105157000D01*
X141463590Y-105231077D01*
X141485197Y-105302307D01*
X141520286Y-105367953D01*
X141567507Y-105425493D01*
X141625047Y-105472714D01*
X141690693Y-105507803D01*
X141761923Y-105529410D01*
X141836000Y-105536706D01*
X141930141Y-105536706D01*
X143844953Y-107451519D01*
X143833900Y-107507088D01*
X143833900Y-107512061D01*
X143813059Y-107461746D01*
X143744266Y-107358791D01*
X143656709Y-107271234D01*
X143553754Y-107202441D01*
X143439356Y-107155056D01*
X143317912Y-107130900D01*
X143194088Y-107130900D01*
X143072644Y-107155056D01*
X142958246Y-107202441D01*
X142855291Y-107271234D01*
X142767734Y-107358791D01*
X142698941Y-107461746D01*
X142651556Y-107576144D01*
X142627400Y-107697588D01*
X142627400Y-107821412D01*
X142651556Y-107942856D01*
X142698941Y-108057254D01*
X142767734Y-108160209D01*
X142818812Y-108211287D01*
X142790286Y-108246047D01*
X142755197Y-108311693D01*
X142733590Y-108382923D01*
X142726294Y-108457000D01*
X142726294Y-110107000D01*
X142733590Y-110181077D01*
X142755197Y-110252307D01*
X142790286Y-110317953D01*
X142837507Y-110375493D01*
X142895047Y-110422714D01*
X142960693Y-110457803D01*
X143031923Y-110479410D01*
X143106000Y-110486706D01*
X143406000Y-110486706D01*
X143480077Y-110479410D01*
X143551307Y-110457803D01*
X143616953Y-110422714D01*
X143674493Y-110375493D01*
X143721714Y-110317953D01*
X143756803Y-110252307D01*
X143778410Y-110181077D01*
X143785706Y-110107000D01*
X143785706Y-108457000D01*
X143778410Y-108382923D01*
X143756803Y-108311693D01*
X143721714Y-108246047D01*
X143693188Y-108211287D01*
X143744266Y-108160209D01*
X143813059Y-108057254D01*
X143860444Y-107942856D01*
X143884600Y-107821412D01*
X143884600Y-107816439D01*
X143905441Y-107866754D01*
X143974234Y-107969709D01*
X144061791Y-108057266D01*
X144164746Y-108126059D01*
X144180965Y-108132777D01*
X144165047Y-108141286D01*
X144107507Y-108188507D01*
X144060286Y-108246047D01*
X144025197Y-108311693D01*
X144003590Y-108382923D01*
X143996294Y-108457000D01*
X143996294Y-110107000D01*
X144003590Y-110181077D01*
X144025197Y-110252307D01*
X144060286Y-110317953D01*
X144107507Y-110375493D01*
X144165047Y-110422714D01*
X144172400Y-110426644D01*
X144172401Y-111885611D01*
X144078803Y-111745533D01*
X143928567Y-111595297D01*
X143751909Y-111477257D01*
X143555616Y-111395950D01*
X143347233Y-111354500D01*
X143134767Y-111354500D01*
X142926384Y-111395950D01*
X142769075Y-111461109D01*
X142339600Y-111031635D01*
X142339600Y-110426644D01*
X142346953Y-110422714D01*
X142404493Y-110375493D01*
X142451714Y-110317953D01*
X142486803Y-110252307D01*
X142508410Y-110181077D01*
X142515706Y-110107000D01*
X142515706Y-108457000D01*
X142508410Y-108382923D01*
X142486803Y-108311693D01*
X142451714Y-108246047D01*
X142404493Y-108188507D01*
X142346953Y-108141286D01*
X142281307Y-108106197D01*
X142210077Y-108084590D01*
X142136000Y-108077294D01*
X141836000Y-108077294D01*
X141761923Y-108084590D01*
X141690693Y-108106197D01*
X141625047Y-108141286D01*
X141567507Y-108188507D01*
X141520286Y-108246047D01*
X141485197Y-108311693D01*
X141463590Y-108382923D01*
X141456294Y-108457000D01*
X141456294Y-110107000D01*
X141463590Y-110181077D01*
X141485197Y-110252307D01*
X141520286Y-110317953D01*
X141567507Y-110375493D01*
X141625047Y-110422714D01*
X141632401Y-110426645D01*
X141632401Y-111160738D01*
X141630691Y-111178100D01*
X141632401Y-111195462D01*
X141637518Y-111247418D01*
X141652286Y-111296100D01*
X141657737Y-111314071D01*
X141686846Y-111368529D01*
X141690572Y-111375500D01*
X141734759Y-111429342D01*
X141748243Y-111440408D01*
X142269009Y-111961175D01*
X142203850Y-112118484D01*
X142162400Y-112326867D01*
X142162400Y-112539333D01*
X142203850Y-112747716D01*
X142285157Y-112944009D01*
X142403197Y-113120667D01*
X142553433Y-113270903D01*
X142730091Y-113388943D01*
X142926384Y-113470250D01*
X143134767Y-113511700D01*
X143293297Y-113511700D01*
X143139796Y-113665201D01*
X138063011Y-113665201D01*
X138060850Y-113257900D01*
X137921350Y-113118400D01*
X136979450Y-113118400D01*
X136979450Y-113138400D01*
X136726250Y-113138400D01*
X136726250Y-113118400D01*
X135784350Y-113118400D01*
X135644850Y-113257900D01*
X135642689Y-113665201D01*
X133232556Y-113665201D01*
X133232556Y-112216800D01*
X135642150Y-112216800D01*
X135644850Y-112725700D01*
X135784350Y-112865200D01*
X136726250Y-112865200D01*
X136726250Y-111798300D01*
X136979450Y-111798300D01*
X136979450Y-112865200D01*
X137921350Y-112865200D01*
X138060850Y-112725700D01*
X138062966Y-112326867D01*
X139622400Y-112326867D01*
X139622400Y-112539333D01*
X139663850Y-112747716D01*
X139745157Y-112944009D01*
X139863197Y-113120667D01*
X140013433Y-113270903D01*
X140190091Y-113388943D01*
X140386384Y-113470250D01*
X140594767Y-113511700D01*
X140807233Y-113511700D01*
X141015616Y-113470250D01*
X141211909Y-113388943D01*
X141388567Y-113270903D01*
X141538803Y-113120667D01*
X141656843Y-112944009D01*
X141738150Y-112747716D01*
X141779600Y-112539333D01*
X141779600Y-112326867D01*
X141738150Y-112118484D01*
X141656843Y-111922191D01*
X141538803Y-111745533D01*
X141388567Y-111595297D01*
X141211909Y-111477257D01*
X141069600Y-111418311D01*
X141069600Y-110426644D01*
X141076953Y-110422714D01*
X141134493Y-110375493D01*
X141181714Y-110317953D01*
X141216803Y-110252307D01*
X141238410Y-110181077D01*
X141245706Y-110107000D01*
X141245706Y-108457000D01*
X141238410Y-108382923D01*
X141216803Y-108311693D01*
X141181714Y-108246047D01*
X141134493Y-108188507D01*
X141076953Y-108141286D01*
X141011307Y-108106197D01*
X140940077Y-108084590D01*
X140866000Y-108077294D01*
X140566000Y-108077294D01*
X140491923Y-108084590D01*
X140420693Y-108106197D01*
X140355047Y-108141286D01*
X140297507Y-108188507D01*
X140250286Y-108246047D01*
X140215197Y-108311693D01*
X140193590Y-108382923D01*
X140186294Y-108457000D01*
X140186294Y-110107000D01*
X140193590Y-110181077D01*
X140215197Y-110252307D01*
X140250286Y-110317953D01*
X140297507Y-110375493D01*
X140355047Y-110422714D01*
X140362400Y-110426645D01*
X140362401Y-111405884D01*
X140190091Y-111477257D01*
X140013433Y-111595297D01*
X139863197Y-111745533D01*
X139745157Y-111922191D01*
X139663850Y-112118484D01*
X139622400Y-112326867D01*
X138062966Y-112326867D01*
X138063550Y-112216800D01*
X138052776Y-112107413D01*
X138020869Y-112002229D01*
X137969055Y-111905292D01*
X137899325Y-111820325D01*
X137814358Y-111750595D01*
X137717421Y-111698781D01*
X137612237Y-111666874D01*
X137502850Y-111656100D01*
X137118950Y-111658800D01*
X136979450Y-111798300D01*
X136726250Y-111798300D01*
X136586750Y-111658800D01*
X136202850Y-111656100D01*
X136093463Y-111666874D01*
X135988279Y-111698781D01*
X135891342Y-111750595D01*
X135806375Y-111820325D01*
X135736645Y-111905292D01*
X135684831Y-112002229D01*
X135652924Y-112107413D01*
X135642150Y-112216800D01*
X133232556Y-112216800D01*
X133228142Y-112171987D01*
X133215071Y-112128895D01*
X133193844Y-112089182D01*
X133165277Y-112054373D01*
X133130468Y-112025806D01*
X133090755Y-112004579D01*
X133047663Y-111991508D01*
X133002850Y-111987094D01*
X132868881Y-111987094D01*
X132885766Y-111970209D01*
X132954559Y-111867254D01*
X133001944Y-111752856D01*
X133026100Y-111631412D01*
X133026100Y-111507588D01*
X133001944Y-111386144D01*
X132954559Y-111271746D01*
X132885766Y-111168791D01*
X132798209Y-111081234D01*
X132695254Y-111012441D01*
X132580856Y-110965056D01*
X132459412Y-110940900D01*
X132335588Y-110940900D01*
X132214144Y-110965056D01*
X132099746Y-111012441D01*
X131996791Y-111081234D01*
X131909234Y-111168791D01*
X131840441Y-111271746D01*
X131793056Y-111386144D01*
X131768900Y-111507588D01*
X131768900Y-111631412D01*
X131793056Y-111752856D01*
X131840441Y-111867254D01*
X131909234Y-111970209D01*
X131926119Y-111987094D01*
X131702850Y-111987094D01*
X131658037Y-111991508D01*
X131614945Y-112004579D01*
X131575232Y-112025806D01*
X131540423Y-112054373D01*
X131511856Y-112089182D01*
X131490629Y-112128895D01*
X131477558Y-112171987D01*
X131473144Y-112216800D01*
X131473144Y-113665201D01*
X130575866Y-113665201D01*
X130282106Y-113371441D01*
X130282106Y-112216800D01*
X130277692Y-112171987D01*
X130264621Y-112128895D01*
X130243394Y-112089182D01*
X130214827Y-112054373D01*
X130180018Y-112025806D01*
X130140305Y-112004579D01*
X130097213Y-111991508D01*
X130052400Y-111987094D01*
X128752400Y-111987094D01*
X128707587Y-111991508D01*
X128664495Y-112004579D01*
X128624782Y-112025806D01*
X128589973Y-112054373D01*
X128561406Y-112089182D01*
X128540179Y-112128895D01*
X128527108Y-112171987D01*
X128522694Y-112216800D01*
X126113100Y-112216800D01*
X126102326Y-112107413D01*
X126070419Y-112002229D01*
X126018605Y-111905292D01*
X125948875Y-111820325D01*
X125863908Y-111750595D01*
X125766971Y-111698781D01*
X125661787Y-111666874D01*
X125552400Y-111656100D01*
X125168500Y-111658800D01*
X125029000Y-111798300D01*
X124775800Y-111798300D01*
X124636300Y-111658800D01*
X124252400Y-111656100D01*
X124143013Y-111666874D01*
X124037829Y-111698781D01*
X123940892Y-111750595D01*
X123855925Y-111820325D01*
X123786195Y-111905292D01*
X123734381Y-112002229D01*
X123702474Y-112107413D01*
X123691700Y-112216800D01*
X123627701Y-112216800D01*
X123627701Y-105816800D01*
X123691700Y-105816800D01*
X123702474Y-105926187D01*
X123734381Y-106031371D01*
X123786195Y-106128308D01*
X123855925Y-106213275D01*
X123940892Y-106283005D01*
X124037829Y-106334819D01*
X124143013Y-106366726D01*
X124252400Y-106377500D01*
X124636300Y-106374800D01*
X124775800Y-106235300D01*
X124775800Y-105168400D01*
X125029000Y-105168400D01*
X125029000Y-106235300D01*
X125168500Y-106374800D01*
X125552400Y-106377500D01*
X125661787Y-106366726D01*
X125766971Y-106334819D01*
X125863908Y-106283005D01*
X125948875Y-106213275D01*
X126018605Y-106128308D01*
X126070419Y-106031371D01*
X126102326Y-105926187D01*
X126113100Y-105816800D01*
X126110400Y-105307900D01*
X125970900Y-105168400D01*
X125029000Y-105168400D01*
X124775800Y-105168400D01*
X123833900Y-105168400D01*
X123694400Y-105307900D01*
X123691700Y-105816800D01*
X123627701Y-105816800D01*
X123627701Y-104266800D01*
X123691700Y-104266800D01*
X123694400Y-104775700D01*
X123833900Y-104915200D01*
X124775800Y-104915200D01*
X124775800Y-103848300D01*
X125029000Y-103848300D01*
X125029000Y-104915200D01*
X125970900Y-104915200D01*
X126110400Y-104775700D01*
X126113100Y-104266800D01*
X128522694Y-104266800D01*
X128522694Y-105816800D01*
X128527108Y-105861613D01*
X128540179Y-105904705D01*
X128561406Y-105944418D01*
X128589973Y-105979227D01*
X128624782Y-106007794D01*
X128664495Y-106029021D01*
X128707587Y-106042092D01*
X128752400Y-106046506D01*
X130052400Y-106046506D01*
X130097213Y-106042092D01*
X130140305Y-106029021D01*
X130180018Y-106007794D01*
X130214827Y-105979227D01*
X130243394Y-105944418D01*
X130264621Y-105904705D01*
X130277692Y-105861613D01*
X130282106Y-105816800D01*
X130282106Y-104266800D01*
X131473144Y-104266800D01*
X131473144Y-105816800D01*
X131477558Y-105861613D01*
X131490629Y-105904705D01*
X131511856Y-105944418D01*
X131540423Y-105979227D01*
X131575232Y-106007794D01*
X131614945Y-106029021D01*
X131658037Y-106042092D01*
X131702850Y-106046506D01*
X133002850Y-106046506D01*
X133047663Y-106042092D01*
X133090755Y-106029021D01*
X133130468Y-106007794D01*
X133165277Y-105979227D01*
X133193844Y-105944418D01*
X133215071Y-105904705D01*
X133228142Y-105861613D01*
X133232556Y-105816800D01*
X135642150Y-105816800D01*
X135652924Y-105926187D01*
X135684831Y-106031371D01*
X135736645Y-106128308D01*
X135806375Y-106213275D01*
X135891342Y-106283005D01*
X135988279Y-106334819D01*
X136093463Y-106366726D01*
X136202850Y-106377500D01*
X136586750Y-106374800D01*
X136726250Y-106235300D01*
X136726250Y-105168400D01*
X136979450Y-105168400D01*
X136979450Y-106235300D01*
X137118950Y-106374800D01*
X137502850Y-106377500D01*
X137612237Y-106366726D01*
X137717421Y-106334819D01*
X137814358Y-106283005D01*
X137899325Y-106213275D01*
X137969055Y-106128308D01*
X138020869Y-106031371D01*
X138052776Y-105926187D01*
X138063550Y-105816800D01*
X138060850Y-105307900D01*
X137921350Y-105168400D01*
X136979450Y-105168400D01*
X136726250Y-105168400D01*
X135784350Y-105168400D01*
X135644850Y-105307900D01*
X135642150Y-105816800D01*
X133232556Y-105816800D01*
X133232556Y-104266800D01*
X135642150Y-104266800D01*
X135644850Y-104775700D01*
X135784350Y-104915200D01*
X136726250Y-104915200D01*
X136726250Y-103848300D01*
X136979450Y-103848300D01*
X136979450Y-104915200D01*
X137921350Y-104915200D01*
X138060850Y-104775700D01*
X138063550Y-104266800D01*
X138052776Y-104157413D01*
X138020869Y-104052229D01*
X137969055Y-103955292D01*
X137899325Y-103870325D01*
X137814358Y-103800595D01*
X137717421Y-103748781D01*
X137612237Y-103716874D01*
X137502850Y-103706100D01*
X137118950Y-103708800D01*
X136979450Y-103848300D01*
X136726250Y-103848300D01*
X136586750Y-103708800D01*
X136202850Y-103706100D01*
X136093463Y-103716874D01*
X135988279Y-103748781D01*
X135891342Y-103800595D01*
X135806375Y-103870325D01*
X135736645Y-103955292D01*
X135684831Y-104052229D01*
X135652924Y-104157413D01*
X135642150Y-104266800D01*
X133232556Y-104266800D01*
X133228142Y-104221987D01*
X133215071Y-104178895D01*
X133193844Y-104139182D01*
X133165277Y-104104373D01*
X133130468Y-104075806D01*
X133090755Y-104054579D01*
X133047663Y-104041508D01*
X133002850Y-104037094D01*
X131702850Y-104037094D01*
X131658037Y-104041508D01*
X131614945Y-104054579D01*
X131575232Y-104075806D01*
X131540423Y-104104373D01*
X131511856Y-104139182D01*
X131490629Y-104178895D01*
X131477558Y-104221987D01*
X131473144Y-104266800D01*
X130282106Y-104266800D01*
X130277692Y-104221987D01*
X130264621Y-104178895D01*
X130243394Y-104139182D01*
X130214827Y-104104373D01*
X130180018Y-104075806D01*
X130140305Y-104054579D01*
X130097213Y-104041508D01*
X130052400Y-104037094D01*
X128752400Y-104037094D01*
X128707587Y-104041508D01*
X128664495Y-104054579D01*
X128624782Y-104075806D01*
X128589973Y-104104373D01*
X128561406Y-104139182D01*
X128540179Y-104178895D01*
X128527108Y-104221987D01*
X128522694Y-104266800D01*
X126113100Y-104266800D01*
X126102326Y-104157413D01*
X126070419Y-104052229D01*
X126018605Y-103955292D01*
X125948875Y-103870325D01*
X125863908Y-103800595D01*
X125766971Y-103748781D01*
X125661787Y-103716874D01*
X125552400Y-103706100D01*
X125168500Y-103708800D01*
X125029000Y-103848300D01*
X124775800Y-103848300D01*
X124636300Y-103708800D01*
X124252400Y-103706100D01*
X124143013Y-103716874D01*
X124037829Y-103748781D01*
X123940892Y-103800595D01*
X123855925Y-103870325D01*
X123786195Y-103955292D01*
X123734381Y-104052229D01*
X123702474Y-104157413D01*
X123691700Y-104266800D01*
X123627701Y-104266800D01*
X123627701Y-102043126D01*
X125640614Y-102043126D01*
X125951138Y-102465239D01*
X126525453Y-102773085D01*
X127148791Y-102962972D01*
X127797197Y-103027603D01*
X128216519Y-102986800D01*
X131212600Y-102986800D01*
X131223374Y-103096187D01*
X131255281Y-103201371D01*
X131307095Y-103298308D01*
X131376825Y-103383275D01*
X131461792Y-103453005D01*
X131558729Y-103504819D01*
X131663913Y-103536726D01*
X131773300Y-103547500D01*
X131864700Y-103544800D01*
X132004200Y-103405300D01*
X132004200Y-102793400D01*
X131354800Y-102793400D01*
X131215300Y-102932900D01*
X131212600Y-102986800D01*
X128216519Y-102986800D01*
X128445753Y-102964494D01*
X129069536Y-102776072D01*
X129644573Y-102469575D01*
X129651062Y-102465239D01*
X129738190Y-102346800D01*
X131212600Y-102346800D01*
X131215300Y-102400700D01*
X131354800Y-102540200D01*
X132004200Y-102540200D01*
X132004200Y-101928300D01*
X132257400Y-101928300D01*
X132257400Y-102540200D01*
X132277400Y-102540200D01*
X132277400Y-102793400D01*
X132257400Y-102793400D01*
X132257400Y-103405300D01*
X132396900Y-103544800D01*
X132488300Y-103547500D01*
X132597687Y-103536726D01*
X132702871Y-103504819D01*
X132799808Y-103453005D01*
X132884775Y-103383275D01*
X132954505Y-103298308D01*
X133006319Y-103201371D01*
X133008067Y-103195608D01*
X133052272Y-103209018D01*
X133128300Y-103216506D01*
X133523300Y-103216506D01*
X133599328Y-103209018D01*
X133672434Y-103186841D01*
X133739809Y-103150829D01*
X133798864Y-103102364D01*
X133847329Y-103043309D01*
X133859574Y-103020400D01*
X134073640Y-103020400D01*
X134092658Y-103083092D01*
X134135832Y-103163866D01*
X134193935Y-103234665D01*
X134264734Y-103292768D01*
X134345508Y-103335942D01*
X134433153Y-103362529D01*
X134524300Y-103371506D01*
X135099300Y-103371506D01*
X135190447Y-103362529D01*
X135278092Y-103335942D01*
X135358866Y-103292768D01*
X135429665Y-103234665D01*
X135487768Y-103163866D01*
X135530942Y-103083092D01*
X135557529Y-102995447D01*
X135566506Y-102904300D01*
X135566506Y-102429300D01*
X135557529Y-102338153D01*
X135530942Y-102250508D01*
X135487768Y-102169734D01*
X135429665Y-102098935D01*
X135358866Y-102040832D01*
X135278092Y-101997658D01*
X135190447Y-101971071D01*
X135099300Y-101962094D01*
X134524300Y-101962094D01*
X134433153Y-101971071D01*
X134345508Y-101997658D01*
X134264734Y-102040832D01*
X134193935Y-102098935D01*
X134135832Y-102169734D01*
X134092658Y-102250508D01*
X134073640Y-102313200D01*
X133859574Y-102313200D01*
X133847329Y-102290291D01*
X133798864Y-102231236D01*
X133739809Y-102182771D01*
X133672434Y-102146759D01*
X133599328Y-102124582D01*
X133523300Y-102117094D01*
X133128300Y-102117094D01*
X133052272Y-102124582D01*
X133008067Y-102137992D01*
X133006319Y-102132229D01*
X132954505Y-102035292D01*
X132884775Y-101950325D01*
X132799808Y-101880595D01*
X132702871Y-101828781D01*
X132597687Y-101796874D01*
X132488300Y-101786100D01*
X132396900Y-101788800D01*
X132257400Y-101928300D01*
X132004200Y-101928300D01*
X131864700Y-101788800D01*
X131773300Y-101786100D01*
X131663913Y-101796874D01*
X131558729Y-101828781D01*
X131461792Y-101880595D01*
X131376825Y-101950325D01*
X131307095Y-102035292D01*
X131255281Y-102132229D01*
X131223374Y-102237413D01*
X131212600Y-102346800D01*
X129738190Y-102346800D01*
X129961586Y-102043126D01*
X127801100Y-99882639D01*
X125640614Y-102043126D01*
X123627701Y-102043126D01*
X123627701Y-99699697D01*
X124477097Y-99699697D01*
X124540206Y-100348253D01*
X124728628Y-100972036D01*
X125035125Y-101547073D01*
X125039461Y-101553562D01*
X125461574Y-101864086D01*
X127622061Y-99703600D01*
X127980139Y-99703600D01*
X130140626Y-101864086D01*
X130562739Y-101553562D01*
X130870585Y-100979247D01*
X131060472Y-100355909D01*
X131066857Y-100291850D01*
X131212600Y-100291850D01*
X131223374Y-100401237D01*
X131255281Y-100506421D01*
X131307095Y-100603358D01*
X131376825Y-100688325D01*
X131461792Y-100758055D01*
X131558729Y-100809869D01*
X131663913Y-100841776D01*
X131773300Y-100852550D01*
X131864700Y-100849850D01*
X132004200Y-100710350D01*
X132004200Y-100098450D01*
X131354800Y-100098450D01*
X131215300Y-100237950D01*
X131212600Y-100291850D01*
X131066857Y-100291850D01*
X131125103Y-99707503D01*
X131119688Y-99651850D01*
X131212600Y-99651850D01*
X131215300Y-99705750D01*
X131354800Y-99845250D01*
X132004200Y-99845250D01*
X132004200Y-99233350D01*
X132257400Y-99233350D01*
X132257400Y-99845250D01*
X132277400Y-99845250D01*
X132277400Y-100098450D01*
X132257400Y-100098450D01*
X132257400Y-100710350D01*
X132396900Y-100849850D01*
X132488300Y-100852550D01*
X132597687Y-100841776D01*
X132702871Y-100809869D01*
X132799808Y-100758055D01*
X132884775Y-100688325D01*
X132954505Y-100603358D01*
X133006319Y-100506421D01*
X133008067Y-100500658D01*
X133052272Y-100514068D01*
X133128300Y-100521556D01*
X133523300Y-100521556D01*
X133599328Y-100514068D01*
X133672434Y-100491891D01*
X133739809Y-100455879D01*
X133798864Y-100407414D01*
X133847329Y-100348359D01*
X133859574Y-100325450D01*
X134073640Y-100325450D01*
X134092658Y-100388142D01*
X134135832Y-100468916D01*
X134193935Y-100539715D01*
X134264734Y-100597818D01*
X134345508Y-100640992D01*
X134433153Y-100667579D01*
X134524300Y-100676556D01*
X135099300Y-100676556D01*
X135190447Y-100667579D01*
X135278092Y-100640992D01*
X135358866Y-100597818D01*
X135429665Y-100539715D01*
X135487768Y-100468916D01*
X135530942Y-100388142D01*
X135557529Y-100300497D01*
X135566506Y-100209350D01*
X135566506Y-99734350D01*
X135557529Y-99643203D01*
X135530942Y-99555558D01*
X135487768Y-99474784D01*
X135429665Y-99403985D01*
X135358866Y-99345882D01*
X135278092Y-99302708D01*
X135190447Y-99276121D01*
X135099300Y-99267144D01*
X134524300Y-99267144D01*
X134433153Y-99276121D01*
X134345508Y-99302708D01*
X134264734Y-99345882D01*
X134193935Y-99403985D01*
X134135832Y-99474784D01*
X134092658Y-99555558D01*
X134073640Y-99618250D01*
X133859574Y-99618250D01*
X133847329Y-99595341D01*
X133798864Y-99536286D01*
X133739809Y-99487821D01*
X133672434Y-99451809D01*
X133599328Y-99429632D01*
X133523300Y-99422144D01*
X133128300Y-99422144D01*
X133052272Y-99429632D01*
X133008067Y-99443042D01*
X133006319Y-99437279D01*
X132954505Y-99340342D01*
X132884775Y-99255375D01*
X132799808Y-99185645D01*
X132702871Y-99133831D01*
X132597687Y-99101924D01*
X132488300Y-99091150D01*
X132396900Y-99093850D01*
X132257400Y-99233350D01*
X132004200Y-99233350D01*
X131864700Y-99093850D01*
X131773300Y-99091150D01*
X131663913Y-99101924D01*
X131558729Y-99133831D01*
X131461792Y-99185645D01*
X131376825Y-99255375D01*
X131307095Y-99340342D01*
X131255281Y-99437279D01*
X131223374Y-99542463D01*
X131212600Y-99651850D01*
X131119688Y-99651850D01*
X131061994Y-99058947D01*
X130873572Y-98435164D01*
X130567075Y-97860127D01*
X130562739Y-97853638D01*
X130213742Y-97596901D01*
X131212600Y-97596901D01*
X131223374Y-97706288D01*
X131255281Y-97811472D01*
X131307095Y-97908409D01*
X131376825Y-97993376D01*
X131461792Y-98063106D01*
X131558729Y-98114920D01*
X131663913Y-98146827D01*
X131773300Y-98157601D01*
X131864700Y-98154901D01*
X132004200Y-98015401D01*
X132004200Y-97403501D01*
X131354800Y-97403501D01*
X131215300Y-97543001D01*
X131212600Y-97596901D01*
X130213742Y-97596901D01*
X130140626Y-97543114D01*
X127980139Y-99703600D01*
X127622061Y-99703600D01*
X125461574Y-97543114D01*
X125039461Y-97853638D01*
X124731615Y-98427953D01*
X124541728Y-99051291D01*
X124477097Y-99699697D01*
X123627701Y-99699697D01*
X123627701Y-97364074D01*
X125640614Y-97364074D01*
X127801100Y-99524561D01*
X129961586Y-97364074D01*
X129662053Y-96956901D01*
X131212600Y-96956901D01*
X131215300Y-97010801D01*
X131354800Y-97150301D01*
X132004200Y-97150301D01*
X132004200Y-96538401D01*
X132257400Y-96538401D01*
X132257400Y-97150301D01*
X132277400Y-97150301D01*
X132277400Y-97403501D01*
X132257400Y-97403501D01*
X132257400Y-98015401D01*
X132396900Y-98154901D01*
X132488300Y-98157601D01*
X132597687Y-98146827D01*
X132702871Y-98114920D01*
X132799808Y-98063106D01*
X132884775Y-97993376D01*
X132954505Y-97908409D01*
X133006319Y-97811472D01*
X133008067Y-97805709D01*
X133052272Y-97819119D01*
X133128300Y-97826607D01*
X133523300Y-97826607D01*
X133599328Y-97819119D01*
X133672434Y-97796942D01*
X133739809Y-97760930D01*
X133798864Y-97712465D01*
X133847329Y-97653410D01*
X133859574Y-97630501D01*
X134073640Y-97630501D01*
X134092658Y-97693193D01*
X134135832Y-97773967D01*
X134193935Y-97844766D01*
X134264734Y-97902869D01*
X134345508Y-97946043D01*
X134433153Y-97972630D01*
X134524300Y-97981607D01*
X135099300Y-97981607D01*
X135190447Y-97972630D01*
X135278092Y-97946043D01*
X135358866Y-97902869D01*
X135429665Y-97844766D01*
X135487768Y-97773967D01*
X135530942Y-97693193D01*
X135557529Y-97605548D01*
X135566506Y-97514401D01*
X135566506Y-97039401D01*
X135557529Y-96948254D01*
X135530942Y-96860609D01*
X135487768Y-96779835D01*
X135429665Y-96709036D01*
X135358866Y-96650933D01*
X135278092Y-96607759D01*
X135190447Y-96581172D01*
X135099300Y-96572195D01*
X134524300Y-96572195D01*
X134433153Y-96581172D01*
X134345508Y-96607759D01*
X134264734Y-96650933D01*
X134193935Y-96709036D01*
X134135832Y-96779835D01*
X134092658Y-96860609D01*
X134073640Y-96923301D01*
X133859574Y-96923301D01*
X133847329Y-96900392D01*
X133798864Y-96841337D01*
X133739809Y-96792872D01*
X133672434Y-96756860D01*
X133599328Y-96734683D01*
X133523300Y-96727195D01*
X133128300Y-96727195D01*
X133052272Y-96734683D01*
X133008067Y-96748093D01*
X133006319Y-96742330D01*
X132954505Y-96645393D01*
X132884775Y-96560426D01*
X132799808Y-96490696D01*
X132702871Y-96438882D01*
X132597687Y-96406975D01*
X132488300Y-96396201D01*
X132396900Y-96398901D01*
X132257400Y-96538401D01*
X132004200Y-96538401D01*
X131864700Y-96398901D01*
X131773300Y-96396201D01*
X131663913Y-96406975D01*
X131558729Y-96438882D01*
X131461792Y-96490696D01*
X131376825Y-96560426D01*
X131307095Y-96645393D01*
X131255281Y-96742330D01*
X131223374Y-96847514D01*
X131212600Y-96956901D01*
X129662053Y-96956901D01*
X129651062Y-96941961D01*
X129076747Y-96634115D01*
X128453409Y-96444228D01*
X127805003Y-96379597D01*
X127156447Y-96442706D01*
X126532664Y-96631128D01*
X125957627Y-96937625D01*
X125951138Y-96941961D01*
X125640614Y-97364074D01*
X123627701Y-97364074D01*
X123627701Y-97009794D01*
X123663976Y-96639840D01*
X123769616Y-96289937D01*
X123941212Y-95967214D01*
X124172220Y-95683970D01*
X124453850Y-95450984D01*
X124775364Y-95277142D01*
X125124524Y-95169059D01*
X125493991Y-95130227D01*
X125501259Y-95130201D01*
X171494906Y-95130201D01*
X171864860Y-95166476D01*
G37*
%TD.AperFunction*%
D21*
X140137700Y-97852800D02*
X140157700Y-97852800D01*
X140157700Y-98106000D01*
X140137700Y-98106000D01*
X140137700Y-99039368D01*
X140304398Y-99146928D01*
X140463017Y-99088504D01*
X140646323Y-98981430D01*
X140805217Y-98840652D01*
X140819947Y-98821253D01*
X140822463Y-98822598D01*
X140912434Y-98849891D01*
X141006000Y-98859106D01*
X141556200Y-98859106D01*
X141649766Y-98849891D01*
X141739737Y-98822598D01*
X141822655Y-98778278D01*
X141895333Y-98718633D01*
X141954978Y-98645955D01*
X141999298Y-98563037D01*
X142026591Y-98473066D01*
X142035806Y-98379500D01*
X142035806Y-98333000D01*
X145650457Y-98333000D01*
X146848851Y-99531394D01*
X146835950Y-99531394D01*
X146759922Y-99538882D01*
X146686816Y-99561059D01*
X146619441Y-99597071D01*
X146560386Y-99645536D01*
X146511921Y-99704591D01*
X146479632Y-99765000D01*
X146261243Y-99765000D01*
X146228954Y-99704591D01*
X146180489Y-99645536D01*
X146121434Y-99597071D01*
X146054059Y-99561059D01*
X145980953Y-99538882D01*
X145904925Y-99531394D01*
X145584925Y-99531394D01*
X145508897Y-99538882D01*
X145435791Y-99561059D01*
X145368416Y-99597071D01*
X145309361Y-99645536D01*
X145260896Y-99704591D01*
X145255601Y-99714498D01*
X145127402Y-99714498D01*
X145266900Y-99575000D01*
X145269600Y-99316100D01*
X145258826Y-99206713D01*
X145226919Y-99101529D01*
X145175105Y-99004592D01*
X145105375Y-98919625D01*
X145020408Y-98849895D01*
X144923471Y-98798081D01*
X144818287Y-98766174D01*
X144708900Y-98755400D01*
X144500000Y-98758100D01*
X144360500Y-98897600D01*
X144360500Y-99714500D01*
X144380500Y-99714500D01*
X144380500Y-99967700D01*
X144360500Y-99967700D01*
X144360500Y-99987700D01*
X144107300Y-99987700D01*
X144107300Y-99967700D01*
X143340400Y-99967700D01*
X143200900Y-100107200D01*
X143198200Y-100366100D01*
X143208974Y-100475487D01*
X143240881Y-100580671D01*
X143292695Y-100677608D01*
X143362425Y-100762575D01*
X143447392Y-100832305D01*
X143544329Y-100884119D01*
X143649513Y-100916026D01*
X143726504Y-100923609D01*
X143666035Y-100973235D01*
X143607932Y-101044034D01*
X143564758Y-101124808D01*
X143538171Y-101212453D01*
X143529194Y-101303600D01*
X143529194Y-101878600D01*
X143538171Y-101969747D01*
X143564758Y-102057392D01*
X143607932Y-102138166D01*
X143666035Y-102208965D01*
X143736834Y-102267068D01*
X143817608Y-102310242D01*
X143905253Y-102336829D01*
X143996400Y-102345806D01*
X144471400Y-102345806D01*
X144562547Y-102336829D01*
X144650192Y-102310242D01*
X144730966Y-102267068D01*
X144801765Y-102208965D01*
X144859868Y-102138166D01*
X144890390Y-102081062D01*
X144890390Y-103194107D01*
X144886953Y-103191286D01*
X144821307Y-103156197D01*
X144750077Y-103134590D01*
X144676000Y-103127294D01*
X144376060Y-103127294D01*
X142088285Y-100839520D01*
X142124014Y-100753263D01*
X142159700Y-100573859D01*
X142159700Y-100390941D01*
X142124014Y-100211537D01*
X142054015Y-100042543D01*
X141952391Y-99890452D01*
X141823048Y-99761109D01*
X141670957Y-99659485D01*
X141501963Y-99589486D01*
X141322559Y-99553800D01*
X141139641Y-99553800D01*
X140960237Y-99589486D01*
X140791243Y-99659485D01*
X140639152Y-99761109D01*
X140509809Y-99890452D01*
X140408185Y-100042543D01*
X140338186Y-100211537D01*
X140302500Y-100390941D01*
X140302500Y-100573859D01*
X140338186Y-100753263D01*
X140408185Y-100922257D01*
X140509809Y-101074348D01*
X140639152Y-101203691D01*
X140791243Y-101305315D01*
X140960237Y-101375314D01*
X141139641Y-101411000D01*
X141322559Y-101411000D01*
X141501963Y-101375314D01*
X141588220Y-101339585D01*
X143375928Y-103127294D01*
X143106000Y-103127294D01*
X143031923Y-103134590D01*
X142960693Y-103156197D01*
X142895047Y-103191286D01*
X142837507Y-103238507D01*
X142790286Y-103296047D01*
X142755197Y-103361693D01*
X142733590Y-103432923D01*
X142726294Y-103507000D01*
X142726294Y-105157000D01*
X142733590Y-105231077D01*
X142755197Y-105302307D01*
X142790286Y-105367953D01*
X142837507Y-105425493D01*
X142895047Y-105472714D01*
X142960693Y-105507803D01*
X143031923Y-105529410D01*
X143106000Y-105536706D01*
X143406000Y-105536706D01*
X143449824Y-105532390D01*
X143971953Y-106054519D01*
X143960900Y-106110088D01*
X143960900Y-106233912D01*
X143985056Y-106355356D01*
X144032441Y-106469754D01*
X144101234Y-106572709D01*
X144188791Y-106660266D01*
X144291746Y-106729059D01*
X144406144Y-106776444D01*
X144527588Y-106800600D01*
X144651412Y-106800600D01*
X144772856Y-106776444D01*
X144887254Y-106729059D01*
X144890391Y-106726963D01*
X144890391Y-107107916D01*
X144863209Y-107080734D01*
X144760254Y-107011941D01*
X144645856Y-106964556D01*
X144524412Y-106940400D01*
X144400588Y-106940400D01*
X144345019Y-106951453D01*
X142515706Y-105122141D01*
X142515706Y-103507000D01*
X142508410Y-103432923D01*
X142486803Y-103361693D01*
X142451714Y-103296047D01*
X142404493Y-103238507D01*
X142346953Y-103191286D01*
X142281307Y-103156197D01*
X142277752Y-103155119D01*
X142248309Y-103119243D01*
X142248304Y-103119238D01*
X142237241Y-103105758D01*
X142223762Y-103094696D01*
X141181103Y-102052038D01*
X141170032Y-102038548D01*
X141116190Y-101994361D01*
X141054761Y-101961526D01*
X140988108Y-101941307D01*
X140936152Y-101936190D01*
X140936142Y-101936190D01*
X140918790Y-101934481D01*
X140901438Y-101936190D01*
X139026206Y-101936190D01*
X138476526Y-101386511D01*
X138599641Y-101411000D01*
X138782559Y-101411000D01*
X138961963Y-101375314D01*
X139130957Y-101305315D01*
X139283048Y-101203691D01*
X139412391Y-101074348D01*
X139514015Y-100922257D01*
X139584014Y-100753263D01*
X139619700Y-100573859D01*
X139619700Y-100390941D01*
X139584014Y-100211537D01*
X139514015Y-100042543D01*
X139412391Y-99890452D01*
X139283048Y-99761109D01*
X139130957Y-99659485D01*
X139044700Y-99623756D01*
X139044700Y-99316100D01*
X143198200Y-99316100D01*
X143200900Y-99575000D01*
X143340400Y-99714500D01*
X144107300Y-99714500D01*
X144107300Y-98897600D01*
X143967800Y-98758100D01*
X143758900Y-98755400D01*
X143649513Y-98766174D01*
X143544329Y-98798081D01*
X143447392Y-98849895D01*
X143362425Y-98919625D01*
X143292695Y-99004592D01*
X143240881Y-99101529D01*
X143208974Y-99206713D01*
X143198200Y-99316100D01*
X139044700Y-99316100D01*
X139044700Y-98796619D01*
X139143464Y-98743829D01*
X139216983Y-98840652D01*
X139375877Y-98981430D01*
X139559183Y-99088504D01*
X139717802Y-99146928D01*
X139884500Y-99039368D01*
X139884500Y-98106000D01*
X139864500Y-98106000D01*
X139864500Y-97852800D01*
X139884500Y-97852800D01*
X139884500Y-97832800D01*
X140137700Y-97832800D01*
X140137700Y-97852800D01*
%TA.AperFunction,Conductor*%
D22*
G36*
X140137700Y-97852800D02*
G01*
X140157700Y-97852800D01*
X140157700Y-98106000D01*
X140137700Y-98106000D01*
X140137700Y-99039368D01*
X140304398Y-99146928D01*
X140463017Y-99088504D01*
X140646323Y-98981430D01*
X140805217Y-98840652D01*
X140819947Y-98821253D01*
X140822463Y-98822598D01*
X140912434Y-98849891D01*
X141006000Y-98859106D01*
X141556200Y-98859106D01*
X141649766Y-98849891D01*
X141739737Y-98822598D01*
X141822655Y-98778278D01*
X141895333Y-98718633D01*
X141954978Y-98645955D01*
X141999298Y-98563037D01*
X142026591Y-98473066D01*
X142035806Y-98379500D01*
X142035806Y-98333000D01*
X145650457Y-98333000D01*
X146848851Y-99531394D01*
X146835950Y-99531394D01*
X146759922Y-99538882D01*
X146686816Y-99561059D01*
X146619441Y-99597071D01*
X146560386Y-99645536D01*
X146511921Y-99704591D01*
X146479632Y-99765000D01*
X146261243Y-99765000D01*
X146228954Y-99704591D01*
X146180489Y-99645536D01*
X146121434Y-99597071D01*
X146054059Y-99561059D01*
X145980953Y-99538882D01*
X145904925Y-99531394D01*
X145584925Y-99531394D01*
X145508897Y-99538882D01*
X145435791Y-99561059D01*
X145368416Y-99597071D01*
X145309361Y-99645536D01*
X145260896Y-99704591D01*
X145255601Y-99714498D01*
X145127402Y-99714498D01*
X145266900Y-99575000D01*
X145269600Y-99316100D01*
X145258826Y-99206713D01*
X145226919Y-99101529D01*
X145175105Y-99004592D01*
X145105375Y-98919625D01*
X145020408Y-98849895D01*
X144923471Y-98798081D01*
X144818287Y-98766174D01*
X144708900Y-98755400D01*
X144500000Y-98758100D01*
X144360500Y-98897600D01*
X144360500Y-99714500D01*
X144380500Y-99714500D01*
X144380500Y-99967700D01*
X144360500Y-99967700D01*
X144360500Y-99987700D01*
X144107300Y-99987700D01*
X144107300Y-99967700D01*
X143340400Y-99967700D01*
X143200900Y-100107200D01*
X143198200Y-100366100D01*
X143208974Y-100475487D01*
X143240881Y-100580671D01*
X143292695Y-100677608D01*
X143362425Y-100762575D01*
X143447392Y-100832305D01*
X143544329Y-100884119D01*
X143649513Y-100916026D01*
X143726504Y-100923609D01*
X143666035Y-100973235D01*
X143607932Y-101044034D01*
X143564758Y-101124808D01*
X143538171Y-101212453D01*
X143529194Y-101303600D01*
X143529194Y-101878600D01*
X143538171Y-101969747D01*
X143564758Y-102057392D01*
X143607932Y-102138166D01*
X143666035Y-102208965D01*
X143736834Y-102267068D01*
X143817608Y-102310242D01*
X143905253Y-102336829D01*
X143996400Y-102345806D01*
X144471400Y-102345806D01*
X144562547Y-102336829D01*
X144650192Y-102310242D01*
X144730966Y-102267068D01*
X144801765Y-102208965D01*
X144859868Y-102138166D01*
X144890390Y-102081062D01*
X144890390Y-103194107D01*
X144886953Y-103191286D01*
X144821307Y-103156197D01*
X144750077Y-103134590D01*
X144676000Y-103127294D01*
X144376060Y-103127294D01*
X142088285Y-100839520D01*
X142124014Y-100753263D01*
X142159700Y-100573859D01*
X142159700Y-100390941D01*
X142124014Y-100211537D01*
X142054015Y-100042543D01*
X141952391Y-99890452D01*
X141823048Y-99761109D01*
X141670957Y-99659485D01*
X141501963Y-99589486D01*
X141322559Y-99553800D01*
X141139641Y-99553800D01*
X140960237Y-99589486D01*
X140791243Y-99659485D01*
X140639152Y-99761109D01*
X140509809Y-99890452D01*
X140408185Y-100042543D01*
X140338186Y-100211537D01*
X140302500Y-100390941D01*
X140302500Y-100573859D01*
X140338186Y-100753263D01*
X140408185Y-100922257D01*
X140509809Y-101074348D01*
X140639152Y-101203691D01*
X140791243Y-101305315D01*
X140960237Y-101375314D01*
X141139641Y-101411000D01*
X141322559Y-101411000D01*
X141501963Y-101375314D01*
X141588220Y-101339585D01*
X143375928Y-103127294D01*
X143106000Y-103127294D01*
X143031923Y-103134590D01*
X142960693Y-103156197D01*
X142895047Y-103191286D01*
X142837507Y-103238507D01*
X142790286Y-103296047D01*
X142755197Y-103361693D01*
X142733590Y-103432923D01*
X142726294Y-103507000D01*
X142726294Y-105157000D01*
X142733590Y-105231077D01*
X142755197Y-105302307D01*
X142790286Y-105367953D01*
X142837507Y-105425493D01*
X142895047Y-105472714D01*
X142960693Y-105507803D01*
X143031923Y-105529410D01*
X143106000Y-105536706D01*
X143406000Y-105536706D01*
X143449824Y-105532390D01*
X143971953Y-106054519D01*
X143960900Y-106110088D01*
X143960900Y-106233912D01*
X143985056Y-106355356D01*
X144032441Y-106469754D01*
X144101234Y-106572709D01*
X144188791Y-106660266D01*
X144291746Y-106729059D01*
X144406144Y-106776444D01*
X144527588Y-106800600D01*
X144651412Y-106800600D01*
X144772856Y-106776444D01*
X144887254Y-106729059D01*
X144890391Y-106726963D01*
X144890391Y-107107916D01*
X144863209Y-107080734D01*
X144760254Y-107011941D01*
X144645856Y-106964556D01*
X144524412Y-106940400D01*
X144400588Y-106940400D01*
X144345019Y-106951453D01*
X142515706Y-105122141D01*
X142515706Y-103507000D01*
X142508410Y-103432923D01*
X142486803Y-103361693D01*
X142451714Y-103296047D01*
X142404493Y-103238507D01*
X142346953Y-103191286D01*
X142281307Y-103156197D01*
X142277752Y-103155119D01*
X142248309Y-103119243D01*
X142248304Y-103119238D01*
X142237241Y-103105758D01*
X142223762Y-103094696D01*
X141181103Y-102052038D01*
X141170032Y-102038548D01*
X141116190Y-101994361D01*
X141054761Y-101961526D01*
X140988108Y-101941307D01*
X140936152Y-101936190D01*
X140936142Y-101936190D01*
X140918790Y-101934481D01*
X140901438Y-101936190D01*
X139026206Y-101936190D01*
X138476526Y-101386511D01*
X138599641Y-101411000D01*
X138782559Y-101411000D01*
X138961963Y-101375314D01*
X139130957Y-101305315D01*
X139283048Y-101203691D01*
X139412391Y-101074348D01*
X139514015Y-100922257D01*
X139584014Y-100753263D01*
X139619700Y-100573859D01*
X139619700Y-100390941D01*
X139584014Y-100211537D01*
X139514015Y-100042543D01*
X139412391Y-99890452D01*
X139283048Y-99761109D01*
X139130957Y-99659485D01*
X139044700Y-99623756D01*
X139044700Y-99316100D01*
X143198200Y-99316100D01*
X143200900Y-99575000D01*
X143340400Y-99714500D01*
X144107300Y-99714500D01*
X144107300Y-98897600D01*
X143967800Y-98758100D01*
X143758900Y-98755400D01*
X143649513Y-98766174D01*
X143544329Y-98798081D01*
X143447392Y-98849895D01*
X143362425Y-98919625D01*
X143292695Y-99004592D01*
X143240881Y-99101529D01*
X143208974Y-99206713D01*
X143198200Y-99316100D01*
X139044700Y-99316100D01*
X139044700Y-98796619D01*
X139143464Y-98743829D01*
X139216983Y-98840652D01*
X139375877Y-98981430D01*
X139559183Y-99088504D01*
X139717802Y-99146928D01*
X139884500Y-99039368D01*
X139884500Y-98106000D01*
X139864500Y-98106000D01*
X139864500Y-97852800D01*
X139884500Y-97852800D01*
X139884500Y-97832800D01*
X140137700Y-97832800D01*
X140137700Y-97852800D01*
G37*
%TD.AperFunction*%
D21*
X151850090Y-100187855D02*
X151707791Y-100424364D01*
X151614367Y-100684090D01*
X151716798Y-100901900D01*
X152853000Y-100901900D01*
X152853000Y-100881900D01*
X153106200Y-100881900D01*
X153106200Y-100901900D01*
X153126200Y-100901900D01*
X153126200Y-101155100D01*
X153106200Y-101155100D01*
X153106200Y-101175100D01*
X152853000Y-101175100D01*
X152853000Y-101155100D01*
X151716798Y-101155100D01*
X151614367Y-101372910D01*
X151707791Y-101632636D01*
X151850090Y-101869145D01*
X152035795Y-102073349D01*
X152257770Y-102237400D01*
X152507484Y-102354993D01*
X152635191Y-102393728D01*
X152844135Y-102294862D01*
X151160597Y-103978400D01*
X147595706Y-103978400D01*
X147595706Y-103507000D01*
X147590938Y-103458590D01*
X148406620Y-103458590D01*
X148423972Y-103460299D01*
X148441324Y-103458590D01*
X148441334Y-103458590D01*
X148493290Y-103453473D01*
X148559943Y-103433254D01*
X148621372Y-103400419D01*
X148675214Y-103356232D01*
X148686285Y-103342742D01*
X151939605Y-100089423D01*
X151850090Y-100187855D01*
%TA.AperFunction,Conductor*%
D22*
G36*
X151850090Y-100187855D02*
G01*
X151707791Y-100424364D01*
X151614367Y-100684090D01*
X151716798Y-100901900D01*
X152853000Y-100901900D01*
X152853000Y-100881900D01*
X153106200Y-100881900D01*
X153106200Y-100901900D01*
X153126200Y-100901900D01*
X153126200Y-101155100D01*
X153106200Y-101155100D01*
X153106200Y-101175100D01*
X152853000Y-101175100D01*
X152853000Y-101155100D01*
X151716798Y-101155100D01*
X151614367Y-101372910D01*
X151707791Y-101632636D01*
X151850090Y-101869145D01*
X152035795Y-102073349D01*
X152257770Y-102237400D01*
X152507484Y-102354993D01*
X152635191Y-102393728D01*
X152844135Y-102294862D01*
X151160597Y-103978400D01*
X147595706Y-103978400D01*
X147595706Y-103507000D01*
X147590938Y-103458590D01*
X148406620Y-103458590D01*
X148423972Y-103460299D01*
X148441324Y-103458590D01*
X148441334Y-103458590D01*
X148493290Y-103453473D01*
X148559943Y-103433254D01*
X148621372Y-103400419D01*
X148675214Y-103356232D01*
X148686285Y-103342742D01*
X151939605Y-100089423D01*
X151850090Y-100187855D01*
G37*
%TD.AperFunction*%
D21*
X147122550Y-101187000D02*
X147142550Y-101187000D01*
X147142550Y-101440200D01*
X147122550Y-101440200D01*
X147122550Y-102089600D01*
X147262050Y-102229100D01*
X147315950Y-102231800D01*
X147425337Y-102221026D01*
X147530521Y-102189119D01*
X147627458Y-102137305D01*
X147712425Y-102067575D01*
X147782155Y-101982608D01*
X147833969Y-101885671D01*
X147853519Y-101821221D01*
X147870466Y-101835129D01*
X147937841Y-101871141D01*
X148010947Y-101893318D01*
X148086975Y-101900806D01*
X148406975Y-101900806D01*
X148483003Y-101893318D01*
X148556109Y-101871141D01*
X148623484Y-101835129D01*
X148682539Y-101786664D01*
X148731004Y-101727609D01*
X148748788Y-101694336D01*
X148762134Y-101714309D01*
X148849691Y-101801866D01*
X148952646Y-101870659D01*
X149067044Y-101918044D01*
X149103585Y-101925312D01*
X148277507Y-102751390D01*
X146065362Y-102751390D01*
X146048010Y-102749681D01*
X146030658Y-102751390D01*
X146030648Y-102751390D01*
X145978692Y-102756507D01*
X145912039Y-102776726D01*
X145870368Y-102799000D01*
X145850610Y-102809561D01*
X145814762Y-102838981D01*
X145796768Y-102853748D01*
X145785701Y-102867233D01*
X145597590Y-103055345D01*
X145597590Y-101961000D01*
X145657784Y-101900806D01*
X145904925Y-101900806D01*
X145980953Y-101893318D01*
X146054059Y-101871141D01*
X146121434Y-101835129D01*
X146138381Y-101821221D01*
X146157931Y-101885671D01*
X146209745Y-101982608D01*
X146279475Y-102067575D01*
X146364442Y-102137305D01*
X146461379Y-102189119D01*
X146566563Y-102221026D01*
X146675950Y-102231800D01*
X146729850Y-102229100D01*
X146869350Y-102089600D01*
X146869350Y-101440200D01*
X146849350Y-101440200D01*
X146849350Y-101187000D01*
X146869350Y-101187000D01*
X146869350Y-101167000D01*
X147122550Y-101167000D01*
X147122550Y-101187000D01*
%TA.AperFunction,Conductor*%
D22*
G36*
X147122550Y-101187000D02*
G01*
X147142550Y-101187000D01*
X147142550Y-101440200D01*
X147122550Y-101440200D01*
X147122550Y-102089600D01*
X147262050Y-102229100D01*
X147315950Y-102231800D01*
X147425337Y-102221026D01*
X147530521Y-102189119D01*
X147627458Y-102137305D01*
X147712425Y-102067575D01*
X147782155Y-101982608D01*
X147833969Y-101885671D01*
X147853519Y-101821221D01*
X147870466Y-101835129D01*
X147937841Y-101871141D01*
X148010947Y-101893318D01*
X148086975Y-101900806D01*
X148406975Y-101900806D01*
X148483003Y-101893318D01*
X148556109Y-101871141D01*
X148623484Y-101835129D01*
X148682539Y-101786664D01*
X148731004Y-101727609D01*
X148748788Y-101694336D01*
X148762134Y-101714309D01*
X148849691Y-101801866D01*
X148952646Y-101870659D01*
X149067044Y-101918044D01*
X149103585Y-101925312D01*
X148277507Y-102751390D01*
X146065362Y-102751390D01*
X146048010Y-102749681D01*
X146030658Y-102751390D01*
X146030648Y-102751390D01*
X145978692Y-102756507D01*
X145912039Y-102776726D01*
X145870368Y-102799000D01*
X145850610Y-102809561D01*
X145814762Y-102838981D01*
X145796768Y-102853748D01*
X145785701Y-102867233D01*
X145597590Y-103055345D01*
X145597590Y-101961000D01*
X145657784Y-101900806D01*
X145904925Y-101900806D01*
X145980953Y-101893318D01*
X146054059Y-101871141D01*
X146121434Y-101835129D01*
X146138381Y-101821221D01*
X146157931Y-101885671D01*
X146209745Y-101982608D01*
X146279475Y-102067575D01*
X146364442Y-102137305D01*
X146461379Y-102189119D01*
X146566563Y-102221026D01*
X146675950Y-102231800D01*
X146729850Y-102229100D01*
X146869350Y-102089600D01*
X146869350Y-101440200D01*
X146849350Y-101440200D01*
X146849350Y-101187000D01*
X146869350Y-101187000D01*
X146869350Y-101167000D01*
X147122550Y-101167000D01*
X147122550Y-101187000D01*
G37*
%TD.AperFunction*%
%TD*%
M02*
