%TF.GenerationSoftware,KiCad,Pcbnew,(5.1.9)-1*%
%TF.CreationDate,2021-02-27T13:09:48+00:00*%
%TF.ProjectId,filaSens-attiny84,66696c61-5365-46e7-932d-617474696e79,rev?*%
%TF.SameCoordinates,Original*%
%TF.FileFunction,Copper,L1,Top*%
%TF.FilePolarity,Positive*%
%FSLAX46Y46*%
G04 Gerber Fmt 4.6, Leading zero omitted, Abs format (unit mm)*
G04 Created by KiCad (PCBNEW (5.1.9)-1) date 2021-02-27 13:09:48*
%MOMM*%
%LPD*%
G01*
G04 APERTURE LIST*
%TA.AperFunction,ComponentPad*%
%ADD10O,1.700000X1.700000*%
%TD*%
%TA.AperFunction,ComponentPad*%
%ADD11R,1.700000X1.700000*%
%TD*%
%TA.AperFunction,ComponentPad*%
%ADD12C,5.500000*%
%TD*%
%TA.AperFunction,ComponentPad*%
%ADD13O,1.050000X1.300000*%
%TD*%
%TA.AperFunction,SMDPad,CuDef*%
%ADD14R,1.300000X1.550000*%
%TD*%
%TA.AperFunction,SMDPad,CuDef*%
%ADD15R,1.060000X0.650000*%
%TD*%
%TA.AperFunction,ViaPad*%
%ADD16C,0.800000*%
%TD*%
%TA.AperFunction,Conductor*%
%ADD17C,0.250000*%
%TD*%
%TA.AperFunction,Conductor*%
%ADD18C,0.254000*%
%TD*%
%TA.AperFunction,Conductor*%
%ADD19C,0.200000*%
%TD*%
%TA.AperFunction,Conductor*%
%ADD20C,0.203200*%
%TD*%
%TA.AperFunction,Conductor*%
%ADD21C,0.100000*%
%TD*%
G04 APERTURE END LIST*
D10*
%TO.P,J3,6*%
%TO.N,GND*%
X152979600Y-101028500D03*
%TO.P,J3,5*%
%TO.N,/RESET*%
X152979600Y-98488500D03*
%TO.P,J3,4*%
%TO.N,/SDA*%
X155519600Y-101028500D03*
%TO.P,J3,3*%
%TO.N,/SCL*%
X155519600Y-98488500D03*
%TO.P,J3,2*%
%TO.N,/+5v*%
X158059600Y-101028500D03*
D11*
%TO.P,J3,1*%
%TO.N,/MISO*%
X158059600Y-98488500D03*
%TD*%
%TO.P,U1,1*%
%TO.N,/+5v*%
%TA.AperFunction,SMDPad,CuDef*%
G36*
G01*
X139708300Y-113153600D02*
X139408300Y-113153600D01*
G75*
G02*
X139258300Y-113003600I0J150000D01*
G01*
X139258300Y-111353600D01*
G75*
G02*
X139408300Y-111203600I150000J0D01*
G01*
X139708300Y-111203600D01*
G75*
G02*
X139858300Y-111353600I0J-150000D01*
G01*
X139858300Y-113003600D01*
G75*
G02*
X139708300Y-113153600I-150000J0D01*
G01*
G37*
%TD.AperFunction*%
%TO.P,U1,2*%
%TO.N,/STATUS*%
%TA.AperFunction,SMDPad,CuDef*%
G36*
G01*
X140978300Y-113153600D02*
X140678300Y-113153600D01*
G75*
G02*
X140528300Y-113003600I0J150000D01*
G01*
X140528300Y-111353600D01*
G75*
G02*
X140678300Y-111203600I150000J0D01*
G01*
X140978300Y-111203600D01*
G75*
G02*
X141128300Y-111353600I0J-150000D01*
G01*
X141128300Y-113003600D01*
G75*
G02*
X140978300Y-113153600I-150000J0D01*
G01*
G37*
%TD.AperFunction*%
%TO.P,U1,3*%
%TO.N,Net-(U1-Pad3)*%
%TA.AperFunction,SMDPad,CuDef*%
G36*
G01*
X142248300Y-113153600D02*
X141948300Y-113153600D01*
G75*
G02*
X141798300Y-113003600I0J150000D01*
G01*
X141798300Y-111353600D01*
G75*
G02*
X141948300Y-111203600I150000J0D01*
G01*
X142248300Y-111203600D01*
G75*
G02*
X142398300Y-111353600I0J-150000D01*
G01*
X142398300Y-113003600D01*
G75*
G02*
X142248300Y-113153600I-150000J0D01*
G01*
G37*
%TD.AperFunction*%
%TO.P,U1,4*%
%TO.N,/RESET*%
%TA.AperFunction,SMDPad,CuDef*%
G36*
G01*
X143518300Y-113153600D02*
X143218300Y-113153600D01*
G75*
G02*
X143068300Y-113003600I0J150000D01*
G01*
X143068300Y-111353600D01*
G75*
G02*
X143218300Y-111203600I150000J0D01*
G01*
X143518300Y-111203600D01*
G75*
G02*
X143668300Y-111353600I0J-150000D01*
G01*
X143668300Y-113003600D01*
G75*
G02*
X143518300Y-113153600I-150000J0D01*
G01*
G37*
%TD.AperFunction*%
%TO.P,U1,5*%
%TO.N,Net-(S1-Pad1)*%
%TA.AperFunction,SMDPad,CuDef*%
G36*
G01*
X144788300Y-113153600D02*
X144488300Y-113153600D01*
G75*
G02*
X144338300Y-113003600I0J150000D01*
G01*
X144338300Y-111353600D01*
G75*
G02*
X144488300Y-111203600I150000J0D01*
G01*
X144788300Y-111203600D01*
G75*
G02*
X144938300Y-111353600I0J-150000D01*
G01*
X144938300Y-113003600D01*
G75*
G02*
X144788300Y-113153600I-150000J0D01*
G01*
G37*
%TD.AperFunction*%
%TO.P,U1,6*%
%TO.N,/PWM*%
%TA.AperFunction,SMDPad,CuDef*%
G36*
G01*
X146058300Y-113153600D02*
X145758300Y-113153600D01*
G75*
G02*
X145608300Y-113003600I0J150000D01*
G01*
X145608300Y-111353600D01*
G75*
G02*
X145758300Y-111203600I150000J0D01*
G01*
X146058300Y-111203600D01*
G75*
G02*
X146208300Y-111353600I0J-150000D01*
G01*
X146208300Y-113003600D01*
G75*
G02*
X146058300Y-113153600I-150000J0D01*
G01*
G37*
%TD.AperFunction*%
%TO.P,U1,7*%
%TO.N,/SDA*%
%TA.AperFunction,SMDPad,CuDef*%
G36*
G01*
X147328300Y-113153600D02*
X147028300Y-113153600D01*
G75*
G02*
X146878300Y-113003600I0J150000D01*
G01*
X146878300Y-111353600D01*
G75*
G02*
X147028300Y-111203600I150000J0D01*
G01*
X147328300Y-111203600D01*
G75*
G02*
X147478300Y-111353600I0J-150000D01*
G01*
X147478300Y-113003600D01*
G75*
G02*
X147328300Y-113153600I-150000J0D01*
G01*
G37*
%TD.AperFunction*%
%TO.P,U1,8*%
%TO.N,/MISO*%
%TA.AperFunction,SMDPad,CuDef*%
G36*
G01*
X147328300Y-108203600D02*
X147028300Y-108203600D01*
G75*
G02*
X146878300Y-108053600I0J150000D01*
G01*
X146878300Y-106403600D01*
G75*
G02*
X147028300Y-106253600I150000J0D01*
G01*
X147328300Y-106253600D01*
G75*
G02*
X147478300Y-106403600I0J-150000D01*
G01*
X147478300Y-108053600D01*
G75*
G02*
X147328300Y-108203600I-150000J0D01*
G01*
G37*
%TD.AperFunction*%
%TO.P,U1,9*%
%TO.N,/SCL*%
%TA.AperFunction,SMDPad,CuDef*%
G36*
G01*
X146058300Y-108203600D02*
X145758300Y-108203600D01*
G75*
G02*
X145608300Y-108053600I0J150000D01*
G01*
X145608300Y-106403600D01*
G75*
G02*
X145758300Y-106253600I150000J0D01*
G01*
X146058300Y-106253600D01*
G75*
G02*
X146208300Y-106403600I0J-150000D01*
G01*
X146208300Y-108053600D01*
G75*
G02*
X146058300Y-108203600I-150000J0D01*
G01*
G37*
%TD.AperFunction*%
%TO.P,U1,10*%
%TO.N,/IN*%
%TA.AperFunction,SMDPad,CuDef*%
G36*
G01*
X144788300Y-108203600D02*
X144488300Y-108203600D01*
G75*
G02*
X144338300Y-108053600I0J150000D01*
G01*
X144338300Y-106403600D01*
G75*
G02*
X144488300Y-106253600I150000J0D01*
G01*
X144788300Y-106253600D01*
G75*
G02*
X144938300Y-106403600I0J-150000D01*
G01*
X144938300Y-108053600D01*
G75*
G02*
X144788300Y-108203600I-150000J0D01*
G01*
G37*
%TD.AperFunction*%
%TO.P,U1,11*%
%TO.N,Net-(U1-Pad11)*%
%TA.AperFunction,SMDPad,CuDef*%
G36*
G01*
X143518300Y-108203600D02*
X143218300Y-108203600D01*
G75*
G02*
X143068300Y-108053600I0J150000D01*
G01*
X143068300Y-106403600D01*
G75*
G02*
X143218300Y-106253600I150000J0D01*
G01*
X143518300Y-106253600D01*
G75*
G02*
X143668300Y-106403600I0J-150000D01*
G01*
X143668300Y-108053600D01*
G75*
G02*
X143518300Y-108203600I-150000J0D01*
G01*
G37*
%TD.AperFunction*%
%TO.P,U1,12*%
%TO.N,Net-(U1-Pad12)*%
%TA.AperFunction,SMDPad,CuDef*%
G36*
G01*
X142248300Y-108203600D02*
X141948300Y-108203600D01*
G75*
G02*
X141798300Y-108053600I0J150000D01*
G01*
X141798300Y-106403600D01*
G75*
G02*
X141948300Y-106253600I150000J0D01*
G01*
X142248300Y-106253600D01*
G75*
G02*
X142398300Y-106403600I0J-150000D01*
G01*
X142398300Y-108053600D01*
G75*
G02*
X142248300Y-108203600I-150000J0D01*
G01*
G37*
%TD.AperFunction*%
%TO.P,U1,13*%
%TO.N,/FAULT*%
%TA.AperFunction,SMDPad,CuDef*%
G36*
G01*
X140978300Y-108203600D02*
X140678300Y-108203600D01*
G75*
G02*
X140528300Y-108053600I0J150000D01*
G01*
X140528300Y-106403600D01*
G75*
G02*
X140678300Y-106253600I150000J0D01*
G01*
X140978300Y-106253600D01*
G75*
G02*
X141128300Y-106403600I0J-150000D01*
G01*
X141128300Y-108053600D01*
G75*
G02*
X140978300Y-108203600I-150000J0D01*
G01*
G37*
%TD.AperFunction*%
%TO.P,U1,14*%
%TO.N,GND*%
%TA.AperFunction,SMDPad,CuDef*%
G36*
G01*
X139708300Y-108203600D02*
X139408300Y-108203600D01*
G75*
G02*
X139258300Y-108053600I0J150000D01*
G01*
X139258300Y-106403600D01*
G75*
G02*
X139408300Y-106253600I150000J0D01*
G01*
X139708300Y-106253600D01*
G75*
G02*
X139858300Y-106403600I0J-150000D01*
G01*
X139858300Y-108053600D01*
G75*
G02*
X139708300Y-108203600I-150000J0D01*
G01*
G37*
%TD.AperFunction*%
%TD*%
%TO.P,D1,1*%
%TO.N,Net-(D1-Pad1)*%
%TA.AperFunction,SMDPad,CuDef*%
G36*
G01*
X134286800Y-102904300D02*
X134286800Y-102429300D01*
G75*
G02*
X134524300Y-102191800I237500J0D01*
G01*
X135099300Y-102191800D01*
G75*
G02*
X135336800Y-102429300I0J-237500D01*
G01*
X135336800Y-102904300D01*
G75*
G02*
X135099300Y-103141800I-237500J0D01*
G01*
X134524300Y-103141800D01*
G75*
G02*
X134286800Y-102904300I0J237500D01*
G01*
G37*
%TD.AperFunction*%
%TO.P,D1,2*%
%TO.N,/STATUS*%
%TA.AperFunction,SMDPad,CuDef*%
G36*
G01*
X136036800Y-102904300D02*
X136036800Y-102429300D01*
G75*
G02*
X136274300Y-102191800I237500J0D01*
G01*
X136849300Y-102191800D01*
G75*
G02*
X137086800Y-102429300I0J-237500D01*
G01*
X137086800Y-102904300D01*
G75*
G02*
X136849300Y-103141800I-237500J0D01*
G01*
X136274300Y-103141800D01*
G75*
G02*
X136036800Y-102904300I0J237500D01*
G01*
G37*
%TD.AperFunction*%
%TD*%
D12*
%TO.P,H1,1*%
%TO.N,GND*%
X156601100Y-110203600D03*
%TD*%
%TO.P,H2,1*%
%TO.N,GND*%
X127801100Y-99703600D03*
%TD*%
D13*
%TO.P,U3,2*%
%TO.N,GND*%
X140011100Y-97979400D03*
%TO.P,U3,3*%
%TO.N,Net-(R5-Pad2)*%
X138741100Y-97979400D03*
%TO.P,U3,1*%
%TO.N,/+5v*%
%TA.AperFunction,ComponentPad*%
G36*
G01*
X141806100Y-97579300D02*
X141806100Y-98379500D01*
G75*
G02*
X141556200Y-98629400I-249900J0D01*
G01*
X141006000Y-98629400D01*
G75*
G02*
X140756100Y-98379500I0J249900D01*
G01*
X140756100Y-97579300D01*
G75*
G02*
X141006000Y-97329400I249900J0D01*
G01*
X141556200Y-97329400D01*
G75*
G02*
X141806100Y-97579300I0J-249900D01*
G01*
G37*
%TD.AperFunction*%
%TD*%
%TO.P,R1,2*%
%TO.N,Net-(D1-Pad1)*%
%TA.AperFunction,SMDPad,CuDef*%
G36*
G01*
X132968300Y-102826800D02*
X132968300Y-102506800D01*
G75*
G02*
X133128300Y-102346800I160000J0D01*
G01*
X133523300Y-102346800D01*
G75*
G02*
X133683300Y-102506800I0J-160000D01*
G01*
X133683300Y-102826800D01*
G75*
G02*
X133523300Y-102986800I-160000J0D01*
G01*
X133128300Y-102986800D01*
G75*
G02*
X132968300Y-102826800I0J160000D01*
G01*
G37*
%TD.AperFunction*%
%TO.P,R1,1*%
%TO.N,GND*%
%TA.AperFunction,SMDPad,CuDef*%
G36*
G01*
X131773300Y-102826800D02*
X131773300Y-102506800D01*
G75*
G02*
X131933300Y-102346800I160000J0D01*
G01*
X132328300Y-102346800D01*
G75*
G02*
X132488300Y-102506800I0J-160000D01*
G01*
X132488300Y-102826800D01*
G75*
G02*
X132328300Y-102986800I-160000J0D01*
G01*
X131933300Y-102986800D01*
G75*
G02*
X131773300Y-102826800I0J160000D01*
G01*
G37*
%TD.AperFunction*%
%TD*%
%TO.P,R2,2*%
%TO.N,/PWM*%
%TA.AperFunction,SMDPad,CuDef*%
G36*
G01*
X145584925Y-100956100D02*
X145904925Y-100956100D01*
G75*
G02*
X146064925Y-101116100I0J-160000D01*
G01*
X146064925Y-101511100D01*
G75*
G02*
X145904925Y-101671100I-160000J0D01*
G01*
X145584925Y-101671100D01*
G75*
G02*
X145424925Y-101511100I0J160000D01*
G01*
X145424925Y-101116100D01*
G75*
G02*
X145584925Y-100956100I160000J0D01*
G01*
G37*
%TD.AperFunction*%
%TO.P,R2,1*%
%TO.N,/OUT*%
%TA.AperFunction,SMDPad,CuDef*%
G36*
G01*
X145584925Y-99761100D02*
X145904925Y-99761100D01*
G75*
G02*
X146064925Y-99921100I0J-160000D01*
G01*
X146064925Y-100316100D01*
G75*
G02*
X145904925Y-100476100I-160000J0D01*
G01*
X145584925Y-100476100D01*
G75*
G02*
X145424925Y-100316100I0J160000D01*
G01*
X145424925Y-99921100D01*
G75*
G02*
X145584925Y-99761100I160000J0D01*
G01*
G37*
%TD.AperFunction*%
%TD*%
%TO.P,R3,1*%
%TO.N,GND*%
%TA.AperFunction,SMDPad,CuDef*%
G36*
G01*
X147155950Y-101671100D02*
X146835950Y-101671100D01*
G75*
G02*
X146675950Y-101511100I0J160000D01*
G01*
X146675950Y-101116100D01*
G75*
G02*
X146835950Y-100956100I160000J0D01*
G01*
X147155950Y-100956100D01*
G75*
G02*
X147315950Y-101116100I0J-160000D01*
G01*
X147315950Y-101511100D01*
G75*
G02*
X147155950Y-101671100I-160000J0D01*
G01*
G37*
%TD.AperFunction*%
%TO.P,R3,2*%
%TO.N,/OUT*%
%TA.AperFunction,SMDPad,CuDef*%
G36*
G01*
X147155950Y-100476100D02*
X146835950Y-100476100D01*
G75*
G02*
X146675950Y-100316100I0J160000D01*
G01*
X146675950Y-99921100D01*
G75*
G02*
X146835950Y-99761100I160000J0D01*
G01*
X147155950Y-99761100D01*
G75*
G02*
X147315950Y-99921100I0J-160000D01*
G01*
X147315950Y-100316100D01*
G75*
G02*
X147155950Y-100476100I-160000J0D01*
G01*
G37*
%TD.AperFunction*%
%TD*%
%TO.P,R4,1*%
%TO.N,/OUT*%
%TA.AperFunction,SMDPad,CuDef*%
G36*
G01*
X148406975Y-101671100D02*
X148086975Y-101671100D01*
G75*
G02*
X147926975Y-101511100I0J160000D01*
G01*
X147926975Y-101116100D01*
G75*
G02*
X148086975Y-100956100I160000J0D01*
G01*
X148406975Y-100956100D01*
G75*
G02*
X148566975Y-101116100I0J-160000D01*
G01*
X148566975Y-101511100D01*
G75*
G02*
X148406975Y-101671100I-160000J0D01*
G01*
G37*
%TD.AperFunction*%
%TO.P,R4,2*%
%TO.N,/+5v*%
%TA.AperFunction,SMDPad,CuDef*%
G36*
G01*
X148406975Y-100476100D02*
X148086975Y-100476100D01*
G75*
G02*
X147926975Y-100316100I0J160000D01*
G01*
X147926975Y-99921100D01*
G75*
G02*
X148086975Y-99761100I160000J0D01*
G01*
X148406975Y-99761100D01*
G75*
G02*
X148566975Y-99921100I0J-160000D01*
G01*
X148566975Y-100316100D01*
G75*
G02*
X148406975Y-100476100I-160000J0D01*
G01*
G37*
%TD.AperFunction*%
%TD*%
%TO.P,R5,2*%
%TO.N,Net-(R5-Pad2)*%
%TA.AperFunction,SMDPad,CuDef*%
G36*
G01*
X139079000Y-99789000D02*
X139079000Y-100109000D01*
G75*
G02*
X138919000Y-100269000I-160000J0D01*
G01*
X138524000Y-100269000D01*
G75*
G02*
X138364000Y-100109000I0J160000D01*
G01*
X138364000Y-99789000D01*
G75*
G02*
X138524000Y-99629000I160000J0D01*
G01*
X138919000Y-99629000D01*
G75*
G02*
X139079000Y-99789000I0J-160000D01*
G01*
G37*
%TD.AperFunction*%
%TO.P,R5,1*%
%TO.N,/IN*%
%TA.AperFunction,SMDPad,CuDef*%
G36*
G01*
X140274000Y-99789000D02*
X140274000Y-100109000D01*
G75*
G02*
X140114000Y-100269000I-160000J0D01*
G01*
X139719000Y-100269000D01*
G75*
G02*
X139559000Y-100109000I0J160000D01*
G01*
X139559000Y-99789000D01*
G75*
G02*
X139719000Y-99629000I160000J0D01*
G01*
X140114000Y-99629000D01*
G75*
G02*
X140274000Y-99789000I0J-160000D01*
G01*
G37*
%TD.AperFunction*%
%TD*%
D14*
%TO.P,S1,2*%
%TO.N,GND*%
X124902400Y-105041800D03*
%TO.P,S1,1*%
%TO.N,Net-(S1-Pad1)*%
X129402400Y-105041800D03*
X129402400Y-112991800D03*
%TO.P,S1,2*%
%TO.N,GND*%
X124902400Y-112991800D03*
%TD*%
D11*
%TO.P,J1,1*%
%TO.N,/+5v*%
X164166100Y-98488500D03*
D10*
%TO.P,J1,2*%
%TO.N,GND*%
X164166100Y-101028500D03*
%TO.P,J1,3*%
%TO.N,/SCL*%
X164166100Y-103568500D03*
%TO.P,J1,4*%
%TO.N,/SDA*%
X164166100Y-106108500D03*
%TO.P,J1,5*%
%TO.N,/OUT*%
X164166100Y-108648500D03*
%TO.P,J1,6*%
%TO.N,/FAULT*%
X164166100Y-111188500D03*
%TD*%
%TO.P,C1,1*%
%TO.N,/OUT*%
%TA.AperFunction,SMDPad,CuDef*%
G36*
G01*
X144471400Y-102116100D02*
X143996400Y-102116100D01*
G75*
G02*
X143758900Y-101878600I0J237500D01*
G01*
X143758900Y-101303600D01*
G75*
G02*
X143996400Y-101066100I237500J0D01*
G01*
X144471400Y-101066100D01*
G75*
G02*
X144708900Y-101303600I0J-237500D01*
G01*
X144708900Y-101878600D01*
G75*
G02*
X144471400Y-102116100I-237500J0D01*
G01*
G37*
%TD.AperFunction*%
%TO.P,C1,2*%
%TO.N,GND*%
%TA.AperFunction,SMDPad,CuDef*%
G36*
G01*
X144471400Y-100366100D02*
X143996400Y-100366100D01*
G75*
G02*
X143758900Y-100128600I0J237500D01*
G01*
X143758900Y-99553600D01*
G75*
G02*
X143996400Y-99316100I237500J0D01*
G01*
X144471400Y-99316100D01*
G75*
G02*
X144708900Y-99553600I0J-237500D01*
G01*
X144708900Y-100128600D01*
G75*
G02*
X144471400Y-100366100I-237500J0D01*
G01*
G37*
%TD.AperFunction*%
%TD*%
%TO.P,C2,2*%
%TO.N,GND*%
%TA.AperFunction,SMDPad,CuDef*%
G36*
G01*
X160917900Y-97988500D02*
X160442900Y-97988500D01*
G75*
G02*
X160205400Y-97751000I0J237500D01*
G01*
X160205400Y-97176000D01*
G75*
G02*
X160442900Y-96938500I237500J0D01*
G01*
X160917900Y-96938500D01*
G75*
G02*
X161155400Y-97176000I0J-237500D01*
G01*
X161155400Y-97751000D01*
G75*
G02*
X160917900Y-97988500I-237500J0D01*
G01*
G37*
%TD.AperFunction*%
%TO.P,C2,1*%
%TO.N,/+5v*%
%TA.AperFunction,SMDPad,CuDef*%
G36*
G01*
X160917900Y-99738500D02*
X160442900Y-99738500D01*
G75*
G02*
X160205400Y-99501000I0J237500D01*
G01*
X160205400Y-98926000D01*
G75*
G02*
X160442900Y-98688500I237500J0D01*
G01*
X160917900Y-98688500D01*
G75*
G02*
X161155400Y-98926000I0J-237500D01*
G01*
X161155400Y-99501000D01*
G75*
G02*
X160917900Y-99738500I-237500J0D01*
G01*
G37*
%TD.AperFunction*%
%TD*%
%TO.P,D2,1*%
%TO.N,Net-(D2-Pad1)*%
%TA.AperFunction,SMDPad,CuDef*%
G36*
G01*
X134286800Y-97514401D02*
X134286800Y-97039401D01*
G75*
G02*
X134524300Y-96801901I237500J0D01*
G01*
X135099300Y-96801901D01*
G75*
G02*
X135336800Y-97039401I0J-237500D01*
G01*
X135336800Y-97514401D01*
G75*
G02*
X135099300Y-97751901I-237500J0D01*
G01*
X134524300Y-97751901D01*
G75*
G02*
X134286800Y-97514401I0J237500D01*
G01*
G37*
%TD.AperFunction*%
%TO.P,D2,2*%
%TO.N,/+5v*%
%TA.AperFunction,SMDPad,CuDef*%
G36*
G01*
X136036800Y-97514401D02*
X136036800Y-97039401D01*
G75*
G02*
X136274300Y-96801901I237500J0D01*
G01*
X136849300Y-96801901D01*
G75*
G02*
X137086800Y-97039401I0J-237500D01*
G01*
X137086800Y-97514401D01*
G75*
G02*
X136849300Y-97751901I-237500J0D01*
G01*
X136274300Y-97751901D01*
G75*
G02*
X136036800Y-97514401I0J237500D01*
G01*
G37*
%TD.AperFunction*%
%TD*%
%TO.P,R6,1*%
%TO.N,GND*%
%TA.AperFunction,SMDPad,CuDef*%
G36*
G01*
X131773300Y-97436901D02*
X131773300Y-97116901D01*
G75*
G02*
X131933300Y-96956901I160000J0D01*
G01*
X132328300Y-96956901D01*
G75*
G02*
X132488300Y-97116901I0J-160000D01*
G01*
X132488300Y-97436901D01*
G75*
G02*
X132328300Y-97596901I-160000J0D01*
G01*
X131933300Y-97596901D01*
G75*
G02*
X131773300Y-97436901I0J160000D01*
G01*
G37*
%TD.AperFunction*%
%TO.P,R6,2*%
%TO.N,Net-(D2-Pad1)*%
%TA.AperFunction,SMDPad,CuDef*%
G36*
G01*
X132968300Y-97436901D02*
X132968300Y-97116901D01*
G75*
G02*
X133128300Y-96956901I160000J0D01*
G01*
X133523300Y-96956901D01*
G75*
G02*
X133683300Y-97116901I0J-160000D01*
G01*
X133683300Y-97436901D01*
G75*
G02*
X133523300Y-97596901I-160000J0D01*
G01*
X133128300Y-97596901D01*
G75*
G02*
X132968300Y-97436901I0J160000D01*
G01*
G37*
%TD.AperFunction*%
%TD*%
D14*
%TO.P,S2,2*%
%TO.N,/+5v*%
X136852850Y-112991800D03*
%TO.P,S2,1*%
%TO.N,/RESET*%
X132352850Y-112991800D03*
X132352850Y-105041800D03*
%TO.P,S2,2*%
%TO.N,/+5v*%
X136852850Y-105041800D03*
%TD*%
D15*
%TO.P,U2,1*%
%TO.N,/SCL*%
X151315600Y-108849200D03*
%TO.P,U2,2*%
%TO.N,GND*%
X151315600Y-107899200D03*
%TO.P,U2,3*%
%TO.N,/SDA*%
X151315600Y-106949200D03*
%TO.P,U2,4*%
%TO.N,/+5v*%
X149115600Y-106949200D03*
%TO.P,U2,5*%
%TO.N,GND*%
X149115600Y-108849200D03*
%TD*%
%TO.P,R7,1*%
%TO.N,/SDA*%
%TA.AperFunction,SMDPad,CuDef*%
G36*
G01*
X151970600Y-111447600D02*
X151970600Y-111767600D01*
G75*
G02*
X151810600Y-111927600I-160000J0D01*
G01*
X151415600Y-111927600D01*
G75*
G02*
X151255600Y-111767600I0J160000D01*
G01*
X151255600Y-111447600D01*
G75*
G02*
X151415600Y-111287600I160000J0D01*
G01*
X151810600Y-111287600D01*
G75*
G02*
X151970600Y-111447600I0J-160000D01*
G01*
G37*
%TD.AperFunction*%
%TO.P,R7,2*%
%TO.N,/+5v*%
%TA.AperFunction,SMDPad,CuDef*%
G36*
G01*
X150775600Y-111447600D02*
X150775600Y-111767600D01*
G75*
G02*
X150615600Y-111927600I-160000J0D01*
G01*
X150220600Y-111927600D01*
G75*
G02*
X150060600Y-111767600I0J160000D01*
G01*
X150060600Y-111447600D01*
G75*
G02*
X150220600Y-111287600I160000J0D01*
G01*
X150615600Y-111287600D01*
G75*
G02*
X150775600Y-111447600I0J-160000D01*
G01*
G37*
%TD.AperFunction*%
%TD*%
%TO.P,R8,2*%
%TO.N,/+5v*%
%TA.AperFunction,SMDPad,CuDef*%
G36*
G01*
X150775600Y-110380800D02*
X150775600Y-110700800D01*
G75*
G02*
X150615600Y-110860800I-160000J0D01*
G01*
X150220600Y-110860800D01*
G75*
G02*
X150060600Y-110700800I0J160000D01*
G01*
X150060600Y-110380800D01*
G75*
G02*
X150220600Y-110220800I160000J0D01*
G01*
X150615600Y-110220800D01*
G75*
G02*
X150775600Y-110380800I0J-160000D01*
G01*
G37*
%TD.AperFunction*%
%TO.P,R8,1*%
%TO.N,/SCL*%
%TA.AperFunction,SMDPad,CuDef*%
G36*
G01*
X151970600Y-110380800D02*
X151970600Y-110700800D01*
G75*
G02*
X151810600Y-110860800I-160000J0D01*
G01*
X151415600Y-110860800D01*
G75*
G02*
X151255600Y-110700800I0J160000D01*
G01*
X151255600Y-110380800D01*
G75*
G02*
X151415600Y-110220800I160000J0D01*
G01*
X151810600Y-110220800D01*
G75*
G02*
X151970600Y-110380800I0J-160000D01*
G01*
G37*
%TD.AperFunction*%
%TD*%
%TO.P,D3,1*%
%TO.N,Net-(D3-Pad1)*%
%TA.AperFunction,SMDPad,CuDef*%
G36*
G01*
X134286800Y-100209350D02*
X134286800Y-99734350D01*
G75*
G02*
X134524300Y-99496850I237500J0D01*
G01*
X135099300Y-99496850D01*
G75*
G02*
X135336800Y-99734350I0J-237500D01*
G01*
X135336800Y-100209350D01*
G75*
G02*
X135099300Y-100446850I-237500J0D01*
G01*
X134524300Y-100446850D01*
G75*
G02*
X134286800Y-100209350I0J237500D01*
G01*
G37*
%TD.AperFunction*%
%TO.P,D3,2*%
%TO.N,/FAULT*%
%TA.AperFunction,SMDPad,CuDef*%
G36*
G01*
X136036800Y-100209350D02*
X136036800Y-99734350D01*
G75*
G02*
X136274300Y-99496850I237500J0D01*
G01*
X136849300Y-99496850D01*
G75*
G02*
X137086800Y-99734350I0J-237500D01*
G01*
X137086800Y-100209350D01*
G75*
G02*
X136849300Y-100446850I-237500J0D01*
G01*
X136274300Y-100446850D01*
G75*
G02*
X136036800Y-100209350I0J237500D01*
G01*
G37*
%TD.AperFunction*%
%TD*%
%TO.P,R9,2*%
%TO.N,Net-(D3-Pad1)*%
%TA.AperFunction,SMDPad,CuDef*%
G36*
G01*
X132968300Y-100131850D02*
X132968300Y-99811850D01*
G75*
G02*
X133128300Y-99651850I160000J0D01*
G01*
X133523300Y-99651850D01*
G75*
G02*
X133683300Y-99811850I0J-160000D01*
G01*
X133683300Y-100131850D01*
G75*
G02*
X133523300Y-100291850I-160000J0D01*
G01*
X133128300Y-100291850D01*
G75*
G02*
X132968300Y-100131850I0J160000D01*
G01*
G37*
%TD.AperFunction*%
%TO.P,R9,1*%
%TO.N,GND*%
%TA.AperFunction,SMDPad,CuDef*%
G36*
G01*
X131773300Y-100131850D02*
X131773300Y-99811850D01*
G75*
G02*
X131933300Y-99651850I160000J0D01*
G01*
X132328300Y-99651850D01*
G75*
G02*
X132488300Y-99811850I0J-160000D01*
G01*
X132488300Y-100131850D01*
G75*
G02*
X132328300Y-100291850I-160000J0D01*
G01*
X131933300Y-100291850D01*
G75*
G02*
X131773300Y-100131850I0J160000D01*
G01*
G37*
%TD.AperFunction*%
%TD*%
D11*
%TO.P,J2,1*%
%TO.N,/+5v*%
X170383200Y-98488500D03*
D10*
%TO.P,J2,2*%
%TO.N,GND*%
X170383200Y-101028500D03*
%TO.P,J2,3*%
%TO.N,/SCL*%
X170383200Y-103568500D03*
%TO.P,J2,4*%
%TO.N,/SDA*%
X170383200Y-106108500D03*
%TO.P,J2,5*%
%TO.N,/OUT*%
X170383200Y-108648500D03*
%TO.P,J2,6*%
%TO.N,/FAULT*%
X170383200Y-111188500D03*
%TD*%
D16*
%TO.N,GND*%
X149098000Y-108000800D03*
X152349200Y-107899200D03*
X140106400Y-105308400D03*
%TO.N,/FAULT*%
X140868400Y-108864400D03*
%TO.N,/OUT*%
X149250400Y-101313600D03*
%TO.N,/RESET*%
X143357600Y-110540800D03*
%TO.N,/+5v*%
X147929600Y-108864400D03*
X149402800Y-111607600D03*
%TD*%
D17*
%TO.N,GND*%
X149115600Y-108018400D02*
X149098000Y-108000800D01*
X149115600Y-108849200D02*
X149115600Y-108018400D01*
X151315600Y-107899200D02*
X152349200Y-107899200D01*
X139558300Y-105856500D02*
X140106400Y-105308400D01*
X139558300Y-107228600D02*
X139558300Y-105856500D01*
X164166100Y-101028500D02*
X170383200Y-101028500D01*
%TO.N,/FAULT*%
X140828300Y-104238350D02*
X140828300Y-107228600D01*
X136561800Y-99971850D02*
X140828300Y-104238350D01*
X140828300Y-108824300D02*
X140868400Y-108864400D01*
X140828300Y-107228600D02*
X140828300Y-108824300D01*
X164166100Y-111188500D02*
X170383200Y-111188500D01*
%TO.N,/STATUS*%
X140828300Y-111203600D02*
X137754851Y-108130151D01*
X140828300Y-112178600D02*
X140828300Y-111203600D01*
D18*
%TO.N,/OUT*%
X164141100Y-108653600D02*
X164141100Y-108788600D01*
D17*
X144272425Y-101591100D02*
X145744925Y-100118600D01*
X144233900Y-101591100D02*
X144272425Y-101591100D01*
X145744925Y-100118600D02*
X146995950Y-100118600D01*
X147051975Y-100118600D02*
X148246975Y-101313600D01*
X146995950Y-100118600D02*
X147051975Y-100118600D01*
D19*
X149232000Y-101313600D02*
X149250400Y-101295200D01*
D17*
X148246975Y-101313600D02*
X149250400Y-101313600D01*
X164166100Y-108648500D02*
X170383200Y-108648500D01*
D18*
%TO.N,/SDA*%
X164141100Y-106113600D02*
X164141100Y-106248600D01*
D17*
X151315600Y-106949200D02*
X151674202Y-106949200D01*
X150742100Y-112478600D02*
X151613100Y-111607600D01*
X147478300Y-112478600D02*
X150742100Y-112478600D01*
X147178300Y-112178600D02*
X147478300Y-112478600D01*
X152364162Y-106949200D02*
X151315600Y-106949200D01*
X153001201Y-107586239D02*
X152364162Y-106949200D01*
X153001201Y-110219499D02*
X153001201Y-107586239D01*
X151613100Y-111607600D02*
X153001201Y-110219499D01*
X164166100Y-106108500D02*
X170383200Y-106108500D01*
X163325400Y-106949200D02*
X164166100Y-106108500D01*
X151315600Y-106949200D02*
X163325400Y-106949200D01*
D18*
%TO.N,/SCL*%
X164141100Y-103573600D02*
X164141100Y-103708600D01*
D17*
%TO.N,Net-(R5-Pad2)*%
X138721500Y-97999000D02*
X138741100Y-97979400D01*
X138721500Y-99949000D02*
X138721500Y-97999000D01*
%TO.N,/RESET*%
X143368300Y-113153600D02*
X143368300Y-112178600D01*
X142503099Y-114018801D02*
X143368300Y-113153600D01*
X133379851Y-114018801D02*
X142503099Y-114018801D01*
X132352850Y-112991800D02*
X133379851Y-114018801D01*
X143357600Y-112167900D02*
X143368300Y-112178600D01*
X143357600Y-110540800D02*
X143357600Y-112167900D01*
X132352850Y-112991800D02*
X132352850Y-105041800D01*
%TO.N,/MISO*%
X151592420Y-102814480D02*
X147178300Y-107228600D01*
X155364582Y-102814480D02*
X151592420Y-102814480D01*
X156957599Y-101221463D02*
X155364582Y-102814480D01*
X156957599Y-99590501D02*
X156957599Y-101221463D01*
X158059600Y-98488500D02*
X156957599Y-99590501D01*
%TO.N,/IN*%
X144638300Y-104670800D02*
X139916500Y-99949000D01*
X144638300Y-107228600D02*
X144638300Y-104670800D01*
%TO.N,/+5v*%
X150418100Y-111607600D02*
X150418100Y-110540800D01*
X136852850Y-109473150D02*
X139558300Y-112178600D01*
X136852850Y-105041800D02*
X136852850Y-109473150D01*
X141622900Y-97637600D02*
X141281100Y-97979400D01*
X147936122Y-100118600D02*
X148246975Y-100118600D01*
X145796922Y-97979400D02*
X147936122Y-100118600D01*
X141281100Y-97979400D02*
X145796922Y-97979400D01*
X138745100Y-112991800D02*
X139558300Y-112178600D01*
X136852850Y-112991800D02*
X138745100Y-112991800D01*
X140379090Y-97077390D02*
X141281100Y-97979400D01*
X136761311Y-97077390D02*
X140379090Y-97077390D01*
X136561800Y-97276901D02*
X136761311Y-97077390D01*
X135784790Y-98053911D02*
X136561800Y-97276901D01*
X135784790Y-104873740D02*
X135784790Y-98053911D01*
X135952850Y-105041800D02*
X135784790Y-104873740D01*
X136852850Y-105041800D02*
X135952850Y-105041800D01*
X161626100Y-101028500D02*
X164166100Y-98488500D01*
X164166100Y-98488500D02*
X170383200Y-98488500D01*
X147929600Y-108135200D02*
X149115600Y-106949200D01*
X147929600Y-108864400D02*
X147929600Y-108135200D01*
X150418100Y-111607600D02*
X149402800Y-111607600D01*
X150979076Y-97386499D02*
X148246975Y-100118600D01*
X155896610Y-103191490D02*
X158059600Y-101028500D01*
X152873310Y-103191490D02*
X155896610Y-103191490D01*
X149115600Y-106949200D02*
X152873310Y-103191490D01*
X159161601Y-99926499D02*
X158059600Y-101028500D01*
X159161601Y-97436899D02*
X159161601Y-99926499D01*
X159111201Y-97386499D02*
X159161601Y-97436899D01*
X150979076Y-97386499D02*
X159111201Y-97386499D01*
X160680400Y-100990400D02*
X160718500Y-101028500D01*
X160680400Y-99213500D02*
X160680400Y-100990400D01*
X160718500Y-101028500D02*
X161626100Y-101028500D01*
X158059600Y-101028500D02*
X160718500Y-101028500D01*
%TO.N,Net-(S1-Pad1)*%
X130806411Y-114395811D02*
X129402400Y-112991800D01*
X143396089Y-114395811D02*
X130806411Y-114395811D01*
X144638300Y-113153600D02*
X143396089Y-114395811D01*
X144638300Y-112178600D02*
X144638300Y-113153600D01*
X129402400Y-112991800D02*
X129402400Y-105041800D01*
%TO.N,/PWM*%
X145190310Y-101868215D02*
X145744925Y-101313600D01*
X145190310Y-111460610D02*
X145190310Y-101868215D01*
X145908300Y-112178600D02*
X145190310Y-111460610D01*
%TO.N,/SCL*%
X150956998Y-108849200D02*
X150533599Y-108425801D01*
X151315600Y-108849200D02*
X150956998Y-108849200D01*
X151613100Y-109146700D02*
X151315600Y-108849200D01*
X151613100Y-110540800D02*
X151613100Y-109146700D01*
X151041090Y-109968790D02*
X151613100Y-110540800D01*
X147673490Y-109968790D02*
X151041090Y-109968790D01*
X145908300Y-108203600D02*
X147673490Y-109968790D01*
X145908300Y-107228600D02*
X145908300Y-108203600D01*
X164166100Y-103568500D02*
X170383200Y-103568500D01*
X153387698Y-103568500D02*
X164166100Y-103568500D01*
X150533599Y-106422599D02*
X153387698Y-103568500D01*
X150533599Y-108425801D02*
X150533599Y-106422599D01*
%TO.N,Net-(D1-Pad1)*%
X133325800Y-102666800D02*
X134811800Y-102666800D01*
%TO.N,Net-(D2-Pad1)*%
X133325800Y-97276901D02*
X134811800Y-97276901D01*
%TO.N,Net-(D3-Pad1)*%
X134811800Y-99971850D02*
X133325800Y-99971850D01*
%TO.N,/STATUS*%
X137754851Y-103859851D02*
X137754851Y-108130151D01*
X136561800Y-102666800D02*
X137754851Y-103859851D01*
%TD*%
D20*
%TO.N,GND*%
X171864860Y-95166476D02*
X172214763Y-95272116D01*
X172537486Y-95443712D01*
X172820730Y-95674720D01*
X173053716Y-95956350D01*
X173227558Y-96277864D01*
X173335641Y-96627024D01*
X173374473Y-96996491D01*
X173374499Y-97003759D01*
X173374500Y-112997396D01*
X173338224Y-113367361D01*
X173232581Y-113717269D01*
X173060987Y-114039988D01*
X172829975Y-114323235D01*
X172548351Y-114556215D01*
X172226838Y-114730057D01*
X171877676Y-114838141D01*
X171508209Y-114876973D01*
X171500941Y-114876999D01*
X125507294Y-114876999D01*
X125137339Y-114840724D01*
X124787431Y-114735081D01*
X124464712Y-114563487D01*
X124181465Y-114332475D01*
X124170691Y-114319452D01*
X124252400Y-114327500D01*
X124636300Y-114324800D01*
X124775800Y-114185300D01*
X124775800Y-113118400D01*
X125029000Y-113118400D01*
X125029000Y-114185300D01*
X125168500Y-114324800D01*
X125552400Y-114327500D01*
X125661787Y-114316726D01*
X125766971Y-114284819D01*
X125863908Y-114233005D01*
X125948875Y-114163275D01*
X126018605Y-114078308D01*
X126070419Y-113981371D01*
X126102326Y-113876187D01*
X126113100Y-113766800D01*
X126110400Y-113257900D01*
X125970900Y-113118400D01*
X125029000Y-113118400D01*
X124775800Y-113118400D01*
X123833900Y-113118400D01*
X123694400Y-113257900D01*
X123693293Y-113466539D01*
X123666559Y-113380176D01*
X123627727Y-113010709D01*
X123627701Y-113003441D01*
X123627701Y-112216800D01*
X123691700Y-112216800D01*
X123694400Y-112725700D01*
X123833900Y-112865200D01*
X124775800Y-112865200D01*
X124775800Y-111798300D01*
X125029000Y-111798300D01*
X125029000Y-112865200D01*
X125970900Y-112865200D01*
X126110400Y-112725700D01*
X126113100Y-112216800D01*
X126102326Y-112107413D01*
X126070419Y-112002229D01*
X126018605Y-111905292D01*
X125948875Y-111820325D01*
X125863908Y-111750595D01*
X125766971Y-111698781D01*
X125661787Y-111666874D01*
X125552400Y-111656100D01*
X125168500Y-111658800D01*
X125029000Y-111798300D01*
X124775800Y-111798300D01*
X124636300Y-111658800D01*
X124252400Y-111656100D01*
X124143013Y-111666874D01*
X124037829Y-111698781D01*
X123940892Y-111750595D01*
X123855925Y-111820325D01*
X123786195Y-111905292D01*
X123734381Y-112002229D01*
X123702474Y-112107413D01*
X123691700Y-112216800D01*
X123627701Y-112216800D01*
X123627701Y-105816800D01*
X123691700Y-105816800D01*
X123702474Y-105926187D01*
X123734381Y-106031371D01*
X123786195Y-106128308D01*
X123855925Y-106213275D01*
X123940892Y-106283005D01*
X124037829Y-106334819D01*
X124143013Y-106366726D01*
X124252400Y-106377500D01*
X124636300Y-106374800D01*
X124775800Y-106235300D01*
X124775800Y-105168400D01*
X125029000Y-105168400D01*
X125029000Y-106235300D01*
X125168500Y-106374800D01*
X125552400Y-106377500D01*
X125661787Y-106366726D01*
X125766971Y-106334819D01*
X125863908Y-106283005D01*
X125948875Y-106213275D01*
X126018605Y-106128308D01*
X126070419Y-106031371D01*
X126102326Y-105926187D01*
X126113100Y-105816800D01*
X126110400Y-105307900D01*
X125970900Y-105168400D01*
X125029000Y-105168400D01*
X124775800Y-105168400D01*
X123833900Y-105168400D01*
X123694400Y-105307900D01*
X123691700Y-105816800D01*
X123627701Y-105816800D01*
X123627701Y-104266800D01*
X123691700Y-104266800D01*
X123694400Y-104775700D01*
X123833900Y-104915200D01*
X124775800Y-104915200D01*
X124775800Y-103848300D01*
X125029000Y-103848300D01*
X125029000Y-104915200D01*
X125970900Y-104915200D01*
X126110400Y-104775700D01*
X126113100Y-104266800D01*
X128522694Y-104266800D01*
X128522694Y-105816800D01*
X128527108Y-105861613D01*
X128540179Y-105904705D01*
X128561406Y-105944418D01*
X128589973Y-105979227D01*
X128624782Y-106007794D01*
X128664495Y-106029021D01*
X128707587Y-106042092D01*
X128752400Y-106046506D01*
X129048801Y-106046506D01*
X129048800Y-111987094D01*
X128752400Y-111987094D01*
X128707587Y-111991508D01*
X128664495Y-112004579D01*
X128624782Y-112025806D01*
X128589973Y-112054373D01*
X128561406Y-112089182D01*
X128540179Y-112128895D01*
X128527108Y-112171987D01*
X128522694Y-112216800D01*
X128522694Y-113766800D01*
X128527108Y-113811613D01*
X128540179Y-113854705D01*
X128561406Y-113894418D01*
X128589973Y-113929227D01*
X128624782Y-113957794D01*
X128664495Y-113979021D01*
X128707587Y-113992092D01*
X128752400Y-113996506D01*
X129907040Y-113996506D01*
X130544103Y-114633569D01*
X130555169Y-114647053D01*
X130568653Y-114658119D01*
X130568654Y-114658120D01*
X130609011Y-114691240D01*
X130670440Y-114724075D01*
X130737093Y-114744294D01*
X130789049Y-114749411D01*
X130789058Y-114749411D01*
X130806410Y-114751120D01*
X130823762Y-114749411D01*
X143378737Y-114749411D01*
X143396089Y-114751120D01*
X143413441Y-114749411D01*
X143413451Y-114749411D01*
X143465407Y-114744294D01*
X143532060Y-114724075D01*
X143593489Y-114691240D01*
X143647331Y-114647053D01*
X143658402Y-114633563D01*
X144652365Y-113639600D01*
X152247600Y-113639600D01*
X152267421Y-113637648D01*
X152286481Y-113631866D01*
X152304046Y-113622477D01*
X152319442Y-113609842D01*
X152332077Y-113594446D01*
X152341466Y-113576881D01*
X152347248Y-113557821D01*
X152349200Y-113538000D01*
X152349200Y-112543126D01*
X154440614Y-112543126D01*
X154751138Y-112965239D01*
X155325453Y-113273085D01*
X155948791Y-113462972D01*
X156597197Y-113527603D01*
X157245753Y-113464494D01*
X157869536Y-113276072D01*
X158444573Y-112969575D01*
X158451062Y-112965239D01*
X158761586Y-112543126D01*
X156601100Y-110382639D01*
X154440614Y-112543126D01*
X152349200Y-112543126D01*
X152349200Y-111371565D01*
X153238963Y-110481803D01*
X153252442Y-110470741D01*
X153263505Y-110457261D01*
X153263510Y-110457256D01*
X153296630Y-110416899D01*
X153297985Y-110414363D01*
X153340206Y-110848253D01*
X153528628Y-111472036D01*
X153835125Y-112047073D01*
X153839461Y-112053562D01*
X154261574Y-112364086D01*
X156422061Y-110203600D01*
X156780139Y-110203600D01*
X158940626Y-112364086D01*
X159362739Y-112053562D01*
X159670585Y-111479247D01*
X159791516Y-111082267D01*
X163087500Y-111082267D01*
X163087500Y-111294733D01*
X163128950Y-111503116D01*
X163210257Y-111699409D01*
X163328297Y-111876067D01*
X163478533Y-112026303D01*
X163655191Y-112144343D01*
X163851484Y-112225650D01*
X164059867Y-112267100D01*
X164272333Y-112267100D01*
X164480716Y-112225650D01*
X164677009Y-112144343D01*
X164853667Y-112026303D01*
X165003903Y-111876067D01*
X165121943Y-111699409D01*
X165187102Y-111542100D01*
X169362198Y-111542100D01*
X169427357Y-111699409D01*
X169545397Y-111876067D01*
X169695633Y-112026303D01*
X169872291Y-112144343D01*
X170068584Y-112225650D01*
X170276967Y-112267100D01*
X170489433Y-112267100D01*
X170697816Y-112225650D01*
X170894109Y-112144343D01*
X171070767Y-112026303D01*
X171221003Y-111876067D01*
X171339043Y-111699409D01*
X171420350Y-111503116D01*
X171461800Y-111294733D01*
X171461800Y-111082267D01*
X171420350Y-110873884D01*
X171339043Y-110677591D01*
X171221003Y-110500933D01*
X171070767Y-110350697D01*
X170894109Y-110232657D01*
X170697816Y-110151350D01*
X170489433Y-110109900D01*
X170276967Y-110109900D01*
X170068584Y-110151350D01*
X169872291Y-110232657D01*
X169695633Y-110350697D01*
X169545397Y-110500933D01*
X169427357Y-110677591D01*
X169362198Y-110834900D01*
X165187102Y-110834900D01*
X165121943Y-110677591D01*
X165003903Y-110500933D01*
X164853667Y-110350697D01*
X164677009Y-110232657D01*
X164480716Y-110151350D01*
X164272333Y-110109900D01*
X164059867Y-110109900D01*
X163851484Y-110151350D01*
X163655191Y-110232657D01*
X163478533Y-110350697D01*
X163328297Y-110500933D01*
X163210257Y-110677591D01*
X163128950Y-110873884D01*
X163087500Y-111082267D01*
X159791516Y-111082267D01*
X159860472Y-110855909D01*
X159925103Y-110207503D01*
X159861994Y-109558947D01*
X159673572Y-108935164D01*
X159464157Y-108542267D01*
X163087500Y-108542267D01*
X163087500Y-108754733D01*
X163128950Y-108963116D01*
X163210257Y-109159409D01*
X163328297Y-109336067D01*
X163478533Y-109486303D01*
X163655191Y-109604343D01*
X163851484Y-109685650D01*
X164059867Y-109727100D01*
X164272333Y-109727100D01*
X164480716Y-109685650D01*
X164677009Y-109604343D01*
X164853667Y-109486303D01*
X165003903Y-109336067D01*
X165121943Y-109159409D01*
X165187102Y-109002100D01*
X169362198Y-109002100D01*
X169427357Y-109159409D01*
X169545397Y-109336067D01*
X169695633Y-109486303D01*
X169872291Y-109604343D01*
X170068584Y-109685650D01*
X170276967Y-109727100D01*
X170489433Y-109727100D01*
X170697816Y-109685650D01*
X170894109Y-109604343D01*
X171070767Y-109486303D01*
X171221003Y-109336067D01*
X171339043Y-109159409D01*
X171420350Y-108963116D01*
X171461800Y-108754733D01*
X171461800Y-108542267D01*
X171420350Y-108333884D01*
X171339043Y-108137591D01*
X171221003Y-107960933D01*
X171070767Y-107810697D01*
X170894109Y-107692657D01*
X170697816Y-107611350D01*
X170489433Y-107569900D01*
X170276967Y-107569900D01*
X170068584Y-107611350D01*
X169872291Y-107692657D01*
X169695633Y-107810697D01*
X169545397Y-107960933D01*
X169427357Y-108137591D01*
X169362198Y-108294900D01*
X165187102Y-108294900D01*
X165121943Y-108137591D01*
X165003903Y-107960933D01*
X164853667Y-107810697D01*
X164677009Y-107692657D01*
X164480716Y-107611350D01*
X164272333Y-107569900D01*
X164059867Y-107569900D01*
X163851484Y-107611350D01*
X163655191Y-107692657D01*
X163478533Y-107810697D01*
X163328297Y-107960933D01*
X163210257Y-108137591D01*
X163128950Y-108333884D01*
X163087500Y-108542267D01*
X159464157Y-108542267D01*
X159367075Y-108360127D01*
X159362739Y-108353638D01*
X158940626Y-108043114D01*
X156780139Y-110203600D01*
X156422061Y-110203600D01*
X154261574Y-108043114D01*
X153839461Y-108353638D01*
X153531615Y-108927953D01*
X153354801Y-109508377D01*
X153354801Y-107603590D01*
X153356510Y-107586238D01*
X153354801Y-107568886D01*
X153354801Y-107568877D01*
X153349684Y-107516921D01*
X153329465Y-107450268D01*
X153296630Y-107388839D01*
X153252443Y-107334997D01*
X153238959Y-107323931D01*
X153217828Y-107302800D01*
X155010580Y-107302800D01*
X154757627Y-107437625D01*
X154751138Y-107441961D01*
X154440614Y-107864074D01*
X156601100Y-110024561D01*
X158761586Y-107864074D01*
X158451062Y-107441961D01*
X158191444Y-107302800D01*
X163308048Y-107302800D01*
X163325400Y-107304509D01*
X163342752Y-107302800D01*
X163342762Y-107302800D01*
X163394718Y-107297683D01*
X163461371Y-107277464D01*
X163522800Y-107244629D01*
X163576642Y-107200442D01*
X163587713Y-107186952D01*
X163694175Y-107080491D01*
X163851484Y-107145650D01*
X164059867Y-107187100D01*
X164272333Y-107187100D01*
X164480716Y-107145650D01*
X164677009Y-107064343D01*
X164853667Y-106946303D01*
X165003903Y-106796067D01*
X165121943Y-106619409D01*
X165187102Y-106462100D01*
X169362198Y-106462100D01*
X169427357Y-106619409D01*
X169545397Y-106796067D01*
X169695633Y-106946303D01*
X169872291Y-107064343D01*
X170068584Y-107145650D01*
X170276967Y-107187100D01*
X170489433Y-107187100D01*
X170697816Y-107145650D01*
X170894109Y-107064343D01*
X171070767Y-106946303D01*
X171221003Y-106796067D01*
X171339043Y-106619409D01*
X171420350Y-106423116D01*
X171461800Y-106214733D01*
X171461800Y-106002267D01*
X171420350Y-105793884D01*
X171339043Y-105597591D01*
X171221003Y-105420933D01*
X171070767Y-105270697D01*
X170894109Y-105152657D01*
X170697816Y-105071350D01*
X170489433Y-105029900D01*
X170276967Y-105029900D01*
X170068584Y-105071350D01*
X169872291Y-105152657D01*
X169695633Y-105270697D01*
X169545397Y-105420933D01*
X169427357Y-105597591D01*
X169362198Y-105754900D01*
X165187102Y-105754900D01*
X165121943Y-105597591D01*
X165003903Y-105420933D01*
X164853667Y-105270697D01*
X164677009Y-105152657D01*
X164480716Y-105071350D01*
X164272333Y-105029900D01*
X164059867Y-105029900D01*
X163851484Y-105071350D01*
X163655191Y-105152657D01*
X163478533Y-105270697D01*
X163328297Y-105420933D01*
X163210257Y-105597591D01*
X163128950Y-105793884D01*
X163087500Y-106002267D01*
X163087500Y-106214733D01*
X163128950Y-106423116D01*
X163194109Y-106580425D01*
X163178935Y-106595600D01*
X152381514Y-106595600D01*
X152364162Y-106593891D01*
X152349200Y-106595365D01*
X152349200Y-105918000D01*
X152347248Y-105898179D01*
X152341466Y-105879119D01*
X152332077Y-105861554D01*
X152319442Y-105846158D01*
X152304046Y-105833523D01*
X152286481Y-105824134D01*
X152267421Y-105818352D01*
X152247600Y-105816400D01*
X151639863Y-105816400D01*
X153534164Y-103922100D01*
X163145098Y-103922100D01*
X163210257Y-104079409D01*
X163328297Y-104256067D01*
X163478533Y-104406303D01*
X163655191Y-104524343D01*
X163851484Y-104605650D01*
X164059867Y-104647100D01*
X164272333Y-104647100D01*
X164480716Y-104605650D01*
X164677009Y-104524343D01*
X164853667Y-104406303D01*
X165003903Y-104256067D01*
X165121943Y-104079409D01*
X165187102Y-103922100D01*
X169362198Y-103922100D01*
X169427357Y-104079409D01*
X169545397Y-104256067D01*
X169695633Y-104406303D01*
X169872291Y-104524343D01*
X170068584Y-104605650D01*
X170276967Y-104647100D01*
X170489433Y-104647100D01*
X170697816Y-104605650D01*
X170894109Y-104524343D01*
X171070767Y-104406303D01*
X171221003Y-104256067D01*
X171339043Y-104079409D01*
X171420350Y-103883116D01*
X171461800Y-103674733D01*
X171461800Y-103462267D01*
X171420350Y-103253884D01*
X171339043Y-103057591D01*
X171221003Y-102880933D01*
X171070767Y-102730697D01*
X170894109Y-102612657D01*
X170697816Y-102531350D01*
X170489433Y-102489900D01*
X170276967Y-102489900D01*
X170068584Y-102531350D01*
X169872291Y-102612657D01*
X169695633Y-102730697D01*
X169545397Y-102880933D01*
X169427357Y-103057591D01*
X169362198Y-103214900D01*
X165187102Y-103214900D01*
X165121943Y-103057591D01*
X165003903Y-102880933D01*
X164853667Y-102730697D01*
X164677009Y-102612657D01*
X164480716Y-102531350D01*
X164272333Y-102489900D01*
X164059867Y-102489900D01*
X163851484Y-102531350D01*
X163655191Y-102612657D01*
X163478533Y-102730697D01*
X163328297Y-102880933D01*
X163210257Y-103057591D01*
X163145098Y-103214900D01*
X156373265Y-103214900D01*
X157587675Y-102000491D01*
X157744984Y-102065650D01*
X157953367Y-102107100D01*
X158165833Y-102107100D01*
X158374216Y-102065650D01*
X158570509Y-101984343D01*
X158747167Y-101866303D01*
X158897403Y-101716067D01*
X159015443Y-101539409D01*
X159080602Y-101382100D01*
X160701138Y-101382100D01*
X160718500Y-101383810D01*
X160735862Y-101382100D01*
X161608748Y-101382100D01*
X161626100Y-101383809D01*
X161643452Y-101382100D01*
X161643462Y-101382100D01*
X161695418Y-101376983D01*
X161708848Y-101372909D01*
X162800872Y-101372909D01*
X162839607Y-101500616D01*
X162957200Y-101750330D01*
X163121251Y-101972305D01*
X163325455Y-102158010D01*
X163561964Y-102300309D01*
X163821690Y-102393733D01*
X164039500Y-102291302D01*
X164039500Y-101155100D01*
X164292700Y-101155100D01*
X164292700Y-102291302D01*
X164510510Y-102393733D01*
X164770236Y-102300309D01*
X165006745Y-102158010D01*
X165210949Y-101972305D01*
X165375000Y-101750330D01*
X165492593Y-101500616D01*
X165531328Y-101372909D01*
X169017972Y-101372909D01*
X169056707Y-101500616D01*
X169174300Y-101750330D01*
X169338351Y-101972305D01*
X169542555Y-102158010D01*
X169779064Y-102300309D01*
X170038790Y-102393733D01*
X170256600Y-102291302D01*
X170256600Y-101155100D01*
X170509800Y-101155100D01*
X170509800Y-102291302D01*
X170727610Y-102393733D01*
X170987336Y-102300309D01*
X171223845Y-102158010D01*
X171428049Y-101972305D01*
X171592100Y-101750330D01*
X171709693Y-101500616D01*
X171748428Y-101372909D01*
X171645367Y-101155100D01*
X170509800Y-101155100D01*
X170256600Y-101155100D01*
X169121033Y-101155100D01*
X169017972Y-101372909D01*
X165531328Y-101372909D01*
X165428267Y-101155100D01*
X164292700Y-101155100D01*
X164039500Y-101155100D01*
X162903933Y-101155100D01*
X162800872Y-101372909D01*
X161708848Y-101372909D01*
X161762071Y-101356764D01*
X161823500Y-101323929D01*
X161877342Y-101279742D01*
X161888413Y-101266252D01*
X162470574Y-100684091D01*
X162800872Y-100684091D01*
X162903933Y-100901900D01*
X164039500Y-100901900D01*
X164039500Y-99765698D01*
X164292700Y-99765698D01*
X164292700Y-100901900D01*
X165428267Y-100901900D01*
X165531328Y-100684091D01*
X169017972Y-100684091D01*
X169121033Y-100901900D01*
X170256600Y-100901900D01*
X170256600Y-99765698D01*
X170509800Y-99765698D01*
X170509800Y-100901900D01*
X171645367Y-100901900D01*
X171748428Y-100684091D01*
X171709693Y-100556384D01*
X171592100Y-100306670D01*
X171428049Y-100084695D01*
X171223845Y-99898990D01*
X170987336Y-99756691D01*
X170727610Y-99663267D01*
X170509800Y-99765698D01*
X170256600Y-99765698D01*
X170038790Y-99663267D01*
X169779064Y-99756691D01*
X169542555Y-99898990D01*
X169338351Y-100084695D01*
X169174300Y-100306670D01*
X169056707Y-100556384D01*
X169017972Y-100684091D01*
X165531328Y-100684091D01*
X165492593Y-100556384D01*
X165375000Y-100306670D01*
X165210949Y-100084695D01*
X165006745Y-99898990D01*
X164770236Y-99756691D01*
X164510510Y-99663267D01*
X164292700Y-99765698D01*
X164039500Y-99765698D01*
X163821690Y-99663267D01*
X163561964Y-99756691D01*
X163325455Y-99898990D01*
X163121251Y-100084695D01*
X162957200Y-100306670D01*
X162839607Y-100556384D01*
X162800872Y-100684091D01*
X162470574Y-100684091D01*
X163586460Y-99568206D01*
X165016100Y-99568206D01*
X165060913Y-99563792D01*
X165104005Y-99550721D01*
X165143718Y-99529494D01*
X165178527Y-99500927D01*
X165207094Y-99466118D01*
X165228321Y-99426405D01*
X165241392Y-99383313D01*
X165245806Y-99338500D01*
X165245806Y-98842100D01*
X169303494Y-98842100D01*
X169303494Y-99338500D01*
X169307908Y-99383313D01*
X169320979Y-99426405D01*
X169342206Y-99466118D01*
X169370773Y-99500927D01*
X169405582Y-99529494D01*
X169445295Y-99550721D01*
X169488387Y-99563792D01*
X169533200Y-99568206D01*
X171233200Y-99568206D01*
X171278013Y-99563792D01*
X171321105Y-99550721D01*
X171360818Y-99529494D01*
X171395627Y-99500927D01*
X171424194Y-99466118D01*
X171445421Y-99426405D01*
X171458492Y-99383313D01*
X171462906Y-99338500D01*
X171462906Y-97638500D01*
X171458492Y-97593687D01*
X171445421Y-97550595D01*
X171424194Y-97510882D01*
X171395627Y-97476073D01*
X171360818Y-97447506D01*
X171321105Y-97426279D01*
X171278013Y-97413208D01*
X171233200Y-97408794D01*
X169533200Y-97408794D01*
X169488387Y-97413208D01*
X169445295Y-97426279D01*
X169405582Y-97447506D01*
X169370773Y-97476073D01*
X169342206Y-97510882D01*
X169320979Y-97550595D01*
X169307908Y-97593687D01*
X169303494Y-97638500D01*
X169303494Y-98134900D01*
X165245806Y-98134900D01*
X165245806Y-97638500D01*
X165241392Y-97593687D01*
X165228321Y-97550595D01*
X165207094Y-97510882D01*
X165178527Y-97476073D01*
X165143718Y-97447506D01*
X165104005Y-97426279D01*
X165060913Y-97413208D01*
X165016100Y-97408794D01*
X163316100Y-97408794D01*
X163271287Y-97413208D01*
X163228195Y-97426279D01*
X163188482Y-97447506D01*
X163153673Y-97476073D01*
X163125106Y-97510882D01*
X163103879Y-97550595D01*
X163090808Y-97593687D01*
X163086394Y-97638500D01*
X163086394Y-99068140D01*
X161479635Y-100674900D01*
X161034000Y-100674900D01*
X161034000Y-99951660D01*
X161096692Y-99932642D01*
X161177466Y-99889468D01*
X161248265Y-99831365D01*
X161306368Y-99760566D01*
X161349542Y-99679792D01*
X161376129Y-99592147D01*
X161385106Y-99501000D01*
X161385106Y-98926000D01*
X161376129Y-98834853D01*
X161349542Y-98747208D01*
X161306368Y-98666434D01*
X161248265Y-98595635D01*
X161187796Y-98546009D01*
X161264787Y-98538426D01*
X161369971Y-98506519D01*
X161466908Y-98454705D01*
X161551875Y-98384975D01*
X161621605Y-98300008D01*
X161673419Y-98203071D01*
X161705326Y-98097887D01*
X161716100Y-97988500D01*
X161713400Y-97729600D01*
X161573900Y-97590100D01*
X160807000Y-97590100D01*
X160807000Y-97610100D01*
X160553800Y-97610100D01*
X160553800Y-97590100D01*
X159786900Y-97590100D01*
X159647400Y-97729600D01*
X159644700Y-97988500D01*
X159655474Y-98097887D01*
X159687381Y-98203071D01*
X159739195Y-98300008D01*
X159808925Y-98384975D01*
X159893892Y-98454705D01*
X159990829Y-98506519D01*
X160096013Y-98538426D01*
X160173004Y-98546009D01*
X160112535Y-98595635D01*
X160054432Y-98666434D01*
X160011258Y-98747208D01*
X159984671Y-98834853D01*
X159975694Y-98926000D01*
X159975694Y-99501000D01*
X159984671Y-99592147D01*
X160011258Y-99679792D01*
X160054432Y-99760566D01*
X160112535Y-99831365D01*
X160183334Y-99889468D01*
X160264108Y-99932642D01*
X160326800Y-99951660D01*
X160326801Y-100674900D01*
X159080602Y-100674900D01*
X159031591Y-100556575D01*
X159399359Y-100188807D01*
X159412843Y-100177741D01*
X159438565Y-100146399D01*
X159457031Y-100123899D01*
X159489864Y-100062471D01*
X159489865Y-100062470D01*
X159510084Y-99995817D01*
X159515201Y-99943861D01*
X159515201Y-99943859D01*
X159516911Y-99926499D01*
X159515201Y-99909139D01*
X159515201Y-97454250D01*
X159516910Y-97436898D01*
X159515201Y-97419546D01*
X159515201Y-97419537D01*
X159510084Y-97367581D01*
X159489865Y-97300928D01*
X159457030Y-97239499D01*
X159412842Y-97185657D01*
X159399358Y-97174591D01*
X159373514Y-97148747D01*
X159362443Y-97135257D01*
X159308601Y-97091070D01*
X159247172Y-97058235D01*
X159180519Y-97038016D01*
X159128563Y-97032899D01*
X159128553Y-97032899D01*
X159111201Y-97031190D01*
X159093849Y-97032899D01*
X150996427Y-97032899D01*
X150979075Y-97031190D01*
X150961723Y-97032899D01*
X150961714Y-97032899D01*
X150909758Y-97038016D01*
X150843105Y-97058235D01*
X150795623Y-97083615D01*
X150781676Y-97091070D01*
X150745432Y-97120815D01*
X150727834Y-97135257D01*
X150716768Y-97148741D01*
X148334116Y-99531394D01*
X148086975Y-99531394D01*
X148010947Y-99538882D01*
X147937841Y-99561059D01*
X147899265Y-99581678D01*
X146059235Y-97741648D01*
X146048164Y-97728158D01*
X145994322Y-97683971D01*
X145932893Y-97651136D01*
X145866240Y-97630917D01*
X145814284Y-97625800D01*
X145814274Y-97625800D01*
X145796922Y-97624091D01*
X145779570Y-97625800D01*
X142035806Y-97625800D01*
X142035806Y-97579300D01*
X142026591Y-97485734D01*
X141999298Y-97395763D01*
X141954978Y-97312845D01*
X141895333Y-97240167D01*
X141822655Y-97180522D01*
X141739737Y-97136202D01*
X141649766Y-97108909D01*
X141556200Y-97099694D01*
X141006000Y-97099694D01*
X140912434Y-97108909D01*
X140911084Y-97109319D01*
X140740265Y-96938500D01*
X159644700Y-96938500D01*
X159647400Y-97197400D01*
X159786900Y-97336900D01*
X160553800Y-97336900D01*
X160553800Y-96520000D01*
X160807000Y-96520000D01*
X160807000Y-97336900D01*
X161573900Y-97336900D01*
X161713400Y-97197400D01*
X161716100Y-96938500D01*
X161705326Y-96829113D01*
X161673419Y-96723929D01*
X161621605Y-96626992D01*
X161551875Y-96542025D01*
X161466908Y-96472295D01*
X161369971Y-96420481D01*
X161264787Y-96388574D01*
X161155400Y-96377800D01*
X160946500Y-96380500D01*
X160807000Y-96520000D01*
X160553800Y-96520000D01*
X160414300Y-96380500D01*
X160205400Y-96377800D01*
X160096013Y-96388574D01*
X159990829Y-96420481D01*
X159893892Y-96472295D01*
X159808925Y-96542025D01*
X159739195Y-96626992D01*
X159687381Y-96723929D01*
X159655474Y-96829113D01*
X159644700Y-96938500D01*
X140740265Y-96938500D01*
X140641403Y-96839638D01*
X140630332Y-96826148D01*
X140576490Y-96781961D01*
X140515061Y-96749126D01*
X140448408Y-96728907D01*
X140396452Y-96723790D01*
X140396442Y-96723790D01*
X140379090Y-96722081D01*
X140361738Y-96723790D01*
X137191773Y-96723790D01*
X137179665Y-96709036D01*
X137108866Y-96650933D01*
X137028092Y-96607759D01*
X136940447Y-96581172D01*
X136849300Y-96572195D01*
X136274300Y-96572195D01*
X136183153Y-96581172D01*
X136095508Y-96607759D01*
X136014734Y-96650933D01*
X135943935Y-96709036D01*
X135885832Y-96779835D01*
X135842658Y-96860609D01*
X135816071Y-96948254D01*
X135807094Y-97039401D01*
X135807094Y-97514401D01*
X135808631Y-97530005D01*
X135547033Y-97791603D01*
X135533549Y-97802669D01*
X135522483Y-97816153D01*
X135522481Y-97816155D01*
X135489361Y-97856512D01*
X135460727Y-97910082D01*
X135456527Y-97917940D01*
X135436308Y-97984593D01*
X135436308Y-97984595D01*
X135429481Y-98053911D01*
X135431191Y-98071273D01*
X135431191Y-99405844D01*
X135429665Y-99403985D01*
X135358866Y-99345882D01*
X135278092Y-99302708D01*
X135190447Y-99276121D01*
X135099300Y-99267144D01*
X134524300Y-99267144D01*
X134433153Y-99276121D01*
X134345508Y-99302708D01*
X134264734Y-99345882D01*
X134193935Y-99403985D01*
X134135832Y-99474784D01*
X134092658Y-99555558D01*
X134073640Y-99618250D01*
X133859574Y-99618250D01*
X133847329Y-99595341D01*
X133798864Y-99536286D01*
X133739809Y-99487821D01*
X133672434Y-99451809D01*
X133599328Y-99429632D01*
X133523300Y-99422144D01*
X133128300Y-99422144D01*
X133052272Y-99429632D01*
X133008067Y-99443042D01*
X133006319Y-99437279D01*
X132954505Y-99340342D01*
X132884775Y-99255375D01*
X132799808Y-99185645D01*
X132702871Y-99133831D01*
X132597687Y-99101924D01*
X132488300Y-99091150D01*
X132396900Y-99093850D01*
X132257400Y-99233350D01*
X132257400Y-99845250D01*
X132277400Y-99845250D01*
X132277400Y-100098450D01*
X132257400Y-100098450D01*
X132257400Y-100710350D01*
X132396900Y-100849850D01*
X132488300Y-100852550D01*
X132597687Y-100841776D01*
X132702871Y-100809869D01*
X132799808Y-100758055D01*
X132884775Y-100688325D01*
X132954505Y-100603358D01*
X133006319Y-100506421D01*
X133008067Y-100500658D01*
X133052272Y-100514068D01*
X133128300Y-100521556D01*
X133523300Y-100521556D01*
X133599328Y-100514068D01*
X133672434Y-100491891D01*
X133739809Y-100455879D01*
X133798864Y-100407414D01*
X133847329Y-100348359D01*
X133859574Y-100325450D01*
X134073640Y-100325450D01*
X134092658Y-100388142D01*
X134135832Y-100468916D01*
X134193935Y-100539715D01*
X134264734Y-100597818D01*
X134345508Y-100640992D01*
X134433153Y-100667579D01*
X134524300Y-100676556D01*
X135099300Y-100676556D01*
X135190447Y-100667579D01*
X135278092Y-100640992D01*
X135358866Y-100597818D01*
X135429665Y-100539715D01*
X135431191Y-100537856D01*
X135431190Y-102100794D01*
X135429665Y-102098935D01*
X135358866Y-102040832D01*
X135278092Y-101997658D01*
X135190447Y-101971071D01*
X135099300Y-101962094D01*
X134524300Y-101962094D01*
X134433153Y-101971071D01*
X134345508Y-101997658D01*
X134264734Y-102040832D01*
X134193935Y-102098935D01*
X134135832Y-102169734D01*
X134092658Y-102250508D01*
X134073640Y-102313200D01*
X133859574Y-102313200D01*
X133847329Y-102290291D01*
X133798864Y-102231236D01*
X133739809Y-102182771D01*
X133672434Y-102146759D01*
X133599328Y-102124582D01*
X133523300Y-102117094D01*
X133128300Y-102117094D01*
X133052272Y-102124582D01*
X133008067Y-102137992D01*
X133006319Y-102132229D01*
X132954505Y-102035292D01*
X132884775Y-101950325D01*
X132799808Y-101880595D01*
X132702871Y-101828781D01*
X132597687Y-101796874D01*
X132488300Y-101786100D01*
X132396900Y-101788800D01*
X132257400Y-101928300D01*
X132257400Y-102540200D01*
X132277400Y-102540200D01*
X132277400Y-102793400D01*
X132257400Y-102793400D01*
X132257400Y-103405300D01*
X132396900Y-103544800D01*
X132488300Y-103547500D01*
X132597687Y-103536726D01*
X132702871Y-103504819D01*
X132799808Y-103453005D01*
X132884775Y-103383275D01*
X132954505Y-103298308D01*
X133006319Y-103201371D01*
X133008067Y-103195608D01*
X133052272Y-103209018D01*
X133128300Y-103216506D01*
X133523300Y-103216506D01*
X133599328Y-103209018D01*
X133672434Y-103186841D01*
X133739809Y-103150829D01*
X133798864Y-103102364D01*
X133847329Y-103043309D01*
X133859574Y-103020400D01*
X134073640Y-103020400D01*
X134092658Y-103083092D01*
X134135832Y-103163866D01*
X134193935Y-103234665D01*
X134264734Y-103292768D01*
X134345508Y-103335942D01*
X134433153Y-103362529D01*
X134524300Y-103371506D01*
X135099300Y-103371506D01*
X135190447Y-103362529D01*
X135278092Y-103335942D01*
X135358866Y-103292768D01*
X135429665Y-103234665D01*
X135431190Y-103232806D01*
X135431190Y-104856388D01*
X135429481Y-104873740D01*
X135431190Y-104891092D01*
X135431190Y-104891101D01*
X135436307Y-104943057D01*
X135456526Y-105009710D01*
X135489361Y-105071139D01*
X135533548Y-105124981D01*
X135547034Y-105136049D01*
X135690533Y-105279547D01*
X135701608Y-105293042D01*
X135751137Y-105333689D01*
X135755451Y-105337230D01*
X135816879Y-105370064D01*
X135883532Y-105390283D01*
X135935488Y-105395400D01*
X135935490Y-105395400D01*
X135952850Y-105397110D01*
X135970210Y-105395400D01*
X135973144Y-105395400D01*
X135973144Y-105816800D01*
X135977558Y-105861613D01*
X135990629Y-105904705D01*
X136011856Y-105944418D01*
X136040423Y-105979227D01*
X136075232Y-106007794D01*
X136114945Y-106029021D01*
X136158037Y-106042092D01*
X136202850Y-106046506D01*
X136499250Y-106046506D01*
X136499251Y-109455788D01*
X136497541Y-109473150D01*
X136499251Y-109490512D01*
X136504368Y-109542468D01*
X136509367Y-109558947D01*
X136524587Y-109609121D01*
X136541374Y-109640526D01*
X136557422Y-109670550D01*
X136601609Y-109724392D01*
X136615093Y-109735458D01*
X138607800Y-111728166D01*
X138607800Y-112629035D01*
X138598635Y-112638200D01*
X137732556Y-112638200D01*
X137732556Y-112216800D01*
X137728142Y-112171987D01*
X137715071Y-112128895D01*
X137693844Y-112089182D01*
X137665277Y-112054373D01*
X137630468Y-112025806D01*
X137590755Y-112004579D01*
X137547663Y-111991508D01*
X137502850Y-111987094D01*
X136202850Y-111987094D01*
X136158037Y-111991508D01*
X136114945Y-112004579D01*
X136075232Y-112025806D01*
X136040423Y-112054373D01*
X136011856Y-112089182D01*
X135990629Y-112128895D01*
X135977558Y-112171987D01*
X135973144Y-112216800D01*
X135973144Y-113665201D01*
X133526316Y-113665201D01*
X133232556Y-113371441D01*
X133232556Y-112216800D01*
X133228142Y-112171987D01*
X133215071Y-112128895D01*
X133193844Y-112089182D01*
X133165277Y-112054373D01*
X133130468Y-112025806D01*
X133090755Y-112004579D01*
X133047663Y-111991508D01*
X133002850Y-111987094D01*
X132706450Y-111987094D01*
X132706450Y-106046506D01*
X133002850Y-106046506D01*
X133047663Y-106042092D01*
X133090755Y-106029021D01*
X133130468Y-106007794D01*
X133165277Y-105979227D01*
X133193844Y-105944418D01*
X133215071Y-105904705D01*
X133228142Y-105861613D01*
X133232556Y-105816800D01*
X133232556Y-104266800D01*
X133228142Y-104221987D01*
X133215071Y-104178895D01*
X133193844Y-104139182D01*
X133165277Y-104104373D01*
X133130468Y-104075806D01*
X133090755Y-104054579D01*
X133047663Y-104041508D01*
X133002850Y-104037094D01*
X131702850Y-104037094D01*
X131658037Y-104041508D01*
X131614945Y-104054579D01*
X131575232Y-104075806D01*
X131540423Y-104104373D01*
X131511856Y-104139182D01*
X131490629Y-104178895D01*
X131477558Y-104221987D01*
X131473144Y-104266800D01*
X131473144Y-105816800D01*
X131477558Y-105861613D01*
X131490629Y-105904705D01*
X131511856Y-105944418D01*
X131540423Y-105979227D01*
X131575232Y-106007794D01*
X131614945Y-106029021D01*
X131658037Y-106042092D01*
X131702850Y-106046506D01*
X131999251Y-106046506D01*
X131999250Y-111987094D01*
X131702850Y-111987094D01*
X131658037Y-111991508D01*
X131614945Y-112004579D01*
X131575232Y-112025806D01*
X131540423Y-112054373D01*
X131511856Y-112089182D01*
X131490629Y-112128895D01*
X131477558Y-112171987D01*
X131473144Y-112216800D01*
X131473144Y-113766800D01*
X131477558Y-113811613D01*
X131490629Y-113854705D01*
X131511856Y-113894418D01*
X131540423Y-113929227D01*
X131575232Y-113957794D01*
X131614945Y-113979021D01*
X131658037Y-113992092D01*
X131702850Y-113996506D01*
X132857491Y-113996506D01*
X132903196Y-114042211D01*
X130952877Y-114042211D01*
X130282106Y-113371441D01*
X130282106Y-112216800D01*
X130277692Y-112171987D01*
X130264621Y-112128895D01*
X130243394Y-112089182D01*
X130214827Y-112054373D01*
X130180018Y-112025806D01*
X130140305Y-112004579D01*
X130097213Y-111991508D01*
X130052400Y-111987094D01*
X129756000Y-111987094D01*
X129756000Y-106046506D01*
X130052400Y-106046506D01*
X130097213Y-106042092D01*
X130140305Y-106029021D01*
X130180018Y-106007794D01*
X130214827Y-105979227D01*
X130243394Y-105944418D01*
X130264621Y-105904705D01*
X130277692Y-105861613D01*
X130282106Y-105816800D01*
X130282106Y-104266800D01*
X130277692Y-104221987D01*
X130264621Y-104178895D01*
X130243394Y-104139182D01*
X130214827Y-104104373D01*
X130180018Y-104075806D01*
X130140305Y-104054579D01*
X130097213Y-104041508D01*
X130052400Y-104037094D01*
X128752400Y-104037094D01*
X128707587Y-104041508D01*
X128664495Y-104054579D01*
X128624782Y-104075806D01*
X128589973Y-104104373D01*
X128561406Y-104139182D01*
X128540179Y-104178895D01*
X128527108Y-104221987D01*
X128522694Y-104266800D01*
X126113100Y-104266800D01*
X126102326Y-104157413D01*
X126070419Y-104052229D01*
X126018605Y-103955292D01*
X125948875Y-103870325D01*
X125863908Y-103800595D01*
X125766971Y-103748781D01*
X125661787Y-103716874D01*
X125552400Y-103706100D01*
X125168500Y-103708800D01*
X125029000Y-103848300D01*
X124775800Y-103848300D01*
X124636300Y-103708800D01*
X124252400Y-103706100D01*
X124143013Y-103716874D01*
X124037829Y-103748781D01*
X123940892Y-103800595D01*
X123855925Y-103870325D01*
X123786195Y-103955292D01*
X123734381Y-104052229D01*
X123702474Y-104157413D01*
X123691700Y-104266800D01*
X123627701Y-104266800D01*
X123627701Y-102043126D01*
X125640614Y-102043126D01*
X125951138Y-102465239D01*
X126525453Y-102773085D01*
X127148791Y-102962972D01*
X127797197Y-103027603D01*
X128216519Y-102986800D01*
X131212600Y-102986800D01*
X131223374Y-103096187D01*
X131255281Y-103201371D01*
X131307095Y-103298308D01*
X131376825Y-103383275D01*
X131461792Y-103453005D01*
X131558729Y-103504819D01*
X131663913Y-103536726D01*
X131773300Y-103547500D01*
X131864700Y-103544800D01*
X132004200Y-103405300D01*
X132004200Y-102793400D01*
X131354800Y-102793400D01*
X131215300Y-102932900D01*
X131212600Y-102986800D01*
X128216519Y-102986800D01*
X128445753Y-102964494D01*
X129069536Y-102776072D01*
X129644573Y-102469575D01*
X129651062Y-102465239D01*
X129738190Y-102346800D01*
X131212600Y-102346800D01*
X131215300Y-102400700D01*
X131354800Y-102540200D01*
X132004200Y-102540200D01*
X132004200Y-101928300D01*
X131864700Y-101788800D01*
X131773300Y-101786100D01*
X131663913Y-101796874D01*
X131558729Y-101828781D01*
X131461792Y-101880595D01*
X131376825Y-101950325D01*
X131307095Y-102035292D01*
X131255281Y-102132229D01*
X131223374Y-102237413D01*
X131212600Y-102346800D01*
X129738190Y-102346800D01*
X129961586Y-102043126D01*
X127801100Y-99882639D01*
X125640614Y-102043126D01*
X123627701Y-102043126D01*
X123627701Y-99699697D01*
X124477097Y-99699697D01*
X124540206Y-100348253D01*
X124728628Y-100972036D01*
X125035125Y-101547073D01*
X125039461Y-101553562D01*
X125461574Y-101864086D01*
X127622061Y-99703600D01*
X127980139Y-99703600D01*
X130140626Y-101864086D01*
X130562739Y-101553562D01*
X130870585Y-100979247D01*
X131060472Y-100355909D01*
X131066857Y-100291850D01*
X131212600Y-100291850D01*
X131223374Y-100401237D01*
X131255281Y-100506421D01*
X131307095Y-100603358D01*
X131376825Y-100688325D01*
X131461792Y-100758055D01*
X131558729Y-100809869D01*
X131663913Y-100841776D01*
X131773300Y-100852550D01*
X131864700Y-100849850D01*
X132004200Y-100710350D01*
X132004200Y-100098450D01*
X131354800Y-100098450D01*
X131215300Y-100237950D01*
X131212600Y-100291850D01*
X131066857Y-100291850D01*
X131125103Y-99707503D01*
X131119688Y-99651850D01*
X131212600Y-99651850D01*
X131215300Y-99705750D01*
X131354800Y-99845250D01*
X132004200Y-99845250D01*
X132004200Y-99233350D01*
X131864700Y-99093850D01*
X131773300Y-99091150D01*
X131663913Y-99101924D01*
X131558729Y-99133831D01*
X131461792Y-99185645D01*
X131376825Y-99255375D01*
X131307095Y-99340342D01*
X131255281Y-99437279D01*
X131223374Y-99542463D01*
X131212600Y-99651850D01*
X131119688Y-99651850D01*
X131061994Y-99058947D01*
X130873572Y-98435164D01*
X130567075Y-97860127D01*
X130562739Y-97853638D01*
X130213742Y-97596901D01*
X131212600Y-97596901D01*
X131223374Y-97706288D01*
X131255281Y-97811472D01*
X131307095Y-97908409D01*
X131376825Y-97993376D01*
X131461792Y-98063106D01*
X131558729Y-98114920D01*
X131663913Y-98146827D01*
X131773300Y-98157601D01*
X131864700Y-98154901D01*
X132004200Y-98015401D01*
X132004200Y-97403501D01*
X131354800Y-97403501D01*
X131215300Y-97543001D01*
X131212600Y-97596901D01*
X130213742Y-97596901D01*
X130140626Y-97543114D01*
X127980139Y-99703600D01*
X127622061Y-99703600D01*
X125461574Y-97543114D01*
X125039461Y-97853638D01*
X124731615Y-98427953D01*
X124541728Y-99051291D01*
X124477097Y-99699697D01*
X123627701Y-99699697D01*
X123627701Y-97364074D01*
X125640614Y-97364074D01*
X127801100Y-99524561D01*
X129961586Y-97364074D01*
X129662053Y-96956901D01*
X131212600Y-96956901D01*
X131215300Y-97010801D01*
X131354800Y-97150301D01*
X132004200Y-97150301D01*
X132004200Y-96538401D01*
X132257400Y-96538401D01*
X132257400Y-97150301D01*
X132277400Y-97150301D01*
X132277400Y-97403501D01*
X132257400Y-97403501D01*
X132257400Y-98015401D01*
X132396900Y-98154901D01*
X132488300Y-98157601D01*
X132597687Y-98146827D01*
X132702871Y-98114920D01*
X132799808Y-98063106D01*
X132884775Y-97993376D01*
X132954505Y-97908409D01*
X133006319Y-97811472D01*
X133008067Y-97805709D01*
X133052272Y-97819119D01*
X133128300Y-97826607D01*
X133523300Y-97826607D01*
X133599328Y-97819119D01*
X133672434Y-97796942D01*
X133739809Y-97760930D01*
X133798864Y-97712465D01*
X133847329Y-97653410D01*
X133859574Y-97630501D01*
X134073640Y-97630501D01*
X134092658Y-97693193D01*
X134135832Y-97773967D01*
X134193935Y-97844766D01*
X134264734Y-97902869D01*
X134345508Y-97946043D01*
X134433153Y-97972630D01*
X134524300Y-97981607D01*
X135099300Y-97981607D01*
X135190447Y-97972630D01*
X135278092Y-97946043D01*
X135358866Y-97902869D01*
X135429665Y-97844766D01*
X135487768Y-97773967D01*
X135530942Y-97693193D01*
X135557529Y-97605548D01*
X135566506Y-97514401D01*
X135566506Y-97039401D01*
X135557529Y-96948254D01*
X135530942Y-96860609D01*
X135487768Y-96779835D01*
X135429665Y-96709036D01*
X135358866Y-96650933D01*
X135278092Y-96607759D01*
X135190447Y-96581172D01*
X135099300Y-96572195D01*
X134524300Y-96572195D01*
X134433153Y-96581172D01*
X134345508Y-96607759D01*
X134264734Y-96650933D01*
X134193935Y-96709036D01*
X134135832Y-96779835D01*
X134092658Y-96860609D01*
X134073640Y-96923301D01*
X133859574Y-96923301D01*
X133847329Y-96900392D01*
X133798864Y-96841337D01*
X133739809Y-96792872D01*
X133672434Y-96756860D01*
X133599328Y-96734683D01*
X133523300Y-96727195D01*
X133128300Y-96727195D01*
X133052272Y-96734683D01*
X133008067Y-96748093D01*
X133006319Y-96742330D01*
X132954505Y-96645393D01*
X132884775Y-96560426D01*
X132799808Y-96490696D01*
X132702871Y-96438882D01*
X132597687Y-96406975D01*
X132488300Y-96396201D01*
X132396900Y-96398901D01*
X132257400Y-96538401D01*
X132004200Y-96538401D01*
X131864700Y-96398901D01*
X131773300Y-96396201D01*
X131663913Y-96406975D01*
X131558729Y-96438882D01*
X131461792Y-96490696D01*
X131376825Y-96560426D01*
X131307095Y-96645393D01*
X131255281Y-96742330D01*
X131223374Y-96847514D01*
X131212600Y-96956901D01*
X129662053Y-96956901D01*
X129651062Y-96941961D01*
X129076747Y-96634115D01*
X128453409Y-96444228D01*
X127805003Y-96379597D01*
X127156447Y-96442706D01*
X126532664Y-96631128D01*
X125957627Y-96937625D01*
X125951138Y-96941961D01*
X125640614Y-97364074D01*
X123627701Y-97364074D01*
X123627701Y-97009794D01*
X123663976Y-96639840D01*
X123769616Y-96289937D01*
X123941212Y-95967214D01*
X124172220Y-95683970D01*
X124453850Y-95450984D01*
X124775364Y-95277142D01*
X125124524Y-95169059D01*
X125493991Y-95130227D01*
X125501259Y-95130201D01*
X171494906Y-95130201D01*
X171864860Y-95166476D01*
%TA.AperFunction,Conductor*%
D21*
G36*
X171864860Y-95166476D02*
G01*
X172214763Y-95272116D01*
X172537486Y-95443712D01*
X172820730Y-95674720D01*
X173053716Y-95956350D01*
X173227558Y-96277864D01*
X173335641Y-96627024D01*
X173374473Y-96996491D01*
X173374499Y-97003759D01*
X173374500Y-112997396D01*
X173338224Y-113367361D01*
X173232581Y-113717269D01*
X173060987Y-114039988D01*
X172829975Y-114323235D01*
X172548351Y-114556215D01*
X172226838Y-114730057D01*
X171877676Y-114838141D01*
X171508209Y-114876973D01*
X171500941Y-114876999D01*
X125507294Y-114876999D01*
X125137339Y-114840724D01*
X124787431Y-114735081D01*
X124464712Y-114563487D01*
X124181465Y-114332475D01*
X124170691Y-114319452D01*
X124252400Y-114327500D01*
X124636300Y-114324800D01*
X124775800Y-114185300D01*
X124775800Y-113118400D01*
X125029000Y-113118400D01*
X125029000Y-114185300D01*
X125168500Y-114324800D01*
X125552400Y-114327500D01*
X125661787Y-114316726D01*
X125766971Y-114284819D01*
X125863908Y-114233005D01*
X125948875Y-114163275D01*
X126018605Y-114078308D01*
X126070419Y-113981371D01*
X126102326Y-113876187D01*
X126113100Y-113766800D01*
X126110400Y-113257900D01*
X125970900Y-113118400D01*
X125029000Y-113118400D01*
X124775800Y-113118400D01*
X123833900Y-113118400D01*
X123694400Y-113257900D01*
X123693293Y-113466539D01*
X123666559Y-113380176D01*
X123627727Y-113010709D01*
X123627701Y-113003441D01*
X123627701Y-112216800D01*
X123691700Y-112216800D01*
X123694400Y-112725700D01*
X123833900Y-112865200D01*
X124775800Y-112865200D01*
X124775800Y-111798300D01*
X125029000Y-111798300D01*
X125029000Y-112865200D01*
X125970900Y-112865200D01*
X126110400Y-112725700D01*
X126113100Y-112216800D01*
X126102326Y-112107413D01*
X126070419Y-112002229D01*
X126018605Y-111905292D01*
X125948875Y-111820325D01*
X125863908Y-111750595D01*
X125766971Y-111698781D01*
X125661787Y-111666874D01*
X125552400Y-111656100D01*
X125168500Y-111658800D01*
X125029000Y-111798300D01*
X124775800Y-111798300D01*
X124636300Y-111658800D01*
X124252400Y-111656100D01*
X124143013Y-111666874D01*
X124037829Y-111698781D01*
X123940892Y-111750595D01*
X123855925Y-111820325D01*
X123786195Y-111905292D01*
X123734381Y-112002229D01*
X123702474Y-112107413D01*
X123691700Y-112216800D01*
X123627701Y-112216800D01*
X123627701Y-105816800D01*
X123691700Y-105816800D01*
X123702474Y-105926187D01*
X123734381Y-106031371D01*
X123786195Y-106128308D01*
X123855925Y-106213275D01*
X123940892Y-106283005D01*
X124037829Y-106334819D01*
X124143013Y-106366726D01*
X124252400Y-106377500D01*
X124636300Y-106374800D01*
X124775800Y-106235300D01*
X124775800Y-105168400D01*
X125029000Y-105168400D01*
X125029000Y-106235300D01*
X125168500Y-106374800D01*
X125552400Y-106377500D01*
X125661787Y-106366726D01*
X125766971Y-106334819D01*
X125863908Y-106283005D01*
X125948875Y-106213275D01*
X126018605Y-106128308D01*
X126070419Y-106031371D01*
X126102326Y-105926187D01*
X126113100Y-105816800D01*
X126110400Y-105307900D01*
X125970900Y-105168400D01*
X125029000Y-105168400D01*
X124775800Y-105168400D01*
X123833900Y-105168400D01*
X123694400Y-105307900D01*
X123691700Y-105816800D01*
X123627701Y-105816800D01*
X123627701Y-104266800D01*
X123691700Y-104266800D01*
X123694400Y-104775700D01*
X123833900Y-104915200D01*
X124775800Y-104915200D01*
X124775800Y-103848300D01*
X125029000Y-103848300D01*
X125029000Y-104915200D01*
X125970900Y-104915200D01*
X126110400Y-104775700D01*
X126113100Y-104266800D01*
X128522694Y-104266800D01*
X128522694Y-105816800D01*
X128527108Y-105861613D01*
X128540179Y-105904705D01*
X128561406Y-105944418D01*
X128589973Y-105979227D01*
X128624782Y-106007794D01*
X128664495Y-106029021D01*
X128707587Y-106042092D01*
X128752400Y-106046506D01*
X129048801Y-106046506D01*
X129048800Y-111987094D01*
X128752400Y-111987094D01*
X128707587Y-111991508D01*
X128664495Y-112004579D01*
X128624782Y-112025806D01*
X128589973Y-112054373D01*
X128561406Y-112089182D01*
X128540179Y-112128895D01*
X128527108Y-112171987D01*
X128522694Y-112216800D01*
X128522694Y-113766800D01*
X128527108Y-113811613D01*
X128540179Y-113854705D01*
X128561406Y-113894418D01*
X128589973Y-113929227D01*
X128624782Y-113957794D01*
X128664495Y-113979021D01*
X128707587Y-113992092D01*
X128752400Y-113996506D01*
X129907040Y-113996506D01*
X130544103Y-114633569D01*
X130555169Y-114647053D01*
X130568653Y-114658119D01*
X130568654Y-114658120D01*
X130609011Y-114691240D01*
X130670440Y-114724075D01*
X130737093Y-114744294D01*
X130789049Y-114749411D01*
X130789058Y-114749411D01*
X130806410Y-114751120D01*
X130823762Y-114749411D01*
X143378737Y-114749411D01*
X143396089Y-114751120D01*
X143413441Y-114749411D01*
X143413451Y-114749411D01*
X143465407Y-114744294D01*
X143532060Y-114724075D01*
X143593489Y-114691240D01*
X143647331Y-114647053D01*
X143658402Y-114633563D01*
X144652365Y-113639600D01*
X152247600Y-113639600D01*
X152267421Y-113637648D01*
X152286481Y-113631866D01*
X152304046Y-113622477D01*
X152319442Y-113609842D01*
X152332077Y-113594446D01*
X152341466Y-113576881D01*
X152347248Y-113557821D01*
X152349200Y-113538000D01*
X152349200Y-112543126D01*
X154440614Y-112543126D01*
X154751138Y-112965239D01*
X155325453Y-113273085D01*
X155948791Y-113462972D01*
X156597197Y-113527603D01*
X157245753Y-113464494D01*
X157869536Y-113276072D01*
X158444573Y-112969575D01*
X158451062Y-112965239D01*
X158761586Y-112543126D01*
X156601100Y-110382639D01*
X154440614Y-112543126D01*
X152349200Y-112543126D01*
X152349200Y-111371565D01*
X153238963Y-110481803D01*
X153252442Y-110470741D01*
X153263505Y-110457261D01*
X153263510Y-110457256D01*
X153296630Y-110416899D01*
X153297985Y-110414363D01*
X153340206Y-110848253D01*
X153528628Y-111472036D01*
X153835125Y-112047073D01*
X153839461Y-112053562D01*
X154261574Y-112364086D01*
X156422061Y-110203600D01*
X156780139Y-110203600D01*
X158940626Y-112364086D01*
X159362739Y-112053562D01*
X159670585Y-111479247D01*
X159791516Y-111082267D01*
X163087500Y-111082267D01*
X163087500Y-111294733D01*
X163128950Y-111503116D01*
X163210257Y-111699409D01*
X163328297Y-111876067D01*
X163478533Y-112026303D01*
X163655191Y-112144343D01*
X163851484Y-112225650D01*
X164059867Y-112267100D01*
X164272333Y-112267100D01*
X164480716Y-112225650D01*
X164677009Y-112144343D01*
X164853667Y-112026303D01*
X165003903Y-111876067D01*
X165121943Y-111699409D01*
X165187102Y-111542100D01*
X169362198Y-111542100D01*
X169427357Y-111699409D01*
X169545397Y-111876067D01*
X169695633Y-112026303D01*
X169872291Y-112144343D01*
X170068584Y-112225650D01*
X170276967Y-112267100D01*
X170489433Y-112267100D01*
X170697816Y-112225650D01*
X170894109Y-112144343D01*
X171070767Y-112026303D01*
X171221003Y-111876067D01*
X171339043Y-111699409D01*
X171420350Y-111503116D01*
X171461800Y-111294733D01*
X171461800Y-111082267D01*
X171420350Y-110873884D01*
X171339043Y-110677591D01*
X171221003Y-110500933D01*
X171070767Y-110350697D01*
X170894109Y-110232657D01*
X170697816Y-110151350D01*
X170489433Y-110109900D01*
X170276967Y-110109900D01*
X170068584Y-110151350D01*
X169872291Y-110232657D01*
X169695633Y-110350697D01*
X169545397Y-110500933D01*
X169427357Y-110677591D01*
X169362198Y-110834900D01*
X165187102Y-110834900D01*
X165121943Y-110677591D01*
X165003903Y-110500933D01*
X164853667Y-110350697D01*
X164677009Y-110232657D01*
X164480716Y-110151350D01*
X164272333Y-110109900D01*
X164059867Y-110109900D01*
X163851484Y-110151350D01*
X163655191Y-110232657D01*
X163478533Y-110350697D01*
X163328297Y-110500933D01*
X163210257Y-110677591D01*
X163128950Y-110873884D01*
X163087500Y-111082267D01*
X159791516Y-111082267D01*
X159860472Y-110855909D01*
X159925103Y-110207503D01*
X159861994Y-109558947D01*
X159673572Y-108935164D01*
X159464157Y-108542267D01*
X163087500Y-108542267D01*
X163087500Y-108754733D01*
X163128950Y-108963116D01*
X163210257Y-109159409D01*
X163328297Y-109336067D01*
X163478533Y-109486303D01*
X163655191Y-109604343D01*
X163851484Y-109685650D01*
X164059867Y-109727100D01*
X164272333Y-109727100D01*
X164480716Y-109685650D01*
X164677009Y-109604343D01*
X164853667Y-109486303D01*
X165003903Y-109336067D01*
X165121943Y-109159409D01*
X165187102Y-109002100D01*
X169362198Y-109002100D01*
X169427357Y-109159409D01*
X169545397Y-109336067D01*
X169695633Y-109486303D01*
X169872291Y-109604343D01*
X170068584Y-109685650D01*
X170276967Y-109727100D01*
X170489433Y-109727100D01*
X170697816Y-109685650D01*
X170894109Y-109604343D01*
X171070767Y-109486303D01*
X171221003Y-109336067D01*
X171339043Y-109159409D01*
X171420350Y-108963116D01*
X171461800Y-108754733D01*
X171461800Y-108542267D01*
X171420350Y-108333884D01*
X171339043Y-108137591D01*
X171221003Y-107960933D01*
X171070767Y-107810697D01*
X170894109Y-107692657D01*
X170697816Y-107611350D01*
X170489433Y-107569900D01*
X170276967Y-107569900D01*
X170068584Y-107611350D01*
X169872291Y-107692657D01*
X169695633Y-107810697D01*
X169545397Y-107960933D01*
X169427357Y-108137591D01*
X169362198Y-108294900D01*
X165187102Y-108294900D01*
X165121943Y-108137591D01*
X165003903Y-107960933D01*
X164853667Y-107810697D01*
X164677009Y-107692657D01*
X164480716Y-107611350D01*
X164272333Y-107569900D01*
X164059867Y-107569900D01*
X163851484Y-107611350D01*
X163655191Y-107692657D01*
X163478533Y-107810697D01*
X163328297Y-107960933D01*
X163210257Y-108137591D01*
X163128950Y-108333884D01*
X163087500Y-108542267D01*
X159464157Y-108542267D01*
X159367075Y-108360127D01*
X159362739Y-108353638D01*
X158940626Y-108043114D01*
X156780139Y-110203600D01*
X156422061Y-110203600D01*
X154261574Y-108043114D01*
X153839461Y-108353638D01*
X153531615Y-108927953D01*
X153354801Y-109508377D01*
X153354801Y-107603590D01*
X153356510Y-107586238D01*
X153354801Y-107568886D01*
X153354801Y-107568877D01*
X153349684Y-107516921D01*
X153329465Y-107450268D01*
X153296630Y-107388839D01*
X153252443Y-107334997D01*
X153238959Y-107323931D01*
X153217828Y-107302800D01*
X155010580Y-107302800D01*
X154757627Y-107437625D01*
X154751138Y-107441961D01*
X154440614Y-107864074D01*
X156601100Y-110024561D01*
X158761586Y-107864074D01*
X158451062Y-107441961D01*
X158191444Y-107302800D01*
X163308048Y-107302800D01*
X163325400Y-107304509D01*
X163342752Y-107302800D01*
X163342762Y-107302800D01*
X163394718Y-107297683D01*
X163461371Y-107277464D01*
X163522800Y-107244629D01*
X163576642Y-107200442D01*
X163587713Y-107186952D01*
X163694175Y-107080491D01*
X163851484Y-107145650D01*
X164059867Y-107187100D01*
X164272333Y-107187100D01*
X164480716Y-107145650D01*
X164677009Y-107064343D01*
X164853667Y-106946303D01*
X165003903Y-106796067D01*
X165121943Y-106619409D01*
X165187102Y-106462100D01*
X169362198Y-106462100D01*
X169427357Y-106619409D01*
X169545397Y-106796067D01*
X169695633Y-106946303D01*
X169872291Y-107064343D01*
X170068584Y-107145650D01*
X170276967Y-107187100D01*
X170489433Y-107187100D01*
X170697816Y-107145650D01*
X170894109Y-107064343D01*
X171070767Y-106946303D01*
X171221003Y-106796067D01*
X171339043Y-106619409D01*
X171420350Y-106423116D01*
X171461800Y-106214733D01*
X171461800Y-106002267D01*
X171420350Y-105793884D01*
X171339043Y-105597591D01*
X171221003Y-105420933D01*
X171070767Y-105270697D01*
X170894109Y-105152657D01*
X170697816Y-105071350D01*
X170489433Y-105029900D01*
X170276967Y-105029900D01*
X170068584Y-105071350D01*
X169872291Y-105152657D01*
X169695633Y-105270697D01*
X169545397Y-105420933D01*
X169427357Y-105597591D01*
X169362198Y-105754900D01*
X165187102Y-105754900D01*
X165121943Y-105597591D01*
X165003903Y-105420933D01*
X164853667Y-105270697D01*
X164677009Y-105152657D01*
X164480716Y-105071350D01*
X164272333Y-105029900D01*
X164059867Y-105029900D01*
X163851484Y-105071350D01*
X163655191Y-105152657D01*
X163478533Y-105270697D01*
X163328297Y-105420933D01*
X163210257Y-105597591D01*
X163128950Y-105793884D01*
X163087500Y-106002267D01*
X163087500Y-106214733D01*
X163128950Y-106423116D01*
X163194109Y-106580425D01*
X163178935Y-106595600D01*
X152381514Y-106595600D01*
X152364162Y-106593891D01*
X152349200Y-106595365D01*
X152349200Y-105918000D01*
X152347248Y-105898179D01*
X152341466Y-105879119D01*
X152332077Y-105861554D01*
X152319442Y-105846158D01*
X152304046Y-105833523D01*
X152286481Y-105824134D01*
X152267421Y-105818352D01*
X152247600Y-105816400D01*
X151639863Y-105816400D01*
X153534164Y-103922100D01*
X163145098Y-103922100D01*
X163210257Y-104079409D01*
X163328297Y-104256067D01*
X163478533Y-104406303D01*
X163655191Y-104524343D01*
X163851484Y-104605650D01*
X164059867Y-104647100D01*
X164272333Y-104647100D01*
X164480716Y-104605650D01*
X164677009Y-104524343D01*
X164853667Y-104406303D01*
X165003903Y-104256067D01*
X165121943Y-104079409D01*
X165187102Y-103922100D01*
X169362198Y-103922100D01*
X169427357Y-104079409D01*
X169545397Y-104256067D01*
X169695633Y-104406303D01*
X169872291Y-104524343D01*
X170068584Y-104605650D01*
X170276967Y-104647100D01*
X170489433Y-104647100D01*
X170697816Y-104605650D01*
X170894109Y-104524343D01*
X171070767Y-104406303D01*
X171221003Y-104256067D01*
X171339043Y-104079409D01*
X171420350Y-103883116D01*
X171461800Y-103674733D01*
X171461800Y-103462267D01*
X171420350Y-103253884D01*
X171339043Y-103057591D01*
X171221003Y-102880933D01*
X171070767Y-102730697D01*
X170894109Y-102612657D01*
X170697816Y-102531350D01*
X170489433Y-102489900D01*
X170276967Y-102489900D01*
X170068584Y-102531350D01*
X169872291Y-102612657D01*
X169695633Y-102730697D01*
X169545397Y-102880933D01*
X169427357Y-103057591D01*
X169362198Y-103214900D01*
X165187102Y-103214900D01*
X165121943Y-103057591D01*
X165003903Y-102880933D01*
X164853667Y-102730697D01*
X164677009Y-102612657D01*
X164480716Y-102531350D01*
X164272333Y-102489900D01*
X164059867Y-102489900D01*
X163851484Y-102531350D01*
X163655191Y-102612657D01*
X163478533Y-102730697D01*
X163328297Y-102880933D01*
X163210257Y-103057591D01*
X163145098Y-103214900D01*
X156373265Y-103214900D01*
X157587675Y-102000491D01*
X157744984Y-102065650D01*
X157953367Y-102107100D01*
X158165833Y-102107100D01*
X158374216Y-102065650D01*
X158570509Y-101984343D01*
X158747167Y-101866303D01*
X158897403Y-101716067D01*
X159015443Y-101539409D01*
X159080602Y-101382100D01*
X160701138Y-101382100D01*
X160718500Y-101383810D01*
X160735862Y-101382100D01*
X161608748Y-101382100D01*
X161626100Y-101383809D01*
X161643452Y-101382100D01*
X161643462Y-101382100D01*
X161695418Y-101376983D01*
X161708848Y-101372909D01*
X162800872Y-101372909D01*
X162839607Y-101500616D01*
X162957200Y-101750330D01*
X163121251Y-101972305D01*
X163325455Y-102158010D01*
X163561964Y-102300309D01*
X163821690Y-102393733D01*
X164039500Y-102291302D01*
X164039500Y-101155100D01*
X164292700Y-101155100D01*
X164292700Y-102291302D01*
X164510510Y-102393733D01*
X164770236Y-102300309D01*
X165006745Y-102158010D01*
X165210949Y-101972305D01*
X165375000Y-101750330D01*
X165492593Y-101500616D01*
X165531328Y-101372909D01*
X169017972Y-101372909D01*
X169056707Y-101500616D01*
X169174300Y-101750330D01*
X169338351Y-101972305D01*
X169542555Y-102158010D01*
X169779064Y-102300309D01*
X170038790Y-102393733D01*
X170256600Y-102291302D01*
X170256600Y-101155100D01*
X170509800Y-101155100D01*
X170509800Y-102291302D01*
X170727610Y-102393733D01*
X170987336Y-102300309D01*
X171223845Y-102158010D01*
X171428049Y-101972305D01*
X171592100Y-101750330D01*
X171709693Y-101500616D01*
X171748428Y-101372909D01*
X171645367Y-101155100D01*
X170509800Y-101155100D01*
X170256600Y-101155100D01*
X169121033Y-101155100D01*
X169017972Y-101372909D01*
X165531328Y-101372909D01*
X165428267Y-101155100D01*
X164292700Y-101155100D01*
X164039500Y-101155100D01*
X162903933Y-101155100D01*
X162800872Y-101372909D01*
X161708848Y-101372909D01*
X161762071Y-101356764D01*
X161823500Y-101323929D01*
X161877342Y-101279742D01*
X161888413Y-101266252D01*
X162470574Y-100684091D01*
X162800872Y-100684091D01*
X162903933Y-100901900D01*
X164039500Y-100901900D01*
X164039500Y-99765698D01*
X164292700Y-99765698D01*
X164292700Y-100901900D01*
X165428267Y-100901900D01*
X165531328Y-100684091D01*
X169017972Y-100684091D01*
X169121033Y-100901900D01*
X170256600Y-100901900D01*
X170256600Y-99765698D01*
X170509800Y-99765698D01*
X170509800Y-100901900D01*
X171645367Y-100901900D01*
X171748428Y-100684091D01*
X171709693Y-100556384D01*
X171592100Y-100306670D01*
X171428049Y-100084695D01*
X171223845Y-99898990D01*
X170987336Y-99756691D01*
X170727610Y-99663267D01*
X170509800Y-99765698D01*
X170256600Y-99765698D01*
X170038790Y-99663267D01*
X169779064Y-99756691D01*
X169542555Y-99898990D01*
X169338351Y-100084695D01*
X169174300Y-100306670D01*
X169056707Y-100556384D01*
X169017972Y-100684091D01*
X165531328Y-100684091D01*
X165492593Y-100556384D01*
X165375000Y-100306670D01*
X165210949Y-100084695D01*
X165006745Y-99898990D01*
X164770236Y-99756691D01*
X164510510Y-99663267D01*
X164292700Y-99765698D01*
X164039500Y-99765698D01*
X163821690Y-99663267D01*
X163561964Y-99756691D01*
X163325455Y-99898990D01*
X163121251Y-100084695D01*
X162957200Y-100306670D01*
X162839607Y-100556384D01*
X162800872Y-100684091D01*
X162470574Y-100684091D01*
X163586460Y-99568206D01*
X165016100Y-99568206D01*
X165060913Y-99563792D01*
X165104005Y-99550721D01*
X165143718Y-99529494D01*
X165178527Y-99500927D01*
X165207094Y-99466118D01*
X165228321Y-99426405D01*
X165241392Y-99383313D01*
X165245806Y-99338500D01*
X165245806Y-98842100D01*
X169303494Y-98842100D01*
X169303494Y-99338500D01*
X169307908Y-99383313D01*
X169320979Y-99426405D01*
X169342206Y-99466118D01*
X169370773Y-99500927D01*
X169405582Y-99529494D01*
X169445295Y-99550721D01*
X169488387Y-99563792D01*
X169533200Y-99568206D01*
X171233200Y-99568206D01*
X171278013Y-99563792D01*
X171321105Y-99550721D01*
X171360818Y-99529494D01*
X171395627Y-99500927D01*
X171424194Y-99466118D01*
X171445421Y-99426405D01*
X171458492Y-99383313D01*
X171462906Y-99338500D01*
X171462906Y-97638500D01*
X171458492Y-97593687D01*
X171445421Y-97550595D01*
X171424194Y-97510882D01*
X171395627Y-97476073D01*
X171360818Y-97447506D01*
X171321105Y-97426279D01*
X171278013Y-97413208D01*
X171233200Y-97408794D01*
X169533200Y-97408794D01*
X169488387Y-97413208D01*
X169445295Y-97426279D01*
X169405582Y-97447506D01*
X169370773Y-97476073D01*
X169342206Y-97510882D01*
X169320979Y-97550595D01*
X169307908Y-97593687D01*
X169303494Y-97638500D01*
X169303494Y-98134900D01*
X165245806Y-98134900D01*
X165245806Y-97638500D01*
X165241392Y-97593687D01*
X165228321Y-97550595D01*
X165207094Y-97510882D01*
X165178527Y-97476073D01*
X165143718Y-97447506D01*
X165104005Y-97426279D01*
X165060913Y-97413208D01*
X165016100Y-97408794D01*
X163316100Y-97408794D01*
X163271287Y-97413208D01*
X163228195Y-97426279D01*
X163188482Y-97447506D01*
X163153673Y-97476073D01*
X163125106Y-97510882D01*
X163103879Y-97550595D01*
X163090808Y-97593687D01*
X163086394Y-97638500D01*
X163086394Y-99068140D01*
X161479635Y-100674900D01*
X161034000Y-100674900D01*
X161034000Y-99951660D01*
X161096692Y-99932642D01*
X161177466Y-99889468D01*
X161248265Y-99831365D01*
X161306368Y-99760566D01*
X161349542Y-99679792D01*
X161376129Y-99592147D01*
X161385106Y-99501000D01*
X161385106Y-98926000D01*
X161376129Y-98834853D01*
X161349542Y-98747208D01*
X161306368Y-98666434D01*
X161248265Y-98595635D01*
X161187796Y-98546009D01*
X161264787Y-98538426D01*
X161369971Y-98506519D01*
X161466908Y-98454705D01*
X161551875Y-98384975D01*
X161621605Y-98300008D01*
X161673419Y-98203071D01*
X161705326Y-98097887D01*
X161716100Y-97988500D01*
X161713400Y-97729600D01*
X161573900Y-97590100D01*
X160807000Y-97590100D01*
X160807000Y-97610100D01*
X160553800Y-97610100D01*
X160553800Y-97590100D01*
X159786900Y-97590100D01*
X159647400Y-97729600D01*
X159644700Y-97988500D01*
X159655474Y-98097887D01*
X159687381Y-98203071D01*
X159739195Y-98300008D01*
X159808925Y-98384975D01*
X159893892Y-98454705D01*
X159990829Y-98506519D01*
X160096013Y-98538426D01*
X160173004Y-98546009D01*
X160112535Y-98595635D01*
X160054432Y-98666434D01*
X160011258Y-98747208D01*
X159984671Y-98834853D01*
X159975694Y-98926000D01*
X159975694Y-99501000D01*
X159984671Y-99592147D01*
X160011258Y-99679792D01*
X160054432Y-99760566D01*
X160112535Y-99831365D01*
X160183334Y-99889468D01*
X160264108Y-99932642D01*
X160326800Y-99951660D01*
X160326801Y-100674900D01*
X159080602Y-100674900D01*
X159031591Y-100556575D01*
X159399359Y-100188807D01*
X159412843Y-100177741D01*
X159438565Y-100146399D01*
X159457031Y-100123899D01*
X159489864Y-100062471D01*
X159489865Y-100062470D01*
X159510084Y-99995817D01*
X159515201Y-99943861D01*
X159515201Y-99943859D01*
X159516911Y-99926499D01*
X159515201Y-99909139D01*
X159515201Y-97454250D01*
X159516910Y-97436898D01*
X159515201Y-97419546D01*
X159515201Y-97419537D01*
X159510084Y-97367581D01*
X159489865Y-97300928D01*
X159457030Y-97239499D01*
X159412842Y-97185657D01*
X159399358Y-97174591D01*
X159373514Y-97148747D01*
X159362443Y-97135257D01*
X159308601Y-97091070D01*
X159247172Y-97058235D01*
X159180519Y-97038016D01*
X159128563Y-97032899D01*
X159128553Y-97032899D01*
X159111201Y-97031190D01*
X159093849Y-97032899D01*
X150996427Y-97032899D01*
X150979075Y-97031190D01*
X150961723Y-97032899D01*
X150961714Y-97032899D01*
X150909758Y-97038016D01*
X150843105Y-97058235D01*
X150795623Y-97083615D01*
X150781676Y-97091070D01*
X150745432Y-97120815D01*
X150727834Y-97135257D01*
X150716768Y-97148741D01*
X148334116Y-99531394D01*
X148086975Y-99531394D01*
X148010947Y-99538882D01*
X147937841Y-99561059D01*
X147899265Y-99581678D01*
X146059235Y-97741648D01*
X146048164Y-97728158D01*
X145994322Y-97683971D01*
X145932893Y-97651136D01*
X145866240Y-97630917D01*
X145814284Y-97625800D01*
X145814274Y-97625800D01*
X145796922Y-97624091D01*
X145779570Y-97625800D01*
X142035806Y-97625800D01*
X142035806Y-97579300D01*
X142026591Y-97485734D01*
X141999298Y-97395763D01*
X141954978Y-97312845D01*
X141895333Y-97240167D01*
X141822655Y-97180522D01*
X141739737Y-97136202D01*
X141649766Y-97108909D01*
X141556200Y-97099694D01*
X141006000Y-97099694D01*
X140912434Y-97108909D01*
X140911084Y-97109319D01*
X140740265Y-96938500D01*
X159644700Y-96938500D01*
X159647400Y-97197400D01*
X159786900Y-97336900D01*
X160553800Y-97336900D01*
X160553800Y-96520000D01*
X160807000Y-96520000D01*
X160807000Y-97336900D01*
X161573900Y-97336900D01*
X161713400Y-97197400D01*
X161716100Y-96938500D01*
X161705326Y-96829113D01*
X161673419Y-96723929D01*
X161621605Y-96626992D01*
X161551875Y-96542025D01*
X161466908Y-96472295D01*
X161369971Y-96420481D01*
X161264787Y-96388574D01*
X161155400Y-96377800D01*
X160946500Y-96380500D01*
X160807000Y-96520000D01*
X160553800Y-96520000D01*
X160414300Y-96380500D01*
X160205400Y-96377800D01*
X160096013Y-96388574D01*
X159990829Y-96420481D01*
X159893892Y-96472295D01*
X159808925Y-96542025D01*
X159739195Y-96626992D01*
X159687381Y-96723929D01*
X159655474Y-96829113D01*
X159644700Y-96938500D01*
X140740265Y-96938500D01*
X140641403Y-96839638D01*
X140630332Y-96826148D01*
X140576490Y-96781961D01*
X140515061Y-96749126D01*
X140448408Y-96728907D01*
X140396452Y-96723790D01*
X140396442Y-96723790D01*
X140379090Y-96722081D01*
X140361738Y-96723790D01*
X137191773Y-96723790D01*
X137179665Y-96709036D01*
X137108866Y-96650933D01*
X137028092Y-96607759D01*
X136940447Y-96581172D01*
X136849300Y-96572195D01*
X136274300Y-96572195D01*
X136183153Y-96581172D01*
X136095508Y-96607759D01*
X136014734Y-96650933D01*
X135943935Y-96709036D01*
X135885832Y-96779835D01*
X135842658Y-96860609D01*
X135816071Y-96948254D01*
X135807094Y-97039401D01*
X135807094Y-97514401D01*
X135808631Y-97530005D01*
X135547033Y-97791603D01*
X135533549Y-97802669D01*
X135522483Y-97816153D01*
X135522481Y-97816155D01*
X135489361Y-97856512D01*
X135460727Y-97910082D01*
X135456527Y-97917940D01*
X135436308Y-97984593D01*
X135436308Y-97984595D01*
X135429481Y-98053911D01*
X135431191Y-98071273D01*
X135431191Y-99405844D01*
X135429665Y-99403985D01*
X135358866Y-99345882D01*
X135278092Y-99302708D01*
X135190447Y-99276121D01*
X135099300Y-99267144D01*
X134524300Y-99267144D01*
X134433153Y-99276121D01*
X134345508Y-99302708D01*
X134264734Y-99345882D01*
X134193935Y-99403985D01*
X134135832Y-99474784D01*
X134092658Y-99555558D01*
X134073640Y-99618250D01*
X133859574Y-99618250D01*
X133847329Y-99595341D01*
X133798864Y-99536286D01*
X133739809Y-99487821D01*
X133672434Y-99451809D01*
X133599328Y-99429632D01*
X133523300Y-99422144D01*
X133128300Y-99422144D01*
X133052272Y-99429632D01*
X133008067Y-99443042D01*
X133006319Y-99437279D01*
X132954505Y-99340342D01*
X132884775Y-99255375D01*
X132799808Y-99185645D01*
X132702871Y-99133831D01*
X132597687Y-99101924D01*
X132488300Y-99091150D01*
X132396900Y-99093850D01*
X132257400Y-99233350D01*
X132257400Y-99845250D01*
X132277400Y-99845250D01*
X132277400Y-100098450D01*
X132257400Y-100098450D01*
X132257400Y-100710350D01*
X132396900Y-100849850D01*
X132488300Y-100852550D01*
X132597687Y-100841776D01*
X132702871Y-100809869D01*
X132799808Y-100758055D01*
X132884775Y-100688325D01*
X132954505Y-100603358D01*
X133006319Y-100506421D01*
X133008067Y-100500658D01*
X133052272Y-100514068D01*
X133128300Y-100521556D01*
X133523300Y-100521556D01*
X133599328Y-100514068D01*
X133672434Y-100491891D01*
X133739809Y-100455879D01*
X133798864Y-100407414D01*
X133847329Y-100348359D01*
X133859574Y-100325450D01*
X134073640Y-100325450D01*
X134092658Y-100388142D01*
X134135832Y-100468916D01*
X134193935Y-100539715D01*
X134264734Y-100597818D01*
X134345508Y-100640992D01*
X134433153Y-100667579D01*
X134524300Y-100676556D01*
X135099300Y-100676556D01*
X135190447Y-100667579D01*
X135278092Y-100640992D01*
X135358866Y-100597818D01*
X135429665Y-100539715D01*
X135431191Y-100537856D01*
X135431190Y-102100794D01*
X135429665Y-102098935D01*
X135358866Y-102040832D01*
X135278092Y-101997658D01*
X135190447Y-101971071D01*
X135099300Y-101962094D01*
X134524300Y-101962094D01*
X134433153Y-101971071D01*
X134345508Y-101997658D01*
X134264734Y-102040832D01*
X134193935Y-102098935D01*
X134135832Y-102169734D01*
X134092658Y-102250508D01*
X134073640Y-102313200D01*
X133859574Y-102313200D01*
X133847329Y-102290291D01*
X133798864Y-102231236D01*
X133739809Y-102182771D01*
X133672434Y-102146759D01*
X133599328Y-102124582D01*
X133523300Y-102117094D01*
X133128300Y-102117094D01*
X133052272Y-102124582D01*
X133008067Y-102137992D01*
X133006319Y-102132229D01*
X132954505Y-102035292D01*
X132884775Y-101950325D01*
X132799808Y-101880595D01*
X132702871Y-101828781D01*
X132597687Y-101796874D01*
X132488300Y-101786100D01*
X132396900Y-101788800D01*
X132257400Y-101928300D01*
X132257400Y-102540200D01*
X132277400Y-102540200D01*
X132277400Y-102793400D01*
X132257400Y-102793400D01*
X132257400Y-103405300D01*
X132396900Y-103544800D01*
X132488300Y-103547500D01*
X132597687Y-103536726D01*
X132702871Y-103504819D01*
X132799808Y-103453005D01*
X132884775Y-103383275D01*
X132954505Y-103298308D01*
X133006319Y-103201371D01*
X133008067Y-103195608D01*
X133052272Y-103209018D01*
X133128300Y-103216506D01*
X133523300Y-103216506D01*
X133599328Y-103209018D01*
X133672434Y-103186841D01*
X133739809Y-103150829D01*
X133798864Y-103102364D01*
X133847329Y-103043309D01*
X133859574Y-103020400D01*
X134073640Y-103020400D01*
X134092658Y-103083092D01*
X134135832Y-103163866D01*
X134193935Y-103234665D01*
X134264734Y-103292768D01*
X134345508Y-103335942D01*
X134433153Y-103362529D01*
X134524300Y-103371506D01*
X135099300Y-103371506D01*
X135190447Y-103362529D01*
X135278092Y-103335942D01*
X135358866Y-103292768D01*
X135429665Y-103234665D01*
X135431190Y-103232806D01*
X135431190Y-104856388D01*
X135429481Y-104873740D01*
X135431190Y-104891092D01*
X135431190Y-104891101D01*
X135436307Y-104943057D01*
X135456526Y-105009710D01*
X135489361Y-105071139D01*
X135533548Y-105124981D01*
X135547034Y-105136049D01*
X135690533Y-105279547D01*
X135701608Y-105293042D01*
X135751137Y-105333689D01*
X135755451Y-105337230D01*
X135816879Y-105370064D01*
X135883532Y-105390283D01*
X135935488Y-105395400D01*
X135935490Y-105395400D01*
X135952850Y-105397110D01*
X135970210Y-105395400D01*
X135973144Y-105395400D01*
X135973144Y-105816800D01*
X135977558Y-105861613D01*
X135990629Y-105904705D01*
X136011856Y-105944418D01*
X136040423Y-105979227D01*
X136075232Y-106007794D01*
X136114945Y-106029021D01*
X136158037Y-106042092D01*
X136202850Y-106046506D01*
X136499250Y-106046506D01*
X136499251Y-109455788D01*
X136497541Y-109473150D01*
X136499251Y-109490512D01*
X136504368Y-109542468D01*
X136509367Y-109558947D01*
X136524587Y-109609121D01*
X136541374Y-109640526D01*
X136557422Y-109670550D01*
X136601609Y-109724392D01*
X136615093Y-109735458D01*
X138607800Y-111728166D01*
X138607800Y-112629035D01*
X138598635Y-112638200D01*
X137732556Y-112638200D01*
X137732556Y-112216800D01*
X137728142Y-112171987D01*
X137715071Y-112128895D01*
X137693844Y-112089182D01*
X137665277Y-112054373D01*
X137630468Y-112025806D01*
X137590755Y-112004579D01*
X137547663Y-111991508D01*
X137502850Y-111987094D01*
X136202850Y-111987094D01*
X136158037Y-111991508D01*
X136114945Y-112004579D01*
X136075232Y-112025806D01*
X136040423Y-112054373D01*
X136011856Y-112089182D01*
X135990629Y-112128895D01*
X135977558Y-112171987D01*
X135973144Y-112216800D01*
X135973144Y-113665201D01*
X133526316Y-113665201D01*
X133232556Y-113371441D01*
X133232556Y-112216800D01*
X133228142Y-112171987D01*
X133215071Y-112128895D01*
X133193844Y-112089182D01*
X133165277Y-112054373D01*
X133130468Y-112025806D01*
X133090755Y-112004579D01*
X133047663Y-111991508D01*
X133002850Y-111987094D01*
X132706450Y-111987094D01*
X132706450Y-106046506D01*
X133002850Y-106046506D01*
X133047663Y-106042092D01*
X133090755Y-106029021D01*
X133130468Y-106007794D01*
X133165277Y-105979227D01*
X133193844Y-105944418D01*
X133215071Y-105904705D01*
X133228142Y-105861613D01*
X133232556Y-105816800D01*
X133232556Y-104266800D01*
X133228142Y-104221987D01*
X133215071Y-104178895D01*
X133193844Y-104139182D01*
X133165277Y-104104373D01*
X133130468Y-104075806D01*
X133090755Y-104054579D01*
X133047663Y-104041508D01*
X133002850Y-104037094D01*
X131702850Y-104037094D01*
X131658037Y-104041508D01*
X131614945Y-104054579D01*
X131575232Y-104075806D01*
X131540423Y-104104373D01*
X131511856Y-104139182D01*
X131490629Y-104178895D01*
X131477558Y-104221987D01*
X131473144Y-104266800D01*
X131473144Y-105816800D01*
X131477558Y-105861613D01*
X131490629Y-105904705D01*
X131511856Y-105944418D01*
X131540423Y-105979227D01*
X131575232Y-106007794D01*
X131614945Y-106029021D01*
X131658037Y-106042092D01*
X131702850Y-106046506D01*
X131999251Y-106046506D01*
X131999250Y-111987094D01*
X131702850Y-111987094D01*
X131658037Y-111991508D01*
X131614945Y-112004579D01*
X131575232Y-112025806D01*
X131540423Y-112054373D01*
X131511856Y-112089182D01*
X131490629Y-112128895D01*
X131477558Y-112171987D01*
X131473144Y-112216800D01*
X131473144Y-113766800D01*
X131477558Y-113811613D01*
X131490629Y-113854705D01*
X131511856Y-113894418D01*
X131540423Y-113929227D01*
X131575232Y-113957794D01*
X131614945Y-113979021D01*
X131658037Y-113992092D01*
X131702850Y-113996506D01*
X132857491Y-113996506D01*
X132903196Y-114042211D01*
X130952877Y-114042211D01*
X130282106Y-113371441D01*
X130282106Y-112216800D01*
X130277692Y-112171987D01*
X130264621Y-112128895D01*
X130243394Y-112089182D01*
X130214827Y-112054373D01*
X130180018Y-112025806D01*
X130140305Y-112004579D01*
X130097213Y-111991508D01*
X130052400Y-111987094D01*
X129756000Y-111987094D01*
X129756000Y-106046506D01*
X130052400Y-106046506D01*
X130097213Y-106042092D01*
X130140305Y-106029021D01*
X130180018Y-106007794D01*
X130214827Y-105979227D01*
X130243394Y-105944418D01*
X130264621Y-105904705D01*
X130277692Y-105861613D01*
X130282106Y-105816800D01*
X130282106Y-104266800D01*
X130277692Y-104221987D01*
X130264621Y-104178895D01*
X130243394Y-104139182D01*
X130214827Y-104104373D01*
X130180018Y-104075806D01*
X130140305Y-104054579D01*
X130097213Y-104041508D01*
X130052400Y-104037094D01*
X128752400Y-104037094D01*
X128707587Y-104041508D01*
X128664495Y-104054579D01*
X128624782Y-104075806D01*
X128589973Y-104104373D01*
X128561406Y-104139182D01*
X128540179Y-104178895D01*
X128527108Y-104221987D01*
X128522694Y-104266800D01*
X126113100Y-104266800D01*
X126102326Y-104157413D01*
X126070419Y-104052229D01*
X126018605Y-103955292D01*
X125948875Y-103870325D01*
X125863908Y-103800595D01*
X125766971Y-103748781D01*
X125661787Y-103716874D01*
X125552400Y-103706100D01*
X125168500Y-103708800D01*
X125029000Y-103848300D01*
X124775800Y-103848300D01*
X124636300Y-103708800D01*
X124252400Y-103706100D01*
X124143013Y-103716874D01*
X124037829Y-103748781D01*
X123940892Y-103800595D01*
X123855925Y-103870325D01*
X123786195Y-103955292D01*
X123734381Y-104052229D01*
X123702474Y-104157413D01*
X123691700Y-104266800D01*
X123627701Y-104266800D01*
X123627701Y-102043126D01*
X125640614Y-102043126D01*
X125951138Y-102465239D01*
X126525453Y-102773085D01*
X127148791Y-102962972D01*
X127797197Y-103027603D01*
X128216519Y-102986800D01*
X131212600Y-102986800D01*
X131223374Y-103096187D01*
X131255281Y-103201371D01*
X131307095Y-103298308D01*
X131376825Y-103383275D01*
X131461792Y-103453005D01*
X131558729Y-103504819D01*
X131663913Y-103536726D01*
X131773300Y-103547500D01*
X131864700Y-103544800D01*
X132004200Y-103405300D01*
X132004200Y-102793400D01*
X131354800Y-102793400D01*
X131215300Y-102932900D01*
X131212600Y-102986800D01*
X128216519Y-102986800D01*
X128445753Y-102964494D01*
X129069536Y-102776072D01*
X129644573Y-102469575D01*
X129651062Y-102465239D01*
X129738190Y-102346800D01*
X131212600Y-102346800D01*
X131215300Y-102400700D01*
X131354800Y-102540200D01*
X132004200Y-102540200D01*
X132004200Y-101928300D01*
X131864700Y-101788800D01*
X131773300Y-101786100D01*
X131663913Y-101796874D01*
X131558729Y-101828781D01*
X131461792Y-101880595D01*
X131376825Y-101950325D01*
X131307095Y-102035292D01*
X131255281Y-102132229D01*
X131223374Y-102237413D01*
X131212600Y-102346800D01*
X129738190Y-102346800D01*
X129961586Y-102043126D01*
X127801100Y-99882639D01*
X125640614Y-102043126D01*
X123627701Y-102043126D01*
X123627701Y-99699697D01*
X124477097Y-99699697D01*
X124540206Y-100348253D01*
X124728628Y-100972036D01*
X125035125Y-101547073D01*
X125039461Y-101553562D01*
X125461574Y-101864086D01*
X127622061Y-99703600D01*
X127980139Y-99703600D01*
X130140626Y-101864086D01*
X130562739Y-101553562D01*
X130870585Y-100979247D01*
X131060472Y-100355909D01*
X131066857Y-100291850D01*
X131212600Y-100291850D01*
X131223374Y-100401237D01*
X131255281Y-100506421D01*
X131307095Y-100603358D01*
X131376825Y-100688325D01*
X131461792Y-100758055D01*
X131558729Y-100809869D01*
X131663913Y-100841776D01*
X131773300Y-100852550D01*
X131864700Y-100849850D01*
X132004200Y-100710350D01*
X132004200Y-100098450D01*
X131354800Y-100098450D01*
X131215300Y-100237950D01*
X131212600Y-100291850D01*
X131066857Y-100291850D01*
X131125103Y-99707503D01*
X131119688Y-99651850D01*
X131212600Y-99651850D01*
X131215300Y-99705750D01*
X131354800Y-99845250D01*
X132004200Y-99845250D01*
X132004200Y-99233350D01*
X131864700Y-99093850D01*
X131773300Y-99091150D01*
X131663913Y-99101924D01*
X131558729Y-99133831D01*
X131461792Y-99185645D01*
X131376825Y-99255375D01*
X131307095Y-99340342D01*
X131255281Y-99437279D01*
X131223374Y-99542463D01*
X131212600Y-99651850D01*
X131119688Y-99651850D01*
X131061994Y-99058947D01*
X130873572Y-98435164D01*
X130567075Y-97860127D01*
X130562739Y-97853638D01*
X130213742Y-97596901D01*
X131212600Y-97596901D01*
X131223374Y-97706288D01*
X131255281Y-97811472D01*
X131307095Y-97908409D01*
X131376825Y-97993376D01*
X131461792Y-98063106D01*
X131558729Y-98114920D01*
X131663913Y-98146827D01*
X131773300Y-98157601D01*
X131864700Y-98154901D01*
X132004200Y-98015401D01*
X132004200Y-97403501D01*
X131354800Y-97403501D01*
X131215300Y-97543001D01*
X131212600Y-97596901D01*
X130213742Y-97596901D01*
X130140626Y-97543114D01*
X127980139Y-99703600D01*
X127622061Y-99703600D01*
X125461574Y-97543114D01*
X125039461Y-97853638D01*
X124731615Y-98427953D01*
X124541728Y-99051291D01*
X124477097Y-99699697D01*
X123627701Y-99699697D01*
X123627701Y-97364074D01*
X125640614Y-97364074D01*
X127801100Y-99524561D01*
X129961586Y-97364074D01*
X129662053Y-96956901D01*
X131212600Y-96956901D01*
X131215300Y-97010801D01*
X131354800Y-97150301D01*
X132004200Y-97150301D01*
X132004200Y-96538401D01*
X132257400Y-96538401D01*
X132257400Y-97150301D01*
X132277400Y-97150301D01*
X132277400Y-97403501D01*
X132257400Y-97403501D01*
X132257400Y-98015401D01*
X132396900Y-98154901D01*
X132488300Y-98157601D01*
X132597687Y-98146827D01*
X132702871Y-98114920D01*
X132799808Y-98063106D01*
X132884775Y-97993376D01*
X132954505Y-97908409D01*
X133006319Y-97811472D01*
X133008067Y-97805709D01*
X133052272Y-97819119D01*
X133128300Y-97826607D01*
X133523300Y-97826607D01*
X133599328Y-97819119D01*
X133672434Y-97796942D01*
X133739809Y-97760930D01*
X133798864Y-97712465D01*
X133847329Y-97653410D01*
X133859574Y-97630501D01*
X134073640Y-97630501D01*
X134092658Y-97693193D01*
X134135832Y-97773967D01*
X134193935Y-97844766D01*
X134264734Y-97902869D01*
X134345508Y-97946043D01*
X134433153Y-97972630D01*
X134524300Y-97981607D01*
X135099300Y-97981607D01*
X135190447Y-97972630D01*
X135278092Y-97946043D01*
X135358866Y-97902869D01*
X135429665Y-97844766D01*
X135487768Y-97773967D01*
X135530942Y-97693193D01*
X135557529Y-97605548D01*
X135566506Y-97514401D01*
X135566506Y-97039401D01*
X135557529Y-96948254D01*
X135530942Y-96860609D01*
X135487768Y-96779835D01*
X135429665Y-96709036D01*
X135358866Y-96650933D01*
X135278092Y-96607759D01*
X135190447Y-96581172D01*
X135099300Y-96572195D01*
X134524300Y-96572195D01*
X134433153Y-96581172D01*
X134345508Y-96607759D01*
X134264734Y-96650933D01*
X134193935Y-96709036D01*
X134135832Y-96779835D01*
X134092658Y-96860609D01*
X134073640Y-96923301D01*
X133859574Y-96923301D01*
X133847329Y-96900392D01*
X133798864Y-96841337D01*
X133739809Y-96792872D01*
X133672434Y-96756860D01*
X133599328Y-96734683D01*
X133523300Y-96727195D01*
X133128300Y-96727195D01*
X133052272Y-96734683D01*
X133008067Y-96748093D01*
X133006319Y-96742330D01*
X132954505Y-96645393D01*
X132884775Y-96560426D01*
X132799808Y-96490696D01*
X132702871Y-96438882D01*
X132597687Y-96406975D01*
X132488300Y-96396201D01*
X132396900Y-96398901D01*
X132257400Y-96538401D01*
X132004200Y-96538401D01*
X131864700Y-96398901D01*
X131773300Y-96396201D01*
X131663913Y-96406975D01*
X131558729Y-96438882D01*
X131461792Y-96490696D01*
X131376825Y-96560426D01*
X131307095Y-96645393D01*
X131255281Y-96742330D01*
X131223374Y-96847514D01*
X131212600Y-96956901D01*
X129662053Y-96956901D01*
X129651062Y-96941961D01*
X129076747Y-96634115D01*
X128453409Y-96444228D01*
X127805003Y-96379597D01*
X127156447Y-96442706D01*
X126532664Y-96631128D01*
X125957627Y-96937625D01*
X125951138Y-96941961D01*
X125640614Y-97364074D01*
X123627701Y-97364074D01*
X123627701Y-97009794D01*
X123663976Y-96639840D01*
X123769616Y-96289937D01*
X123941212Y-95967214D01*
X124172220Y-95683970D01*
X124453850Y-95450984D01*
X124775364Y-95277142D01*
X125124524Y-95169059D01*
X125493991Y-95130227D01*
X125501259Y-95130201D01*
X171494906Y-95130201D01*
X171864860Y-95166476D01*
G37*
%TD.AperFunction*%
D20*
X152647602Y-107732706D02*
X152647601Y-110073033D01*
X152349200Y-110371434D01*
X152349200Y-108465747D01*
X152363619Y-108438771D01*
X152395526Y-108333587D01*
X152406300Y-108224200D01*
X152403600Y-108165300D01*
X152349200Y-108110900D01*
X152349200Y-107687500D01*
X152403600Y-107633100D01*
X152406300Y-107574200D01*
X152397254Y-107482357D01*
X152647602Y-107732706D01*
%TA.AperFunction,Conductor*%
D21*
G36*
X152647602Y-107732706D02*
G01*
X152647601Y-110073033D01*
X152349200Y-110371434D01*
X152349200Y-108465747D01*
X152363619Y-108438771D01*
X152395526Y-108333587D01*
X152406300Y-108224200D01*
X152403600Y-108165300D01*
X152349200Y-108110900D01*
X152349200Y-107687500D01*
X152403600Y-107633100D01*
X152406300Y-107574200D01*
X152397254Y-107482357D01*
X152647602Y-107732706D01*
G37*
%TD.AperFunction*%
D20*
X136183153Y-100667579D02*
X136274300Y-100676556D01*
X136766441Y-100676556D01*
X140474700Y-104384816D01*
X140474701Y-105816400D01*
X140205151Y-105816400D01*
X140169808Y-105787395D01*
X140072871Y-105735581D01*
X139967687Y-105703674D01*
X139858300Y-105692900D01*
X139824400Y-105695600D01*
X139703600Y-105816400D01*
X139413000Y-105816400D01*
X139292200Y-105695600D01*
X139258300Y-105692900D01*
X139148913Y-105703674D01*
X139043729Y-105735581D01*
X138946792Y-105787395D01*
X138911449Y-105816400D01*
X138709400Y-105816400D01*
X138689579Y-105818352D01*
X138670519Y-105824134D01*
X138652954Y-105833523D01*
X138637558Y-105846158D01*
X138624923Y-105861554D01*
X138615534Y-105879119D01*
X138609752Y-105898179D01*
X138607800Y-105918000D01*
X138607800Y-108483035D01*
X138108451Y-107983686D01*
X138108451Y-103877203D01*
X138110160Y-103859851D01*
X138108451Y-103842499D01*
X138108451Y-103842489D01*
X138103334Y-103790533D01*
X138083115Y-103723880D01*
X138050280Y-103662451D01*
X138030063Y-103637817D01*
X138017160Y-103622094D01*
X138017155Y-103622089D01*
X138006092Y-103608609D01*
X137992613Y-103597547D01*
X137314969Y-102919904D01*
X137316506Y-102904300D01*
X137316506Y-102429300D01*
X137307529Y-102338153D01*
X137280942Y-102250508D01*
X137237768Y-102169734D01*
X137179665Y-102098935D01*
X137108866Y-102040832D01*
X137028092Y-101997658D01*
X136940447Y-101971071D01*
X136849300Y-101962094D01*
X136274300Y-101962094D01*
X136183153Y-101971071D01*
X136138390Y-101984650D01*
X136138390Y-100654000D01*
X136183153Y-100667579D01*
%TA.AperFunction,Conductor*%
D21*
G36*
X136183153Y-100667579D02*
G01*
X136274300Y-100676556D01*
X136766441Y-100676556D01*
X140474700Y-104384816D01*
X140474701Y-105816400D01*
X140205151Y-105816400D01*
X140169808Y-105787395D01*
X140072871Y-105735581D01*
X139967687Y-105703674D01*
X139858300Y-105692900D01*
X139824400Y-105695600D01*
X139703600Y-105816400D01*
X139413000Y-105816400D01*
X139292200Y-105695600D01*
X139258300Y-105692900D01*
X139148913Y-105703674D01*
X139043729Y-105735581D01*
X138946792Y-105787395D01*
X138911449Y-105816400D01*
X138709400Y-105816400D01*
X138689579Y-105818352D01*
X138670519Y-105824134D01*
X138652954Y-105833523D01*
X138637558Y-105846158D01*
X138624923Y-105861554D01*
X138615534Y-105879119D01*
X138609752Y-105898179D01*
X138607800Y-105918000D01*
X138607800Y-108483035D01*
X138108451Y-107983686D01*
X138108451Y-103877203D01*
X138110160Y-103859851D01*
X138108451Y-103842499D01*
X138108451Y-103842489D01*
X138103334Y-103790533D01*
X138083115Y-103723880D01*
X138050280Y-103662451D01*
X138030063Y-103637817D01*
X138017160Y-103622094D01*
X138017155Y-103622089D01*
X138006092Y-103608609D01*
X137992613Y-103597547D01*
X137314969Y-102919904D01*
X137316506Y-102904300D01*
X137316506Y-102429300D01*
X137307529Y-102338153D01*
X137280942Y-102250508D01*
X137237768Y-102169734D01*
X137179665Y-102098935D01*
X137108866Y-102040832D01*
X137028092Y-101997658D01*
X136940447Y-101971071D01*
X136849300Y-101962094D01*
X136274300Y-101962094D01*
X136183153Y-101971071D01*
X136138390Y-101984650D01*
X136138390Y-100654000D01*
X136183153Y-100667579D01*
G37*
%TD.AperFunction*%
D20*
X138111473Y-97433697D02*
X138041496Y-97564615D01*
X137998404Y-97706669D01*
X137987500Y-97817381D01*
X137987500Y-98141418D01*
X137998404Y-98252130D01*
X138041496Y-98394184D01*
X138111473Y-98525102D01*
X138205646Y-98639854D01*
X138320397Y-98734027D01*
X138367901Y-98759418D01*
X138367900Y-99432682D01*
X138307491Y-99464971D01*
X138248436Y-99513436D01*
X138199971Y-99572491D01*
X138163959Y-99639866D01*
X138141782Y-99712972D01*
X138134294Y-99789000D01*
X138134294Y-100109000D01*
X138141782Y-100185028D01*
X138163959Y-100258134D01*
X138199971Y-100325509D01*
X138248436Y-100384564D01*
X138307491Y-100433029D01*
X138374866Y-100469041D01*
X138447972Y-100491218D01*
X138524000Y-100498706D01*
X138919000Y-100498706D01*
X138995028Y-100491218D01*
X139068134Y-100469041D01*
X139135509Y-100433029D01*
X139194564Y-100384564D01*
X139243029Y-100325509D01*
X139279041Y-100258134D01*
X139301218Y-100185028D01*
X139308706Y-100109000D01*
X139308706Y-99789000D01*
X139301218Y-99712972D01*
X139279041Y-99639866D01*
X139243029Y-99572491D01*
X139194564Y-99513436D01*
X139135509Y-99464971D01*
X139075100Y-99432682D01*
X139075100Y-99316100D01*
X143198200Y-99316100D01*
X143200900Y-99575000D01*
X143340400Y-99714500D01*
X144107300Y-99714500D01*
X144107300Y-98897600D01*
X143967800Y-98758100D01*
X143758900Y-98755400D01*
X143649513Y-98766174D01*
X143544329Y-98798081D01*
X143447392Y-98849895D01*
X143362425Y-98919625D01*
X143292695Y-99004592D01*
X143240881Y-99101529D01*
X143208974Y-99206713D01*
X143198200Y-99316100D01*
X139075100Y-99316100D01*
X139075100Y-98780370D01*
X139143464Y-98743829D01*
X139216983Y-98840652D01*
X139375877Y-98981430D01*
X139559183Y-99088504D01*
X139717802Y-99146928D01*
X139884500Y-99039368D01*
X139884500Y-98106000D01*
X139864500Y-98106000D01*
X139864500Y-97852800D01*
X139884500Y-97852800D01*
X139884500Y-97832800D01*
X140137700Y-97832800D01*
X140137700Y-97852800D01*
X140157700Y-97852800D01*
X140157700Y-98106000D01*
X140137700Y-98106000D01*
X140137700Y-99039368D01*
X140304398Y-99146928D01*
X140463017Y-99088504D01*
X140646323Y-98981430D01*
X140805217Y-98840652D01*
X140819947Y-98821253D01*
X140822463Y-98822598D01*
X140912434Y-98849891D01*
X141006000Y-98859106D01*
X141556200Y-98859106D01*
X141649766Y-98849891D01*
X141739737Y-98822598D01*
X141822655Y-98778278D01*
X141895333Y-98718633D01*
X141954978Y-98645955D01*
X141999298Y-98563037D01*
X142026591Y-98473066D01*
X142035806Y-98379500D01*
X142035806Y-98333000D01*
X145650457Y-98333000D01*
X146848851Y-99531394D01*
X146835950Y-99531394D01*
X146759922Y-99538882D01*
X146686816Y-99561059D01*
X146619441Y-99597071D01*
X146560386Y-99645536D01*
X146511921Y-99704591D01*
X146479632Y-99765000D01*
X146261243Y-99765000D01*
X146228954Y-99704591D01*
X146180489Y-99645536D01*
X146121434Y-99597071D01*
X146054059Y-99561059D01*
X145980953Y-99538882D01*
X145904925Y-99531394D01*
X145584925Y-99531394D01*
X145508897Y-99538882D01*
X145435791Y-99561059D01*
X145368416Y-99597071D01*
X145309361Y-99645536D01*
X145260896Y-99704591D01*
X145255601Y-99714498D01*
X145127402Y-99714498D01*
X145266900Y-99575000D01*
X145269600Y-99316100D01*
X145258826Y-99206713D01*
X145226919Y-99101529D01*
X145175105Y-99004592D01*
X145105375Y-98919625D01*
X145020408Y-98849895D01*
X144923471Y-98798081D01*
X144818287Y-98766174D01*
X144708900Y-98755400D01*
X144500000Y-98758100D01*
X144360500Y-98897600D01*
X144360500Y-99714500D01*
X144380500Y-99714500D01*
X144380500Y-99967700D01*
X144360500Y-99967700D01*
X144360500Y-99987700D01*
X144107300Y-99987700D01*
X144107300Y-99967700D01*
X143340400Y-99967700D01*
X143200900Y-100107200D01*
X143198200Y-100366100D01*
X143208974Y-100475487D01*
X143240881Y-100580671D01*
X143292695Y-100677608D01*
X143362425Y-100762575D01*
X143447392Y-100832305D01*
X143544329Y-100884119D01*
X143649513Y-100916026D01*
X143726504Y-100923609D01*
X143666035Y-100973235D01*
X143607932Y-101044034D01*
X143564758Y-101124808D01*
X143538171Y-101212453D01*
X143529194Y-101303600D01*
X143529194Y-101878600D01*
X143538171Y-101969747D01*
X143564758Y-102057392D01*
X143607932Y-102138166D01*
X143666035Y-102208965D01*
X143736834Y-102267068D01*
X143817608Y-102310242D01*
X143905253Y-102336829D01*
X143996400Y-102345806D01*
X144471400Y-102345806D01*
X144562547Y-102336829D01*
X144650192Y-102310242D01*
X144730966Y-102267068D01*
X144801765Y-102208965D01*
X144836711Y-102166383D01*
X144836711Y-104369145D01*
X140503706Y-100036141D01*
X140503706Y-99789000D01*
X140496218Y-99712972D01*
X140474041Y-99639866D01*
X140438029Y-99572491D01*
X140389564Y-99513436D01*
X140330509Y-99464971D01*
X140263134Y-99428959D01*
X140190028Y-99406782D01*
X140114000Y-99399294D01*
X139719000Y-99399294D01*
X139642972Y-99406782D01*
X139569866Y-99428959D01*
X139502491Y-99464971D01*
X139443436Y-99513436D01*
X139394971Y-99572491D01*
X139358959Y-99639866D01*
X139336782Y-99712972D01*
X139329294Y-99789000D01*
X139329294Y-100109000D01*
X139336782Y-100185028D01*
X139358959Y-100258134D01*
X139394971Y-100325509D01*
X139443436Y-100384564D01*
X139502491Y-100433029D01*
X139569866Y-100469041D01*
X139642972Y-100491218D01*
X139719000Y-100498706D01*
X139966141Y-100498706D01*
X144284701Y-104817267D01*
X144284701Y-105816400D01*
X141181900Y-105816400D01*
X141181900Y-104255701D01*
X141183609Y-104238349D01*
X141181900Y-104220997D01*
X141181900Y-104220988D01*
X141176783Y-104169032D01*
X141156564Y-104102379D01*
X141123729Y-104040950D01*
X141120564Y-104037094D01*
X141090609Y-104000593D01*
X141090604Y-104000588D01*
X141079541Y-103987108D01*
X141066062Y-103976046D01*
X137314969Y-100224954D01*
X137316506Y-100209350D01*
X137316506Y-99734350D01*
X137307529Y-99643203D01*
X137280942Y-99555558D01*
X137237768Y-99474784D01*
X137179665Y-99403985D01*
X137108866Y-99345882D01*
X137028092Y-99302708D01*
X136940447Y-99276121D01*
X136849300Y-99267144D01*
X136274300Y-99267144D01*
X136183153Y-99276121D01*
X136138390Y-99289700D01*
X136138390Y-98200376D01*
X136357159Y-97981607D01*
X136849300Y-97981607D01*
X136940447Y-97972630D01*
X137028092Y-97946043D01*
X137108866Y-97902869D01*
X137179665Y-97844766D01*
X137237768Y-97773967D01*
X137280942Y-97693193D01*
X137307529Y-97605548D01*
X137316506Y-97514401D01*
X137316506Y-97430990D01*
X138113695Y-97430990D01*
X138111473Y-97433697D01*
%TA.AperFunction,Conductor*%
D21*
G36*
X138111473Y-97433697D02*
G01*
X138041496Y-97564615D01*
X137998404Y-97706669D01*
X137987500Y-97817381D01*
X137987500Y-98141418D01*
X137998404Y-98252130D01*
X138041496Y-98394184D01*
X138111473Y-98525102D01*
X138205646Y-98639854D01*
X138320397Y-98734027D01*
X138367901Y-98759418D01*
X138367900Y-99432682D01*
X138307491Y-99464971D01*
X138248436Y-99513436D01*
X138199971Y-99572491D01*
X138163959Y-99639866D01*
X138141782Y-99712972D01*
X138134294Y-99789000D01*
X138134294Y-100109000D01*
X138141782Y-100185028D01*
X138163959Y-100258134D01*
X138199971Y-100325509D01*
X138248436Y-100384564D01*
X138307491Y-100433029D01*
X138374866Y-100469041D01*
X138447972Y-100491218D01*
X138524000Y-100498706D01*
X138919000Y-100498706D01*
X138995028Y-100491218D01*
X139068134Y-100469041D01*
X139135509Y-100433029D01*
X139194564Y-100384564D01*
X139243029Y-100325509D01*
X139279041Y-100258134D01*
X139301218Y-100185028D01*
X139308706Y-100109000D01*
X139308706Y-99789000D01*
X139301218Y-99712972D01*
X139279041Y-99639866D01*
X139243029Y-99572491D01*
X139194564Y-99513436D01*
X139135509Y-99464971D01*
X139075100Y-99432682D01*
X139075100Y-99316100D01*
X143198200Y-99316100D01*
X143200900Y-99575000D01*
X143340400Y-99714500D01*
X144107300Y-99714500D01*
X144107300Y-98897600D01*
X143967800Y-98758100D01*
X143758900Y-98755400D01*
X143649513Y-98766174D01*
X143544329Y-98798081D01*
X143447392Y-98849895D01*
X143362425Y-98919625D01*
X143292695Y-99004592D01*
X143240881Y-99101529D01*
X143208974Y-99206713D01*
X143198200Y-99316100D01*
X139075100Y-99316100D01*
X139075100Y-98780370D01*
X139143464Y-98743829D01*
X139216983Y-98840652D01*
X139375877Y-98981430D01*
X139559183Y-99088504D01*
X139717802Y-99146928D01*
X139884500Y-99039368D01*
X139884500Y-98106000D01*
X139864500Y-98106000D01*
X139864500Y-97852800D01*
X139884500Y-97852800D01*
X139884500Y-97832800D01*
X140137700Y-97832800D01*
X140137700Y-97852800D01*
X140157700Y-97852800D01*
X140157700Y-98106000D01*
X140137700Y-98106000D01*
X140137700Y-99039368D01*
X140304398Y-99146928D01*
X140463017Y-99088504D01*
X140646323Y-98981430D01*
X140805217Y-98840652D01*
X140819947Y-98821253D01*
X140822463Y-98822598D01*
X140912434Y-98849891D01*
X141006000Y-98859106D01*
X141556200Y-98859106D01*
X141649766Y-98849891D01*
X141739737Y-98822598D01*
X141822655Y-98778278D01*
X141895333Y-98718633D01*
X141954978Y-98645955D01*
X141999298Y-98563037D01*
X142026591Y-98473066D01*
X142035806Y-98379500D01*
X142035806Y-98333000D01*
X145650457Y-98333000D01*
X146848851Y-99531394D01*
X146835950Y-99531394D01*
X146759922Y-99538882D01*
X146686816Y-99561059D01*
X146619441Y-99597071D01*
X146560386Y-99645536D01*
X146511921Y-99704591D01*
X146479632Y-99765000D01*
X146261243Y-99765000D01*
X146228954Y-99704591D01*
X146180489Y-99645536D01*
X146121434Y-99597071D01*
X146054059Y-99561059D01*
X145980953Y-99538882D01*
X145904925Y-99531394D01*
X145584925Y-99531394D01*
X145508897Y-99538882D01*
X145435791Y-99561059D01*
X145368416Y-99597071D01*
X145309361Y-99645536D01*
X145260896Y-99704591D01*
X145255601Y-99714498D01*
X145127402Y-99714498D01*
X145266900Y-99575000D01*
X145269600Y-99316100D01*
X145258826Y-99206713D01*
X145226919Y-99101529D01*
X145175105Y-99004592D01*
X145105375Y-98919625D01*
X145020408Y-98849895D01*
X144923471Y-98798081D01*
X144818287Y-98766174D01*
X144708900Y-98755400D01*
X144500000Y-98758100D01*
X144360500Y-98897600D01*
X144360500Y-99714500D01*
X144380500Y-99714500D01*
X144380500Y-99967700D01*
X144360500Y-99967700D01*
X144360500Y-99987700D01*
X144107300Y-99987700D01*
X144107300Y-99967700D01*
X143340400Y-99967700D01*
X143200900Y-100107200D01*
X143198200Y-100366100D01*
X143208974Y-100475487D01*
X143240881Y-100580671D01*
X143292695Y-100677608D01*
X143362425Y-100762575D01*
X143447392Y-100832305D01*
X143544329Y-100884119D01*
X143649513Y-100916026D01*
X143726504Y-100923609D01*
X143666035Y-100973235D01*
X143607932Y-101044034D01*
X143564758Y-101124808D01*
X143538171Y-101212453D01*
X143529194Y-101303600D01*
X143529194Y-101878600D01*
X143538171Y-101969747D01*
X143564758Y-102057392D01*
X143607932Y-102138166D01*
X143666035Y-102208965D01*
X143736834Y-102267068D01*
X143817608Y-102310242D01*
X143905253Y-102336829D01*
X143996400Y-102345806D01*
X144471400Y-102345806D01*
X144562547Y-102336829D01*
X144650192Y-102310242D01*
X144730966Y-102267068D01*
X144801765Y-102208965D01*
X144836711Y-102166383D01*
X144836711Y-104369145D01*
X140503706Y-100036141D01*
X140503706Y-99789000D01*
X140496218Y-99712972D01*
X140474041Y-99639866D01*
X140438029Y-99572491D01*
X140389564Y-99513436D01*
X140330509Y-99464971D01*
X140263134Y-99428959D01*
X140190028Y-99406782D01*
X140114000Y-99399294D01*
X139719000Y-99399294D01*
X139642972Y-99406782D01*
X139569866Y-99428959D01*
X139502491Y-99464971D01*
X139443436Y-99513436D01*
X139394971Y-99572491D01*
X139358959Y-99639866D01*
X139336782Y-99712972D01*
X139329294Y-99789000D01*
X139329294Y-100109000D01*
X139336782Y-100185028D01*
X139358959Y-100258134D01*
X139394971Y-100325509D01*
X139443436Y-100384564D01*
X139502491Y-100433029D01*
X139569866Y-100469041D01*
X139642972Y-100491218D01*
X139719000Y-100498706D01*
X139966141Y-100498706D01*
X144284701Y-104817267D01*
X144284701Y-105816400D01*
X141181900Y-105816400D01*
X141181900Y-104255701D01*
X141183609Y-104238349D01*
X141181900Y-104220997D01*
X141181900Y-104220988D01*
X141176783Y-104169032D01*
X141156564Y-104102379D01*
X141123729Y-104040950D01*
X141120564Y-104037094D01*
X141090609Y-104000593D01*
X141090604Y-104000588D01*
X141079541Y-103987108D01*
X141066062Y-103976046D01*
X137314969Y-100224954D01*
X137316506Y-100209350D01*
X137316506Y-99734350D01*
X137307529Y-99643203D01*
X137280942Y-99555558D01*
X137237768Y-99474784D01*
X137179665Y-99403985D01*
X137108866Y-99345882D01*
X137028092Y-99302708D01*
X136940447Y-99276121D01*
X136849300Y-99267144D01*
X136274300Y-99267144D01*
X136183153Y-99276121D01*
X136138390Y-99289700D01*
X136138390Y-98200376D01*
X136357159Y-97981607D01*
X136849300Y-97981607D01*
X136940447Y-97972630D01*
X137028092Y-97946043D01*
X137108866Y-97902869D01*
X137179665Y-97844766D01*
X137237768Y-97773967D01*
X137280942Y-97693193D01*
X137307529Y-97605548D01*
X137316506Y-97514401D01*
X137316506Y-97430990D01*
X138113695Y-97430990D01*
X138111473Y-97433697D01*
G37*
%TD.AperFunction*%
D20*
X152141797Y-97800933D02*
X152023757Y-97977591D01*
X151942450Y-98173884D01*
X151901000Y-98382267D01*
X151901000Y-98594733D01*
X151942450Y-98803116D01*
X152023757Y-98999409D01*
X152141797Y-99176067D01*
X152292033Y-99326303D01*
X152468691Y-99444343D01*
X152664984Y-99525650D01*
X152873367Y-99567100D01*
X153085833Y-99567100D01*
X153294216Y-99525650D01*
X153490509Y-99444343D01*
X153667167Y-99326303D01*
X153817403Y-99176067D01*
X153935443Y-98999409D01*
X154016750Y-98803116D01*
X154058200Y-98594733D01*
X154058200Y-98382267D01*
X154016750Y-98173884D01*
X153935443Y-97977591D01*
X153817403Y-97800933D01*
X153756569Y-97740099D01*
X154742631Y-97740099D01*
X154681797Y-97800933D01*
X154563757Y-97977591D01*
X154482450Y-98173884D01*
X154441000Y-98382267D01*
X154441000Y-98594733D01*
X154482450Y-98803116D01*
X154563757Y-98999409D01*
X154681797Y-99176067D01*
X154832033Y-99326303D01*
X155008691Y-99444343D01*
X155204984Y-99525650D01*
X155413367Y-99567100D01*
X155625833Y-99567100D01*
X155834216Y-99525650D01*
X156030509Y-99444343D01*
X156207167Y-99326303D01*
X156357403Y-99176067D01*
X156475443Y-98999409D01*
X156556750Y-98803116D01*
X156598200Y-98594733D01*
X156598200Y-98382267D01*
X156556750Y-98173884D01*
X156475443Y-97977591D01*
X156357403Y-97800933D01*
X156296569Y-97740099D01*
X156979894Y-97740099D01*
X156979894Y-99068141D01*
X156719842Y-99328193D01*
X156706357Y-99339260D01*
X156662170Y-99393102D01*
X156629335Y-99454531D01*
X156609116Y-99521184D01*
X156603999Y-99573140D01*
X156603999Y-99573149D01*
X156602290Y-99590501D01*
X156603999Y-99607853D01*
X156604000Y-101074996D01*
X156598200Y-101080796D01*
X156598200Y-100922267D01*
X156556750Y-100713884D01*
X156475443Y-100517591D01*
X156357403Y-100340933D01*
X156207167Y-100190697D01*
X156030509Y-100072657D01*
X155834216Y-99991350D01*
X155625833Y-99949900D01*
X155413367Y-99949900D01*
X155204984Y-99991350D01*
X155008691Y-100072657D01*
X154832033Y-100190697D01*
X154681797Y-100340933D01*
X154563757Y-100517591D01*
X154482450Y-100713884D01*
X154441000Y-100922267D01*
X154441000Y-101134733D01*
X154482450Y-101343116D01*
X154563757Y-101539409D01*
X154681797Y-101716067D01*
X154832033Y-101866303D01*
X155008691Y-101984343D01*
X155204984Y-102065650D01*
X155413367Y-102107100D01*
X155571897Y-102107100D01*
X155218117Y-102460880D01*
X151609771Y-102460880D01*
X151592419Y-102459171D01*
X151575067Y-102460880D01*
X151575058Y-102460880D01*
X151523102Y-102465997D01*
X151456449Y-102486216D01*
X151395020Y-102519051D01*
X151341178Y-102563238D01*
X151330112Y-102576722D01*
X148090435Y-105816400D01*
X145543910Y-105816400D01*
X145543910Y-102014680D01*
X145657784Y-101900806D01*
X145904925Y-101900806D01*
X145980953Y-101893318D01*
X146054059Y-101871141D01*
X146121434Y-101835129D01*
X146138381Y-101821221D01*
X146157931Y-101885671D01*
X146209745Y-101982608D01*
X146279475Y-102067575D01*
X146364442Y-102137305D01*
X146461379Y-102189119D01*
X146566563Y-102221026D01*
X146675950Y-102231800D01*
X146729850Y-102229100D01*
X146869350Y-102089600D01*
X146869350Y-101440200D01*
X146849350Y-101440200D01*
X146849350Y-101187000D01*
X146869350Y-101187000D01*
X146869350Y-101167000D01*
X147122550Y-101167000D01*
X147122550Y-101187000D01*
X147142550Y-101187000D01*
X147142550Y-101440200D01*
X147122550Y-101440200D01*
X147122550Y-102089600D01*
X147262050Y-102229100D01*
X147315950Y-102231800D01*
X147425337Y-102221026D01*
X147530521Y-102189119D01*
X147627458Y-102137305D01*
X147712425Y-102067575D01*
X147782155Y-101982608D01*
X147833969Y-101885671D01*
X147853519Y-101821221D01*
X147870466Y-101835129D01*
X147937841Y-101871141D01*
X148010947Y-101893318D01*
X148086975Y-101900806D01*
X148406975Y-101900806D01*
X148483003Y-101893318D01*
X148556109Y-101871141D01*
X148623484Y-101835129D01*
X148682539Y-101786664D01*
X148731004Y-101727609D01*
X148748788Y-101694336D01*
X148762134Y-101714309D01*
X148849691Y-101801866D01*
X148952646Y-101870659D01*
X149067044Y-101918044D01*
X149188488Y-101942200D01*
X149312312Y-101942200D01*
X149433756Y-101918044D01*
X149548154Y-101870659D01*
X149651109Y-101801866D01*
X149738666Y-101714309D01*
X149807459Y-101611354D01*
X149854844Y-101496956D01*
X149879000Y-101375512D01*
X149879000Y-101372910D01*
X151614367Y-101372910D01*
X151707791Y-101632636D01*
X151850090Y-101869145D01*
X152035795Y-102073349D01*
X152257770Y-102237400D01*
X152507484Y-102354993D01*
X152635191Y-102393728D01*
X152853000Y-102290667D01*
X152853000Y-101155100D01*
X153106200Y-101155100D01*
X153106200Y-102290667D01*
X153324009Y-102393728D01*
X153451716Y-102354993D01*
X153701430Y-102237400D01*
X153923405Y-102073349D01*
X154109110Y-101869145D01*
X154251409Y-101632636D01*
X154344833Y-101372910D01*
X154242402Y-101155100D01*
X153106200Y-101155100D01*
X152853000Y-101155100D01*
X151716798Y-101155100D01*
X151614367Y-101372910D01*
X149879000Y-101372910D01*
X149879000Y-101251688D01*
X149854844Y-101130244D01*
X149807459Y-101015846D01*
X149738666Y-100912891D01*
X149651109Y-100825334D01*
X149548154Y-100756541D01*
X149433756Y-100709156D01*
X149312312Y-100685000D01*
X149188488Y-100685000D01*
X149067044Y-100709156D01*
X148952646Y-100756541D01*
X148849691Y-100825334D01*
X148762134Y-100912891D01*
X148748788Y-100932864D01*
X148731004Y-100899591D01*
X148682539Y-100840536D01*
X148623484Y-100792071D01*
X148556109Y-100756059D01*
X148483003Y-100733882D01*
X148406975Y-100726394D01*
X148159835Y-100726394D01*
X148139247Y-100705806D01*
X148406975Y-100705806D01*
X148483003Y-100698318D01*
X148529905Y-100684090D01*
X151614367Y-100684090D01*
X151716798Y-100901900D01*
X152853000Y-100901900D01*
X152853000Y-99766333D01*
X153106200Y-99766333D01*
X153106200Y-100901900D01*
X154242402Y-100901900D01*
X154344833Y-100684090D01*
X154251409Y-100424364D01*
X154109110Y-100187855D01*
X153923405Y-99983651D01*
X153701430Y-99819600D01*
X153451716Y-99702007D01*
X153324009Y-99663272D01*
X153106200Y-99766333D01*
X152853000Y-99766333D01*
X152635191Y-99663272D01*
X152507484Y-99702007D01*
X152257770Y-99819600D01*
X152035795Y-99983651D01*
X151850090Y-100187855D01*
X151707791Y-100424364D01*
X151614367Y-100684090D01*
X148529905Y-100684090D01*
X148556109Y-100676141D01*
X148623484Y-100640129D01*
X148682539Y-100591664D01*
X148731004Y-100532609D01*
X148767016Y-100465234D01*
X148789193Y-100392128D01*
X148796681Y-100316100D01*
X148796681Y-100068959D01*
X151125542Y-97740099D01*
X152202631Y-97740099D01*
X152141797Y-97800933D01*
%TA.AperFunction,Conductor*%
D21*
G36*
X152141797Y-97800933D02*
G01*
X152023757Y-97977591D01*
X151942450Y-98173884D01*
X151901000Y-98382267D01*
X151901000Y-98594733D01*
X151942450Y-98803116D01*
X152023757Y-98999409D01*
X152141797Y-99176067D01*
X152292033Y-99326303D01*
X152468691Y-99444343D01*
X152664984Y-99525650D01*
X152873367Y-99567100D01*
X153085833Y-99567100D01*
X153294216Y-99525650D01*
X153490509Y-99444343D01*
X153667167Y-99326303D01*
X153817403Y-99176067D01*
X153935443Y-98999409D01*
X154016750Y-98803116D01*
X154058200Y-98594733D01*
X154058200Y-98382267D01*
X154016750Y-98173884D01*
X153935443Y-97977591D01*
X153817403Y-97800933D01*
X153756569Y-97740099D01*
X154742631Y-97740099D01*
X154681797Y-97800933D01*
X154563757Y-97977591D01*
X154482450Y-98173884D01*
X154441000Y-98382267D01*
X154441000Y-98594733D01*
X154482450Y-98803116D01*
X154563757Y-98999409D01*
X154681797Y-99176067D01*
X154832033Y-99326303D01*
X155008691Y-99444343D01*
X155204984Y-99525650D01*
X155413367Y-99567100D01*
X155625833Y-99567100D01*
X155834216Y-99525650D01*
X156030509Y-99444343D01*
X156207167Y-99326303D01*
X156357403Y-99176067D01*
X156475443Y-98999409D01*
X156556750Y-98803116D01*
X156598200Y-98594733D01*
X156598200Y-98382267D01*
X156556750Y-98173884D01*
X156475443Y-97977591D01*
X156357403Y-97800933D01*
X156296569Y-97740099D01*
X156979894Y-97740099D01*
X156979894Y-99068141D01*
X156719842Y-99328193D01*
X156706357Y-99339260D01*
X156662170Y-99393102D01*
X156629335Y-99454531D01*
X156609116Y-99521184D01*
X156603999Y-99573140D01*
X156603999Y-99573149D01*
X156602290Y-99590501D01*
X156603999Y-99607853D01*
X156604000Y-101074996D01*
X156598200Y-101080796D01*
X156598200Y-100922267D01*
X156556750Y-100713884D01*
X156475443Y-100517591D01*
X156357403Y-100340933D01*
X156207167Y-100190697D01*
X156030509Y-100072657D01*
X155834216Y-99991350D01*
X155625833Y-99949900D01*
X155413367Y-99949900D01*
X155204984Y-99991350D01*
X155008691Y-100072657D01*
X154832033Y-100190697D01*
X154681797Y-100340933D01*
X154563757Y-100517591D01*
X154482450Y-100713884D01*
X154441000Y-100922267D01*
X154441000Y-101134733D01*
X154482450Y-101343116D01*
X154563757Y-101539409D01*
X154681797Y-101716067D01*
X154832033Y-101866303D01*
X155008691Y-101984343D01*
X155204984Y-102065650D01*
X155413367Y-102107100D01*
X155571897Y-102107100D01*
X155218117Y-102460880D01*
X151609771Y-102460880D01*
X151592419Y-102459171D01*
X151575067Y-102460880D01*
X151575058Y-102460880D01*
X151523102Y-102465997D01*
X151456449Y-102486216D01*
X151395020Y-102519051D01*
X151341178Y-102563238D01*
X151330112Y-102576722D01*
X148090435Y-105816400D01*
X145543910Y-105816400D01*
X145543910Y-102014680D01*
X145657784Y-101900806D01*
X145904925Y-101900806D01*
X145980953Y-101893318D01*
X146054059Y-101871141D01*
X146121434Y-101835129D01*
X146138381Y-101821221D01*
X146157931Y-101885671D01*
X146209745Y-101982608D01*
X146279475Y-102067575D01*
X146364442Y-102137305D01*
X146461379Y-102189119D01*
X146566563Y-102221026D01*
X146675950Y-102231800D01*
X146729850Y-102229100D01*
X146869350Y-102089600D01*
X146869350Y-101440200D01*
X146849350Y-101440200D01*
X146849350Y-101187000D01*
X146869350Y-101187000D01*
X146869350Y-101167000D01*
X147122550Y-101167000D01*
X147122550Y-101187000D01*
X147142550Y-101187000D01*
X147142550Y-101440200D01*
X147122550Y-101440200D01*
X147122550Y-102089600D01*
X147262050Y-102229100D01*
X147315950Y-102231800D01*
X147425337Y-102221026D01*
X147530521Y-102189119D01*
X147627458Y-102137305D01*
X147712425Y-102067575D01*
X147782155Y-101982608D01*
X147833969Y-101885671D01*
X147853519Y-101821221D01*
X147870466Y-101835129D01*
X147937841Y-101871141D01*
X148010947Y-101893318D01*
X148086975Y-101900806D01*
X148406975Y-101900806D01*
X148483003Y-101893318D01*
X148556109Y-101871141D01*
X148623484Y-101835129D01*
X148682539Y-101786664D01*
X148731004Y-101727609D01*
X148748788Y-101694336D01*
X148762134Y-101714309D01*
X148849691Y-101801866D01*
X148952646Y-101870659D01*
X149067044Y-101918044D01*
X149188488Y-101942200D01*
X149312312Y-101942200D01*
X149433756Y-101918044D01*
X149548154Y-101870659D01*
X149651109Y-101801866D01*
X149738666Y-101714309D01*
X149807459Y-101611354D01*
X149854844Y-101496956D01*
X149879000Y-101375512D01*
X149879000Y-101372910D01*
X151614367Y-101372910D01*
X151707791Y-101632636D01*
X151850090Y-101869145D01*
X152035795Y-102073349D01*
X152257770Y-102237400D01*
X152507484Y-102354993D01*
X152635191Y-102393728D01*
X152853000Y-102290667D01*
X152853000Y-101155100D01*
X153106200Y-101155100D01*
X153106200Y-102290667D01*
X153324009Y-102393728D01*
X153451716Y-102354993D01*
X153701430Y-102237400D01*
X153923405Y-102073349D01*
X154109110Y-101869145D01*
X154251409Y-101632636D01*
X154344833Y-101372910D01*
X154242402Y-101155100D01*
X153106200Y-101155100D01*
X152853000Y-101155100D01*
X151716798Y-101155100D01*
X151614367Y-101372910D01*
X149879000Y-101372910D01*
X149879000Y-101251688D01*
X149854844Y-101130244D01*
X149807459Y-101015846D01*
X149738666Y-100912891D01*
X149651109Y-100825334D01*
X149548154Y-100756541D01*
X149433756Y-100709156D01*
X149312312Y-100685000D01*
X149188488Y-100685000D01*
X149067044Y-100709156D01*
X148952646Y-100756541D01*
X148849691Y-100825334D01*
X148762134Y-100912891D01*
X148748788Y-100932864D01*
X148731004Y-100899591D01*
X148682539Y-100840536D01*
X148623484Y-100792071D01*
X148556109Y-100756059D01*
X148483003Y-100733882D01*
X148406975Y-100726394D01*
X148159835Y-100726394D01*
X148139247Y-100705806D01*
X148406975Y-100705806D01*
X148483003Y-100698318D01*
X148529905Y-100684090D01*
X151614367Y-100684090D01*
X151716798Y-100901900D01*
X152853000Y-100901900D01*
X152853000Y-99766333D01*
X153106200Y-99766333D01*
X153106200Y-100901900D01*
X154242402Y-100901900D01*
X154344833Y-100684090D01*
X154251409Y-100424364D01*
X154109110Y-100187855D01*
X153923405Y-99983651D01*
X153701430Y-99819600D01*
X153451716Y-99702007D01*
X153324009Y-99663272D01*
X153106200Y-99766333D01*
X152853000Y-99766333D01*
X152635191Y-99663272D01*
X152507484Y-99702007D01*
X152257770Y-99819600D01*
X152035795Y-99983651D01*
X151850090Y-100187855D01*
X151707791Y-100424364D01*
X151614367Y-100684090D01*
X148529905Y-100684090D01*
X148556109Y-100676141D01*
X148623484Y-100640129D01*
X148682539Y-100591664D01*
X148731004Y-100532609D01*
X148767016Y-100465234D01*
X148789193Y-100392128D01*
X148796681Y-100316100D01*
X148796681Y-100068959D01*
X151125542Y-97740099D01*
X152202631Y-97740099D01*
X152141797Y-97800933D01*
G37*
%TD.AperFunction*%
%TD*%
M02*
