%TF.GenerationSoftware,KiCad,Pcbnew,(5.1.9)-1*%
%TF.CreationDate,2021-02-27T13:09:48+00:00*%
%TF.ProjectId,filaSens-attiny84,66696c61-5365-46e7-932d-617474696e79,rev?*%
%TF.SameCoordinates,Original*%
%TF.FileFunction,Legend,Bot*%
%TF.FilePolarity,Positive*%
%FSLAX46Y46*%
G04 Gerber Fmt 4.6, Leading zero omitted, Abs format (unit mm)*
G04 Created by KiCad (PCBNEW (5.1.9)-1) date 2021-02-27 13:09:48*
%MOMM*%
%LPD*%
G01*
G04 APERTURE LIST*
%ADD10C,0.100000*%
%ADD11C,0.010000*%
%ADD12C,0.120000*%
%ADD13C,0.150000*%
G04 APERTURE END LIST*
D10*
X138401533Y-103307066D02*
X138401533Y-102840400D01*
X138401533Y-102973733D02*
X138368200Y-102907066D01*
X138334866Y-102873733D01*
X138268200Y-102840400D01*
X138201533Y-102840400D01*
X137701533Y-103273733D02*
X137768200Y-103307066D01*
X137901533Y-103307066D01*
X137968200Y-103273733D01*
X138001533Y-103207066D01*
X138001533Y-102940400D01*
X137968200Y-102873733D01*
X137901533Y-102840400D01*
X137768200Y-102840400D01*
X137701533Y-102873733D01*
X137668200Y-102940400D01*
X137668200Y-103007066D01*
X138001533Y-103073733D01*
X137434866Y-102840400D02*
X137268200Y-103307066D01*
X137101533Y-102840400D01*
X136468200Y-103307066D02*
X136868200Y-103307066D01*
X136668200Y-103307066D02*
X136668200Y-102607066D01*
X136734866Y-102707066D01*
X136801533Y-102773733D01*
X136868200Y-102807066D01*
X135634866Y-103040400D02*
X135101533Y-103040400D01*
X134234866Y-103307066D02*
X134234866Y-102607066D01*
X134001533Y-103107066D01*
X133768200Y-102607066D01*
X133768200Y-103307066D01*
X133334866Y-103307066D02*
X133401533Y-103273733D01*
X133434866Y-103240400D01*
X133468200Y-103173733D01*
X133468200Y-102973733D01*
X133434866Y-102907066D01*
X133401533Y-102873733D01*
X133334866Y-102840400D01*
X133234866Y-102840400D01*
X133168200Y-102873733D01*
X133134866Y-102907066D01*
X133101533Y-102973733D01*
X133101533Y-103173733D01*
X133134866Y-103240400D01*
X133168200Y-103273733D01*
X133234866Y-103307066D01*
X133334866Y-103307066D01*
X132501533Y-103307066D02*
X132501533Y-102607066D01*
X132501533Y-103273733D02*
X132568200Y-103307066D01*
X132701533Y-103307066D01*
X132768200Y-103273733D01*
X132801533Y-103240400D01*
X132834866Y-103173733D01*
X132834866Y-102973733D01*
X132801533Y-102907066D01*
X132768200Y-102873733D01*
X132701533Y-102840400D01*
X132568200Y-102840400D01*
X132501533Y-102873733D01*
X132168200Y-103307066D02*
X132168200Y-102840400D01*
X132168200Y-102607066D02*
X132201533Y-102640400D01*
X132168200Y-102673733D01*
X132134866Y-102640400D01*
X132168200Y-102607066D01*
X132168200Y-102673733D01*
X131934866Y-102840400D02*
X131668200Y-102840400D01*
X131834866Y-103307066D02*
X131834866Y-102707066D01*
X131801533Y-102640400D01*
X131734866Y-102607066D01*
X131668200Y-102607066D01*
X131434866Y-103307066D02*
X131434866Y-102840400D01*
X131434866Y-102607066D02*
X131468200Y-102640400D01*
X131434866Y-102673733D01*
X131401533Y-102640400D01*
X131434866Y-102607066D01*
X131434866Y-102673733D01*
X130834866Y-103273733D02*
X130901533Y-103307066D01*
X131034866Y-103307066D01*
X131101533Y-103273733D01*
X131134866Y-103207066D01*
X131134866Y-102940400D01*
X131101533Y-102873733D01*
X131034866Y-102840400D01*
X130901533Y-102840400D01*
X130834866Y-102873733D01*
X130801533Y-102940400D01*
X130801533Y-103007066D01*
X131134866Y-103073733D01*
X130201533Y-103307066D02*
X130201533Y-102607066D01*
X130201533Y-103273733D02*
X130268200Y-103307066D01*
X130401533Y-103307066D01*
X130468200Y-103273733D01*
X130501533Y-103240400D01*
X130534866Y-103173733D01*
X130534866Y-102973733D01*
X130501533Y-102907066D01*
X130468200Y-102873733D01*
X130401533Y-102840400D01*
X130268200Y-102840400D01*
X130201533Y-102873733D01*
X138168200Y-105240400D02*
X138401533Y-105240400D01*
X138401533Y-105607066D02*
X138401533Y-104907066D01*
X138068200Y-104907066D01*
X137801533Y-105607066D02*
X137801533Y-105140400D01*
X137801533Y-104907066D02*
X137834866Y-104940400D01*
X137801533Y-104973733D01*
X137768200Y-104940400D01*
X137801533Y-104907066D01*
X137801533Y-104973733D01*
X137368200Y-105607066D02*
X137434866Y-105573733D01*
X137468200Y-105507066D01*
X137468200Y-104907066D01*
X136801533Y-105607066D02*
X136801533Y-105240400D01*
X136834866Y-105173733D01*
X136901533Y-105140400D01*
X137034866Y-105140400D01*
X137101533Y-105173733D01*
X136801533Y-105573733D02*
X136868200Y-105607066D01*
X137034866Y-105607066D01*
X137101533Y-105573733D01*
X137134866Y-105507066D01*
X137134866Y-105440400D01*
X137101533Y-105373733D01*
X137034866Y-105340400D01*
X136868200Y-105340400D01*
X136801533Y-105307066D01*
X136468200Y-105607066D02*
X136468200Y-105140400D01*
X136468200Y-105207066D02*
X136434866Y-105173733D01*
X136368200Y-105140400D01*
X136268200Y-105140400D01*
X136201533Y-105173733D01*
X136168200Y-105240400D01*
X136168200Y-105607066D01*
X136168200Y-105240400D02*
X136134866Y-105173733D01*
X136068200Y-105140400D01*
X135968200Y-105140400D01*
X135901533Y-105173733D01*
X135868200Y-105240400D01*
X135868200Y-105607066D01*
X135268200Y-105573733D02*
X135334866Y-105607066D01*
X135468200Y-105607066D01*
X135534866Y-105573733D01*
X135568200Y-105507066D01*
X135568200Y-105240400D01*
X135534866Y-105173733D01*
X135468200Y-105140400D01*
X135334866Y-105140400D01*
X135268200Y-105173733D01*
X135234866Y-105240400D01*
X135234866Y-105307066D01*
X135568200Y-105373733D01*
X134934866Y-105140400D02*
X134934866Y-105607066D01*
X134934866Y-105207066D02*
X134901533Y-105173733D01*
X134834866Y-105140400D01*
X134734866Y-105140400D01*
X134668200Y-105173733D01*
X134634866Y-105240400D01*
X134634866Y-105607066D01*
X134401533Y-105140400D02*
X134134866Y-105140400D01*
X134301533Y-104907066D02*
X134301533Y-105507066D01*
X134268200Y-105573733D01*
X134201533Y-105607066D01*
X134134866Y-105607066D01*
X133368200Y-105607066D02*
X133368200Y-104907066D01*
X133201533Y-104907066D01*
X133101533Y-104940400D01*
X133034866Y-105007066D01*
X133001533Y-105073733D01*
X132968200Y-105207066D01*
X132968200Y-105307066D01*
X133001533Y-105440400D01*
X133034866Y-105507066D01*
X133101533Y-105573733D01*
X133201533Y-105607066D01*
X133368200Y-105607066D01*
X132668200Y-105607066D02*
X132668200Y-105140400D01*
X132668200Y-104907066D02*
X132701533Y-104940400D01*
X132668200Y-104973733D01*
X132634866Y-104940400D01*
X132668200Y-104907066D01*
X132668200Y-104973733D01*
X132034866Y-105607066D02*
X132034866Y-105240400D01*
X132068200Y-105173733D01*
X132134866Y-105140400D01*
X132268200Y-105140400D01*
X132334866Y-105173733D01*
X132034866Y-105573733D02*
X132101533Y-105607066D01*
X132268200Y-105607066D01*
X132334866Y-105573733D01*
X132368200Y-105507066D01*
X132368200Y-105440400D01*
X132334866Y-105373733D01*
X132268200Y-105340400D01*
X132101533Y-105340400D01*
X132034866Y-105307066D01*
X131701533Y-105607066D02*
X131701533Y-105140400D01*
X131701533Y-105207066D02*
X131668200Y-105173733D01*
X131601533Y-105140400D01*
X131501533Y-105140400D01*
X131434866Y-105173733D01*
X131401533Y-105240400D01*
X131401533Y-105607066D01*
X131401533Y-105240400D02*
X131368200Y-105173733D01*
X131301533Y-105140400D01*
X131201533Y-105140400D01*
X131134866Y-105173733D01*
X131101533Y-105240400D01*
X131101533Y-105607066D01*
X130501533Y-105573733D02*
X130568200Y-105607066D01*
X130701533Y-105607066D01*
X130768200Y-105573733D01*
X130801533Y-105507066D01*
X130801533Y-105240400D01*
X130768200Y-105173733D01*
X130701533Y-105140400D01*
X130568200Y-105140400D01*
X130501533Y-105173733D01*
X130468200Y-105240400D01*
X130468200Y-105307066D01*
X130801533Y-105373733D01*
X130268200Y-105140400D02*
X130001533Y-105140400D01*
X130168200Y-104907066D02*
X130168200Y-105507066D01*
X130134866Y-105573733D01*
X130068200Y-105607066D01*
X130001533Y-105607066D01*
X129501533Y-105573733D02*
X129568200Y-105607066D01*
X129701533Y-105607066D01*
X129768200Y-105573733D01*
X129801533Y-105507066D01*
X129801533Y-105240400D01*
X129768200Y-105173733D01*
X129701533Y-105140400D01*
X129568200Y-105140400D01*
X129501533Y-105173733D01*
X129468200Y-105240400D01*
X129468200Y-105307066D01*
X129801533Y-105373733D01*
X129168200Y-105607066D02*
X129168200Y-105140400D01*
X129168200Y-105273733D02*
X129134866Y-105207066D01*
X129101533Y-105173733D01*
X129034866Y-105140400D01*
X128968200Y-105140400D01*
X128234866Y-105573733D02*
X128134866Y-105607066D01*
X127968200Y-105607066D01*
X127901533Y-105573733D01*
X127868200Y-105540400D01*
X127834866Y-105473733D01*
X127834866Y-105407066D01*
X127868200Y-105340400D01*
X127901533Y-105307066D01*
X127968200Y-105273733D01*
X128101533Y-105240400D01*
X128168200Y-105207066D01*
X128201533Y-105173733D01*
X128234866Y-105107066D01*
X128234866Y-105040400D01*
X128201533Y-104973733D01*
X128168200Y-104940400D01*
X128101533Y-104907066D01*
X127934866Y-104907066D01*
X127834866Y-104940400D01*
X127268200Y-105573733D02*
X127334866Y-105607066D01*
X127468200Y-105607066D01*
X127534866Y-105573733D01*
X127568200Y-105507066D01*
X127568200Y-105240400D01*
X127534866Y-105173733D01*
X127468200Y-105140400D01*
X127334866Y-105140400D01*
X127268200Y-105173733D01*
X127234866Y-105240400D01*
X127234866Y-105307066D01*
X127568200Y-105373733D01*
X126934866Y-105140400D02*
X126934866Y-105607066D01*
X126934866Y-105207066D02*
X126901533Y-105173733D01*
X126834866Y-105140400D01*
X126734866Y-105140400D01*
X126668200Y-105173733D01*
X126634866Y-105240400D01*
X126634866Y-105607066D01*
X126334866Y-105573733D02*
X126268200Y-105607066D01*
X126134866Y-105607066D01*
X126068200Y-105573733D01*
X126034866Y-105507066D01*
X126034866Y-105473733D01*
X126068200Y-105407066D01*
X126134866Y-105373733D01*
X126234866Y-105373733D01*
X126301533Y-105340400D01*
X126334866Y-105273733D01*
X126334866Y-105240400D01*
X126301533Y-105173733D01*
X126234866Y-105140400D01*
X126134866Y-105140400D01*
X126068200Y-105173733D01*
X125634866Y-105607066D02*
X125701533Y-105573733D01*
X125734866Y-105540400D01*
X125768200Y-105473733D01*
X125768200Y-105273733D01*
X125734866Y-105207066D01*
X125701533Y-105173733D01*
X125634866Y-105140400D01*
X125534866Y-105140400D01*
X125468200Y-105173733D01*
X125434866Y-105207066D01*
X125401533Y-105273733D01*
X125401533Y-105473733D01*
X125434866Y-105540400D01*
X125468200Y-105573733D01*
X125534866Y-105607066D01*
X125634866Y-105607066D01*
X125101533Y-105607066D02*
X125101533Y-105140400D01*
X125101533Y-105273733D02*
X125068200Y-105207066D01*
X125034866Y-105173733D01*
X124968200Y-105140400D01*
X124901533Y-105140400D01*
X138068200Y-106757066D02*
X138401533Y-106757066D01*
X138401533Y-106057066D01*
X137834866Y-106757066D02*
X137834866Y-106290400D01*
X137834866Y-106057066D02*
X137868200Y-106090400D01*
X137834866Y-106123733D01*
X137801533Y-106090400D01*
X137834866Y-106057066D01*
X137834866Y-106123733D01*
X137201533Y-106723733D02*
X137268200Y-106757066D01*
X137401533Y-106757066D01*
X137468200Y-106723733D01*
X137501533Y-106690400D01*
X137534866Y-106623733D01*
X137534866Y-106423733D01*
X137501533Y-106357066D01*
X137468200Y-106323733D01*
X137401533Y-106290400D01*
X137268200Y-106290400D01*
X137201533Y-106323733D01*
X136634866Y-106723733D02*
X136701533Y-106757066D01*
X136834866Y-106757066D01*
X136901533Y-106723733D01*
X136934866Y-106657066D01*
X136934866Y-106390400D01*
X136901533Y-106323733D01*
X136834866Y-106290400D01*
X136701533Y-106290400D01*
X136634866Y-106323733D01*
X136601533Y-106390400D01*
X136601533Y-106457066D01*
X136934866Y-106523733D01*
X136301533Y-106290400D02*
X136301533Y-106757066D01*
X136301533Y-106357066D02*
X136268200Y-106323733D01*
X136201533Y-106290400D01*
X136101533Y-106290400D01*
X136034866Y-106323733D01*
X136001533Y-106390400D01*
X136001533Y-106757066D01*
X135701533Y-106723733D02*
X135634866Y-106757066D01*
X135501533Y-106757066D01*
X135434866Y-106723733D01*
X135401533Y-106657066D01*
X135401533Y-106623733D01*
X135434866Y-106557066D01*
X135501533Y-106523733D01*
X135601533Y-106523733D01*
X135668200Y-106490400D01*
X135701533Y-106423733D01*
X135701533Y-106390400D01*
X135668200Y-106323733D01*
X135601533Y-106290400D01*
X135501533Y-106290400D01*
X135434866Y-106323733D01*
X134834866Y-106723733D02*
X134901533Y-106757066D01*
X135034866Y-106757066D01*
X135101533Y-106723733D01*
X135134866Y-106657066D01*
X135134866Y-106390400D01*
X135101533Y-106323733D01*
X135034866Y-106290400D01*
X134901533Y-106290400D01*
X134834866Y-106323733D01*
X134801533Y-106390400D01*
X134801533Y-106457066D01*
X135134866Y-106523733D01*
X134201533Y-106757066D02*
X134201533Y-106057066D01*
X134201533Y-106723733D02*
X134268200Y-106757066D01*
X134401533Y-106757066D01*
X134468200Y-106723733D01*
X134501533Y-106690400D01*
X134534866Y-106623733D01*
X134534866Y-106423733D01*
X134501533Y-106357066D01*
X134468200Y-106323733D01*
X134401533Y-106290400D01*
X134268200Y-106290400D01*
X134201533Y-106323733D01*
X133034866Y-106757066D02*
X133034866Y-106390400D01*
X133068200Y-106323733D01*
X133134866Y-106290400D01*
X133268200Y-106290400D01*
X133334866Y-106323733D01*
X133034866Y-106723733D02*
X133101533Y-106757066D01*
X133268200Y-106757066D01*
X133334866Y-106723733D01*
X133368200Y-106657066D01*
X133368200Y-106590400D01*
X133334866Y-106523733D01*
X133268200Y-106490400D01*
X133101533Y-106490400D01*
X133034866Y-106457066D01*
X132734866Y-106723733D02*
X132668200Y-106757066D01*
X132534866Y-106757066D01*
X132468200Y-106723733D01*
X132434866Y-106657066D01*
X132434866Y-106623733D01*
X132468200Y-106557066D01*
X132534866Y-106523733D01*
X132634866Y-106523733D01*
X132701533Y-106490400D01*
X132734866Y-106423733D01*
X132734866Y-106390400D01*
X132701533Y-106323733D01*
X132634866Y-106290400D01*
X132534866Y-106290400D01*
X132468200Y-106323733D01*
X131601533Y-106757066D02*
X131601533Y-106057066D01*
X131334866Y-106057066D01*
X131268200Y-106090400D01*
X131234866Y-106123733D01*
X131201533Y-106190400D01*
X131201533Y-106290400D01*
X131234866Y-106357066D01*
X131268200Y-106390400D01*
X131334866Y-106423733D01*
X131601533Y-106423733D01*
X130601533Y-106290400D02*
X130601533Y-106757066D01*
X130901533Y-106290400D02*
X130901533Y-106657066D01*
X130868200Y-106723733D01*
X130801533Y-106757066D01*
X130701533Y-106757066D01*
X130634866Y-106723733D01*
X130601533Y-106690400D01*
X130268200Y-106757066D02*
X130268200Y-106057066D01*
X130268200Y-106323733D02*
X130201533Y-106290400D01*
X130068200Y-106290400D01*
X130001533Y-106323733D01*
X129968200Y-106357066D01*
X129934866Y-106423733D01*
X129934866Y-106623733D01*
X129968200Y-106690400D01*
X130001533Y-106723733D01*
X130068200Y-106757066D01*
X130201533Y-106757066D01*
X130268200Y-106723733D01*
X129534866Y-106757066D02*
X129601533Y-106723733D01*
X129634866Y-106657066D01*
X129634866Y-106057066D01*
X129268200Y-106757066D02*
X129268200Y-106290400D01*
X129268200Y-106057066D02*
X129301533Y-106090400D01*
X129268200Y-106123733D01*
X129234866Y-106090400D01*
X129268200Y-106057066D01*
X129268200Y-106123733D01*
X128634866Y-106723733D02*
X128701533Y-106757066D01*
X128834866Y-106757066D01*
X128901533Y-106723733D01*
X128934866Y-106690400D01*
X128968200Y-106623733D01*
X128968200Y-106423733D01*
X128934866Y-106357066D01*
X128901533Y-106323733D01*
X128834866Y-106290400D01*
X128701533Y-106290400D01*
X128634866Y-106323733D01*
X127801533Y-106757066D02*
X127801533Y-106057066D01*
X127634866Y-106057066D01*
X127534866Y-106090400D01*
X127468200Y-106157066D01*
X127434866Y-106223733D01*
X127401533Y-106357066D01*
X127401533Y-106457066D01*
X127434866Y-106590400D01*
X127468200Y-106657066D01*
X127534866Y-106723733D01*
X127634866Y-106757066D01*
X127801533Y-106757066D01*
X127001533Y-106757066D02*
X127068200Y-106723733D01*
X127101533Y-106690400D01*
X127134866Y-106623733D01*
X127134866Y-106423733D01*
X127101533Y-106357066D01*
X127068200Y-106323733D01*
X127001533Y-106290400D01*
X126901533Y-106290400D01*
X126834866Y-106323733D01*
X126801533Y-106357066D01*
X126768200Y-106423733D01*
X126768200Y-106623733D01*
X126801533Y-106690400D01*
X126834866Y-106723733D01*
X126901533Y-106757066D01*
X127001533Y-106757066D01*
X126468200Y-106757066D02*
X126468200Y-106290400D01*
X126468200Y-106357066D02*
X126434866Y-106323733D01*
X126368200Y-106290400D01*
X126268200Y-106290400D01*
X126201533Y-106323733D01*
X126168200Y-106390400D01*
X126168200Y-106757066D01*
X126168200Y-106390400D02*
X126134866Y-106323733D01*
X126068200Y-106290400D01*
X125968200Y-106290400D01*
X125901533Y-106323733D01*
X125868200Y-106390400D01*
X125868200Y-106757066D01*
X125234866Y-106757066D02*
X125234866Y-106390400D01*
X125268200Y-106323733D01*
X125334866Y-106290400D01*
X125468200Y-106290400D01*
X125534866Y-106323733D01*
X125234866Y-106723733D02*
X125301533Y-106757066D01*
X125468200Y-106757066D01*
X125534866Y-106723733D01*
X125568200Y-106657066D01*
X125568200Y-106590400D01*
X125534866Y-106523733D01*
X125468200Y-106490400D01*
X125301533Y-106490400D01*
X125234866Y-106457066D01*
X124901533Y-106757066D02*
X124901533Y-106290400D01*
X124901533Y-106057066D02*
X124934866Y-106090400D01*
X124901533Y-106123733D01*
X124868200Y-106090400D01*
X124901533Y-106057066D01*
X124901533Y-106123733D01*
X124568200Y-106290400D02*
X124568200Y-106757066D01*
X124568200Y-106357066D02*
X124534866Y-106323733D01*
X124468200Y-106290400D01*
X124368200Y-106290400D01*
X124301533Y-106323733D01*
X124268200Y-106390400D01*
X124268200Y-106757066D01*
X138401533Y-109057066D02*
X138401533Y-108357066D01*
X138234866Y-108357066D01*
X138134866Y-108390400D01*
X138068200Y-108457066D01*
X138034866Y-108523733D01*
X138001533Y-108657066D01*
X138001533Y-108757066D01*
X138034866Y-108890400D01*
X138068200Y-108957066D01*
X138134866Y-109023733D01*
X138234866Y-109057066D01*
X138401533Y-109057066D01*
X137434866Y-109023733D02*
X137501533Y-109057066D01*
X137634866Y-109057066D01*
X137701533Y-109023733D01*
X137734866Y-108957066D01*
X137734866Y-108690400D01*
X137701533Y-108623733D01*
X137634866Y-108590400D01*
X137501533Y-108590400D01*
X137434866Y-108623733D01*
X137401533Y-108690400D01*
X137401533Y-108757066D01*
X137734866Y-108823733D01*
X137134866Y-109023733D02*
X137068200Y-109057066D01*
X136934866Y-109057066D01*
X136868200Y-109023733D01*
X136834866Y-108957066D01*
X136834866Y-108923733D01*
X136868200Y-108857066D01*
X136934866Y-108823733D01*
X137034866Y-108823733D01*
X137101533Y-108790400D01*
X137134866Y-108723733D01*
X137134866Y-108690400D01*
X137101533Y-108623733D01*
X137034866Y-108590400D01*
X136934866Y-108590400D01*
X136868200Y-108623733D01*
X136534866Y-109057066D02*
X136534866Y-108590400D01*
X136534866Y-108357066D02*
X136568200Y-108390400D01*
X136534866Y-108423733D01*
X136501533Y-108390400D01*
X136534866Y-108357066D01*
X136534866Y-108423733D01*
X135901533Y-108590400D02*
X135901533Y-109157066D01*
X135934866Y-109223733D01*
X135968200Y-109257066D01*
X136034866Y-109290400D01*
X136134866Y-109290400D01*
X136201533Y-109257066D01*
X135901533Y-109023733D02*
X135968200Y-109057066D01*
X136101533Y-109057066D01*
X136168200Y-109023733D01*
X136201533Y-108990400D01*
X136234866Y-108923733D01*
X136234866Y-108723733D01*
X136201533Y-108657066D01*
X136168200Y-108623733D01*
X136101533Y-108590400D01*
X135968200Y-108590400D01*
X135901533Y-108623733D01*
X135568200Y-108590400D02*
X135568200Y-109057066D01*
X135568200Y-108657066D02*
X135534866Y-108623733D01*
X135468200Y-108590400D01*
X135368200Y-108590400D01*
X135301533Y-108623733D01*
X135268200Y-108690400D01*
X135268200Y-109057066D01*
X134668200Y-109023733D02*
X134734866Y-109057066D01*
X134868200Y-109057066D01*
X134934866Y-109023733D01*
X134968200Y-108957066D01*
X134968200Y-108690400D01*
X134934866Y-108623733D01*
X134868200Y-108590400D01*
X134734866Y-108590400D01*
X134668200Y-108623733D01*
X134634866Y-108690400D01*
X134634866Y-108757066D01*
X134968200Y-108823733D01*
X134034866Y-109057066D02*
X134034866Y-108357066D01*
X134034866Y-109023733D02*
X134101533Y-109057066D01*
X134234866Y-109057066D01*
X134301533Y-109023733D01*
X134334866Y-108990400D01*
X134368200Y-108923733D01*
X134368200Y-108723733D01*
X134334866Y-108657066D01*
X134301533Y-108623733D01*
X134234866Y-108590400D01*
X134101533Y-108590400D01*
X134034866Y-108623733D01*
X133168200Y-109057066D02*
X133168200Y-108357066D01*
X133168200Y-108623733D02*
X133101533Y-108590400D01*
X132968200Y-108590400D01*
X132901533Y-108623733D01*
X132868200Y-108657066D01*
X132834866Y-108723733D01*
X132834866Y-108923733D01*
X132868200Y-108990400D01*
X132901533Y-109023733D01*
X132968200Y-109057066D01*
X133101533Y-109057066D01*
X133168200Y-109023733D01*
X132601533Y-108590400D02*
X132434866Y-109057066D01*
X132268200Y-108590400D02*
X132434866Y-109057066D01*
X132501533Y-109223733D01*
X132534866Y-109257066D01*
X132601533Y-109290400D01*
X138501533Y-109507066D02*
X138101533Y-109507066D01*
X138301533Y-110207066D02*
X138301533Y-109507066D01*
X137868200Y-110207066D02*
X137868200Y-109507066D01*
X137568200Y-110207066D02*
X137568200Y-109840400D01*
X137601533Y-109773733D01*
X137668200Y-109740400D01*
X137768200Y-109740400D01*
X137834866Y-109773733D01*
X137868200Y-109807066D01*
X137134866Y-110207066D02*
X137201533Y-110173733D01*
X137234866Y-110140400D01*
X137268200Y-110073733D01*
X137268200Y-109873733D01*
X137234866Y-109807066D01*
X137201533Y-109773733D01*
X137134866Y-109740400D01*
X137034866Y-109740400D01*
X136968200Y-109773733D01*
X136934866Y-109807066D01*
X136901533Y-109873733D01*
X136901533Y-110073733D01*
X136934866Y-110140400D01*
X136968200Y-110173733D01*
X137034866Y-110207066D01*
X137134866Y-110207066D01*
X136601533Y-110207066D02*
X136601533Y-109740400D01*
X136601533Y-109807066D02*
X136568200Y-109773733D01*
X136501533Y-109740400D01*
X136401533Y-109740400D01*
X136334866Y-109773733D01*
X136301533Y-109840400D01*
X136301533Y-110207066D01*
X136301533Y-109840400D02*
X136268200Y-109773733D01*
X136201533Y-109740400D01*
X136101533Y-109740400D01*
X136034866Y-109773733D01*
X136001533Y-109840400D01*
X136001533Y-110207066D01*
X135368200Y-110207066D02*
X135368200Y-109840400D01*
X135401533Y-109773733D01*
X135468200Y-109740400D01*
X135601533Y-109740400D01*
X135668200Y-109773733D01*
X135368200Y-110173733D02*
X135434866Y-110207066D01*
X135601533Y-110207066D01*
X135668200Y-110173733D01*
X135701533Y-110107066D01*
X135701533Y-110040400D01*
X135668200Y-109973733D01*
X135601533Y-109940400D01*
X135434866Y-109940400D01*
X135368200Y-109907066D01*
X135068200Y-110173733D02*
X135001533Y-110207066D01*
X134868200Y-110207066D01*
X134801533Y-110173733D01*
X134768200Y-110107066D01*
X134768200Y-110073733D01*
X134801533Y-110007066D01*
X134868200Y-109973733D01*
X134968200Y-109973733D01*
X135034866Y-109940400D01*
X135068200Y-109873733D01*
X135068200Y-109840400D01*
X135034866Y-109773733D01*
X134968200Y-109740400D01*
X134868200Y-109740400D01*
X134801533Y-109773733D01*
X133968200Y-110173733D02*
X133868200Y-110207066D01*
X133701533Y-110207066D01*
X133634866Y-110173733D01*
X133601533Y-110140400D01*
X133568200Y-110073733D01*
X133568200Y-110007066D01*
X133601533Y-109940400D01*
X133634866Y-109907066D01*
X133701533Y-109873733D01*
X133834866Y-109840400D01*
X133901533Y-109807066D01*
X133934866Y-109773733D01*
X133968200Y-109707066D01*
X133968200Y-109640400D01*
X133934866Y-109573733D01*
X133901533Y-109540400D01*
X133834866Y-109507066D01*
X133668200Y-109507066D01*
X133568200Y-109540400D01*
X132968200Y-110207066D02*
X132968200Y-109840400D01*
X133001533Y-109773733D01*
X133068200Y-109740400D01*
X133201533Y-109740400D01*
X133268200Y-109773733D01*
X132968200Y-110173733D02*
X133034866Y-110207066D01*
X133201533Y-110207066D01*
X133268200Y-110173733D01*
X133301533Y-110107066D01*
X133301533Y-110040400D01*
X133268200Y-109973733D01*
X133201533Y-109940400D01*
X133034866Y-109940400D01*
X132968200Y-109907066D01*
X132634866Y-109740400D02*
X132634866Y-110207066D01*
X132634866Y-109807066D02*
X132601533Y-109773733D01*
X132534866Y-109740400D01*
X132434866Y-109740400D01*
X132368200Y-109773733D01*
X132334866Y-109840400D01*
X132334866Y-110207066D01*
X131901533Y-110207066D02*
X131968200Y-110173733D01*
X132001533Y-110107066D01*
X132001533Y-109507066D01*
X131334866Y-110207066D02*
X131334866Y-109840400D01*
X131368200Y-109773733D01*
X131434866Y-109740400D01*
X131568200Y-109740400D01*
X131634866Y-109773733D01*
X131334866Y-110173733D02*
X131401533Y-110207066D01*
X131568200Y-110207066D01*
X131634866Y-110173733D01*
X131668200Y-110107066D01*
X131668200Y-110040400D01*
X131634866Y-109973733D01*
X131568200Y-109940400D01*
X131401533Y-109940400D01*
X131334866Y-109907066D01*
X130701533Y-110207066D02*
X130701533Y-109507066D01*
X130701533Y-110173733D02*
X130768200Y-110207066D01*
X130901533Y-110207066D01*
X130968200Y-110173733D01*
X131001533Y-110140400D01*
X131034866Y-110073733D01*
X131034866Y-109873733D01*
X131001533Y-109807066D01*
X130968200Y-109773733D01*
X130901533Y-109740400D01*
X130768200Y-109740400D01*
X130701533Y-109773733D01*
X130101533Y-110173733D02*
X130168200Y-110207066D01*
X130301533Y-110207066D01*
X130368200Y-110173733D01*
X130401533Y-110107066D01*
X130401533Y-109840400D01*
X130368200Y-109773733D01*
X130301533Y-109740400D01*
X130168200Y-109740400D01*
X130101533Y-109773733D01*
X130068200Y-109840400D01*
X130068200Y-109907066D01*
X130401533Y-109973733D01*
X129768200Y-110207066D02*
X129768200Y-109740400D01*
X129768200Y-109873733D02*
X129734866Y-109807066D01*
X129701533Y-109773733D01*
X129634866Y-109740400D01*
X129568200Y-109740400D01*
X129068200Y-110173733D02*
X129134866Y-110207066D01*
X129268200Y-110207066D01*
X129334866Y-110173733D01*
X129368200Y-110107066D01*
X129368200Y-109840400D01*
X129334866Y-109773733D01*
X129268200Y-109740400D01*
X129134866Y-109740400D01*
X129068200Y-109773733D01*
X129034866Y-109840400D01*
X129034866Y-109907066D01*
X129368200Y-109973733D01*
X128734866Y-110207066D02*
X128734866Y-109740400D01*
X128734866Y-109873733D02*
X128701533Y-109807066D01*
X128668200Y-109773733D01*
X128601533Y-109740400D01*
X128534866Y-109740400D01*
X138401533Y-112507066D02*
X138401533Y-111807066D01*
X138168200Y-112307066D01*
X137934866Y-111807066D01*
X137934866Y-112507066D01*
X137501533Y-112507066D02*
X137568200Y-112473733D01*
X137601533Y-112440400D01*
X137634866Y-112373733D01*
X137634866Y-112173733D01*
X137601533Y-112107066D01*
X137568200Y-112073733D01*
X137501533Y-112040400D01*
X137401533Y-112040400D01*
X137334866Y-112073733D01*
X137301533Y-112107066D01*
X137268200Y-112173733D01*
X137268200Y-112373733D01*
X137301533Y-112440400D01*
X137334866Y-112473733D01*
X137401533Y-112507066D01*
X137501533Y-112507066D01*
X136668200Y-112507066D02*
X136668200Y-111807066D01*
X136668200Y-112473733D02*
X136734866Y-112507066D01*
X136868200Y-112507066D01*
X136934866Y-112473733D01*
X136968200Y-112440400D01*
X137001533Y-112373733D01*
X137001533Y-112173733D01*
X136968200Y-112107066D01*
X136934866Y-112073733D01*
X136868200Y-112040400D01*
X136734866Y-112040400D01*
X136668200Y-112073733D01*
X136334866Y-112507066D02*
X136334866Y-112040400D01*
X136334866Y-111807066D02*
X136368200Y-111840400D01*
X136334866Y-111873733D01*
X136301533Y-111840400D01*
X136334866Y-111807066D01*
X136334866Y-111873733D01*
X136101533Y-112040400D02*
X135834866Y-112040400D01*
X136001533Y-112507066D02*
X136001533Y-111907066D01*
X135968200Y-111840400D01*
X135901533Y-111807066D01*
X135834866Y-111807066D01*
X135601533Y-112507066D02*
X135601533Y-112040400D01*
X135601533Y-111807066D02*
X135634866Y-111840400D01*
X135601533Y-111873733D01*
X135568200Y-111840400D01*
X135601533Y-111807066D01*
X135601533Y-111873733D01*
X135001533Y-112473733D02*
X135068200Y-112507066D01*
X135201533Y-112507066D01*
X135268200Y-112473733D01*
X135301533Y-112407066D01*
X135301533Y-112140400D01*
X135268200Y-112073733D01*
X135201533Y-112040400D01*
X135068200Y-112040400D01*
X135001533Y-112073733D01*
X134968200Y-112140400D01*
X134968200Y-112207066D01*
X135301533Y-112273733D01*
X134368200Y-112507066D02*
X134368200Y-111807066D01*
X134368200Y-112473733D02*
X134434866Y-112507066D01*
X134568200Y-112507066D01*
X134634866Y-112473733D01*
X134668200Y-112440400D01*
X134701533Y-112373733D01*
X134701533Y-112173733D01*
X134668200Y-112107066D01*
X134634866Y-112073733D01*
X134568200Y-112040400D01*
X134434866Y-112040400D01*
X134368200Y-112073733D01*
X133501533Y-112507066D02*
X133501533Y-111807066D01*
X133501533Y-112073733D02*
X133434866Y-112040400D01*
X133301533Y-112040400D01*
X133234866Y-112073733D01*
X133201533Y-112107066D01*
X133168200Y-112173733D01*
X133168200Y-112373733D01*
X133201533Y-112440400D01*
X133234866Y-112473733D01*
X133301533Y-112507066D01*
X133434866Y-112507066D01*
X133501533Y-112473733D01*
X132934866Y-112040400D02*
X132768200Y-112507066D01*
X132601533Y-112040400D02*
X132768200Y-112507066D01*
X132834866Y-112673733D01*
X132868200Y-112707066D01*
X132934866Y-112740400D01*
X138401533Y-113657066D02*
X138401533Y-112957066D01*
X138168200Y-113457066D01*
X137934866Y-112957066D01*
X137934866Y-113657066D01*
X137601533Y-113657066D02*
X137601533Y-113190400D01*
X137601533Y-112957066D02*
X137634866Y-112990400D01*
X137601533Y-113023733D01*
X137568200Y-112990400D01*
X137601533Y-112957066D01*
X137601533Y-113023733D01*
X137268200Y-113657066D02*
X137268200Y-112957066D01*
X137201533Y-113390400D02*
X137001533Y-113657066D01*
X137001533Y-113190400D02*
X137268200Y-113457066D01*
X136434866Y-113623733D02*
X136501533Y-113657066D01*
X136634866Y-113657066D01*
X136701533Y-113623733D01*
X136734866Y-113557066D01*
X136734866Y-113290400D01*
X136701533Y-113223733D01*
X136634866Y-113190400D01*
X136501533Y-113190400D01*
X136434866Y-113223733D01*
X136401533Y-113290400D01*
X136401533Y-113357066D01*
X136734866Y-113423733D01*
X135601533Y-112957066D02*
X135601533Y-113090400D01*
X135334866Y-112957066D02*
X135334866Y-113090400D01*
X135034866Y-113657066D02*
X135034866Y-112957066D01*
X134801533Y-113457066D01*
X134568200Y-112957066D01*
X134568200Y-113657066D01*
X134234866Y-113657066D02*
X134234866Y-113190400D01*
X134234866Y-112957066D02*
X134268200Y-112990400D01*
X134234866Y-113023733D01*
X134201533Y-112990400D01*
X134234866Y-112957066D01*
X134234866Y-113023733D01*
X133601533Y-113190400D02*
X133601533Y-113757066D01*
X133634866Y-113823733D01*
X133668200Y-113857066D01*
X133734866Y-113890400D01*
X133834866Y-113890400D01*
X133901533Y-113857066D01*
X133601533Y-113623733D02*
X133668200Y-113657066D01*
X133801533Y-113657066D01*
X133868200Y-113623733D01*
X133901533Y-113590400D01*
X133934866Y-113523733D01*
X133934866Y-113323733D01*
X133901533Y-113257066D01*
X133868200Y-113223733D01*
X133801533Y-113190400D01*
X133668200Y-113190400D01*
X133601533Y-113223733D01*
X132968200Y-113190400D02*
X132968200Y-113757066D01*
X133001533Y-113823733D01*
X133034866Y-113857066D01*
X133101533Y-113890400D01*
X133201533Y-113890400D01*
X133268200Y-113857066D01*
X132968200Y-113623733D02*
X133034866Y-113657066D01*
X133168200Y-113657066D01*
X133234866Y-113623733D01*
X133268200Y-113590400D01*
X133301533Y-113523733D01*
X133301533Y-113323733D01*
X133268200Y-113257066D01*
X133234866Y-113223733D01*
X133168200Y-113190400D01*
X133034866Y-113190400D01*
X132968200Y-113223733D01*
X132701533Y-113190400D02*
X132534866Y-113657066D01*
X132368200Y-113190400D02*
X132534866Y-113657066D01*
X132601533Y-113823733D01*
X132634866Y-113857066D01*
X132701533Y-113890400D01*
X132101533Y-113657066D02*
X132101533Y-112957066D01*
X131868200Y-113457066D01*
X131634866Y-112957066D01*
X131634866Y-113657066D01*
X131001533Y-113657066D02*
X131001533Y-113290400D01*
X131034866Y-113223733D01*
X131101533Y-113190400D01*
X131234866Y-113190400D01*
X131301533Y-113223733D01*
X131001533Y-113623733D02*
X131068200Y-113657066D01*
X131234866Y-113657066D01*
X131301533Y-113623733D01*
X131334866Y-113557066D01*
X131334866Y-113490400D01*
X131301533Y-113423733D01*
X131234866Y-113390400D01*
X131068200Y-113390400D01*
X131001533Y-113357066D01*
X130668200Y-113190400D02*
X130668200Y-113657066D01*
X130668200Y-113257066D02*
X130634866Y-113223733D01*
X130568200Y-113190400D01*
X130468200Y-113190400D01*
X130401533Y-113223733D01*
X130368200Y-113290400D01*
X130368200Y-113657066D01*
X130068200Y-112957066D02*
X130068200Y-113090400D01*
X129801533Y-112957066D02*
X129801533Y-113090400D01*
X129034866Y-112957066D02*
X128868200Y-113657066D01*
X128734866Y-113157066D01*
X128601533Y-113657066D01*
X128434866Y-112957066D01*
X128068200Y-113657066D02*
X128134866Y-113623733D01*
X128168200Y-113590400D01*
X128201533Y-113523733D01*
X128201533Y-113323733D01*
X128168200Y-113257066D01*
X128134866Y-113223733D01*
X128068200Y-113190400D01*
X127968200Y-113190400D01*
X127901533Y-113223733D01*
X127868200Y-113257066D01*
X127834866Y-113323733D01*
X127834866Y-113523733D01*
X127868200Y-113590400D01*
X127901533Y-113623733D01*
X127968200Y-113657066D01*
X128068200Y-113657066D01*
X127434866Y-113657066D02*
X127501533Y-113623733D01*
X127534866Y-113590400D01*
X127568200Y-113523733D01*
X127568200Y-113323733D01*
X127534866Y-113257066D01*
X127501533Y-113223733D01*
X127434866Y-113190400D01*
X127334866Y-113190400D01*
X127268200Y-113223733D01*
X127234866Y-113257066D01*
X127201533Y-113323733D01*
X127201533Y-113523733D01*
X127234866Y-113590400D01*
X127268200Y-113623733D01*
X127334866Y-113657066D01*
X127434866Y-113657066D01*
X126601533Y-113657066D02*
X126601533Y-112957066D01*
X126601533Y-113623733D02*
X126668200Y-113657066D01*
X126801533Y-113657066D01*
X126868200Y-113623733D01*
X126901533Y-113590400D01*
X126934866Y-113523733D01*
X126934866Y-113323733D01*
X126901533Y-113257066D01*
X126868200Y-113223733D01*
X126801533Y-113190400D01*
X126668200Y-113190400D01*
X126601533Y-113223733D01*
X126301533Y-113623733D02*
X126234866Y-113657066D01*
X126101533Y-113657066D01*
X126034866Y-113623733D01*
X126001533Y-113557066D01*
X126001533Y-113523733D01*
X126034866Y-113457066D01*
X126101533Y-113423733D01*
X126201533Y-113423733D01*
X126268200Y-113390400D01*
X126301533Y-113323733D01*
X126301533Y-113290400D01*
X126268200Y-113223733D01*
X126201533Y-113190400D01*
X126101533Y-113190400D01*
X126034866Y-113223733D01*
D11*
%TO.C,REF\u002A\u002A*%
G36*
X159004162Y-102990542D02*
G01*
X158993297Y-103104481D01*
X158961680Y-103212104D01*
X158910777Y-103311103D01*
X158842055Y-103399172D01*
X158756981Y-103474004D01*
X158659994Y-103531872D01*
X158553726Y-103571493D01*
X158446712Y-103590061D01*
X158341062Y-103588922D01*
X158238887Y-103569418D01*
X158142296Y-103532894D01*
X158053400Y-103480693D01*
X157974308Y-103414161D01*
X157907131Y-103334640D01*
X157853979Y-103243475D01*
X157816961Y-103142011D01*
X157798189Y-103031590D01*
X157796251Y-102981694D01*
X157796251Y-102893755D01*
X157744322Y-102893755D01*
X157708015Y-102896599D01*
X157681117Y-102908399D01*
X157654011Y-102932137D01*
X157615629Y-102970519D01*
X157615629Y-105162090D01*
X157615638Y-105424227D01*
X157615670Y-105664729D01*
X157615734Y-105884536D01*
X157615838Y-106084589D01*
X157615989Y-106265832D01*
X157616196Y-106429204D01*
X157616468Y-106575648D01*
X157616812Y-106706105D01*
X157617236Y-106821517D01*
X157617749Y-106922826D01*
X157618359Y-107010972D01*
X157619074Y-107086898D01*
X157619902Y-107151545D01*
X157620851Y-107205855D01*
X157621929Y-107250768D01*
X157623145Y-107287228D01*
X157624507Y-107316175D01*
X157626023Y-107338551D01*
X157627700Y-107355297D01*
X157629548Y-107367356D01*
X157631575Y-107375668D01*
X157633787Y-107381175D01*
X157634870Y-107383025D01*
X157639033Y-107390037D01*
X157642567Y-107396484D01*
X157646397Y-107402388D01*
X157651444Y-107407774D01*
X157658633Y-107412666D01*
X157668885Y-107417086D01*
X157683126Y-107421060D01*
X157702276Y-107424609D01*
X157727261Y-107427758D01*
X157759002Y-107430530D01*
X157798424Y-107432949D01*
X157846448Y-107435039D01*
X157903999Y-107436823D01*
X157971999Y-107438325D01*
X158051372Y-107439568D01*
X158143041Y-107440577D01*
X158247928Y-107441373D01*
X158366958Y-107441982D01*
X158501052Y-107442427D01*
X158651135Y-107442731D01*
X158818129Y-107442918D01*
X159002958Y-107443012D01*
X159206545Y-107443036D01*
X159429812Y-107443013D01*
X159673684Y-107442968D01*
X159939083Y-107442925D01*
X159977466Y-107442920D01*
X160244444Y-107442877D01*
X160489764Y-107442806D01*
X160714345Y-107442701D01*
X160919107Y-107442554D01*
X161104968Y-107442357D01*
X161272850Y-107442104D01*
X161423670Y-107441788D01*
X161558349Y-107441401D01*
X161677806Y-107440935D01*
X161782961Y-107440385D01*
X161874733Y-107439741D01*
X161954041Y-107438999D01*
X162021805Y-107438149D01*
X162078944Y-107437185D01*
X162126379Y-107436099D01*
X162165028Y-107434885D01*
X162195811Y-107433535D01*
X162219647Y-107432043D01*
X162237456Y-107430399D01*
X162250157Y-107428599D01*
X162258670Y-107426633D01*
X162263028Y-107424965D01*
X162271490Y-107421394D01*
X162279259Y-107418758D01*
X162286364Y-107416122D01*
X162292835Y-107412550D01*
X162298701Y-107407109D01*
X162303991Y-107398863D01*
X162308736Y-107386878D01*
X162312964Y-107370219D01*
X162316705Y-107347951D01*
X162319989Y-107319140D01*
X162322845Y-107282851D01*
X162325302Y-107238149D01*
X162327391Y-107184099D01*
X162329140Y-107119767D01*
X162330579Y-107044218D01*
X162331738Y-106956518D01*
X162332645Y-106855731D01*
X162333331Y-106740922D01*
X162333825Y-106611158D01*
X162334157Y-106465503D01*
X162334355Y-106303023D01*
X162334449Y-106122783D01*
X162334470Y-105923848D01*
X162334447Y-105705284D01*
X162334408Y-105466156D01*
X162334384Y-105205528D01*
X162334384Y-105163377D01*
X162334398Y-104900480D01*
X162334423Y-104659220D01*
X162334433Y-104438653D01*
X162334404Y-104237840D01*
X162334310Y-104055837D01*
X162334124Y-103891704D01*
X162333821Y-103744499D01*
X162333376Y-103613280D01*
X162332796Y-103503355D01*
X162029959Y-103503355D01*
X161990169Y-103561199D01*
X161978998Y-103576967D01*
X161968928Y-103590929D01*
X161959900Y-103604272D01*
X161951859Y-103618181D01*
X161944748Y-103633844D01*
X161938509Y-103652446D01*
X161933087Y-103675174D01*
X161928424Y-103703215D01*
X161924463Y-103737755D01*
X161921147Y-103779980D01*
X161918421Y-103831077D01*
X161916226Y-103892232D01*
X161914507Y-103964632D01*
X161913206Y-104049463D01*
X161912267Y-104147910D01*
X161911632Y-104261162D01*
X161911246Y-104390404D01*
X161911050Y-104536822D01*
X161910989Y-104701604D01*
X161911005Y-104885935D01*
X161911042Y-105091001D01*
X161911051Y-105213621D01*
X161911027Y-105430570D01*
X161910993Y-105626130D01*
X161911005Y-105801487D01*
X161911120Y-105957829D01*
X161911392Y-106096345D01*
X161911880Y-106218222D01*
X161912638Y-106324648D01*
X161913724Y-106416810D01*
X161915193Y-106495897D01*
X161917102Y-106563096D01*
X161919506Y-106619595D01*
X161922463Y-106666581D01*
X161926028Y-106705243D01*
X161930257Y-106736768D01*
X161935208Y-106762343D01*
X161940935Y-106783158D01*
X161947495Y-106800399D01*
X161954945Y-106815253D01*
X161963341Y-106828910D01*
X161972738Y-106842557D01*
X161983194Y-106857381D01*
X161989285Y-106866271D01*
X162028058Y-106923888D01*
X161496494Y-106923888D01*
X161373245Y-106923853D01*
X161270749Y-106923703D01*
X161187182Y-106923366D01*
X161120718Y-106922774D01*
X161069533Y-106921855D01*
X161031803Y-106920539D01*
X161005702Y-106918757D01*
X160989406Y-106916439D01*
X160981090Y-106913514D01*
X160978930Y-106909912D01*
X160981101Y-106905563D01*
X160982297Y-106904133D01*
X161007447Y-106867061D01*
X161033345Y-106814260D01*
X161056954Y-106752258D01*
X161065223Y-106725845D01*
X161069840Y-106707904D01*
X161073741Y-106686843D01*
X161077010Y-106660577D01*
X161079728Y-106627020D01*
X161081977Y-106584087D01*
X161083839Y-106529692D01*
X161085398Y-106461750D01*
X161086734Y-106378176D01*
X161087931Y-106276883D01*
X161089070Y-106155788D01*
X161089447Y-106111088D01*
X161090464Y-105985937D01*
X161091222Y-105881570D01*
X161091665Y-105796195D01*
X161091732Y-105728021D01*
X161091367Y-105675253D01*
X161090510Y-105636102D01*
X161089103Y-105608773D01*
X161087087Y-105591474D01*
X161084405Y-105582414D01*
X161080998Y-105579800D01*
X161076806Y-105581839D01*
X161072333Y-105586155D01*
X161061978Y-105599090D01*
X161039920Y-105628164D01*
X161007719Y-105671247D01*
X160966936Y-105726206D01*
X160919132Y-105790911D01*
X160865867Y-105863230D01*
X160808702Y-105941032D01*
X160749199Y-106022186D01*
X160688917Y-106104560D01*
X160629417Y-106186024D01*
X160572260Y-106264445D01*
X160519007Y-106337692D01*
X160471219Y-106403635D01*
X160430455Y-106460142D01*
X160398278Y-106505081D01*
X160376247Y-106536322D01*
X160371679Y-106542954D01*
X160348758Y-106579857D01*
X160321950Y-106627847D01*
X160296551Y-106677385D01*
X160293330Y-106684065D01*
X160271652Y-106732260D01*
X160259066Y-106769822D01*
X160253336Y-106805648D01*
X160252218Y-106847688D01*
X160252852Y-106923888D01*
X159098413Y-106923888D01*
X159189577Y-106830157D01*
X159236374Y-106780263D01*
X159286661Y-106723783D01*
X159332706Y-106669514D01*
X159353131Y-106644161D01*
X159383569Y-106604616D01*
X159423624Y-106551404D01*
X159472123Y-106486155D01*
X159527897Y-106410499D01*
X159589773Y-106326065D01*
X159656581Y-106234482D01*
X159727149Y-106137380D01*
X159800307Y-106036389D01*
X159874883Y-105933138D01*
X159949706Y-105829256D01*
X160023605Y-105726373D01*
X160095408Y-105626119D01*
X160163946Y-105530124D01*
X160228046Y-105440015D01*
X160286537Y-105357424D01*
X160338248Y-105283980D01*
X160382009Y-105221312D01*
X160416647Y-105171049D01*
X160440992Y-105134822D01*
X160453873Y-105114259D01*
X160455631Y-105110156D01*
X160447672Y-105098830D01*
X160426877Y-105071650D01*
X160394609Y-105030317D01*
X160352232Y-104976532D01*
X160301109Y-104911994D01*
X160242603Y-104838406D01*
X160178076Y-104757466D01*
X160108893Y-104670876D01*
X160036415Y-104580336D01*
X159962008Y-104487548D01*
X159902279Y-104413190D01*
X158891273Y-104413190D01*
X158885364Y-104426147D01*
X158871034Y-104448396D01*
X158869987Y-104449879D01*
X158851200Y-104480032D01*
X158831553Y-104516863D01*
X158827654Y-104524999D01*
X158824118Y-104533428D01*
X158820992Y-104543547D01*
X158818248Y-104556748D01*
X158815854Y-104574426D01*
X158813781Y-104597972D01*
X158811997Y-104628781D01*
X158810474Y-104668245D01*
X158809181Y-104717757D01*
X158808088Y-104778711D01*
X158807165Y-104852499D01*
X158806381Y-104940516D01*
X158805707Y-105044153D01*
X158805112Y-105164804D01*
X158804567Y-105303862D01*
X158804041Y-105462720D01*
X158803507Y-105641577D01*
X158802968Y-105826695D01*
X158802534Y-105990633D01*
X158802271Y-106134791D01*
X158802246Y-106260567D01*
X158802527Y-106369359D01*
X158803181Y-106462565D01*
X158804276Y-106541585D01*
X158805880Y-106607816D01*
X158808059Y-106662658D01*
X158810881Y-106707509D01*
X158814413Y-106743766D01*
X158818723Y-106772829D01*
X158823879Y-106796097D01*
X158829947Y-106814967D01*
X158836995Y-106830839D01*
X158845091Y-106845110D01*
X158854302Y-106859179D01*
X158862802Y-106871646D01*
X158879938Y-106897940D01*
X158890084Y-106915525D01*
X158891273Y-106918745D01*
X158880366Y-106919822D01*
X158849173Y-106920823D01*
X158799985Y-106921723D01*
X158735095Y-106922498D01*
X158656792Y-106923125D01*
X158567369Y-106923579D01*
X158469118Y-106923837D01*
X158400207Y-106923888D01*
X158295214Y-106923668D01*
X158198372Y-106923036D01*
X158111869Y-106922037D01*
X158037894Y-106920715D01*
X157978636Y-106919114D01*
X157936282Y-106917279D01*
X157913022Y-106915253D01*
X157909140Y-106913981D01*
X157916838Y-106899079D01*
X157924836Y-106891048D01*
X157938008Y-106873922D01*
X157955247Y-106843671D01*
X157967169Y-106819110D01*
X157993807Y-106760199D01*
X157996882Y-105583333D01*
X157999957Y-104406466D01*
X158445615Y-104406466D01*
X158543432Y-104406630D01*
X158633826Y-104407099D01*
X158714392Y-104407835D01*
X158782724Y-104408804D01*
X158836418Y-104409968D01*
X158873067Y-104411291D01*
X158890266Y-104412737D01*
X158891273Y-104413190D01*
X159902279Y-104413190D01*
X159887032Y-104394210D01*
X159812852Y-104302025D01*
X159740831Y-104212692D01*
X159672331Y-104127912D01*
X159608717Y-104049386D01*
X159551350Y-103978814D01*
X159501595Y-103917897D01*
X159460814Y-103868335D01*
X159443650Y-103847666D01*
X159357358Y-103747004D01*
X159280759Y-103663747D01*
X159211945Y-103595926D01*
X159149010Y-103541577D01*
X159139629Y-103534210D01*
X159100118Y-103503605D01*
X160231878Y-103503355D01*
X160226589Y-103551332D01*
X160229892Y-103608676D01*
X160251423Y-103676951D01*
X160291397Y-103756700D01*
X160336705Y-103828983D01*
X160352923Y-103851628D01*
X160380976Y-103889184D01*
X160419192Y-103939509D01*
X160465899Y-104000461D01*
X160519423Y-104069899D01*
X160578093Y-104145682D01*
X160640237Y-104225668D01*
X160704183Y-104307716D01*
X160768257Y-104389684D01*
X160830789Y-104469431D01*
X160890105Y-104544815D01*
X160944533Y-104613695D01*
X160992401Y-104673930D01*
X161032037Y-104723377D01*
X161061768Y-104759896D01*
X161079923Y-104781346D01*
X161082982Y-104784644D01*
X161085841Y-104776637D01*
X161088055Y-104746343D01*
X161089619Y-104694044D01*
X161090529Y-104620019D01*
X161090782Y-104524551D01*
X161090375Y-104407922D01*
X161089466Y-104287933D01*
X161088144Y-104155821D01*
X161086619Y-104044082D01*
X161084643Y-103950513D01*
X161081968Y-103872907D01*
X161078344Y-103809062D01*
X161073523Y-103756771D01*
X161067256Y-103713832D01*
X161059294Y-103678039D01*
X161049389Y-103647188D01*
X161037293Y-103619074D01*
X161022755Y-103591493D01*
X161008073Y-103566454D01*
X160970076Y-103503355D01*
X162029959Y-103503355D01*
X162332796Y-103503355D01*
X162332763Y-103497105D01*
X162331957Y-103395032D01*
X162330932Y-103306121D01*
X162329662Y-103229429D01*
X162328122Y-103164015D01*
X162326286Y-103108937D01*
X162324129Y-103063253D01*
X162321625Y-103026022D01*
X162318749Y-102996301D01*
X162315475Y-102973150D01*
X162311777Y-102955627D01*
X162307631Y-102942789D01*
X162303009Y-102933696D01*
X162297888Y-102927406D01*
X162292240Y-102922976D01*
X162286041Y-102919466D01*
X162279266Y-102915933D01*
X162273270Y-102912364D01*
X162268037Y-102909788D01*
X162259861Y-102907460D01*
X162247648Y-102905366D01*
X162230303Y-102903495D01*
X162206731Y-102901835D01*
X162175839Y-102900372D01*
X162136530Y-102899096D01*
X162087712Y-102897992D01*
X162028289Y-102897049D01*
X161957166Y-102896255D01*
X161873250Y-102895597D01*
X161775445Y-102895063D01*
X161662656Y-102894641D01*
X161533791Y-102894317D01*
X161387753Y-102894080D01*
X161223448Y-102893918D01*
X161039782Y-102893818D01*
X160835659Y-102893768D01*
X160624515Y-102893755D01*
X159004162Y-102893755D01*
X159004162Y-102990542D01*
G37*
X159004162Y-102990542D02*
X158993297Y-103104481D01*
X158961680Y-103212104D01*
X158910777Y-103311103D01*
X158842055Y-103399172D01*
X158756981Y-103474004D01*
X158659994Y-103531872D01*
X158553726Y-103571493D01*
X158446712Y-103590061D01*
X158341062Y-103588922D01*
X158238887Y-103569418D01*
X158142296Y-103532894D01*
X158053400Y-103480693D01*
X157974308Y-103414161D01*
X157907131Y-103334640D01*
X157853979Y-103243475D01*
X157816961Y-103142011D01*
X157798189Y-103031590D01*
X157796251Y-102981694D01*
X157796251Y-102893755D01*
X157744322Y-102893755D01*
X157708015Y-102896599D01*
X157681117Y-102908399D01*
X157654011Y-102932137D01*
X157615629Y-102970519D01*
X157615629Y-105162090D01*
X157615638Y-105424227D01*
X157615670Y-105664729D01*
X157615734Y-105884536D01*
X157615838Y-106084589D01*
X157615989Y-106265832D01*
X157616196Y-106429204D01*
X157616468Y-106575648D01*
X157616812Y-106706105D01*
X157617236Y-106821517D01*
X157617749Y-106922826D01*
X157618359Y-107010972D01*
X157619074Y-107086898D01*
X157619902Y-107151545D01*
X157620851Y-107205855D01*
X157621929Y-107250768D01*
X157623145Y-107287228D01*
X157624507Y-107316175D01*
X157626023Y-107338551D01*
X157627700Y-107355297D01*
X157629548Y-107367356D01*
X157631575Y-107375668D01*
X157633787Y-107381175D01*
X157634870Y-107383025D01*
X157639033Y-107390037D01*
X157642567Y-107396484D01*
X157646397Y-107402388D01*
X157651444Y-107407774D01*
X157658633Y-107412666D01*
X157668885Y-107417086D01*
X157683126Y-107421060D01*
X157702276Y-107424609D01*
X157727261Y-107427758D01*
X157759002Y-107430530D01*
X157798424Y-107432949D01*
X157846448Y-107435039D01*
X157903999Y-107436823D01*
X157971999Y-107438325D01*
X158051372Y-107439568D01*
X158143041Y-107440577D01*
X158247928Y-107441373D01*
X158366958Y-107441982D01*
X158501052Y-107442427D01*
X158651135Y-107442731D01*
X158818129Y-107442918D01*
X159002958Y-107443012D01*
X159206545Y-107443036D01*
X159429812Y-107443013D01*
X159673684Y-107442968D01*
X159939083Y-107442925D01*
X159977466Y-107442920D01*
X160244444Y-107442877D01*
X160489764Y-107442806D01*
X160714345Y-107442701D01*
X160919107Y-107442554D01*
X161104968Y-107442357D01*
X161272850Y-107442104D01*
X161423670Y-107441788D01*
X161558349Y-107441401D01*
X161677806Y-107440935D01*
X161782961Y-107440385D01*
X161874733Y-107439741D01*
X161954041Y-107438999D01*
X162021805Y-107438149D01*
X162078944Y-107437185D01*
X162126379Y-107436099D01*
X162165028Y-107434885D01*
X162195811Y-107433535D01*
X162219647Y-107432043D01*
X162237456Y-107430399D01*
X162250157Y-107428599D01*
X162258670Y-107426633D01*
X162263028Y-107424965D01*
X162271490Y-107421394D01*
X162279259Y-107418758D01*
X162286364Y-107416122D01*
X162292835Y-107412550D01*
X162298701Y-107407109D01*
X162303991Y-107398863D01*
X162308736Y-107386878D01*
X162312964Y-107370219D01*
X162316705Y-107347951D01*
X162319989Y-107319140D01*
X162322845Y-107282851D01*
X162325302Y-107238149D01*
X162327391Y-107184099D01*
X162329140Y-107119767D01*
X162330579Y-107044218D01*
X162331738Y-106956518D01*
X162332645Y-106855731D01*
X162333331Y-106740922D01*
X162333825Y-106611158D01*
X162334157Y-106465503D01*
X162334355Y-106303023D01*
X162334449Y-106122783D01*
X162334470Y-105923848D01*
X162334447Y-105705284D01*
X162334408Y-105466156D01*
X162334384Y-105205528D01*
X162334384Y-105163377D01*
X162334398Y-104900480D01*
X162334423Y-104659220D01*
X162334433Y-104438653D01*
X162334404Y-104237840D01*
X162334310Y-104055837D01*
X162334124Y-103891704D01*
X162333821Y-103744499D01*
X162333376Y-103613280D01*
X162332796Y-103503355D01*
X162029959Y-103503355D01*
X161990169Y-103561199D01*
X161978998Y-103576967D01*
X161968928Y-103590929D01*
X161959900Y-103604272D01*
X161951859Y-103618181D01*
X161944748Y-103633844D01*
X161938509Y-103652446D01*
X161933087Y-103675174D01*
X161928424Y-103703215D01*
X161924463Y-103737755D01*
X161921147Y-103779980D01*
X161918421Y-103831077D01*
X161916226Y-103892232D01*
X161914507Y-103964632D01*
X161913206Y-104049463D01*
X161912267Y-104147910D01*
X161911632Y-104261162D01*
X161911246Y-104390404D01*
X161911050Y-104536822D01*
X161910989Y-104701604D01*
X161911005Y-104885935D01*
X161911042Y-105091001D01*
X161911051Y-105213621D01*
X161911027Y-105430570D01*
X161910993Y-105626130D01*
X161911005Y-105801487D01*
X161911120Y-105957829D01*
X161911392Y-106096345D01*
X161911880Y-106218222D01*
X161912638Y-106324648D01*
X161913724Y-106416810D01*
X161915193Y-106495897D01*
X161917102Y-106563096D01*
X161919506Y-106619595D01*
X161922463Y-106666581D01*
X161926028Y-106705243D01*
X161930257Y-106736768D01*
X161935208Y-106762343D01*
X161940935Y-106783158D01*
X161947495Y-106800399D01*
X161954945Y-106815253D01*
X161963341Y-106828910D01*
X161972738Y-106842557D01*
X161983194Y-106857381D01*
X161989285Y-106866271D01*
X162028058Y-106923888D01*
X161496494Y-106923888D01*
X161373245Y-106923853D01*
X161270749Y-106923703D01*
X161187182Y-106923366D01*
X161120718Y-106922774D01*
X161069533Y-106921855D01*
X161031803Y-106920539D01*
X161005702Y-106918757D01*
X160989406Y-106916439D01*
X160981090Y-106913514D01*
X160978930Y-106909912D01*
X160981101Y-106905563D01*
X160982297Y-106904133D01*
X161007447Y-106867061D01*
X161033345Y-106814260D01*
X161056954Y-106752258D01*
X161065223Y-106725845D01*
X161069840Y-106707904D01*
X161073741Y-106686843D01*
X161077010Y-106660577D01*
X161079728Y-106627020D01*
X161081977Y-106584087D01*
X161083839Y-106529692D01*
X161085398Y-106461750D01*
X161086734Y-106378176D01*
X161087931Y-106276883D01*
X161089070Y-106155788D01*
X161089447Y-106111088D01*
X161090464Y-105985937D01*
X161091222Y-105881570D01*
X161091665Y-105796195D01*
X161091732Y-105728021D01*
X161091367Y-105675253D01*
X161090510Y-105636102D01*
X161089103Y-105608773D01*
X161087087Y-105591474D01*
X161084405Y-105582414D01*
X161080998Y-105579800D01*
X161076806Y-105581839D01*
X161072333Y-105586155D01*
X161061978Y-105599090D01*
X161039920Y-105628164D01*
X161007719Y-105671247D01*
X160966936Y-105726206D01*
X160919132Y-105790911D01*
X160865867Y-105863230D01*
X160808702Y-105941032D01*
X160749199Y-106022186D01*
X160688917Y-106104560D01*
X160629417Y-106186024D01*
X160572260Y-106264445D01*
X160519007Y-106337692D01*
X160471219Y-106403635D01*
X160430455Y-106460142D01*
X160398278Y-106505081D01*
X160376247Y-106536322D01*
X160371679Y-106542954D01*
X160348758Y-106579857D01*
X160321950Y-106627847D01*
X160296551Y-106677385D01*
X160293330Y-106684065D01*
X160271652Y-106732260D01*
X160259066Y-106769822D01*
X160253336Y-106805648D01*
X160252218Y-106847688D01*
X160252852Y-106923888D01*
X159098413Y-106923888D01*
X159189577Y-106830157D01*
X159236374Y-106780263D01*
X159286661Y-106723783D01*
X159332706Y-106669514D01*
X159353131Y-106644161D01*
X159383569Y-106604616D01*
X159423624Y-106551404D01*
X159472123Y-106486155D01*
X159527897Y-106410499D01*
X159589773Y-106326065D01*
X159656581Y-106234482D01*
X159727149Y-106137380D01*
X159800307Y-106036389D01*
X159874883Y-105933138D01*
X159949706Y-105829256D01*
X160023605Y-105726373D01*
X160095408Y-105626119D01*
X160163946Y-105530124D01*
X160228046Y-105440015D01*
X160286537Y-105357424D01*
X160338248Y-105283980D01*
X160382009Y-105221312D01*
X160416647Y-105171049D01*
X160440992Y-105134822D01*
X160453873Y-105114259D01*
X160455631Y-105110156D01*
X160447672Y-105098830D01*
X160426877Y-105071650D01*
X160394609Y-105030317D01*
X160352232Y-104976532D01*
X160301109Y-104911994D01*
X160242603Y-104838406D01*
X160178076Y-104757466D01*
X160108893Y-104670876D01*
X160036415Y-104580336D01*
X159962008Y-104487548D01*
X159902279Y-104413190D01*
X158891273Y-104413190D01*
X158885364Y-104426147D01*
X158871034Y-104448396D01*
X158869987Y-104449879D01*
X158851200Y-104480032D01*
X158831553Y-104516863D01*
X158827654Y-104524999D01*
X158824118Y-104533428D01*
X158820992Y-104543547D01*
X158818248Y-104556748D01*
X158815854Y-104574426D01*
X158813781Y-104597972D01*
X158811997Y-104628781D01*
X158810474Y-104668245D01*
X158809181Y-104717757D01*
X158808088Y-104778711D01*
X158807165Y-104852499D01*
X158806381Y-104940516D01*
X158805707Y-105044153D01*
X158805112Y-105164804D01*
X158804567Y-105303862D01*
X158804041Y-105462720D01*
X158803507Y-105641577D01*
X158802968Y-105826695D01*
X158802534Y-105990633D01*
X158802271Y-106134791D01*
X158802246Y-106260567D01*
X158802527Y-106369359D01*
X158803181Y-106462565D01*
X158804276Y-106541585D01*
X158805880Y-106607816D01*
X158808059Y-106662658D01*
X158810881Y-106707509D01*
X158814413Y-106743766D01*
X158818723Y-106772829D01*
X158823879Y-106796097D01*
X158829947Y-106814967D01*
X158836995Y-106830839D01*
X158845091Y-106845110D01*
X158854302Y-106859179D01*
X158862802Y-106871646D01*
X158879938Y-106897940D01*
X158890084Y-106915525D01*
X158891273Y-106918745D01*
X158880366Y-106919822D01*
X158849173Y-106920823D01*
X158799985Y-106921723D01*
X158735095Y-106922498D01*
X158656792Y-106923125D01*
X158567369Y-106923579D01*
X158469118Y-106923837D01*
X158400207Y-106923888D01*
X158295214Y-106923668D01*
X158198372Y-106923036D01*
X158111869Y-106922037D01*
X158037894Y-106920715D01*
X157978636Y-106919114D01*
X157936282Y-106917279D01*
X157913022Y-106915253D01*
X157909140Y-106913981D01*
X157916838Y-106899079D01*
X157924836Y-106891048D01*
X157938008Y-106873922D01*
X157955247Y-106843671D01*
X157967169Y-106819110D01*
X157993807Y-106760199D01*
X157996882Y-105583333D01*
X157999957Y-104406466D01*
X158445615Y-104406466D01*
X158543432Y-104406630D01*
X158633826Y-104407099D01*
X158714392Y-104407835D01*
X158782724Y-104408804D01*
X158836418Y-104409968D01*
X158873067Y-104411291D01*
X158890266Y-104412737D01*
X158891273Y-104413190D01*
X159902279Y-104413190D01*
X159887032Y-104394210D01*
X159812852Y-104302025D01*
X159740831Y-104212692D01*
X159672331Y-104127912D01*
X159608717Y-104049386D01*
X159551350Y-103978814D01*
X159501595Y-103917897D01*
X159460814Y-103868335D01*
X159443650Y-103847666D01*
X159357358Y-103747004D01*
X159280759Y-103663747D01*
X159211945Y-103595926D01*
X159149010Y-103541577D01*
X159139629Y-103534210D01*
X159100118Y-103503605D01*
X160231878Y-103503355D01*
X160226589Y-103551332D01*
X160229892Y-103608676D01*
X160251423Y-103676951D01*
X160291397Y-103756700D01*
X160336705Y-103828983D01*
X160352923Y-103851628D01*
X160380976Y-103889184D01*
X160419192Y-103939509D01*
X160465899Y-104000461D01*
X160519423Y-104069899D01*
X160578093Y-104145682D01*
X160640237Y-104225668D01*
X160704183Y-104307716D01*
X160768257Y-104389684D01*
X160830789Y-104469431D01*
X160890105Y-104544815D01*
X160944533Y-104613695D01*
X160992401Y-104673930D01*
X161032037Y-104723377D01*
X161061768Y-104759896D01*
X161079923Y-104781346D01*
X161082982Y-104784644D01*
X161085841Y-104776637D01*
X161088055Y-104746343D01*
X161089619Y-104694044D01*
X161090529Y-104620019D01*
X161090782Y-104524551D01*
X161090375Y-104407922D01*
X161089466Y-104287933D01*
X161088144Y-104155821D01*
X161086619Y-104044082D01*
X161084643Y-103950513D01*
X161081968Y-103872907D01*
X161078344Y-103809062D01*
X161073523Y-103756771D01*
X161067256Y-103713832D01*
X161059294Y-103678039D01*
X161049389Y-103647188D01*
X161037293Y-103619074D01*
X161022755Y-103591493D01*
X161008073Y-103566454D01*
X160970076Y-103503355D01*
X162029959Y-103503355D01*
X162332796Y-103503355D01*
X162332763Y-103497105D01*
X162331957Y-103395032D01*
X162330932Y-103306121D01*
X162329662Y-103229429D01*
X162328122Y-103164015D01*
X162326286Y-103108937D01*
X162324129Y-103063253D01*
X162321625Y-103026022D01*
X162318749Y-102996301D01*
X162315475Y-102973150D01*
X162311777Y-102955627D01*
X162307631Y-102942789D01*
X162303009Y-102933696D01*
X162297888Y-102927406D01*
X162292240Y-102922976D01*
X162286041Y-102919466D01*
X162279266Y-102915933D01*
X162273270Y-102912364D01*
X162268037Y-102909788D01*
X162259861Y-102907460D01*
X162247648Y-102905366D01*
X162230303Y-102903495D01*
X162206731Y-102901835D01*
X162175839Y-102900372D01*
X162136530Y-102899096D01*
X162087712Y-102897992D01*
X162028289Y-102897049D01*
X161957166Y-102896255D01*
X161873250Y-102895597D01*
X161775445Y-102895063D01*
X161662656Y-102894641D01*
X161533791Y-102894317D01*
X161387753Y-102894080D01*
X161223448Y-102893918D01*
X161039782Y-102893818D01*
X160835659Y-102893768D01*
X160624515Y-102893755D01*
X159004162Y-102893755D01*
X159004162Y-102990542D01*
G36*
X155729333Y-103450559D02*
G01*
X155569192Y-103471733D01*
X155405252Y-103511873D01*
X155235449Y-103571377D01*
X155057719Y-103650642D01*
X155046452Y-103656187D01*
X154988757Y-103684213D01*
X154937210Y-103708290D01*
X154895571Y-103726737D01*
X154867600Y-103737874D01*
X154858029Y-103740421D01*
X154838812Y-103745429D01*
X154834201Y-103749635D01*
X154839304Y-103760068D01*
X154855344Y-103786356D01*
X154880474Y-103825745D01*
X154912848Y-103875479D01*
X154950619Y-103932803D01*
X154991940Y-103994964D01*
X155034964Y-104059206D01*
X155077845Y-104122773D01*
X155118736Y-104182913D01*
X155155791Y-104236868D01*
X155187162Y-104281885D01*
X155211003Y-104315209D01*
X155225468Y-104334085D01*
X155227453Y-104336275D01*
X155237571Y-104331626D01*
X155259912Y-104314450D01*
X155290482Y-104287928D01*
X155306226Y-104273452D01*
X155402715Y-104198170D01*
X155509426Y-104142729D01*
X155624930Y-104107629D01*
X155747800Y-104093368D01*
X155817201Y-104094539D01*
X155938339Y-104111700D01*
X156047557Y-104147582D01*
X156145180Y-104202447D01*
X156231534Y-104276558D01*
X156306947Y-104370176D01*
X156371744Y-104483564D01*
X156409161Y-104570155D01*
X156453014Y-104705854D01*
X156485334Y-104853338D01*
X156506205Y-105008802D01*
X156515711Y-105168444D01*
X156513935Y-105328461D01*
X156500959Y-105485049D01*
X156476868Y-105634406D01*
X156441744Y-105772728D01*
X156395670Y-105896212D01*
X156379389Y-105930466D01*
X156311142Y-106044552D01*
X156230683Y-106141045D01*
X156139192Y-106219158D01*
X156037851Y-106278105D01*
X155927842Y-106317100D01*
X155810347Y-106335356D01*
X155768879Y-106336699D01*
X155647321Y-106325778D01*
X155526884Y-106292962D01*
X155409096Y-106238927D01*
X155295485Y-106164353D01*
X155204077Y-106086027D01*
X155157547Y-106041496D01*
X154976279Y-106338759D01*
X154931182Y-106412921D01*
X154889943Y-106481134D01*
X154854027Y-106540947D01*
X154824896Y-106589908D01*
X154804012Y-106625567D01*
X154792838Y-106645472D01*
X154791387Y-106648567D01*
X154799616Y-106658206D01*
X154825195Y-106675487D01*
X154864889Y-106698771D01*
X154915465Y-106726422D01*
X154973688Y-106756803D01*
X155036325Y-106788278D01*
X155100141Y-106819210D01*
X155161902Y-106847961D01*
X155218374Y-106872896D01*
X155266324Y-106892377D01*
X155289776Y-106900806D01*
X155423541Y-106938621D01*
X155561435Y-106963624D01*
X155709140Y-106976628D01*
X155835929Y-106978956D01*
X155903884Y-106977861D01*
X155969485Y-106975763D01*
X156026915Y-106972922D01*
X156070359Y-106969594D01*
X156084464Y-106967910D01*
X156223478Y-106939075D01*
X156365005Y-106893956D01*
X156502487Y-106835238D01*
X156629368Y-106765608D01*
X156706873Y-106712929D01*
X156834281Y-106604727D01*
X156952584Y-106478159D01*
X157059590Y-106336354D01*
X157153110Y-106182439D01*
X157230952Y-106019541D01*
X157274806Y-105902244D01*
X157325054Y-105718616D01*
X157358553Y-105524069D01*
X157375313Y-105322813D01*
X157375346Y-105119056D01*
X157358661Y-104917009D01*
X157325269Y-104720880D01*
X157275182Y-104534879D01*
X157271365Y-104523291D01*
X157208481Y-104361238D01*
X157131734Y-104213320D01*
X157038520Y-104075353D01*
X156926235Y-103943149D01*
X156882370Y-103897887D01*
X156746228Y-103773945D01*
X156606271Y-103671403D01*
X156460351Y-103589144D01*
X156306320Y-103526052D01*
X156142030Y-103481011D01*
X156046473Y-103463521D01*
X155887739Y-103447954D01*
X155729333Y-103450559D01*
G37*
X155729333Y-103450559D02*
X155569192Y-103471733D01*
X155405252Y-103511873D01*
X155235449Y-103571377D01*
X155057719Y-103650642D01*
X155046452Y-103656187D01*
X154988757Y-103684213D01*
X154937210Y-103708290D01*
X154895571Y-103726737D01*
X154867600Y-103737874D01*
X154858029Y-103740421D01*
X154838812Y-103745429D01*
X154834201Y-103749635D01*
X154839304Y-103760068D01*
X154855344Y-103786356D01*
X154880474Y-103825745D01*
X154912848Y-103875479D01*
X154950619Y-103932803D01*
X154991940Y-103994964D01*
X155034964Y-104059206D01*
X155077845Y-104122773D01*
X155118736Y-104182913D01*
X155155791Y-104236868D01*
X155187162Y-104281885D01*
X155211003Y-104315209D01*
X155225468Y-104334085D01*
X155227453Y-104336275D01*
X155237571Y-104331626D01*
X155259912Y-104314450D01*
X155290482Y-104287928D01*
X155306226Y-104273452D01*
X155402715Y-104198170D01*
X155509426Y-104142729D01*
X155624930Y-104107629D01*
X155747800Y-104093368D01*
X155817201Y-104094539D01*
X155938339Y-104111700D01*
X156047557Y-104147582D01*
X156145180Y-104202447D01*
X156231534Y-104276558D01*
X156306947Y-104370176D01*
X156371744Y-104483564D01*
X156409161Y-104570155D01*
X156453014Y-104705854D01*
X156485334Y-104853338D01*
X156506205Y-105008802D01*
X156515711Y-105168444D01*
X156513935Y-105328461D01*
X156500959Y-105485049D01*
X156476868Y-105634406D01*
X156441744Y-105772728D01*
X156395670Y-105896212D01*
X156379389Y-105930466D01*
X156311142Y-106044552D01*
X156230683Y-106141045D01*
X156139192Y-106219158D01*
X156037851Y-106278105D01*
X155927842Y-106317100D01*
X155810347Y-106335356D01*
X155768879Y-106336699D01*
X155647321Y-106325778D01*
X155526884Y-106292962D01*
X155409096Y-106238927D01*
X155295485Y-106164353D01*
X155204077Y-106086027D01*
X155157547Y-106041496D01*
X154976279Y-106338759D01*
X154931182Y-106412921D01*
X154889943Y-106481134D01*
X154854027Y-106540947D01*
X154824896Y-106589908D01*
X154804012Y-106625567D01*
X154792838Y-106645472D01*
X154791387Y-106648567D01*
X154799616Y-106658206D01*
X154825195Y-106675487D01*
X154864889Y-106698771D01*
X154915465Y-106726422D01*
X154973688Y-106756803D01*
X155036325Y-106788278D01*
X155100141Y-106819210D01*
X155161902Y-106847961D01*
X155218374Y-106872896D01*
X155266324Y-106892377D01*
X155289776Y-106900806D01*
X155423541Y-106938621D01*
X155561435Y-106963624D01*
X155709140Y-106976628D01*
X155835929Y-106978956D01*
X155903884Y-106977861D01*
X155969485Y-106975763D01*
X156026915Y-106972922D01*
X156070359Y-106969594D01*
X156084464Y-106967910D01*
X156223478Y-106939075D01*
X156365005Y-106893956D01*
X156502487Y-106835238D01*
X156629368Y-106765608D01*
X156706873Y-106712929D01*
X156834281Y-106604727D01*
X156952584Y-106478159D01*
X157059590Y-106336354D01*
X157153110Y-106182439D01*
X157230952Y-106019541D01*
X157274806Y-105902244D01*
X157325054Y-105718616D01*
X157358553Y-105524069D01*
X157375313Y-105322813D01*
X157375346Y-105119056D01*
X157358661Y-104917009D01*
X157325269Y-104720880D01*
X157275182Y-104534879D01*
X157271365Y-104523291D01*
X157208481Y-104361238D01*
X157131734Y-104213320D01*
X157038520Y-104075353D01*
X156926235Y-103943149D01*
X156882370Y-103897887D01*
X156746228Y-103773945D01*
X156606271Y-103671403D01*
X156460351Y-103589144D01*
X156306320Y-103526052D01*
X156142030Y-103481011D01*
X156046473Y-103463521D01*
X155887739Y-103447954D01*
X155729333Y-103450559D01*
G36*
X153384188Y-104368040D02*
G01*
X153232270Y-104388055D01*
X153097006Y-104421690D01*
X152977523Y-104469213D01*
X152872947Y-104530893D01*
X152795338Y-104594453D01*
X152726497Y-104668587D01*
X152672756Y-104748359D01*
X152629852Y-104840579D01*
X152614378Y-104883649D01*
X152601518Y-104922630D01*
X152590316Y-104958777D01*
X152580642Y-104993922D01*
X152572366Y-105029898D01*
X152565359Y-105068538D01*
X152559490Y-105111673D01*
X152554631Y-105161137D01*
X152550652Y-105218761D01*
X152547422Y-105286379D01*
X152544813Y-105365822D01*
X152542695Y-105458924D01*
X152540938Y-105567515D01*
X152539413Y-105693430D01*
X152537990Y-105838500D01*
X152536737Y-105981266D01*
X152535411Y-106137456D01*
X152534206Y-106272727D01*
X152532996Y-106388734D01*
X152531656Y-106487133D01*
X152530062Y-106569581D01*
X152528087Y-106637734D01*
X152525606Y-106693248D01*
X152522493Y-106737780D01*
X152518624Y-106772986D01*
X152513873Y-106800522D01*
X152508114Y-106822044D01*
X152501223Y-106839210D01*
X152493073Y-106853674D01*
X152483539Y-106867094D01*
X152472496Y-106881126D01*
X152468196Y-106886559D01*
X152452376Y-106909398D01*
X152445340Y-106924951D01*
X152445318Y-106925410D01*
X152456195Y-106927609D01*
X152487180Y-106929635D01*
X152535805Y-106931430D01*
X152599599Y-106932939D01*
X152676093Y-106934104D01*
X152762818Y-106934868D01*
X152857305Y-106935174D01*
X152868212Y-106935177D01*
X153291105Y-106935177D01*
X153294367Y-106839110D01*
X153297629Y-106743044D01*
X153359718Y-106794031D01*
X153457048Y-106861545D01*
X153566949Y-106916237D01*
X153653413Y-106946466D01*
X153722484Y-106961154D01*
X153805837Y-106971147D01*
X153895603Y-106976134D01*
X153983917Y-106975801D01*
X154062911Y-106969839D01*
X154099140Y-106964126D01*
X154239159Y-106926264D01*
X154365584Y-106871420D01*
X154477502Y-106800412D01*
X154574000Y-106714056D01*
X154654162Y-106613167D01*
X154717075Y-106498564D01*
X154761450Y-106372472D01*
X154773784Y-106315889D01*
X154781394Y-106253690D01*
X154785023Y-106178851D01*
X154785517Y-106144955D01*
X154785452Y-106141770D01*
X154025514Y-106141770D01*
X154016221Y-106216821D01*
X153988034Y-106280648D01*
X153939565Y-106336286D01*
X153934508Y-106340699D01*
X153886214Y-106375525D01*
X153834505Y-106398108D01*
X153773773Y-106410028D01*
X153698410Y-106412871D01*
X153680303Y-106412466D01*
X153626484Y-106409813D01*
X153586454Y-106404397D01*
X153551438Y-106394233D01*
X153512659Y-106377338D01*
X153502017Y-106372160D01*
X153441366Y-106336332D01*
X153394547Y-106293700D01*
X153381810Y-106278461D01*
X153337140Y-106221950D01*
X153337140Y-106026074D01*
X153337676Y-105947427D01*
X153339366Y-105889476D01*
X153342334Y-105850363D01*
X153346705Y-105828229D01*
X153350790Y-105821762D01*
X153366715Y-105818599D01*
X153400498Y-105815976D01*
X153447422Y-105814143D01*
X153502769Y-105813345D01*
X153511656Y-105813330D01*
X153632432Y-105818584D01*
X153735102Y-105834751D01*
X153821656Y-105862449D01*
X153894081Y-105902296D01*
X153949011Y-105949246D01*
X153993558Y-106007133D01*
X154018282Y-106070181D01*
X154025514Y-106141770D01*
X154785452Y-106141770D01*
X154783584Y-106051200D01*
X154775240Y-105972300D01*
X154758994Y-105901078D01*
X154733357Y-105830352D01*
X154709361Y-105777981D01*
X154650742Y-105682684D01*
X154572645Y-105594658D01*
X154477447Y-105515505D01*
X154367524Y-105446828D01*
X154245252Y-105390229D01*
X154113007Y-105347309D01*
X154048340Y-105332370D01*
X153912158Y-105310265D01*
X153763713Y-105295682D01*
X153612257Y-105289301D01*
X153485698Y-105290933D01*
X153323812Y-105297712D01*
X153331232Y-105238733D01*
X153350524Y-105139580D01*
X153381658Y-105058860D01*
X153425493Y-104995954D01*
X153482891Y-104950244D01*
X153554714Y-104921110D01*
X153641821Y-104907935D01*
X153745076Y-104910099D01*
X153783051Y-104914100D01*
X153924242Y-104939268D01*
X154061055Y-104980302D01*
X154155584Y-105018303D01*
X154200744Y-105037678D01*
X154239177Y-105053248D01*
X154265528Y-105062893D01*
X154273216Y-105064940D01*
X154282960Y-105055862D01*
X154299679Y-105026893D01*
X154323530Y-104977705D01*
X154354669Y-104907972D01*
X154393255Y-104817367D01*
X154399852Y-104801577D01*
X154429909Y-104729260D01*
X154456888Y-104663913D01*
X154479626Y-104608394D01*
X154496956Y-104565560D01*
X154507714Y-104538269D01*
X154510821Y-104529430D01*
X154500822Y-104524675D01*
X154474545Y-104519398D01*
X154446273Y-104515719D01*
X154416116Y-104510962D01*
X154368329Y-104501516D01*
X154307150Y-104488308D01*
X154236816Y-104472264D01*
X154161568Y-104454308D01*
X154133007Y-104447285D01*
X154027946Y-104421697D01*
X153940282Y-104401635D01*
X153865694Y-104386457D01*
X153799859Y-104375523D01*
X153738455Y-104368192D01*
X153677160Y-104363823D01*
X153611652Y-104361775D01*
X153553634Y-104361377D01*
X153384188Y-104368040D01*
G37*
X153384188Y-104368040D02*
X153232270Y-104388055D01*
X153097006Y-104421690D01*
X152977523Y-104469213D01*
X152872947Y-104530893D01*
X152795338Y-104594453D01*
X152726497Y-104668587D01*
X152672756Y-104748359D01*
X152629852Y-104840579D01*
X152614378Y-104883649D01*
X152601518Y-104922630D01*
X152590316Y-104958777D01*
X152580642Y-104993922D01*
X152572366Y-105029898D01*
X152565359Y-105068538D01*
X152559490Y-105111673D01*
X152554631Y-105161137D01*
X152550652Y-105218761D01*
X152547422Y-105286379D01*
X152544813Y-105365822D01*
X152542695Y-105458924D01*
X152540938Y-105567515D01*
X152539413Y-105693430D01*
X152537990Y-105838500D01*
X152536737Y-105981266D01*
X152535411Y-106137456D01*
X152534206Y-106272727D01*
X152532996Y-106388734D01*
X152531656Y-106487133D01*
X152530062Y-106569581D01*
X152528087Y-106637734D01*
X152525606Y-106693248D01*
X152522493Y-106737780D01*
X152518624Y-106772986D01*
X152513873Y-106800522D01*
X152508114Y-106822044D01*
X152501223Y-106839210D01*
X152493073Y-106853674D01*
X152483539Y-106867094D01*
X152472496Y-106881126D01*
X152468196Y-106886559D01*
X152452376Y-106909398D01*
X152445340Y-106924951D01*
X152445318Y-106925410D01*
X152456195Y-106927609D01*
X152487180Y-106929635D01*
X152535805Y-106931430D01*
X152599599Y-106932939D01*
X152676093Y-106934104D01*
X152762818Y-106934868D01*
X152857305Y-106935174D01*
X152868212Y-106935177D01*
X153291105Y-106935177D01*
X153294367Y-106839110D01*
X153297629Y-106743044D01*
X153359718Y-106794031D01*
X153457048Y-106861545D01*
X153566949Y-106916237D01*
X153653413Y-106946466D01*
X153722484Y-106961154D01*
X153805837Y-106971147D01*
X153895603Y-106976134D01*
X153983917Y-106975801D01*
X154062911Y-106969839D01*
X154099140Y-106964126D01*
X154239159Y-106926264D01*
X154365584Y-106871420D01*
X154477502Y-106800412D01*
X154574000Y-106714056D01*
X154654162Y-106613167D01*
X154717075Y-106498564D01*
X154761450Y-106372472D01*
X154773784Y-106315889D01*
X154781394Y-106253690D01*
X154785023Y-106178851D01*
X154785517Y-106144955D01*
X154785452Y-106141770D01*
X154025514Y-106141770D01*
X154016221Y-106216821D01*
X153988034Y-106280648D01*
X153939565Y-106336286D01*
X153934508Y-106340699D01*
X153886214Y-106375525D01*
X153834505Y-106398108D01*
X153773773Y-106410028D01*
X153698410Y-106412871D01*
X153680303Y-106412466D01*
X153626484Y-106409813D01*
X153586454Y-106404397D01*
X153551438Y-106394233D01*
X153512659Y-106377338D01*
X153502017Y-106372160D01*
X153441366Y-106336332D01*
X153394547Y-106293700D01*
X153381810Y-106278461D01*
X153337140Y-106221950D01*
X153337140Y-106026074D01*
X153337676Y-105947427D01*
X153339366Y-105889476D01*
X153342334Y-105850363D01*
X153346705Y-105828229D01*
X153350790Y-105821762D01*
X153366715Y-105818599D01*
X153400498Y-105815976D01*
X153447422Y-105814143D01*
X153502769Y-105813345D01*
X153511656Y-105813330D01*
X153632432Y-105818584D01*
X153735102Y-105834751D01*
X153821656Y-105862449D01*
X153894081Y-105902296D01*
X153949011Y-105949246D01*
X153993558Y-106007133D01*
X154018282Y-106070181D01*
X154025514Y-106141770D01*
X154785452Y-106141770D01*
X154783584Y-106051200D01*
X154775240Y-105972300D01*
X154758994Y-105901078D01*
X154733357Y-105830352D01*
X154709361Y-105777981D01*
X154650742Y-105682684D01*
X154572645Y-105594658D01*
X154477447Y-105515505D01*
X154367524Y-105446828D01*
X154245252Y-105390229D01*
X154113007Y-105347309D01*
X154048340Y-105332370D01*
X153912158Y-105310265D01*
X153763713Y-105295682D01*
X153612257Y-105289301D01*
X153485698Y-105290933D01*
X153323812Y-105297712D01*
X153331232Y-105238733D01*
X153350524Y-105139580D01*
X153381658Y-105058860D01*
X153425493Y-104995954D01*
X153482891Y-104950244D01*
X153554714Y-104921110D01*
X153641821Y-104907935D01*
X153745076Y-104910099D01*
X153783051Y-104914100D01*
X153924242Y-104939268D01*
X154061055Y-104980302D01*
X154155584Y-105018303D01*
X154200744Y-105037678D01*
X154239177Y-105053248D01*
X154265528Y-105062893D01*
X154273216Y-105064940D01*
X154282960Y-105055862D01*
X154299679Y-105026893D01*
X154323530Y-104977705D01*
X154354669Y-104907972D01*
X154393255Y-104817367D01*
X154399852Y-104801577D01*
X154429909Y-104729260D01*
X154456888Y-104663913D01*
X154479626Y-104608394D01*
X154496956Y-104565560D01*
X154507714Y-104538269D01*
X154510821Y-104529430D01*
X154500822Y-104524675D01*
X154474545Y-104519398D01*
X154446273Y-104515719D01*
X154416116Y-104510962D01*
X154368329Y-104501516D01*
X154307150Y-104488308D01*
X154236816Y-104472264D01*
X154161568Y-104454308D01*
X154133007Y-104447285D01*
X154027946Y-104421697D01*
X153940282Y-104401635D01*
X153865694Y-104386457D01*
X153799859Y-104375523D01*
X153738455Y-104368192D01*
X153677160Y-104363823D01*
X153611652Y-104361775D01*
X153553634Y-104361377D01*
X153384188Y-104368040D01*
G36*
X149871255Y-104973733D02*
G01*
X149871236Y-105208150D01*
X149871210Y-105421091D01*
X149871137Y-105613656D01*
X149870980Y-105786947D01*
X149870698Y-105942064D01*
X149870253Y-106080108D01*
X149869606Y-106202180D01*
X149868717Y-106309382D01*
X149867549Y-106402814D01*
X149866061Y-106483578D01*
X149864216Y-106552774D01*
X149861973Y-106611503D01*
X149859293Y-106660867D01*
X149856139Y-106701966D01*
X149852470Y-106735901D01*
X149848249Y-106763774D01*
X149843435Y-106786686D01*
X149837989Y-106805737D01*
X149831874Y-106822028D01*
X149825050Y-106836661D01*
X149817477Y-106850737D01*
X149809117Y-106865356D01*
X149803923Y-106874462D01*
X149769658Y-106935177D01*
X150627807Y-106935177D01*
X150627807Y-106839221D01*
X150628538Y-106795858D01*
X150630490Y-106762693D01*
X150633299Y-106744912D01*
X150634541Y-106743266D01*
X150645963Y-106750150D01*
X150668678Y-106767993D01*
X150691377Y-106787367D01*
X150745962Y-106828102D01*
X150815441Y-106869105D01*
X150892492Y-106906611D01*
X150969797Y-106936852D01*
X151000649Y-106946500D01*
X151069146Y-106961066D01*
X151151998Y-106971027D01*
X151241391Y-106976071D01*
X151329514Y-106975884D01*
X151408555Y-106970154D01*
X151446251Y-106964346D01*
X151584348Y-106926285D01*
X151711649Y-106868561D01*
X151827470Y-106791699D01*
X151931125Y-106696227D01*
X152021929Y-106582667D01*
X152088731Y-106471869D01*
X152143598Y-106355113D01*
X152185599Y-106235764D01*
X152215595Y-106109771D01*
X152234451Y-105973082D01*
X152243030Y-105821646D01*
X152243756Y-105744199D01*
X152241662Y-105687422D01*
X151412545Y-105687422D01*
X151412338Y-105780490D01*
X151409425Y-105868180D01*
X151403762Y-105945260D01*
X151395307Y-106006497D01*
X151392724Y-106018838D01*
X151360922Y-106126121D01*
X151319264Y-106213146D01*
X151267399Y-106280130D01*
X151204981Y-106327293D01*
X151131662Y-106354853D01*
X151047093Y-106363029D01*
X150950927Y-106352039D01*
X150887451Y-106336317D01*
X150838308Y-106318127D01*
X150784179Y-106292279D01*
X150743518Y-106268577D01*
X150672962Y-106222209D01*
X150672962Y-105072018D01*
X150740370Y-105028450D01*
X150818895Y-104987528D01*
X150903081Y-104960877D01*
X150988205Y-104948953D01*
X151069546Y-104952210D01*
X151142382Y-104971103D01*
X151174336Y-104986672D01*
X151232261Y-105029669D01*
X151281218Y-105086441D01*
X151322372Y-105159063D01*
X151356888Y-105249609D01*
X151385929Y-105360154D01*
X151387210Y-105366021D01*
X151397381Y-105428276D01*
X151405023Y-105506082D01*
X151410092Y-105594208D01*
X151412545Y-105687422D01*
X152241662Y-105687422D01*
X152235905Y-105531383D01*
X152213960Y-105335547D01*
X152177976Y-105156820D01*
X152128003Y-104995333D01*
X152064094Y-104851214D01*
X151986300Y-104724594D01*
X151894673Y-104615603D01*
X151789265Y-104524371D01*
X151744100Y-104493420D01*
X151643151Y-104437273D01*
X151539861Y-104397662D01*
X151429773Y-104373502D01*
X151308432Y-104363707D01*
X151215926Y-104364753D01*
X151086272Y-104375719D01*
X150973678Y-104397534D01*
X150874887Y-104431202D01*
X150786641Y-104477724D01*
X150737776Y-104511936D01*
X150708409Y-104533850D01*
X150686719Y-104548821D01*
X150678509Y-104553221D01*
X150676894Y-104542392D01*
X150675603Y-104511739D01*
X150674624Y-104464014D01*
X150673945Y-104401967D01*
X150673552Y-104328350D01*
X150673432Y-104245915D01*
X150673574Y-104157413D01*
X150673965Y-104065595D01*
X150674591Y-103973212D01*
X150675442Y-103883016D01*
X150676502Y-103797759D01*
X150677761Y-103720191D01*
X150679206Y-103653064D01*
X150680824Y-103599129D01*
X150682601Y-103561138D01*
X150683093Y-103554155D01*
X150690670Y-103483739D01*
X150702231Y-103428590D01*
X150719970Y-103381469D01*
X150746080Y-103335135D01*
X150752347Y-103325555D01*
X150776779Y-103288866D01*
X149871451Y-103288866D01*
X149871255Y-104973733D01*
G37*
X149871255Y-104973733D02*
X149871236Y-105208150D01*
X149871210Y-105421091D01*
X149871137Y-105613656D01*
X149870980Y-105786947D01*
X149870698Y-105942064D01*
X149870253Y-106080108D01*
X149869606Y-106202180D01*
X149868717Y-106309382D01*
X149867549Y-106402814D01*
X149866061Y-106483578D01*
X149864216Y-106552774D01*
X149861973Y-106611503D01*
X149859293Y-106660867D01*
X149856139Y-106701966D01*
X149852470Y-106735901D01*
X149848249Y-106763774D01*
X149843435Y-106786686D01*
X149837989Y-106805737D01*
X149831874Y-106822028D01*
X149825050Y-106836661D01*
X149817477Y-106850737D01*
X149809117Y-106865356D01*
X149803923Y-106874462D01*
X149769658Y-106935177D01*
X150627807Y-106935177D01*
X150627807Y-106839221D01*
X150628538Y-106795858D01*
X150630490Y-106762693D01*
X150633299Y-106744912D01*
X150634541Y-106743266D01*
X150645963Y-106750150D01*
X150668678Y-106767993D01*
X150691377Y-106787367D01*
X150745962Y-106828102D01*
X150815441Y-106869105D01*
X150892492Y-106906611D01*
X150969797Y-106936852D01*
X151000649Y-106946500D01*
X151069146Y-106961066D01*
X151151998Y-106971027D01*
X151241391Y-106976071D01*
X151329514Y-106975884D01*
X151408555Y-106970154D01*
X151446251Y-106964346D01*
X151584348Y-106926285D01*
X151711649Y-106868561D01*
X151827470Y-106791699D01*
X151931125Y-106696227D01*
X152021929Y-106582667D01*
X152088731Y-106471869D01*
X152143598Y-106355113D01*
X152185599Y-106235764D01*
X152215595Y-106109771D01*
X152234451Y-105973082D01*
X152243030Y-105821646D01*
X152243756Y-105744199D01*
X152241662Y-105687422D01*
X151412545Y-105687422D01*
X151412338Y-105780490D01*
X151409425Y-105868180D01*
X151403762Y-105945260D01*
X151395307Y-106006497D01*
X151392724Y-106018838D01*
X151360922Y-106126121D01*
X151319264Y-106213146D01*
X151267399Y-106280130D01*
X151204981Y-106327293D01*
X151131662Y-106354853D01*
X151047093Y-106363029D01*
X150950927Y-106352039D01*
X150887451Y-106336317D01*
X150838308Y-106318127D01*
X150784179Y-106292279D01*
X150743518Y-106268577D01*
X150672962Y-106222209D01*
X150672962Y-105072018D01*
X150740370Y-105028450D01*
X150818895Y-104987528D01*
X150903081Y-104960877D01*
X150988205Y-104948953D01*
X151069546Y-104952210D01*
X151142382Y-104971103D01*
X151174336Y-104986672D01*
X151232261Y-105029669D01*
X151281218Y-105086441D01*
X151322372Y-105159063D01*
X151356888Y-105249609D01*
X151385929Y-105360154D01*
X151387210Y-105366021D01*
X151397381Y-105428276D01*
X151405023Y-105506082D01*
X151410092Y-105594208D01*
X151412545Y-105687422D01*
X152241662Y-105687422D01*
X152235905Y-105531383D01*
X152213960Y-105335547D01*
X152177976Y-105156820D01*
X152128003Y-104995333D01*
X152064094Y-104851214D01*
X151986300Y-104724594D01*
X151894673Y-104615603D01*
X151789265Y-104524371D01*
X151744100Y-104493420D01*
X151643151Y-104437273D01*
X151539861Y-104397662D01*
X151429773Y-104373502D01*
X151308432Y-104363707D01*
X151215926Y-104364753D01*
X151086272Y-104375719D01*
X150973678Y-104397534D01*
X150874887Y-104431202D01*
X150786641Y-104477724D01*
X150737776Y-104511936D01*
X150708409Y-104533850D01*
X150686719Y-104548821D01*
X150678509Y-104553221D01*
X150676894Y-104542392D01*
X150675603Y-104511739D01*
X150674624Y-104464014D01*
X150673945Y-104401967D01*
X150673552Y-104328350D01*
X150673432Y-104245915D01*
X150673574Y-104157413D01*
X150673965Y-104065595D01*
X150674591Y-103973212D01*
X150675442Y-103883016D01*
X150676502Y-103797759D01*
X150677761Y-103720191D01*
X150679206Y-103653064D01*
X150680824Y-103599129D01*
X150682601Y-103561138D01*
X150683093Y-103554155D01*
X150690670Y-103483739D01*
X150702231Y-103428590D01*
X150719970Y-103381469D01*
X150746080Y-103335135D01*
X150752347Y-103325555D01*
X150776779Y-103288866D01*
X149871451Y-103288866D01*
X149871255Y-104973733D01*
G36*
X158330805Y-102528059D02*
G01*
X158234530Y-102552297D01*
X158147946Y-102595129D01*
X158073135Y-102654907D01*
X158012180Y-102729982D01*
X157967161Y-102818708D01*
X157940898Y-102915018D01*
X157935048Y-103012283D01*
X157949902Y-103106142D01*
X157983602Y-103193999D01*
X158034290Y-103273258D01*
X158100107Y-103341324D01*
X158179196Y-103395600D01*
X158269696Y-103433490D01*
X158320962Y-103445914D01*
X158365460Y-103453435D01*
X158399761Y-103456407D01*
X158432722Y-103454582D01*
X158473196Y-103447713D01*
X158506293Y-103440738D01*
X158599709Y-103409229D01*
X158683381Y-103358105D01*
X158755427Y-103288917D01*
X158813962Y-103203216D01*
X158827910Y-103175977D01*
X158844348Y-103139610D01*
X158854656Y-103109070D01*
X158860222Y-103076938D01*
X158862431Y-103035795D01*
X158862710Y-102989710D01*
X158858623Y-102905353D01*
X158845208Y-102836074D01*
X158820018Y-102775449D01*
X158780608Y-102717055D01*
X158742060Y-102672790D01*
X158670168Y-102606972D01*
X158595075Y-102561541D01*
X158512324Y-102534338D01*
X158434690Y-102524064D01*
X158330805Y-102528059D01*
G37*
X158330805Y-102528059D02*
X158234530Y-102552297D01*
X158147946Y-102595129D01*
X158073135Y-102654907D01*
X158012180Y-102729982D01*
X157967161Y-102818708D01*
X157940898Y-102915018D01*
X157935048Y-103012283D01*
X157949902Y-103106142D01*
X157983602Y-103193999D01*
X158034290Y-103273258D01*
X158100107Y-103341324D01*
X158179196Y-103395600D01*
X158269696Y-103433490D01*
X158320962Y-103445914D01*
X158365460Y-103453435D01*
X158399761Y-103456407D01*
X158432722Y-103454582D01*
X158473196Y-103447713D01*
X158506293Y-103440738D01*
X158599709Y-103409229D01*
X158683381Y-103358105D01*
X158755427Y-103288917D01*
X158813962Y-103203216D01*
X158827910Y-103175977D01*
X158844348Y-103139610D01*
X158854656Y-103109070D01*
X158860222Y-103076938D01*
X158862431Y-103035795D01*
X158862710Y-102989710D01*
X158858623Y-102905353D01*
X158845208Y-102836074D01*
X158820018Y-102775449D01*
X158780608Y-102717055D01*
X158742060Y-102672790D01*
X158670168Y-102606972D01*
X158595075Y-102561541D01*
X158512324Y-102534338D01*
X158434690Y-102524064D01*
X158330805Y-102528059D01*
G36*
X147401514Y-106368905D02*
G01*
X147326861Y-106406127D01*
X147260969Y-106474661D01*
X147242823Y-106500048D01*
X147223055Y-106533266D01*
X147210228Y-106569345D01*
X147202890Y-106617498D01*
X147199587Y-106686936D01*
X147198862Y-106778606D01*
X147202137Y-106904230D01*
X147213523Y-106998554D01*
X147235359Y-107068923D01*
X147269981Y-107122686D01*
X147319730Y-107167188D01*
X147323386Y-107169823D01*
X147372415Y-107196777D01*
X147431455Y-107210112D01*
X147506541Y-107213400D01*
X147628605Y-107213400D01*
X147628656Y-107331897D01*
X147629792Y-107397892D01*
X147636714Y-107436602D01*
X147654802Y-107459819D01*
X147689438Y-107479333D01*
X147697755Y-107483320D01*
X147736680Y-107502003D01*
X147766817Y-107513803D01*
X147789226Y-107514822D01*
X147804967Y-107501161D01*
X147815098Y-107468922D01*
X147820677Y-107414204D01*
X147822765Y-107333111D01*
X147822419Y-107221744D01*
X147820700Y-107076202D01*
X147820163Y-107032669D01*
X147818228Y-106882605D01*
X147816496Y-106784442D01*
X147628708Y-106784442D01*
X147627652Y-106867764D01*
X147622962Y-106922280D01*
X147612349Y-106958237D01*
X147593528Y-106985882D01*
X147580750Y-106999365D01*
X147528510Y-107038817D01*
X147482258Y-107042028D01*
X147434533Y-107009449D01*
X147433323Y-107008246D01*
X147413906Y-106983068D01*
X147402093Y-106948847D01*
X147396135Y-106896148D01*
X147394280Y-106815531D01*
X147394246Y-106797671D01*
X147398730Y-106686575D01*
X147413326Y-106609561D01*
X147439750Y-106562547D01*
X147479717Y-106541450D01*
X147502816Y-106539323D01*
X147557638Y-106549300D01*
X147595242Y-106582152D01*
X147617877Y-106642257D01*
X147627794Y-106733998D01*
X147628708Y-106784442D01*
X147816496Y-106784442D01*
X147816178Y-106766460D01*
X147813527Y-106679079D01*
X147809794Y-106615305D01*
X147804493Y-106569982D01*
X147797142Y-106537955D01*
X147787257Y-106514068D01*
X147774354Y-106493164D01*
X147768821Y-106485298D01*
X147695431Y-106410995D01*
X147602640Y-106368867D01*
X147495304Y-106357122D01*
X147401514Y-106368905D01*
G37*
X147401514Y-106368905D02*
X147326861Y-106406127D01*
X147260969Y-106474661D01*
X147242823Y-106500048D01*
X147223055Y-106533266D01*
X147210228Y-106569345D01*
X147202890Y-106617498D01*
X147199587Y-106686936D01*
X147198862Y-106778606D01*
X147202137Y-106904230D01*
X147213523Y-106998554D01*
X147235359Y-107068923D01*
X147269981Y-107122686D01*
X147319730Y-107167188D01*
X147323386Y-107169823D01*
X147372415Y-107196777D01*
X147431455Y-107210112D01*
X147506541Y-107213400D01*
X147628605Y-107213400D01*
X147628656Y-107331897D01*
X147629792Y-107397892D01*
X147636714Y-107436602D01*
X147654802Y-107459819D01*
X147689438Y-107479333D01*
X147697755Y-107483320D01*
X147736680Y-107502003D01*
X147766817Y-107513803D01*
X147789226Y-107514822D01*
X147804967Y-107501161D01*
X147815098Y-107468922D01*
X147820677Y-107414204D01*
X147822765Y-107333111D01*
X147822419Y-107221744D01*
X147820700Y-107076202D01*
X147820163Y-107032669D01*
X147818228Y-106882605D01*
X147816496Y-106784442D01*
X147628708Y-106784442D01*
X147627652Y-106867764D01*
X147622962Y-106922280D01*
X147612349Y-106958237D01*
X147593528Y-106985882D01*
X147580750Y-106999365D01*
X147528510Y-107038817D01*
X147482258Y-107042028D01*
X147434533Y-107009449D01*
X147433323Y-107008246D01*
X147413906Y-106983068D01*
X147402093Y-106948847D01*
X147396135Y-106896148D01*
X147394280Y-106815531D01*
X147394246Y-106797671D01*
X147398730Y-106686575D01*
X147413326Y-106609561D01*
X147439750Y-106562547D01*
X147479717Y-106541450D01*
X147502816Y-106539323D01*
X147557638Y-106549300D01*
X147595242Y-106582152D01*
X147617877Y-106642257D01*
X147627794Y-106733998D01*
X147628708Y-106784442D01*
X147816496Y-106784442D01*
X147816178Y-106766460D01*
X147813527Y-106679079D01*
X147809794Y-106615305D01*
X147804493Y-106569982D01*
X147797142Y-106537955D01*
X147787257Y-106514068D01*
X147774354Y-106493164D01*
X147768821Y-106485298D01*
X147695431Y-106410995D01*
X147602640Y-106368867D01*
X147495304Y-106357122D01*
X147401514Y-106368905D01*
G36*
X145898736Y-106379489D02*
G01*
X145836033Y-106415758D01*
X145792439Y-106451758D01*
X145760555Y-106489475D01*
X145738590Y-106535599D01*
X145724751Y-106596821D01*
X145717247Y-106679831D01*
X145714283Y-106791319D01*
X145713939Y-106871462D01*
X145713939Y-107166465D01*
X145880015Y-107240915D01*
X145889785Y-106917802D01*
X145893821Y-106797129D01*
X145898056Y-106709541D01*
X145903303Y-106649050D01*
X145910375Y-106609668D01*
X145920089Y-106585407D01*
X145933256Y-106570280D01*
X145937481Y-106567006D01*
X146001491Y-106541434D01*
X146066192Y-106551553D01*
X146104708Y-106578400D01*
X146120375Y-106597424D01*
X146131220Y-106622388D01*
X146138112Y-106660234D01*
X146141921Y-106717902D01*
X146143517Y-106802335D01*
X146143785Y-106890328D01*
X146143837Y-107000723D01*
X146145728Y-107078863D01*
X146152055Y-107131565D01*
X146165417Y-107165642D01*
X146188415Y-107187911D01*
X146223646Y-107205187D01*
X146270703Y-107223138D01*
X146322097Y-107242678D01*
X146315979Y-106895885D01*
X146313516Y-106770868D01*
X146310633Y-106678482D01*
X146306502Y-106612281D01*
X146300293Y-106565820D01*
X146291174Y-106532656D01*
X146278317Y-106506344D01*
X146262816Y-106483129D01*
X146188029Y-106408969D01*
X146096772Y-106366084D01*
X145997517Y-106355812D01*
X145898736Y-106379489D01*
G37*
X145898736Y-106379489D02*
X145836033Y-106415758D01*
X145792439Y-106451758D01*
X145760555Y-106489475D01*
X145738590Y-106535599D01*
X145724751Y-106596821D01*
X145717247Y-106679831D01*
X145714283Y-106791319D01*
X145713939Y-106871462D01*
X145713939Y-107166465D01*
X145880015Y-107240915D01*
X145889785Y-106917802D01*
X145893821Y-106797129D01*
X145898056Y-106709541D01*
X145903303Y-106649050D01*
X145910375Y-106609668D01*
X145920089Y-106585407D01*
X145933256Y-106570280D01*
X145937481Y-106567006D01*
X146001491Y-106541434D01*
X146066192Y-106551553D01*
X146104708Y-106578400D01*
X146120375Y-106597424D01*
X146131220Y-106622388D01*
X146138112Y-106660234D01*
X146141921Y-106717902D01*
X146143517Y-106802335D01*
X146143785Y-106890328D01*
X146143837Y-107000723D01*
X146145728Y-107078863D01*
X146152055Y-107131565D01*
X146165417Y-107165642D01*
X146188415Y-107187911D01*
X146223646Y-107205187D01*
X146270703Y-107223138D01*
X146322097Y-107242678D01*
X146315979Y-106895885D01*
X146313516Y-106770868D01*
X146310633Y-106678482D01*
X146306502Y-106612281D01*
X146300293Y-106565820D01*
X146291174Y-106532656D01*
X146278317Y-106506344D01*
X146262816Y-106483129D01*
X146188029Y-106408969D01*
X146096772Y-106366084D01*
X145997517Y-106355812D01*
X145898736Y-106379489D01*
G36*
X148153514Y-106371656D02*
G01*
X148061936Y-106419809D01*
X147994351Y-106497305D01*
X147970343Y-106547127D01*
X147951662Y-106621933D01*
X147942099Y-106716452D01*
X147941192Y-106819610D01*
X147948479Y-106920335D01*
X147963497Y-107007553D01*
X147985785Y-107070191D01*
X147992635Y-107080979D01*
X148073768Y-107161505D01*
X148170134Y-107209736D01*
X148274699Y-107223850D01*
X148380432Y-107202029D01*
X148409857Y-107188947D01*
X148467159Y-107148631D01*
X148517450Y-107095175D01*
X148522203Y-107088395D01*
X148541522Y-107055721D01*
X148554292Y-107020794D01*
X148561836Y-106974814D01*
X148565476Y-106908984D01*
X148566535Y-106814505D01*
X148566554Y-106793323D01*
X148566506Y-106786582D01*
X148371169Y-106786582D01*
X148370032Y-106875749D01*
X148365559Y-106934920D01*
X148356154Y-106973141D01*
X148340224Y-106999453D01*
X148332092Y-107008246D01*
X148285342Y-107041661D01*
X148239953Y-107040137D01*
X148194060Y-107011152D01*
X148166688Y-106980209D01*
X148150477Y-106935043D01*
X148141374Y-106863820D01*
X148140749Y-106855514D01*
X148139196Y-106726437D01*
X148155435Y-106630572D01*
X148189248Y-106568507D01*
X148240416Y-106540832D01*
X148258680Y-106539323D01*
X148306640Y-106546913D01*
X148339447Y-106573208D01*
X148359505Y-106623495D01*
X148369222Y-106703064D01*
X148371169Y-106786582D01*
X148566506Y-106786582D01*
X148565826Y-106692649D01*
X148562771Y-106622306D01*
X148556078Y-106573563D01*
X148544440Y-106537688D01*
X148526547Y-106505948D01*
X148522592Y-106500048D01*
X148456133Y-106420504D01*
X148383715Y-106374329D01*
X148295551Y-106355999D01*
X148265613Y-106355103D01*
X148153514Y-106371656D01*
G37*
X148153514Y-106371656D02*
X148061936Y-106419809D01*
X147994351Y-106497305D01*
X147970343Y-106547127D01*
X147951662Y-106621933D01*
X147942099Y-106716452D01*
X147941192Y-106819610D01*
X147948479Y-106920335D01*
X147963497Y-107007553D01*
X147985785Y-107070191D01*
X147992635Y-107080979D01*
X148073768Y-107161505D01*
X148170134Y-107209736D01*
X148274699Y-107223850D01*
X148380432Y-107202029D01*
X148409857Y-107188947D01*
X148467159Y-107148631D01*
X148517450Y-107095175D01*
X148522203Y-107088395D01*
X148541522Y-107055721D01*
X148554292Y-107020794D01*
X148561836Y-106974814D01*
X148565476Y-106908984D01*
X148566535Y-106814505D01*
X148566554Y-106793323D01*
X148566506Y-106786582D01*
X148371169Y-106786582D01*
X148370032Y-106875749D01*
X148365559Y-106934920D01*
X148356154Y-106973141D01*
X148340224Y-106999453D01*
X148332092Y-107008246D01*
X148285342Y-107041661D01*
X148239953Y-107040137D01*
X148194060Y-107011152D01*
X148166688Y-106980209D01*
X148150477Y-106935043D01*
X148141374Y-106863820D01*
X148140749Y-106855514D01*
X148139196Y-106726437D01*
X148155435Y-106630572D01*
X148189248Y-106568507D01*
X148240416Y-106540832D01*
X148258680Y-106539323D01*
X148306640Y-106546913D01*
X148339447Y-106573208D01*
X148359505Y-106623495D01*
X148369222Y-106703064D01*
X148371169Y-106786582D01*
X148566506Y-106786582D01*
X148565826Y-106692649D01*
X148562771Y-106622306D01*
X148556078Y-106573563D01*
X148544440Y-106537688D01*
X148526547Y-106505948D01*
X148522592Y-106500048D01*
X148456133Y-106420504D01*
X148383715Y-106374329D01*
X148295551Y-106355999D01*
X148265613Y-106355103D01*
X148153514Y-106371656D01*
G36*
X146636146Y-106384145D02*
G01*
X146559114Y-106435967D01*
X146499584Y-106510812D01*
X146464022Y-106606054D01*
X146456829Y-106676156D01*
X146457646Y-106705409D01*
X146464486Y-106727807D01*
X146483288Y-106747874D01*
X146519992Y-106770133D01*
X146580538Y-106799109D01*
X146670866Y-106839327D01*
X146671323Y-106839529D01*
X146754467Y-106877610D01*
X146822647Y-106911425D01*
X146868895Y-106937333D01*
X146886242Y-106951695D01*
X146886246Y-106951811D01*
X146870957Y-106983085D01*
X146835204Y-107017557D01*
X146794158Y-107042390D01*
X146773363Y-107047323D01*
X146716630Y-107030262D01*
X146667773Y-106987533D01*
X146643935Y-106940555D01*
X146621003Y-106905922D01*
X146576082Y-106866481D01*
X146523277Y-106832409D01*
X146476690Y-106813880D01*
X146466948Y-106812862D01*
X146455982Y-106829615D01*
X146455321Y-106872439D01*
X146463380Y-106930181D01*
X146478573Y-106991689D01*
X146499314Y-107045809D01*
X146500362Y-107047910D01*
X146562779Y-107135060D01*
X146643674Y-107194339D01*
X146735544Y-107223434D01*
X146830887Y-107220034D01*
X146922202Y-107181828D01*
X146926262Y-107179141D01*
X146998094Y-107114042D01*
X147045327Y-107029105D01*
X147071466Y-106917421D01*
X147074974Y-106886043D01*
X147081187Y-106737936D01*
X147073739Y-106668868D01*
X146886246Y-106668868D01*
X146883810Y-106711952D01*
X146870486Y-106724526D01*
X146837268Y-106715119D01*
X146784906Y-106692883D01*
X146726376Y-106665010D01*
X146724921Y-106664272D01*
X146675311Y-106638177D01*
X146655400Y-106620763D01*
X146660310Y-106602507D01*
X146680984Y-106578520D01*
X146733581Y-106543806D01*
X146790223Y-106541256D01*
X146841031Y-106566519D01*
X146876124Y-106615247D01*
X146886246Y-106668868D01*
X147073739Y-106668868D01*
X147068408Y-106619436D01*
X147035622Y-106525455D01*
X146989979Y-106459615D01*
X146907598Y-106393081D01*
X146816854Y-106360076D01*
X146724215Y-106357973D01*
X146636146Y-106384145D01*
G37*
X146636146Y-106384145D02*
X146559114Y-106435967D01*
X146499584Y-106510812D01*
X146464022Y-106606054D01*
X146456829Y-106676156D01*
X146457646Y-106705409D01*
X146464486Y-106727807D01*
X146483288Y-106747874D01*
X146519992Y-106770133D01*
X146580538Y-106799109D01*
X146670866Y-106839327D01*
X146671323Y-106839529D01*
X146754467Y-106877610D01*
X146822647Y-106911425D01*
X146868895Y-106937333D01*
X146886242Y-106951695D01*
X146886246Y-106951811D01*
X146870957Y-106983085D01*
X146835204Y-107017557D01*
X146794158Y-107042390D01*
X146773363Y-107047323D01*
X146716630Y-107030262D01*
X146667773Y-106987533D01*
X146643935Y-106940555D01*
X146621003Y-106905922D01*
X146576082Y-106866481D01*
X146523277Y-106832409D01*
X146476690Y-106813880D01*
X146466948Y-106812862D01*
X146455982Y-106829615D01*
X146455321Y-106872439D01*
X146463380Y-106930181D01*
X146478573Y-106991689D01*
X146499314Y-107045809D01*
X146500362Y-107047910D01*
X146562779Y-107135060D01*
X146643674Y-107194339D01*
X146735544Y-107223434D01*
X146830887Y-107220034D01*
X146922202Y-107181828D01*
X146926262Y-107179141D01*
X146998094Y-107114042D01*
X147045327Y-107029105D01*
X147071466Y-106917421D01*
X147074974Y-106886043D01*
X147081187Y-106737936D01*
X147073739Y-106668868D01*
X146886246Y-106668868D01*
X146883810Y-106711952D01*
X146870486Y-106724526D01*
X146837268Y-106715119D01*
X146784906Y-106692883D01*
X146726376Y-106665010D01*
X146724921Y-106664272D01*
X146675311Y-106638177D01*
X146655400Y-106620763D01*
X146660310Y-106602507D01*
X146680984Y-106578520D01*
X146733581Y-106543806D01*
X146790223Y-106541256D01*
X146841031Y-106566519D01*
X146876124Y-106615247D01*
X146886246Y-106668868D01*
X147073739Y-106668868D01*
X147068408Y-106619436D01*
X147035622Y-106525455D01*
X146989979Y-106459615D01*
X146907598Y-106393081D01*
X146816854Y-106360076D01*
X146724215Y-106357973D01*
X146636146Y-106384145D01*
G36*
X145010554Y-106276520D02*
G01*
X145004828Y-106356380D01*
X144998251Y-106403439D01*
X144989138Y-106423966D01*
X144975802Y-106424229D01*
X144971477Y-106421778D01*
X144913956Y-106404036D01*
X144839132Y-106405072D01*
X144763061Y-106423310D01*
X144715482Y-106446905D01*
X144666698Y-106484598D01*
X144631036Y-106527255D01*
X144606555Y-106581457D01*
X144591313Y-106653784D01*
X144583370Y-106750819D01*
X144580784Y-106879142D01*
X144580738Y-106903758D01*
X144580708Y-107180270D01*
X144642239Y-107201720D01*
X144685941Y-107216312D01*
X144709918Y-107223106D01*
X144710623Y-107223169D01*
X144712985Y-107204745D01*
X144714994Y-107153926D01*
X144716499Y-107077393D01*
X144717347Y-106981830D01*
X144717477Y-106923729D01*
X144717749Y-106809171D01*
X144719148Y-106727067D01*
X144722551Y-106670793D01*
X144728833Y-106633726D01*
X144738871Y-106609244D01*
X144753539Y-106590725D01*
X144762698Y-106581806D01*
X144825611Y-106545866D01*
X144894264Y-106543175D01*
X144956552Y-106573570D01*
X144968071Y-106584544D01*
X144984967Y-106605179D01*
X144996686Y-106629656D01*
X145004167Y-106665047D01*
X145008346Y-106718426D01*
X145010163Y-106796866D01*
X145010554Y-106905017D01*
X145010554Y-107180270D01*
X145072085Y-107201720D01*
X145115787Y-107216312D01*
X145139764Y-107223106D01*
X145140470Y-107223169D01*
X145142274Y-107204469D01*
X145143900Y-107151722D01*
X145145283Y-107069957D01*
X145146358Y-106964205D01*
X145147060Y-106839494D01*
X145147323Y-106700855D01*
X145147323Y-106166206D01*
X145020323Y-106112636D01*
X145010554Y-106276520D01*
G37*
X145010554Y-106276520D02*
X145004828Y-106356380D01*
X144998251Y-106403439D01*
X144989138Y-106423966D01*
X144975802Y-106424229D01*
X144971477Y-106421778D01*
X144913956Y-106404036D01*
X144839132Y-106405072D01*
X144763061Y-106423310D01*
X144715482Y-106446905D01*
X144666698Y-106484598D01*
X144631036Y-106527255D01*
X144606555Y-106581457D01*
X144591313Y-106653784D01*
X144583370Y-106750819D01*
X144580784Y-106879142D01*
X144580738Y-106903758D01*
X144580708Y-107180270D01*
X144642239Y-107201720D01*
X144685941Y-107216312D01*
X144709918Y-107223106D01*
X144710623Y-107223169D01*
X144712985Y-107204745D01*
X144714994Y-107153926D01*
X144716499Y-107077393D01*
X144717347Y-106981830D01*
X144717477Y-106923729D01*
X144717749Y-106809171D01*
X144719148Y-106727067D01*
X144722551Y-106670793D01*
X144728833Y-106633726D01*
X144738871Y-106609244D01*
X144753539Y-106590725D01*
X144762698Y-106581806D01*
X144825611Y-106545866D01*
X144894264Y-106543175D01*
X144956552Y-106573570D01*
X144968071Y-106584544D01*
X144984967Y-106605179D01*
X144996686Y-106629656D01*
X145004167Y-106665047D01*
X145008346Y-106718426D01*
X145010163Y-106796866D01*
X145010554Y-106905017D01*
X145010554Y-107180270D01*
X145072085Y-107201720D01*
X145115787Y-107216312D01*
X145139764Y-107223106D01*
X145140470Y-107223169D01*
X145142274Y-107204469D01*
X145143900Y-107151722D01*
X145145283Y-107069957D01*
X145146358Y-106964205D01*
X145147060Y-106839494D01*
X145147323Y-106700855D01*
X145147323Y-106166206D01*
X145020323Y-106112636D01*
X145010554Y-106276520D01*
G36*
X144116899Y-106410703D02*
G01*
X144040340Y-106439133D01*
X144039464Y-106439679D01*
X143992115Y-106474527D01*
X143957159Y-106515252D01*
X143932575Y-106568325D01*
X143916338Y-106640214D01*
X143906425Y-106737392D01*
X143900814Y-106866328D01*
X143900323Y-106884698D01*
X143893259Y-107161687D01*
X143952705Y-107192428D01*
X143995719Y-107213202D01*
X144021690Y-107223046D01*
X144022891Y-107223169D01*
X144027386Y-107205006D01*
X144030956Y-107156012D01*
X144033152Y-107084431D01*
X144033631Y-107026468D01*
X144033642Y-106932570D01*
X144037934Y-106873603D01*
X144052897Y-106845479D01*
X144084918Y-106844106D01*
X144140386Y-106865398D01*
X144224131Y-106904536D01*
X144285711Y-106937043D01*
X144317383Y-106965245D01*
X144326694Y-106995982D01*
X144326708Y-106997504D01*
X144311343Y-107050454D01*
X144265853Y-107079060D01*
X144196234Y-107083203D01*
X144146087Y-107082484D01*
X144119646Y-107096927D01*
X144103157Y-107131618D01*
X144093667Y-107175816D01*
X144107343Y-107200893D01*
X144112493Y-107204482D01*
X144160975Y-107218896D01*
X144228869Y-107220937D01*
X144298788Y-107211383D01*
X144348332Y-107193922D01*
X144416830Y-107135764D01*
X144455766Y-107054808D01*
X144463477Y-106991560D01*
X144457593Y-106934511D01*
X144436299Y-106887942D01*
X144394135Y-106846581D01*
X144325641Y-106805155D01*
X144225356Y-106758393D01*
X144219246Y-106755750D01*
X144128910Y-106714017D01*
X144073165Y-106679791D01*
X144049271Y-106649035D01*
X144054487Y-106617711D01*
X144086072Y-106581783D01*
X144095517Y-106573516D01*
X144158783Y-106541458D01*
X144224336Y-106542807D01*
X144281428Y-106574238D01*
X144319307Y-106632424D01*
X144322826Y-106643846D01*
X144357100Y-106699237D01*
X144400591Y-106725918D01*
X144463477Y-106752360D01*
X144463477Y-106683948D01*
X144444348Y-106584510D01*
X144387569Y-106493302D01*
X144358022Y-106462789D01*
X144290858Y-106423628D01*
X144205444Y-106405900D01*
X144116899Y-106410703D01*
G37*
X144116899Y-106410703D02*
X144040340Y-106439133D01*
X144039464Y-106439679D01*
X143992115Y-106474527D01*
X143957159Y-106515252D01*
X143932575Y-106568325D01*
X143916338Y-106640214D01*
X143906425Y-106737392D01*
X143900814Y-106866328D01*
X143900323Y-106884698D01*
X143893259Y-107161687D01*
X143952705Y-107192428D01*
X143995719Y-107213202D01*
X144021690Y-107223046D01*
X144022891Y-107223169D01*
X144027386Y-107205006D01*
X144030956Y-107156012D01*
X144033152Y-107084431D01*
X144033631Y-107026468D01*
X144033642Y-106932570D01*
X144037934Y-106873603D01*
X144052897Y-106845479D01*
X144084918Y-106844106D01*
X144140386Y-106865398D01*
X144224131Y-106904536D01*
X144285711Y-106937043D01*
X144317383Y-106965245D01*
X144326694Y-106995982D01*
X144326708Y-106997504D01*
X144311343Y-107050454D01*
X144265853Y-107079060D01*
X144196234Y-107083203D01*
X144146087Y-107082484D01*
X144119646Y-107096927D01*
X144103157Y-107131618D01*
X144093667Y-107175816D01*
X144107343Y-107200893D01*
X144112493Y-107204482D01*
X144160975Y-107218896D01*
X144228869Y-107220937D01*
X144298788Y-107211383D01*
X144348332Y-107193922D01*
X144416830Y-107135764D01*
X144455766Y-107054808D01*
X144463477Y-106991560D01*
X144457593Y-106934511D01*
X144436299Y-106887942D01*
X144394135Y-106846581D01*
X144325641Y-106805155D01*
X144225356Y-106758393D01*
X144219246Y-106755750D01*
X144128910Y-106714017D01*
X144073165Y-106679791D01*
X144049271Y-106649035D01*
X144054487Y-106617711D01*
X144086072Y-106581783D01*
X144095517Y-106573516D01*
X144158783Y-106541458D01*
X144224336Y-106542807D01*
X144281428Y-106574238D01*
X144319307Y-106632424D01*
X144322826Y-106643846D01*
X144357100Y-106699237D01*
X144400591Y-106725918D01*
X144463477Y-106752360D01*
X144463477Y-106683948D01*
X144444348Y-106584510D01*
X144387569Y-106493302D01*
X144358022Y-106462789D01*
X144290858Y-106423628D01*
X144205444Y-106405900D01*
X144116899Y-106410703D01*
G36*
X143457038Y-106409070D02*
G01*
X143368283Y-106441821D01*
X143296378Y-106499750D01*
X143268256Y-106540528D01*
X143237598Y-106615354D01*
X143238235Y-106669458D01*
X143270413Y-106705846D01*
X143282319Y-106712033D01*
X143333725Y-106731325D01*
X143359978Y-106726382D01*
X143368870Y-106693987D01*
X143369323Y-106676092D01*
X143385603Y-106610259D01*
X143428035Y-106564207D01*
X143487012Y-106541964D01*
X143552925Y-106547561D01*
X143606505Y-106576629D01*
X143624602Y-106593210D01*
X143637429Y-106613325D01*
X143646094Y-106643732D01*
X143651704Y-106691188D01*
X143655365Y-106762450D01*
X143658185Y-106864275D01*
X143658916Y-106896515D01*
X143661580Y-107006810D01*
X143664608Y-107084436D01*
X143669150Y-107135796D01*
X143676354Y-107167290D01*
X143687367Y-107185320D01*
X143703340Y-107196288D01*
X143713566Y-107201133D01*
X143756994Y-107217701D01*
X143782558Y-107223169D01*
X143791005Y-107204907D01*
X143796161Y-107149696D01*
X143798054Y-107056899D01*
X143796711Y-106925878D01*
X143796293Y-106905669D01*
X143793342Y-106786133D01*
X143789852Y-106698849D01*
X143784886Y-106636991D01*
X143777507Y-106593736D01*
X143766776Y-106562260D01*
X143751755Y-106535739D01*
X143743898Y-106524375D01*
X143698847Y-106474092D01*
X143648460Y-106434981D01*
X143642292Y-106431567D01*
X143551942Y-106404612D01*
X143457038Y-106409070D01*
G37*
X143457038Y-106409070D02*
X143368283Y-106441821D01*
X143296378Y-106499750D01*
X143268256Y-106540528D01*
X143237598Y-106615354D01*
X143238235Y-106669458D01*
X143270413Y-106705846D01*
X143282319Y-106712033D01*
X143333725Y-106731325D01*
X143359978Y-106726382D01*
X143368870Y-106693987D01*
X143369323Y-106676092D01*
X143385603Y-106610259D01*
X143428035Y-106564207D01*
X143487012Y-106541964D01*
X143552925Y-106547561D01*
X143606505Y-106576629D01*
X143624602Y-106593210D01*
X143637429Y-106613325D01*
X143646094Y-106643732D01*
X143651704Y-106691188D01*
X143655365Y-106762450D01*
X143658185Y-106864275D01*
X143658916Y-106896515D01*
X143661580Y-107006810D01*
X143664608Y-107084436D01*
X143669150Y-107135796D01*
X143676354Y-107167290D01*
X143687367Y-107185320D01*
X143703340Y-107196288D01*
X143713566Y-107201133D01*
X143756994Y-107217701D01*
X143782558Y-107223169D01*
X143791005Y-107204907D01*
X143796161Y-107149696D01*
X143798054Y-107056899D01*
X143796711Y-106925878D01*
X143796293Y-106905669D01*
X143793342Y-106786133D01*
X143789852Y-106698849D01*
X143784886Y-106636991D01*
X143777507Y-106593736D01*
X143766776Y-106562260D01*
X143751755Y-106535739D01*
X143743898Y-106524375D01*
X143698847Y-106474092D01*
X143648460Y-106434981D01*
X143642292Y-106431567D01*
X143551942Y-106404612D01*
X143457038Y-106409070D01*
G36*
X142568319Y-106564689D02*
G01*
X142568567Y-106710720D01*
X142569528Y-106823055D01*
X142571606Y-106907078D01*
X142575207Y-106968169D01*
X142580735Y-107011709D01*
X142588596Y-107043079D01*
X142599193Y-107067662D01*
X142607218Y-107081694D01*
X142673672Y-107157788D01*
X142757930Y-107205484D01*
X142851151Y-107222599D01*
X142944500Y-107206946D01*
X143000088Y-107178818D01*
X143058443Y-107130160D01*
X143098214Y-107070733D01*
X143122210Y-106992907D01*
X143133239Y-106889052D01*
X143134801Y-106812862D01*
X143134591Y-106807386D01*
X142998092Y-106807386D01*
X142997259Y-106894755D01*
X142993439Y-106952592D01*
X142984654Y-106990429D01*
X142968926Y-107017798D01*
X142950134Y-107038442D01*
X142887025Y-107078290D01*
X142819263Y-107081695D01*
X142755221Y-107048425D01*
X142750236Y-107043917D01*
X142728961Y-107020467D01*
X142715621Y-106992566D01*
X142708399Y-106951041D01*
X142705477Y-106886716D01*
X142705015Y-106815600D01*
X142706017Y-106726258D01*
X142710162Y-106666658D01*
X142719164Y-106627489D01*
X142734733Y-106599440D01*
X142747498Y-106584544D01*
X142806800Y-106546975D01*
X142875099Y-106542457D01*
X142940290Y-106571153D01*
X142952872Y-106581806D01*
X142974289Y-106605463D01*
X142987656Y-106633651D01*
X142994834Y-106675645D01*
X142997681Y-106740719D01*
X142998092Y-106807386D01*
X143134591Y-106807386D01*
X143130078Y-106690165D01*
X143114038Y-106597977D01*
X143083872Y-106528669D01*
X143036771Y-106474611D01*
X143000088Y-106446905D01*
X142933410Y-106416972D01*
X142856128Y-106403078D01*
X142784290Y-106406797D01*
X142744092Y-106421800D01*
X142728318Y-106426070D01*
X142717850Y-106410150D01*
X142710544Y-106367489D01*
X142705015Y-106302506D01*
X142698963Y-106230132D01*
X142690556Y-106186587D01*
X142675259Y-106161687D01*
X142648536Y-106145245D01*
X142631746Y-106137964D01*
X142568246Y-106111363D01*
X142568319Y-106564689D01*
G37*
X142568319Y-106564689D02*
X142568567Y-106710720D01*
X142569528Y-106823055D01*
X142571606Y-106907078D01*
X142575207Y-106968169D01*
X142580735Y-107011709D01*
X142588596Y-107043079D01*
X142599193Y-107067662D01*
X142607218Y-107081694D01*
X142673672Y-107157788D01*
X142757930Y-107205484D01*
X142851151Y-107222599D01*
X142944500Y-107206946D01*
X143000088Y-107178818D01*
X143058443Y-107130160D01*
X143098214Y-107070733D01*
X143122210Y-106992907D01*
X143133239Y-106889052D01*
X143134801Y-106812862D01*
X143134591Y-106807386D01*
X142998092Y-106807386D01*
X142997259Y-106894755D01*
X142993439Y-106952592D01*
X142984654Y-106990429D01*
X142968926Y-107017798D01*
X142950134Y-107038442D01*
X142887025Y-107078290D01*
X142819263Y-107081695D01*
X142755221Y-107048425D01*
X142750236Y-107043917D01*
X142728961Y-107020467D01*
X142715621Y-106992566D01*
X142708399Y-106951041D01*
X142705477Y-106886716D01*
X142705015Y-106815600D01*
X142706017Y-106726258D01*
X142710162Y-106666658D01*
X142719164Y-106627489D01*
X142734733Y-106599440D01*
X142747498Y-106584544D01*
X142806800Y-106546975D01*
X142875099Y-106542457D01*
X142940290Y-106571153D01*
X142952872Y-106581806D01*
X142974289Y-106605463D01*
X142987656Y-106633651D01*
X142994834Y-106675645D01*
X142997681Y-106740719D01*
X142998092Y-106807386D01*
X143134591Y-106807386D01*
X143130078Y-106690165D01*
X143114038Y-106597977D01*
X143083872Y-106528669D01*
X143036771Y-106474611D01*
X143000088Y-106446905D01*
X142933410Y-106416972D01*
X142856128Y-106403078D01*
X142784290Y-106406797D01*
X142744092Y-106421800D01*
X142728318Y-106426070D01*
X142717850Y-106410150D01*
X142710544Y-106367489D01*
X142705015Y-106302506D01*
X142698963Y-106230132D01*
X142690556Y-106186587D01*
X142675259Y-106161687D01*
X142648536Y-106145245D01*
X142631746Y-106137964D01*
X142568246Y-106111363D01*
X142568319Y-106564689D01*
G36*
X141774471Y-106421062D02*
G01*
X141771489Y-106472468D01*
X141769153Y-106550592D01*
X141767651Y-106649257D01*
X141767169Y-106752743D01*
X141767169Y-107102933D01*
X141828999Y-107164763D01*
X141871607Y-107202862D01*
X141909010Y-107218295D01*
X141960130Y-107217318D01*
X141980422Y-107214833D01*
X142043846Y-107207600D01*
X142096305Y-107203455D01*
X142109092Y-107203072D01*
X142152201Y-107205576D01*
X142213856Y-107211862D01*
X142237762Y-107214833D01*
X142296478Y-107219428D01*
X142335936Y-107209446D01*
X142375062Y-107178628D01*
X142389185Y-107164763D01*
X142451015Y-107102933D01*
X142451015Y-106447903D01*
X142401250Y-106425229D01*
X142358398Y-106408434D01*
X142333327Y-106402554D01*
X142326899Y-106421136D01*
X142320891Y-106473055D01*
X142315703Y-106552572D01*
X142311736Y-106653946D01*
X142309823Y-106739592D01*
X142304477Y-107076631D01*
X142257840Y-107083225D01*
X142215424Y-107078614D01*
X142194640Y-107063687D01*
X142188830Y-107035777D01*
X142183870Y-106976325D01*
X142180154Y-106892866D01*
X142178076Y-106792932D01*
X142177776Y-106741504D01*
X142177477Y-106445454D01*
X142115946Y-106424004D01*
X142072396Y-106409420D01*
X142048706Y-106402619D01*
X142048023Y-106402554D01*
X142045646Y-106421042D01*
X142043034Y-106472306D01*
X142040405Y-106550049D01*
X142037979Y-106647974D01*
X142036285Y-106739592D01*
X142030939Y-107076631D01*
X141913708Y-107076631D01*
X141908328Y-106769146D01*
X141902949Y-106461661D01*
X141845799Y-106432107D01*
X141803603Y-106411813D01*
X141778630Y-106402604D01*
X141777909Y-106402554D01*
X141774471Y-106421062D01*
G37*
X141774471Y-106421062D02*
X141771489Y-106472468D01*
X141769153Y-106550592D01*
X141767651Y-106649257D01*
X141767169Y-106752743D01*
X141767169Y-107102933D01*
X141828999Y-107164763D01*
X141871607Y-107202862D01*
X141909010Y-107218295D01*
X141960130Y-107217318D01*
X141980422Y-107214833D01*
X142043846Y-107207600D01*
X142096305Y-107203455D01*
X142109092Y-107203072D01*
X142152201Y-107205576D01*
X142213856Y-107211862D01*
X142237762Y-107214833D01*
X142296478Y-107219428D01*
X142335936Y-107209446D01*
X142375062Y-107178628D01*
X142389185Y-107164763D01*
X142451015Y-107102933D01*
X142451015Y-106447903D01*
X142401250Y-106425229D01*
X142358398Y-106408434D01*
X142333327Y-106402554D01*
X142326899Y-106421136D01*
X142320891Y-106473055D01*
X142315703Y-106552572D01*
X142311736Y-106653946D01*
X142309823Y-106739592D01*
X142304477Y-107076631D01*
X142257840Y-107083225D01*
X142215424Y-107078614D01*
X142194640Y-107063687D01*
X142188830Y-107035777D01*
X142183870Y-106976325D01*
X142180154Y-106892866D01*
X142178076Y-106792932D01*
X142177776Y-106741504D01*
X142177477Y-106445454D01*
X142115946Y-106424004D01*
X142072396Y-106409420D01*
X142048706Y-106402619D01*
X142048023Y-106402554D01*
X142045646Y-106421042D01*
X142043034Y-106472306D01*
X142040405Y-106550049D01*
X142037979Y-106647974D01*
X142036285Y-106739592D01*
X142030939Y-107076631D01*
X141913708Y-107076631D01*
X141908328Y-106769146D01*
X141902949Y-106461661D01*
X141845799Y-106432107D01*
X141803603Y-106411813D01*
X141778630Y-106402604D01*
X141777909Y-106402554D01*
X141774471Y-106421062D01*
G36*
X141283067Y-106417928D02*
G01*
X141226810Y-106443517D01*
X141182653Y-106474524D01*
X141150299Y-106509195D01*
X141127962Y-106553920D01*
X141113854Y-106615092D01*
X141106189Y-106699101D01*
X141103180Y-106812340D01*
X141102862Y-106886909D01*
X141102862Y-107177820D01*
X141152627Y-107200495D01*
X141191824Y-107217067D01*
X141211243Y-107223169D01*
X141214958Y-107205010D01*
X141217905Y-107156048D01*
X141219709Y-107084553D01*
X141220092Y-107027785D01*
X141221739Y-106945771D01*
X141226178Y-106880709D01*
X141232660Y-106840867D01*
X141237810Y-106832400D01*
X141272423Y-106841046D01*
X141326760Y-106863223D01*
X141389678Y-106893286D01*
X141450032Y-106925592D01*
X141496679Y-106954498D01*
X141518474Y-106974361D01*
X141518561Y-106974575D01*
X141516686Y-107011335D01*
X141499875Y-107046426D01*
X141470361Y-107074928D01*
X141427284Y-107084461D01*
X141390468Y-107083350D01*
X141338326Y-107082533D01*
X141310956Y-107094749D01*
X141294518Y-107127024D01*
X141292445Y-107133110D01*
X141285319Y-107179139D01*
X141304376Y-107207087D01*
X141354047Y-107220407D01*
X141407703Y-107222870D01*
X141504258Y-107204610D01*
X141554241Y-107178531D01*
X141615971Y-107117268D01*
X141648710Y-107042070D01*
X141651647Y-106962611D01*
X141623976Y-106888567D01*
X141582353Y-106842169D01*
X141540796Y-106816193D01*
X141475478Y-106783307D01*
X141399362Y-106749957D01*
X141386674Y-106744861D01*
X141303067Y-106707965D01*
X141254870Y-106675446D01*
X141239370Y-106643118D01*
X141253850Y-106606794D01*
X141278708Y-106578400D01*
X141337461Y-106543439D01*
X141402107Y-106540817D01*
X141461392Y-106567758D01*
X141504061Y-106621488D01*
X141509661Y-106635350D01*
X141542267Y-106686336D01*
X141589870Y-106724187D01*
X141649939Y-106755250D01*
X141649939Y-106667168D01*
X141646403Y-106613351D01*
X141631244Y-106570934D01*
X141597632Y-106525679D01*
X141565365Y-106490820D01*
X141515191Y-106441462D01*
X141476207Y-106414947D01*
X141434336Y-106404311D01*
X141386940Y-106402554D01*
X141283067Y-106417928D01*
G37*
X141283067Y-106417928D02*
X141226810Y-106443517D01*
X141182653Y-106474524D01*
X141150299Y-106509195D01*
X141127962Y-106553920D01*
X141113854Y-106615092D01*
X141106189Y-106699101D01*
X141103180Y-106812340D01*
X141102862Y-106886909D01*
X141102862Y-107177820D01*
X141152627Y-107200495D01*
X141191824Y-107217067D01*
X141211243Y-107223169D01*
X141214958Y-107205010D01*
X141217905Y-107156048D01*
X141219709Y-107084553D01*
X141220092Y-107027785D01*
X141221739Y-106945771D01*
X141226178Y-106880709D01*
X141232660Y-106840867D01*
X141237810Y-106832400D01*
X141272423Y-106841046D01*
X141326760Y-106863223D01*
X141389678Y-106893286D01*
X141450032Y-106925592D01*
X141496679Y-106954498D01*
X141518474Y-106974361D01*
X141518561Y-106974575D01*
X141516686Y-107011335D01*
X141499875Y-107046426D01*
X141470361Y-107074928D01*
X141427284Y-107084461D01*
X141390468Y-107083350D01*
X141338326Y-107082533D01*
X141310956Y-107094749D01*
X141294518Y-107127024D01*
X141292445Y-107133110D01*
X141285319Y-107179139D01*
X141304376Y-107207087D01*
X141354047Y-107220407D01*
X141407703Y-107222870D01*
X141504258Y-107204610D01*
X141554241Y-107178531D01*
X141615971Y-107117268D01*
X141648710Y-107042070D01*
X141651647Y-106962611D01*
X141623976Y-106888567D01*
X141582353Y-106842169D01*
X141540796Y-106816193D01*
X141475478Y-106783307D01*
X141399362Y-106749957D01*
X141386674Y-106744861D01*
X141303067Y-106707965D01*
X141254870Y-106675446D01*
X141239370Y-106643118D01*
X141253850Y-106606794D01*
X141278708Y-106578400D01*
X141337461Y-106543439D01*
X141402107Y-106540817D01*
X141461392Y-106567758D01*
X141504061Y-106621488D01*
X141509661Y-106635350D01*
X141542267Y-106686336D01*
X141589870Y-106724187D01*
X141649939Y-106755250D01*
X141649939Y-106667168D01*
X141646403Y-106613351D01*
X141631244Y-106570934D01*
X141597632Y-106525679D01*
X141565365Y-106490820D01*
X141515191Y-106441462D01*
X141476207Y-106414947D01*
X141434336Y-106404311D01*
X141386940Y-106402554D01*
X141283067Y-106417928D01*
G36*
X140599593Y-106421182D02*
G01*
X140576239Y-106431388D01*
X140520498Y-106475534D01*
X140472831Y-106539367D01*
X140443352Y-106607487D01*
X140438554Y-106641070D01*
X140454640Y-106687956D01*
X140489925Y-106712765D01*
X140527756Y-106727787D01*
X140545079Y-106730555D01*
X140553514Y-106710466D01*
X140570170Y-106666751D01*
X140577477Y-106646998D01*
X140618452Y-106578671D01*
X140677778Y-106544591D01*
X140753848Y-106545639D01*
X140759482Y-106546981D01*
X140800095Y-106566236D01*
X140829952Y-106603775D01*
X140850345Y-106664209D01*
X140862564Y-106752151D01*
X140867900Y-106872213D01*
X140868400Y-106936098D01*
X140868648Y-107036803D01*
X140870274Y-107105454D01*
X140874599Y-107149073D01*
X140882946Y-107174682D01*
X140896635Y-107189303D01*
X140916989Y-107199958D01*
X140918166Y-107200495D01*
X140957362Y-107217067D01*
X140976781Y-107223169D01*
X140979765Y-107204719D01*
X140982319Y-107153723D01*
X140984260Y-107076708D01*
X140985403Y-106980205D01*
X140985631Y-106909584D01*
X140984468Y-106772925D01*
X140979921Y-106669251D01*
X140970401Y-106592508D01*
X140954319Y-106536646D01*
X140930087Y-106495612D01*
X140896114Y-106463354D01*
X140862567Y-106440840D01*
X140781901Y-106410876D01*
X140688019Y-106404118D01*
X140599593Y-106421182D01*
G37*
X140599593Y-106421182D02*
X140576239Y-106431388D01*
X140520498Y-106475534D01*
X140472831Y-106539367D01*
X140443352Y-106607487D01*
X140438554Y-106641070D01*
X140454640Y-106687956D01*
X140489925Y-106712765D01*
X140527756Y-106727787D01*
X140545079Y-106730555D01*
X140553514Y-106710466D01*
X140570170Y-106666751D01*
X140577477Y-106646998D01*
X140618452Y-106578671D01*
X140677778Y-106544591D01*
X140753848Y-106545639D01*
X140759482Y-106546981D01*
X140800095Y-106566236D01*
X140829952Y-106603775D01*
X140850345Y-106664209D01*
X140862564Y-106752151D01*
X140867900Y-106872213D01*
X140868400Y-106936098D01*
X140868648Y-107036803D01*
X140870274Y-107105454D01*
X140874599Y-107149073D01*
X140882946Y-107174682D01*
X140896635Y-107189303D01*
X140916989Y-107199958D01*
X140918166Y-107200495D01*
X140957362Y-107217067D01*
X140976781Y-107223169D01*
X140979765Y-107204719D01*
X140982319Y-107153723D01*
X140984260Y-107076708D01*
X140985403Y-106980205D01*
X140985631Y-106909584D01*
X140984468Y-106772925D01*
X140979921Y-106669251D01*
X140970401Y-106592508D01*
X140954319Y-106536646D01*
X140930087Y-106495612D01*
X140896114Y-106463354D01*
X140862567Y-106440840D01*
X140781901Y-106410876D01*
X140688019Y-106404118D01*
X140599593Y-106421182D01*
G36*
X139925176Y-106432238D02*
G01*
X139847872Y-106482761D01*
X139810586Y-106527990D01*
X139781047Y-106610063D01*
X139778701Y-106675007D01*
X139784015Y-106761845D01*
X139984285Y-106849503D01*
X140081661Y-106894287D01*
X140145287Y-106930313D01*
X140178371Y-106961517D01*
X140184120Y-106991836D01*
X140165742Y-107025205D01*
X140145477Y-107047323D01*
X140086511Y-107082793D01*
X140022376Y-107085279D01*
X139963474Y-107057635D01*
X139920203Y-107002720D01*
X139912464Y-106983328D01*
X139875394Y-106922764D01*
X139832746Y-106896952D01*
X139774246Y-106874871D01*
X139774246Y-106958584D01*
X139779418Y-107015550D01*
X139799677Y-107063589D01*
X139842138Y-107118746D01*
X139848449Y-107125914D01*
X139895680Y-107174985D01*
X139936279Y-107201320D01*
X139987072Y-107213435D01*
X140029180Y-107217403D01*
X140104498Y-107218391D01*
X140158114Y-107205866D01*
X140191562Y-107187269D01*
X140244132Y-107146375D01*
X140280521Y-107102148D01*
X140303550Y-107046526D01*
X140316041Y-106971447D01*
X140320813Y-106868849D01*
X140321194Y-106816776D01*
X140319899Y-106754348D01*
X140201929Y-106754348D01*
X140200561Y-106787838D01*
X140197151Y-106793323D01*
X140174647Y-106785872D01*
X140126218Y-106766153D01*
X140061492Y-106738118D01*
X140047957Y-106732092D01*
X139966156Y-106690496D01*
X139921088Y-106653938D01*
X139911183Y-106619696D01*
X139934874Y-106585048D01*
X139954440Y-106569739D01*
X140025040Y-106539121D01*
X140091120Y-106544180D01*
X140146441Y-106581551D01*
X140184764Y-106647873D01*
X140197051Y-106700516D01*
X140201929Y-106754348D01*
X140319899Y-106754348D01*
X140318670Y-106695120D01*
X140309368Y-106605110D01*
X140290940Y-106539567D01*
X140261040Y-106491312D01*
X140217320Y-106453167D01*
X140198259Y-106440840D01*
X140111674Y-106408736D01*
X140016878Y-106406716D01*
X139925176Y-106432238D01*
G37*
X139925176Y-106432238D02*
X139847872Y-106482761D01*
X139810586Y-106527990D01*
X139781047Y-106610063D01*
X139778701Y-106675007D01*
X139784015Y-106761845D01*
X139984285Y-106849503D01*
X140081661Y-106894287D01*
X140145287Y-106930313D01*
X140178371Y-106961517D01*
X140184120Y-106991836D01*
X140165742Y-107025205D01*
X140145477Y-107047323D01*
X140086511Y-107082793D01*
X140022376Y-107085279D01*
X139963474Y-107057635D01*
X139920203Y-107002720D01*
X139912464Y-106983328D01*
X139875394Y-106922764D01*
X139832746Y-106896952D01*
X139774246Y-106874871D01*
X139774246Y-106958584D01*
X139779418Y-107015550D01*
X139799677Y-107063589D01*
X139842138Y-107118746D01*
X139848449Y-107125914D01*
X139895680Y-107174985D01*
X139936279Y-107201320D01*
X139987072Y-107213435D01*
X140029180Y-107217403D01*
X140104498Y-107218391D01*
X140158114Y-107205866D01*
X140191562Y-107187269D01*
X140244132Y-107146375D01*
X140280521Y-107102148D01*
X140303550Y-107046526D01*
X140316041Y-106971447D01*
X140320813Y-106868849D01*
X140321194Y-106816776D01*
X140319899Y-106754348D01*
X140201929Y-106754348D01*
X140200561Y-106787838D01*
X140197151Y-106793323D01*
X140174647Y-106785872D01*
X140126218Y-106766153D01*
X140061492Y-106738118D01*
X140047957Y-106732092D01*
X139966156Y-106690496D01*
X139921088Y-106653938D01*
X139911183Y-106619696D01*
X139934874Y-106585048D01*
X139954440Y-106569739D01*
X140025040Y-106539121D01*
X140091120Y-106544180D01*
X140146441Y-106581551D01*
X140184764Y-106647873D01*
X140197051Y-106700516D01*
X140201929Y-106754348D01*
X140319899Y-106754348D01*
X140318670Y-106695120D01*
X140309368Y-106605110D01*
X140290940Y-106539567D01*
X140261040Y-106491312D01*
X140217320Y-106453167D01*
X140198259Y-106440840D01*
X140111674Y-106408736D01*
X140016878Y-106406716D01*
X139925176Y-106432238D01*
G36*
X144030522Y-100072176D02*
G01*
X143924788Y-100072755D01*
X143848268Y-100074322D01*
X143796028Y-100077372D01*
X143763137Y-100082396D01*
X143744663Y-100089889D01*
X143735673Y-100100344D01*
X143731237Y-100114253D01*
X143730806Y-100116054D01*
X143724067Y-100148545D01*
X143711592Y-100212652D01*
X143694681Y-100301551D01*
X143674629Y-100408419D01*
X143652736Y-100526433D01*
X143651971Y-100530578D01*
X143630041Y-100646231D01*
X143609523Y-100748414D01*
X143591741Y-100830998D01*
X143578019Y-100887856D01*
X143569682Y-100912858D01*
X143569284Y-100913301D01*
X143544723Y-100925510D01*
X143494085Y-100945856D01*
X143428305Y-100969945D01*
X143427939Y-100970074D01*
X143345083Y-101001218D01*
X143247400Y-101040891D01*
X143155323Y-101080781D01*
X143150966Y-101082753D01*
X143000993Y-101150820D01*
X142668902Y-100924039D01*
X142567026Y-100854904D01*
X142474743Y-100793097D01*
X142397397Y-100742133D01*
X142340336Y-100705527D01*
X142308905Y-100686794D01*
X142305921Y-100685404D01*
X142283079Y-100691590D01*
X142240418Y-100721435D01*
X142176272Y-100776347D01*
X142088979Y-100857734D01*
X141999865Y-100944322D01*
X141913959Y-101029647D01*
X141837073Y-101107508D01*
X141773836Y-101173097D01*
X141728877Y-101221605D01*
X141706824Y-101248225D01*
X141706004Y-101249595D01*
X141703566Y-101267863D01*
X141712750Y-101297695D01*
X141735826Y-101343121D01*
X141775063Y-101408170D01*
X141832730Y-101496870D01*
X141909605Y-101611057D01*
X141977830Y-101711562D01*
X142038818Y-101801703D01*
X142089044Y-101876249D01*
X142124984Y-101929965D01*
X142143113Y-101957618D01*
X142144254Y-101959495D01*
X142142041Y-101985990D01*
X142125262Y-102037486D01*
X142097258Y-102104251D01*
X142087278Y-102125572D01*
X142043728Y-102220559D01*
X141997266Y-102328337D01*
X141959523Y-102421592D01*
X141932327Y-102490806D01*
X141910725Y-102543406D01*
X141898242Y-102570897D01*
X141896691Y-102573016D01*
X141873732Y-102576524D01*
X141819614Y-102586138D01*
X141741532Y-102600489D01*
X141646681Y-102618207D01*
X141542257Y-102637925D01*
X141435456Y-102658274D01*
X141333474Y-102677886D01*
X141243506Y-102695391D01*
X141172747Y-102709422D01*
X141128394Y-102718609D01*
X141117515Y-102721207D01*
X141106278Y-102727618D01*
X141097795Y-102742097D01*
X141091686Y-102769533D01*
X141087568Y-102814811D01*
X141085059Y-102882820D01*
X141083779Y-102978447D01*
X141083346Y-103106580D01*
X141083323Y-103159101D01*
X141083323Y-103586245D01*
X141185900Y-103606491D01*
X141242969Y-103617470D01*
X141328131Y-103633495D01*
X141431028Y-103652633D01*
X141541304Y-103672951D01*
X141571785Y-103678532D01*
X141673545Y-103698317D01*
X141762195Y-103717773D01*
X141830292Y-103735097D01*
X141870396Y-103748488D01*
X141877077Y-103752479D01*
X141893481Y-103780742D01*
X141917001Y-103835509D01*
X141943084Y-103905988D01*
X141948258Y-103921169D01*
X141982444Y-104015296D01*
X142024877Y-104121501D01*
X142066403Y-104216873D01*
X142066608Y-104217316D01*
X142135760Y-104366925D01*
X141680888Y-105036017D01*
X141972900Y-105328516D01*
X142061220Y-105415570D01*
X142141775Y-105492309D01*
X142210040Y-105554637D01*
X142261492Y-105598456D01*
X142291606Y-105619670D01*
X142295926Y-105621016D01*
X142321289Y-105610416D01*
X142373042Y-105580947D01*
X142445532Y-105536105D01*
X142533106Y-105479384D01*
X142627788Y-105415862D01*
X142723884Y-105351068D01*
X142809563Y-105294687D01*
X142879384Y-105250188D01*
X142927906Y-105221039D01*
X142949618Y-105210708D01*
X142976107Y-105219450D01*
X143026338Y-105242487D01*
X143089949Y-105275031D01*
X143096692Y-105278649D01*
X143182354Y-105321610D01*
X143241094Y-105342679D01*
X143277628Y-105342903D01*
X143296669Y-105323328D01*
X143296780Y-105323054D01*
X143306298Y-105299872D01*
X143328997Y-105244841D01*
X143363118Y-105162222D01*
X143406900Y-105056272D01*
X143458584Y-104931252D01*
X143516408Y-104791420D01*
X143572409Y-104656037D01*
X143633953Y-104506634D01*
X143690461Y-104368232D01*
X143740239Y-104245073D01*
X143781594Y-104141402D01*
X143812832Y-104061459D01*
X143832259Y-104009488D01*
X143838246Y-103990092D01*
X143823232Y-103967843D01*
X143783961Y-103932382D01*
X143731593Y-103893287D01*
X143582459Y-103769645D01*
X143465889Y-103627922D01*
X143383282Y-103471104D01*
X143336034Y-103302175D01*
X143325543Y-103124122D01*
X143333169Y-103041939D01*
X143374718Y-102871431D01*
X143446277Y-102720859D01*
X143543405Y-102591709D01*
X143661666Y-102485464D01*
X143796620Y-102403610D01*
X143943829Y-102347632D01*
X144098856Y-102319015D01*
X144257261Y-102319244D01*
X144414606Y-102349805D01*
X144566454Y-102412182D01*
X144708365Y-102507860D01*
X144767597Y-102561972D01*
X144881197Y-102700920D01*
X144960294Y-102852761D01*
X145005414Y-103013067D01*
X145017084Y-103177412D01*
X144995831Y-103341371D01*
X144942180Y-103500518D01*
X144856660Y-103650425D01*
X144739795Y-103786667D01*
X144609207Y-103893287D01*
X144554812Y-103934042D01*
X144516386Y-103969118D01*
X144502554Y-103990126D01*
X144509797Y-104013035D01*
X144530395Y-104067765D01*
X144562654Y-104150072D01*
X144604879Y-104255715D01*
X144655377Y-104380450D01*
X144712452Y-104520036D01*
X144768546Y-104656070D01*
X144830433Y-104805601D01*
X144887756Y-104944167D01*
X144938756Y-105067507D01*
X144981673Y-105171364D01*
X145014747Y-105251480D01*
X145036219Y-105303595D01*
X145044175Y-105323054D01*
X145062971Y-105342823D01*
X145099326Y-105342765D01*
X145157921Y-105321841D01*
X145243432Y-105279013D01*
X145244108Y-105278649D01*
X145308493Y-105245412D01*
X145360539Y-105221202D01*
X145389888Y-105210804D01*
X145391183Y-105210708D01*
X145413276Y-105221255D01*
X145462052Y-105250584D01*
X145532069Y-105295227D01*
X145617886Y-105351714D01*
X145713012Y-105415862D01*
X145809860Y-105480811D01*
X145897147Y-105537296D01*
X145969219Y-105581821D01*
X146020423Y-105610890D01*
X146044874Y-105621016D01*
X146067390Y-105607707D01*
X146112658Y-105570512D01*
X146176156Y-105513528D01*
X146253361Y-105440849D01*
X146339749Y-105356571D01*
X146368001Y-105328416D01*
X146660113Y-105035816D01*
X146437769Y-104709504D01*
X146370198Y-104609297D01*
X146310893Y-104519363D01*
X146263183Y-104444910D01*
X146230393Y-104391151D01*
X146215852Y-104363294D01*
X146215426Y-104361312D01*
X146223092Y-104335055D01*
X146243711Y-104282237D01*
X146273715Y-104211710D01*
X146294775Y-104164493D01*
X146334152Y-104074094D01*
X146371235Y-103982766D01*
X146399985Y-103905600D01*
X146407795Y-103882092D01*
X146429983Y-103819316D01*
X146451673Y-103770811D01*
X146463587Y-103752479D01*
X146489877Y-103741259D01*
X146547258Y-103725354D01*
X146628282Y-103706567D01*
X146725505Y-103686699D01*
X146769015Y-103678532D01*
X146879504Y-103658229D01*
X146985484Y-103638570D01*
X147076599Y-103621488D01*
X147142492Y-103608918D01*
X147154900Y-103606491D01*
X147257477Y-103586245D01*
X147257477Y-103159101D01*
X147257247Y-103018646D01*
X147256301Y-102912379D01*
X147254259Y-102835413D01*
X147250738Y-102782860D01*
X147245357Y-102749833D01*
X147237734Y-102731445D01*
X147227488Y-102722808D01*
X147223285Y-102721207D01*
X147197930Y-102715527D01*
X147141916Y-102704195D01*
X147062436Y-102688579D01*
X146966688Y-102670047D01*
X146861867Y-102649969D01*
X146755168Y-102629712D01*
X146653787Y-102610646D01*
X146564921Y-102594139D01*
X146495763Y-102581559D01*
X146453511Y-102574275D01*
X146444110Y-102573016D01*
X146435593Y-102556163D01*
X146416740Y-102511270D01*
X146391076Y-102446830D01*
X146381277Y-102421592D01*
X146341752Y-102324086D01*
X146295208Y-102216359D01*
X146253523Y-102125572D01*
X146222850Y-102056153D01*
X146202444Y-101999110D01*
X146195632Y-101964177D01*
X146196718Y-101959495D01*
X146211115Y-101937391D01*
X146243988Y-101888231D01*
X146291810Y-101817248D01*
X146351052Y-101729678D01*
X146418185Y-101630757D01*
X146431459Y-101611230D01*
X146509354Y-101495540D01*
X146566613Y-101407444D01*
X146605519Y-101342886D01*
X146628356Y-101297811D01*
X146637406Y-101268163D01*
X146634952Y-101249885D01*
X146634889Y-101249769D01*
X146615573Y-101225761D01*
X146572849Y-101179347D01*
X146511349Y-101115337D01*
X146435702Y-101038545D01*
X146350539Y-100953782D01*
X146340935Y-100944322D01*
X146233610Y-100840389D01*
X146150785Y-100764075D01*
X146090795Y-100713971D01*
X146051977Y-100688670D01*
X146034880Y-100685404D01*
X146009927Y-100699650D01*
X145958145Y-100732556D01*
X145884880Y-100780608D01*
X145795480Y-100840290D01*
X145695289Y-100908088D01*
X145671899Y-100924039D01*
X145339807Y-101150820D01*
X145189835Y-101082753D01*
X145098630Y-101043085D01*
X145000731Y-101003191D01*
X144916569Y-100971383D01*
X144912862Y-100970074D01*
X144847031Y-100945976D01*
X144796284Y-100925600D01*
X144771558Y-100913336D01*
X144771516Y-100913301D01*
X144763671Y-100891134D01*
X144750334Y-100836617D01*
X144732830Y-100755880D01*
X144712483Y-100655050D01*
X144690618Y-100540256D01*
X144688829Y-100530578D01*
X144666896Y-100412304D01*
X144646760Y-100304942D01*
X144629720Y-100215317D01*
X144617072Y-100150251D01*
X144610116Y-100116568D01*
X144609994Y-100116054D01*
X144605761Y-100101725D01*
X144597529Y-100090907D01*
X144580367Y-100083106D01*
X144549342Y-100077829D01*
X144499522Y-100074582D01*
X144425976Y-100072872D01*
X144323771Y-100072207D01*
X144187975Y-100072093D01*
X144170400Y-100072092D01*
X144030522Y-100072176D01*
G37*
X144030522Y-100072176D02*
X143924788Y-100072755D01*
X143848268Y-100074322D01*
X143796028Y-100077372D01*
X143763137Y-100082396D01*
X143744663Y-100089889D01*
X143735673Y-100100344D01*
X143731237Y-100114253D01*
X143730806Y-100116054D01*
X143724067Y-100148545D01*
X143711592Y-100212652D01*
X143694681Y-100301551D01*
X143674629Y-100408419D01*
X143652736Y-100526433D01*
X143651971Y-100530578D01*
X143630041Y-100646231D01*
X143609523Y-100748414D01*
X143591741Y-100830998D01*
X143578019Y-100887856D01*
X143569682Y-100912858D01*
X143569284Y-100913301D01*
X143544723Y-100925510D01*
X143494085Y-100945856D01*
X143428305Y-100969945D01*
X143427939Y-100970074D01*
X143345083Y-101001218D01*
X143247400Y-101040891D01*
X143155323Y-101080781D01*
X143150966Y-101082753D01*
X143000993Y-101150820D01*
X142668902Y-100924039D01*
X142567026Y-100854904D01*
X142474743Y-100793097D01*
X142397397Y-100742133D01*
X142340336Y-100705527D01*
X142308905Y-100686794D01*
X142305921Y-100685404D01*
X142283079Y-100691590D01*
X142240418Y-100721435D01*
X142176272Y-100776347D01*
X142088979Y-100857734D01*
X141999865Y-100944322D01*
X141913959Y-101029647D01*
X141837073Y-101107508D01*
X141773836Y-101173097D01*
X141728877Y-101221605D01*
X141706824Y-101248225D01*
X141706004Y-101249595D01*
X141703566Y-101267863D01*
X141712750Y-101297695D01*
X141735826Y-101343121D01*
X141775063Y-101408170D01*
X141832730Y-101496870D01*
X141909605Y-101611057D01*
X141977830Y-101711562D01*
X142038818Y-101801703D01*
X142089044Y-101876249D01*
X142124984Y-101929965D01*
X142143113Y-101957618D01*
X142144254Y-101959495D01*
X142142041Y-101985990D01*
X142125262Y-102037486D01*
X142097258Y-102104251D01*
X142087278Y-102125572D01*
X142043728Y-102220559D01*
X141997266Y-102328337D01*
X141959523Y-102421592D01*
X141932327Y-102490806D01*
X141910725Y-102543406D01*
X141898242Y-102570897D01*
X141896691Y-102573016D01*
X141873732Y-102576524D01*
X141819614Y-102586138D01*
X141741532Y-102600489D01*
X141646681Y-102618207D01*
X141542257Y-102637925D01*
X141435456Y-102658274D01*
X141333474Y-102677886D01*
X141243506Y-102695391D01*
X141172747Y-102709422D01*
X141128394Y-102718609D01*
X141117515Y-102721207D01*
X141106278Y-102727618D01*
X141097795Y-102742097D01*
X141091686Y-102769533D01*
X141087568Y-102814811D01*
X141085059Y-102882820D01*
X141083779Y-102978447D01*
X141083346Y-103106580D01*
X141083323Y-103159101D01*
X141083323Y-103586245D01*
X141185900Y-103606491D01*
X141242969Y-103617470D01*
X141328131Y-103633495D01*
X141431028Y-103652633D01*
X141541304Y-103672951D01*
X141571785Y-103678532D01*
X141673545Y-103698317D01*
X141762195Y-103717773D01*
X141830292Y-103735097D01*
X141870396Y-103748488D01*
X141877077Y-103752479D01*
X141893481Y-103780742D01*
X141917001Y-103835509D01*
X141943084Y-103905988D01*
X141948258Y-103921169D01*
X141982444Y-104015296D01*
X142024877Y-104121501D01*
X142066403Y-104216873D01*
X142066608Y-104217316D01*
X142135760Y-104366925D01*
X141680888Y-105036017D01*
X141972900Y-105328516D01*
X142061220Y-105415570D01*
X142141775Y-105492309D01*
X142210040Y-105554637D01*
X142261492Y-105598456D01*
X142291606Y-105619670D01*
X142295926Y-105621016D01*
X142321289Y-105610416D01*
X142373042Y-105580947D01*
X142445532Y-105536105D01*
X142533106Y-105479384D01*
X142627788Y-105415862D01*
X142723884Y-105351068D01*
X142809563Y-105294687D01*
X142879384Y-105250188D01*
X142927906Y-105221039D01*
X142949618Y-105210708D01*
X142976107Y-105219450D01*
X143026338Y-105242487D01*
X143089949Y-105275031D01*
X143096692Y-105278649D01*
X143182354Y-105321610D01*
X143241094Y-105342679D01*
X143277628Y-105342903D01*
X143296669Y-105323328D01*
X143296780Y-105323054D01*
X143306298Y-105299872D01*
X143328997Y-105244841D01*
X143363118Y-105162222D01*
X143406900Y-105056272D01*
X143458584Y-104931252D01*
X143516408Y-104791420D01*
X143572409Y-104656037D01*
X143633953Y-104506634D01*
X143690461Y-104368232D01*
X143740239Y-104245073D01*
X143781594Y-104141402D01*
X143812832Y-104061459D01*
X143832259Y-104009488D01*
X143838246Y-103990092D01*
X143823232Y-103967843D01*
X143783961Y-103932382D01*
X143731593Y-103893287D01*
X143582459Y-103769645D01*
X143465889Y-103627922D01*
X143383282Y-103471104D01*
X143336034Y-103302175D01*
X143325543Y-103124122D01*
X143333169Y-103041939D01*
X143374718Y-102871431D01*
X143446277Y-102720859D01*
X143543405Y-102591709D01*
X143661666Y-102485464D01*
X143796620Y-102403610D01*
X143943829Y-102347632D01*
X144098856Y-102319015D01*
X144257261Y-102319244D01*
X144414606Y-102349805D01*
X144566454Y-102412182D01*
X144708365Y-102507860D01*
X144767597Y-102561972D01*
X144881197Y-102700920D01*
X144960294Y-102852761D01*
X145005414Y-103013067D01*
X145017084Y-103177412D01*
X144995831Y-103341371D01*
X144942180Y-103500518D01*
X144856660Y-103650425D01*
X144739795Y-103786667D01*
X144609207Y-103893287D01*
X144554812Y-103934042D01*
X144516386Y-103969118D01*
X144502554Y-103990126D01*
X144509797Y-104013035D01*
X144530395Y-104067765D01*
X144562654Y-104150072D01*
X144604879Y-104255715D01*
X144655377Y-104380450D01*
X144712452Y-104520036D01*
X144768546Y-104656070D01*
X144830433Y-104805601D01*
X144887756Y-104944167D01*
X144938756Y-105067507D01*
X144981673Y-105171364D01*
X145014747Y-105251480D01*
X145036219Y-105303595D01*
X145044175Y-105323054D01*
X145062971Y-105342823D01*
X145099326Y-105342765D01*
X145157921Y-105321841D01*
X145243432Y-105279013D01*
X145244108Y-105278649D01*
X145308493Y-105245412D01*
X145360539Y-105221202D01*
X145389888Y-105210804D01*
X145391183Y-105210708D01*
X145413276Y-105221255D01*
X145462052Y-105250584D01*
X145532069Y-105295227D01*
X145617886Y-105351714D01*
X145713012Y-105415862D01*
X145809860Y-105480811D01*
X145897147Y-105537296D01*
X145969219Y-105581821D01*
X146020423Y-105610890D01*
X146044874Y-105621016D01*
X146067390Y-105607707D01*
X146112658Y-105570512D01*
X146176156Y-105513528D01*
X146253361Y-105440849D01*
X146339749Y-105356571D01*
X146368001Y-105328416D01*
X146660113Y-105035816D01*
X146437769Y-104709504D01*
X146370198Y-104609297D01*
X146310893Y-104519363D01*
X146263183Y-104444910D01*
X146230393Y-104391151D01*
X146215852Y-104363294D01*
X146215426Y-104361312D01*
X146223092Y-104335055D01*
X146243711Y-104282237D01*
X146273715Y-104211710D01*
X146294775Y-104164493D01*
X146334152Y-104074094D01*
X146371235Y-103982766D01*
X146399985Y-103905600D01*
X146407795Y-103882092D01*
X146429983Y-103819316D01*
X146451673Y-103770811D01*
X146463587Y-103752479D01*
X146489877Y-103741259D01*
X146547258Y-103725354D01*
X146628282Y-103706567D01*
X146725505Y-103686699D01*
X146769015Y-103678532D01*
X146879504Y-103658229D01*
X146985484Y-103638570D01*
X147076599Y-103621488D01*
X147142492Y-103608918D01*
X147154900Y-103606491D01*
X147257477Y-103586245D01*
X147257477Y-103159101D01*
X147257247Y-103018646D01*
X147256301Y-102912379D01*
X147254259Y-102835413D01*
X147250738Y-102782860D01*
X147245357Y-102749833D01*
X147237734Y-102731445D01*
X147227488Y-102722808D01*
X147223285Y-102721207D01*
X147197930Y-102715527D01*
X147141916Y-102704195D01*
X147062436Y-102688579D01*
X146966688Y-102670047D01*
X146861867Y-102649969D01*
X146755168Y-102629712D01*
X146653787Y-102610646D01*
X146564921Y-102594139D01*
X146495763Y-102581559D01*
X146453511Y-102574275D01*
X146444110Y-102573016D01*
X146435593Y-102556163D01*
X146416740Y-102511270D01*
X146391076Y-102446830D01*
X146381277Y-102421592D01*
X146341752Y-102324086D01*
X146295208Y-102216359D01*
X146253523Y-102125572D01*
X146222850Y-102056153D01*
X146202444Y-101999110D01*
X146195632Y-101964177D01*
X146196718Y-101959495D01*
X146211115Y-101937391D01*
X146243988Y-101888231D01*
X146291810Y-101817248D01*
X146351052Y-101729678D01*
X146418185Y-101630757D01*
X146431459Y-101611230D01*
X146509354Y-101495540D01*
X146566613Y-101407444D01*
X146605519Y-101342886D01*
X146628356Y-101297811D01*
X146637406Y-101268163D01*
X146634952Y-101249885D01*
X146634889Y-101249769D01*
X146615573Y-101225761D01*
X146572849Y-101179347D01*
X146511349Y-101115337D01*
X146435702Y-101038545D01*
X146350539Y-100953782D01*
X146340935Y-100944322D01*
X146233610Y-100840389D01*
X146150785Y-100764075D01*
X146090795Y-100713971D01*
X146051977Y-100688670D01*
X146034880Y-100685404D01*
X146009927Y-100699650D01*
X145958145Y-100732556D01*
X145884880Y-100780608D01*
X145795480Y-100840290D01*
X145695289Y-100908088D01*
X145671899Y-100924039D01*
X145339807Y-101150820D01*
X145189835Y-101082753D01*
X145098630Y-101043085D01*
X145000731Y-101003191D01*
X144916569Y-100971383D01*
X144912862Y-100970074D01*
X144847031Y-100945976D01*
X144796284Y-100925600D01*
X144771558Y-100913336D01*
X144771516Y-100913301D01*
X144763671Y-100891134D01*
X144750334Y-100836617D01*
X144732830Y-100755880D01*
X144712483Y-100655050D01*
X144690618Y-100540256D01*
X144688829Y-100530578D01*
X144666896Y-100412304D01*
X144646760Y-100304942D01*
X144629720Y-100215317D01*
X144617072Y-100150251D01*
X144610116Y-100116568D01*
X144609994Y-100116054D01*
X144605761Y-100101725D01*
X144597529Y-100090907D01*
X144580367Y-100083106D01*
X144549342Y-100077829D01*
X144499522Y-100074582D01*
X144425976Y-100072872D01*
X144323771Y-100072207D01*
X144187975Y-100072093D01*
X144170400Y-100072092D01*
X144030522Y-100072176D01*
D12*
%TO.C,U3*%
X137891100Y-97329400D02*
X137891100Y-98279400D01*
X142141100Y-98279400D02*
X142141100Y-97329400D01*
X141291100Y-99079400D02*
X138691100Y-99079400D01*
X138691100Y-99079400D02*
X138441100Y-98829400D01*
X138041100Y-98429400D02*
X137891100Y-98279400D01*
X141291100Y-99079400D02*
X141541100Y-98829400D01*
X141991100Y-98429400D02*
X142141100Y-98279400D01*
D13*
X140773004Y-95921580D02*
X140773004Y-96731104D01*
X140725385Y-96826342D01*
X140677766Y-96873961D01*
X140582528Y-96921580D01*
X140392052Y-96921580D01*
X140296814Y-96873961D01*
X140249195Y-96826342D01*
X140201576Y-96731104D01*
X140201576Y-95921580D01*
X139820623Y-95921580D02*
X139201576Y-95921580D01*
X139534909Y-96302533D01*
X139392052Y-96302533D01*
X139296814Y-96350152D01*
X139249195Y-96397771D01*
X139201576Y-96493009D01*
X139201576Y-96731104D01*
X139249195Y-96826342D01*
X139296814Y-96873961D01*
X139392052Y-96921580D01*
X139677766Y-96921580D01*
X139773004Y-96873961D01*
X139820623Y-96826342D01*
%TD*%
M02*
