M48
; DRILL file {KiCad (5.1.9)-1} date 03/20/21 03:42:36
; FORMAT={-:-/ absolute / inch / decimal}
; #@! TF.CreationDate,2021-03-20T03:42:36+00:00
; #@! TF.GenerationSoftware,Kicad,Pcbnew,(5.1.9)-1
; #@! TF.FileFunction,Plated,1,2,PTH
FMAT,2
INCH
T1C0.0157
T2C0.0276
T3C0.0295
T4C0.0394
T5C0.1260
%
G90
G05
T1
X5.2125Y-4.3925
X5.5015Y-4.1735
X5.64Y-4.2425
X5.6875Y-4.235
X5.6925Y-4.18
X5.745Y-4.03
X5.82Y-4.205
X5.826Y-4.154
X5.876Y-3.9887
T2
X5.4603Y-3.956
X5.5603Y-3.956
T3
X5.4622Y-3.8575
X5.5122Y-3.8575
X5.5622Y-3.8575
T4
X5.5394Y-4.4265
X5.6394Y-4.4265
X5.7394Y-4.4265
X6.0228Y-3.8775
X6.0228Y-3.9775
X6.1228Y-3.8775
X6.1228Y-3.9775
X6.2228Y-3.8775
X6.2228Y-3.9775
X6.4418Y-4.3263
X6.4425Y-3.9422
X6.4825Y-4.0842
X6.4825Y-4.1842
X6.5418Y-4.3263
X6.5425Y-3.9422
X6.6418Y-4.3263
X6.6425Y-3.9422
T5
X5.0315Y-3.9253
X6.1654Y-4.3387
T0
M30
