M48
; DRILL file {KiCad (5.1.9)-1} date 02/27/21 13:09:50
; FORMAT={-:-/ absolute / inch / decimal}
; #@! TF.CreationDate,2021-02-27T13:09:50+00:00
; #@! TF.GenerationSoftware,Kicad,Pcbnew,(5.1.9)-1
; #@! TF.FileFunction,Plated,1,2,PTH
FMAT,2
INCH
T1C0.0157
T2C0.0295
T3C0.0394
T4C0.1260
%
G90
G05
T1
X5.516Y-4.146
X5.546Y-4.286
X5.644Y-4.352
X5.824Y-4.286
X5.87Y-4.252
X5.876Y-3.9887
X5.882Y-4.394
X5.998Y-4.248
T2
X5.4622Y-3.8575
X5.5122Y-3.8575
X5.5622Y-3.8575
T3
X6.0228Y-3.8775
X6.0228Y-3.9775
X6.1228Y-3.8775
X6.1228Y-3.9775
X6.2228Y-3.8775
X6.2228Y-3.9775
X6.4632Y-3.8775
X6.4632Y-3.9775
X6.4632Y-4.0775
X6.4632Y-4.1775
X6.4632Y-4.2775
X6.4632Y-4.3775
X6.708Y-3.8775
X6.708Y-3.9775
X6.708Y-4.0775
X6.708Y-4.1775
X6.708Y-4.2775
X6.708Y-4.3775
T4
X5.0315Y-3.9253
X6.1654Y-4.3387
T0
M30
