%TF.GenerationSoftware,KiCad,Pcbnew,(5.1.9)-1*%
%TF.CreationDate,2021-03-20T03:42:34+00:00*%
%TF.ProjectId,filaSens-attiny84,66696c61-5365-46e7-932d-617474696e79,rev?*%
%TF.SameCoordinates,Original*%
%TF.FileFunction,Legend,Top*%
%TF.FilePolarity,Positive*%
%FSLAX46Y46*%
G04 Gerber Fmt 4.6, Leading zero omitted, Abs format (unit mm)*
G04 Created by KiCad (PCBNEW (5.1.9)-1) date 2021-03-20 03:42:34*
%MOMM*%
%LPD*%
G01*
G04 APERTURE LIST*
%ADD10C,0.120000*%
%ADD11C,0.160000*%
%ADD12C,0.100000*%
%ADD13C,0.130000*%
G04 APERTURE END LIST*
D10*
X145227571Y-114058000D02*
X145156143Y-114022285D01*
X145049000Y-114022285D01*
X144941857Y-114058000D01*
X144870428Y-114129428D01*
X144834714Y-114200857D01*
X144799000Y-114343714D01*
X144799000Y-114450857D01*
X144834714Y-114593714D01*
X144870428Y-114665142D01*
X144941857Y-114736571D01*
X145049000Y-114772285D01*
X145120428Y-114772285D01*
X145227571Y-114736571D01*
X145263285Y-114700857D01*
X145263285Y-114450857D01*
X145120428Y-114450857D01*
X145584714Y-114772285D02*
X145584714Y-114022285D01*
X146013285Y-114772285D01*
X146013285Y-114022285D01*
X146370428Y-114772285D02*
X146370428Y-114022285D01*
X146549000Y-114022285D01*
X146656143Y-114058000D01*
X146727571Y-114129428D01*
X146763285Y-114200857D01*
X146799000Y-114343714D01*
X146799000Y-114450857D01*
X146763285Y-114593714D01*
X146727571Y-114665142D01*
X146656143Y-114736571D01*
X146549000Y-114772285D01*
X146370428Y-114772285D01*
X143133999Y-114772285D02*
X142883999Y-114415142D01*
X142705428Y-114772285D02*
X142705428Y-114022285D01*
X142991142Y-114022285D01*
X143062571Y-114058000D01*
X143098285Y-114093714D01*
X143133999Y-114165142D01*
X143133999Y-114272285D01*
X143098285Y-114343714D01*
X143062571Y-114379428D01*
X142991142Y-114415142D01*
X142705428Y-114415142D01*
X143383999Y-114022285D02*
X143883999Y-114772285D01*
X143883999Y-114022285D02*
X143383999Y-114772285D01*
X140147571Y-114022285D02*
X140576143Y-114022285D01*
X140361857Y-114772285D02*
X140361857Y-114022285D01*
X140754714Y-114022285D02*
X141254714Y-114772285D01*
X141254714Y-114022285D02*
X140754714Y-114772285D01*
X169068600Y-111939528D02*
X169104314Y-111868100D01*
X169104314Y-111760957D01*
X169068600Y-111653814D01*
X168997171Y-111582385D01*
X168925742Y-111546671D01*
X168782885Y-111510957D01*
X168675742Y-111510957D01*
X168532885Y-111546671D01*
X168461457Y-111582385D01*
X168390028Y-111653814D01*
X168354314Y-111760957D01*
X168354314Y-111832385D01*
X168390028Y-111939528D01*
X168425742Y-111975242D01*
X168675742Y-111975242D01*
X168675742Y-111832385D01*
X168354314Y-112296671D02*
X169104314Y-112296671D01*
X168354314Y-112725242D01*
X169104314Y-112725242D01*
X168354314Y-113082385D02*
X169104314Y-113082385D01*
X169104314Y-113260957D01*
X169068600Y-113368100D01*
X168997171Y-113439528D01*
X168925742Y-113475242D01*
X168782885Y-113510957D01*
X168675742Y-113510957D01*
X168532885Y-113475242D01*
X168461457Y-113439528D01*
X168390028Y-113368100D01*
X168354314Y-113260957D01*
X168354314Y-113082385D01*
X166564314Y-111689528D02*
X166564314Y-111832385D01*
X166528600Y-111903814D01*
X166457171Y-111975242D01*
X166314314Y-112010957D01*
X166064314Y-112010957D01*
X165921457Y-111975242D01*
X165850028Y-111903814D01*
X165814314Y-111832385D01*
X165814314Y-111689528D01*
X165850028Y-111618100D01*
X165921457Y-111546671D01*
X166064314Y-111510957D01*
X166314314Y-111510957D01*
X166457171Y-111546671D01*
X166528600Y-111618100D01*
X166564314Y-111689528D01*
X166564314Y-112332385D02*
X165957171Y-112332385D01*
X165885742Y-112368100D01*
X165850028Y-112403814D01*
X165814314Y-112475242D01*
X165814314Y-112618100D01*
X165850028Y-112689528D01*
X165885742Y-112725242D01*
X165957171Y-112760957D01*
X166564314Y-112760957D01*
X166564314Y-113010957D02*
X166564314Y-113439528D01*
X165814314Y-113225242D02*
X166564314Y-113225242D01*
X163667171Y-111796671D02*
X163667171Y-111546671D01*
X163274314Y-111546671D02*
X164024314Y-111546671D01*
X164024314Y-111903814D01*
X163488600Y-112153814D02*
X163488600Y-112510957D01*
X163274314Y-112082385D02*
X164024314Y-112332385D01*
X163274314Y-112582385D01*
X164024314Y-112832385D02*
X163417171Y-112832385D01*
X163345742Y-112868100D01*
X163310028Y-112903814D01*
X163274314Y-112975242D01*
X163274314Y-113118100D01*
X163310028Y-113189528D01*
X163345742Y-113225242D01*
X163417171Y-113260957D01*
X164024314Y-113260957D01*
X163274314Y-113975242D02*
X163274314Y-113618100D01*
X164024314Y-113618100D01*
X164024314Y-114118100D02*
X164024314Y-114546671D01*
X163274314Y-114332385D02*
X164024314Y-114332385D01*
X168352000Y-98093071D02*
X168316285Y-98164500D01*
X168316285Y-98271642D01*
X168352000Y-98378785D01*
X168423428Y-98450214D01*
X168494857Y-98485928D01*
X168637714Y-98521642D01*
X168744857Y-98521642D01*
X168887714Y-98485928D01*
X168959142Y-98450214D01*
X169030571Y-98378785D01*
X169066285Y-98271642D01*
X169066285Y-98200214D01*
X169030571Y-98093071D01*
X168994857Y-98057357D01*
X168744857Y-98057357D01*
X168744857Y-98200214D01*
X169066285Y-97735928D02*
X168316285Y-97735928D01*
X169066285Y-97307357D01*
X168316285Y-97307357D01*
X169066285Y-96950214D02*
X168316285Y-96950214D01*
X168316285Y-96771642D01*
X168352000Y-96664500D01*
X168423428Y-96593071D01*
X168494857Y-96557357D01*
X168637714Y-96521642D01*
X168744857Y-96521642D01*
X168887714Y-96557357D01*
X168959142Y-96593071D01*
X169030571Y-96664500D01*
X169066285Y-96771642D01*
X169066285Y-96950214D01*
X166490571Y-98521642D02*
X166526285Y-98414500D01*
X166526285Y-98235928D01*
X166490571Y-98164500D01*
X166454857Y-98128785D01*
X166383428Y-98093071D01*
X166312000Y-98093071D01*
X166240571Y-98128785D01*
X166204857Y-98164500D01*
X166169142Y-98235928D01*
X166133428Y-98378785D01*
X166097714Y-98450214D01*
X166062000Y-98485928D01*
X165990571Y-98521642D01*
X165919142Y-98521642D01*
X165847714Y-98485928D01*
X165812000Y-98450214D01*
X165776285Y-98378785D01*
X165776285Y-98200214D01*
X165812000Y-98093071D01*
X166454857Y-97343071D02*
X166490571Y-97378785D01*
X166526285Y-97485928D01*
X166526285Y-97557357D01*
X166490571Y-97664500D01*
X166419142Y-97735928D01*
X166347714Y-97771642D01*
X166204857Y-97807357D01*
X166097714Y-97807357D01*
X165954857Y-97771642D01*
X165883428Y-97735928D01*
X165812000Y-97664500D01*
X165776285Y-97557357D01*
X165776285Y-97485928D01*
X165812000Y-97378785D01*
X165847714Y-97343071D01*
X166526285Y-96664500D02*
X166526285Y-97021642D01*
X165776285Y-97021642D01*
X163950571Y-98521642D02*
X163986285Y-98414500D01*
X163986285Y-98235928D01*
X163950571Y-98164500D01*
X163914857Y-98128785D01*
X163843428Y-98093071D01*
X163772000Y-98093071D01*
X163700571Y-98128785D01*
X163664857Y-98164500D01*
X163629142Y-98235928D01*
X163593428Y-98378785D01*
X163557714Y-98450214D01*
X163522000Y-98485928D01*
X163450571Y-98521642D01*
X163379142Y-98521642D01*
X163307714Y-98485928D01*
X163272000Y-98450214D01*
X163236285Y-98378785D01*
X163236285Y-98200214D01*
X163272000Y-98093071D01*
X163986285Y-97771642D02*
X163236285Y-97771642D01*
X163236285Y-97593071D01*
X163272000Y-97485928D01*
X163343428Y-97414500D01*
X163414857Y-97378785D01*
X163557714Y-97343071D01*
X163664857Y-97343071D01*
X163807714Y-97378785D01*
X163879142Y-97414500D01*
X163950571Y-97485928D01*
X163986285Y-97593071D01*
X163986285Y-97771642D01*
X163772000Y-97057357D02*
X163772000Y-96700214D01*
X163986285Y-97128785D02*
X163236285Y-96878785D01*
X163986285Y-96628785D01*
X162308300Y-106832028D02*
X162272585Y-106903457D01*
X162272585Y-107010599D01*
X162308300Y-107117742D01*
X162379728Y-107189171D01*
X162451157Y-107224885D01*
X162594014Y-107260599D01*
X162701157Y-107260599D01*
X162844014Y-107224885D01*
X162915442Y-107189171D01*
X162986871Y-107117742D01*
X163022585Y-107010599D01*
X163022585Y-106939171D01*
X162986871Y-106832028D01*
X162951157Y-106796314D01*
X162701157Y-106796314D01*
X162701157Y-106939171D01*
X163022585Y-106474885D02*
X162272585Y-106474885D01*
X163022585Y-106046314D01*
X162272585Y-106046314D01*
X163022585Y-105689171D02*
X162272585Y-105689171D01*
X162272585Y-105510599D01*
X162308300Y-105403457D01*
X162379728Y-105332028D01*
X162451157Y-105296314D01*
X162594014Y-105260599D01*
X162701157Y-105260599D01*
X162844014Y-105296314D01*
X162915442Y-105332028D01*
X162986871Y-105403457D01*
X163022585Y-105510599D01*
X163022585Y-105689171D01*
D11*
X139442109Y-106468523D02*
X139442109Y-107075666D01*
X139401633Y-107197095D01*
X139320680Y-107278047D01*
X139199252Y-107318523D01*
X139118300Y-107318523D01*
X140251633Y-107318523D02*
X139846871Y-107318523D01*
X139846871Y-106468523D01*
X141020680Y-107237571D02*
X140980204Y-107278047D01*
X140858776Y-107318523D01*
X140777823Y-107318523D01*
X140656395Y-107278047D01*
X140575442Y-107197095D01*
X140534966Y-107116142D01*
X140494490Y-106954238D01*
X140494490Y-106832809D01*
X140534966Y-106670904D01*
X140575442Y-106589952D01*
X140656395Y-106509000D01*
X140777823Y-106468523D01*
X140858776Y-106468523D01*
X140980204Y-106509000D01*
X141020680Y-106549476D01*
X141627823Y-106468523D02*
X141627823Y-107075666D01*
X141587347Y-107197095D01*
X141506395Y-107278047D01*
X141384966Y-107318523D01*
X141304014Y-107318523D01*
X142437347Y-107318523D02*
X142032585Y-107318523D01*
X142032585Y-106468523D01*
X143206395Y-107237571D02*
X143165919Y-107278047D01*
X143044490Y-107318523D01*
X142963538Y-107318523D01*
X142842109Y-107278047D01*
X142761157Y-107197095D01*
X142720680Y-107116142D01*
X142680204Y-106954238D01*
X142680204Y-106832809D01*
X142720680Y-106670904D01*
X142761157Y-106589952D01*
X142842109Y-106509000D01*
X142963538Y-106468523D01*
X143044490Y-106468523D01*
X143165919Y-106509000D01*
X143206395Y-106549476D01*
X143813538Y-106468523D02*
X143813538Y-107075666D01*
X143773061Y-107197095D01*
X143692109Y-107278047D01*
X143570680Y-107318523D01*
X143489728Y-107318523D01*
X144623061Y-107318523D02*
X144218300Y-107318523D01*
X144218300Y-106468523D01*
X145392109Y-107237571D02*
X145351633Y-107278047D01*
X145230204Y-107318523D01*
X145149252Y-107318523D01*
X145027823Y-107278047D01*
X144946871Y-107197095D01*
X144906395Y-107116142D01*
X144865919Y-106954238D01*
X144865919Y-106832809D01*
X144906395Y-106670904D01*
X144946871Y-106589952D01*
X145027823Y-106509000D01*
X145149252Y-106468523D01*
X145230204Y-106468523D01*
X145351633Y-106509000D01*
X145392109Y-106549476D01*
X145999252Y-106468523D02*
X145999252Y-107075666D01*
X145958776Y-107197095D01*
X145877823Y-107278047D01*
X145756395Y-107318523D01*
X145675442Y-107318523D01*
X146808776Y-107318523D02*
X146404014Y-107318523D01*
X146404014Y-106468523D01*
X147577823Y-107237571D02*
X147537347Y-107278047D01*
X147415919Y-107318523D01*
X147334966Y-107318523D01*
X147213538Y-107278047D01*
X147132585Y-107197095D01*
X147092109Y-107116142D01*
X147051633Y-106954238D01*
X147051633Y-106832809D01*
X147092109Y-106670904D01*
X147132585Y-106589952D01*
X147213538Y-106509000D01*
X147334966Y-106468523D01*
X147415919Y-106468523D01*
X147537347Y-106509000D01*
X147577823Y-106549476D01*
D10*
X162272585Y-103863457D02*
X162272585Y-104220600D01*
X162629728Y-104256314D01*
X162594014Y-104220600D01*
X162558300Y-104149172D01*
X162558300Y-103970600D01*
X162594014Y-103899172D01*
X162629728Y-103863457D01*
X162701157Y-103827743D01*
X162879728Y-103827743D01*
X162951157Y-103863457D01*
X162986871Y-103899172D01*
X163022585Y-103970600D01*
X163022585Y-104149172D01*
X162986871Y-104220600D01*
X162951157Y-104256314D01*
X162272585Y-103613457D02*
X163022585Y-103363457D01*
X162272585Y-103113457D01*
D12*
X157941267Y-102581166D02*
X157607933Y-102581166D01*
X157574600Y-102914500D01*
X157607933Y-102881166D01*
X157674600Y-102847833D01*
X157841267Y-102847833D01*
X157907933Y-102881166D01*
X157941267Y-102914500D01*
X157974600Y-102981166D01*
X157974600Y-103147833D01*
X157941267Y-103214500D01*
X157907933Y-103247833D01*
X157841267Y-103281166D01*
X157674600Y-103281166D01*
X157607933Y-103247833D01*
X157574600Y-103214500D01*
X158174600Y-102581166D02*
X158407933Y-103281166D01*
X158641267Y-102581166D01*
X154434600Y-103281166D02*
X154434600Y-102581166D01*
X154667934Y-103081166D01*
X154901267Y-102581166D01*
X154901267Y-103281166D01*
X155367934Y-102581166D02*
X155501267Y-102581166D01*
X155567934Y-102614500D01*
X155634600Y-102681166D01*
X155667934Y-102814500D01*
X155667934Y-103047833D01*
X155634600Y-103181166D01*
X155567934Y-103247833D01*
X155501267Y-103281166D01*
X155367934Y-103281166D01*
X155301267Y-103247833D01*
X155234600Y-103181166D01*
X155201267Y-103047833D01*
X155201267Y-102814500D01*
X155234600Y-102681166D01*
X155301267Y-102614500D01*
X155367934Y-102581166D01*
X155934600Y-103247833D02*
X156034600Y-103281166D01*
X156201267Y-103281166D01*
X156267934Y-103247833D01*
X156301267Y-103214500D01*
X156334600Y-103147833D01*
X156334600Y-103081166D01*
X156301267Y-103014500D01*
X156267934Y-102981166D01*
X156201267Y-102947833D01*
X156067934Y-102914500D01*
X156001267Y-102881166D01*
X155967934Y-102847833D01*
X155934600Y-102781166D01*
X155934600Y-102714500D01*
X155967934Y-102647833D01*
X156001267Y-102614500D01*
X156067934Y-102581166D01*
X156234600Y-102581166D01*
X156334600Y-102614500D01*
X156634600Y-103281166D02*
X156634600Y-102581166D01*
X152461267Y-102614500D02*
X152394600Y-102581166D01*
X152294600Y-102581166D01*
X152194600Y-102614500D01*
X152127934Y-102681166D01*
X152094600Y-102747833D01*
X152061267Y-102881166D01*
X152061267Y-102981166D01*
X152094600Y-103114500D01*
X152127934Y-103181166D01*
X152194600Y-103247833D01*
X152294600Y-103281166D01*
X152361267Y-103281166D01*
X152461267Y-103247833D01*
X152494600Y-103214500D01*
X152494600Y-102981166D01*
X152361267Y-102981166D01*
X152794600Y-103281166D02*
X152794600Y-102581166D01*
X153194600Y-103281166D01*
X153194600Y-102581166D01*
X153527934Y-103281166D02*
X153527934Y-102581166D01*
X153694600Y-102581166D01*
X153794600Y-102614500D01*
X153861267Y-102681166D01*
X153894600Y-102747833D01*
X153927934Y-102881166D01*
X153927934Y-102981166D01*
X153894600Y-103114500D01*
X153861267Y-103181166D01*
X153794600Y-103247833D01*
X153694600Y-103281166D01*
X153527934Y-103281166D01*
X152611266Y-96918466D02*
X152377933Y-96585133D01*
X152211266Y-96918466D02*
X152211266Y-96218466D01*
X152477933Y-96218466D01*
X152544600Y-96251800D01*
X152577933Y-96285133D01*
X152611266Y-96351800D01*
X152611266Y-96451800D01*
X152577933Y-96518466D01*
X152544600Y-96551800D01*
X152477933Y-96585133D01*
X152211266Y-96585133D01*
X152877933Y-96885133D02*
X152977933Y-96918466D01*
X153144600Y-96918466D01*
X153211266Y-96885133D01*
X153244600Y-96851800D01*
X153277933Y-96785133D01*
X153277933Y-96718466D01*
X153244600Y-96651800D01*
X153211266Y-96618466D01*
X153144600Y-96585133D01*
X153011266Y-96551800D01*
X152944600Y-96518466D01*
X152911266Y-96485133D01*
X152877933Y-96418466D01*
X152877933Y-96351800D01*
X152911266Y-96285133D01*
X152944600Y-96251800D01*
X153011266Y-96218466D01*
X153177933Y-96218466D01*
X153277933Y-96251800D01*
X153477933Y-96218466D02*
X153877933Y-96218466D01*
X153677933Y-96918466D02*
X153677933Y-96218466D01*
X154634600Y-96885133D02*
X154734600Y-96918466D01*
X154901267Y-96918466D01*
X154967933Y-96885133D01*
X155001267Y-96851800D01*
X155034600Y-96785133D01*
X155034600Y-96718466D01*
X155001267Y-96651800D01*
X154967933Y-96618466D01*
X154901267Y-96585133D01*
X154767933Y-96551800D01*
X154701267Y-96518466D01*
X154667933Y-96485133D01*
X154634600Y-96418466D01*
X154634600Y-96351800D01*
X154667933Y-96285133D01*
X154701267Y-96251800D01*
X154767933Y-96218466D01*
X154934600Y-96218466D01*
X155034600Y-96251800D01*
X155734600Y-96851800D02*
X155701267Y-96885133D01*
X155601267Y-96918466D01*
X155534600Y-96918466D01*
X155434600Y-96885133D01*
X155367933Y-96818466D01*
X155334600Y-96751800D01*
X155301267Y-96618466D01*
X155301267Y-96518466D01*
X155334600Y-96385133D01*
X155367933Y-96318466D01*
X155434600Y-96251800D01*
X155534600Y-96218466D01*
X155601267Y-96218466D01*
X155701267Y-96251800D01*
X155734600Y-96285133D01*
X156034600Y-96918466D02*
X156034600Y-96218466D01*
X156434600Y-96918466D02*
X156134600Y-96518466D01*
X156434600Y-96218466D02*
X156034600Y-96618466D01*
X156974600Y-96918466D02*
X156974600Y-96218466D01*
X157207934Y-96718466D01*
X157441267Y-96218466D01*
X157441267Y-96918466D01*
X157774600Y-96918466D02*
X157774600Y-96218466D01*
X158074600Y-96885133D02*
X158174600Y-96918466D01*
X158341267Y-96918466D01*
X158407934Y-96885133D01*
X158441267Y-96851800D01*
X158474600Y-96785133D01*
X158474600Y-96718466D01*
X158441267Y-96651800D01*
X158407934Y-96618466D01*
X158341267Y-96585133D01*
X158207934Y-96551800D01*
X158141267Y-96518466D01*
X158107934Y-96485133D01*
X158074600Y-96418466D01*
X158074600Y-96351800D01*
X158107934Y-96285133D01*
X158141267Y-96251800D01*
X158207934Y-96218466D01*
X158374600Y-96218466D01*
X158474600Y-96251800D01*
X158907934Y-96218466D02*
X159041267Y-96218466D01*
X159107934Y-96251800D01*
X159174600Y-96318466D01*
X159207934Y-96451800D01*
X159207934Y-96685133D01*
X159174600Y-96818466D01*
X159107934Y-96885133D01*
X159041267Y-96918466D01*
X158907934Y-96918466D01*
X158841267Y-96885133D01*
X158774600Y-96818466D01*
X158741267Y-96685133D01*
X158741267Y-96451800D01*
X158774600Y-96318466D01*
X158841267Y-96251800D01*
X158907934Y-96218466D01*
D13*
X139439671Y-96058485D02*
X139439671Y-96665628D01*
X139475385Y-96737057D01*
X139511100Y-96772771D01*
X139582528Y-96808485D01*
X139725385Y-96808485D01*
X139796814Y-96772771D01*
X139832528Y-96737057D01*
X139868242Y-96665628D01*
X139868242Y-96058485D01*
X140153957Y-96058485D02*
X140618242Y-96058485D01*
X140368242Y-96344200D01*
X140475385Y-96344200D01*
X140546814Y-96379914D01*
X140582528Y-96415628D01*
X140618242Y-96487057D01*
X140618242Y-96665628D01*
X140582528Y-96737057D01*
X140546814Y-96772771D01*
X140475385Y-96808485D01*
X140261100Y-96808485D01*
X140189671Y-96772771D01*
X140153957Y-96737057D01*
D10*
%TO.C,J3*%
X159389600Y-97158500D02*
X159389600Y-98488500D01*
X158059600Y-97158500D02*
X159389600Y-97158500D01*
X159389600Y-99758500D02*
X159389600Y-102358500D01*
X156789600Y-99758500D02*
X159389600Y-99758500D01*
X156789600Y-97158500D02*
X156789600Y-99758500D01*
X159389600Y-102358500D02*
X151649600Y-102358500D01*
X156789600Y-97158500D02*
X151649600Y-97158500D01*
X151649600Y-97158500D02*
X151649600Y-102358500D01*
%TO.C,U1*%
X147691000Y-106807000D02*
X147691000Y-104857000D01*
X147691000Y-106807000D02*
X147691000Y-108757000D01*
X138821000Y-106807000D02*
X138821000Y-104857000D01*
X138821000Y-106807000D02*
X138821000Y-110257000D01*
%TO.C,D1*%
X136486800Y-101931800D02*
X134026800Y-101931800D01*
X134026800Y-101931800D02*
X134026800Y-103401800D01*
X134026800Y-103401800D02*
X136486800Y-103401800D01*
%TO.C,R1*%
X132560679Y-103046800D02*
X132895921Y-103046800D01*
X132560679Y-102286800D02*
X132895921Y-102286800D01*
%TO.C,R2*%
X145364925Y-100548479D02*
X145364925Y-100883721D01*
X146124925Y-100548479D02*
X146124925Y-100883721D01*
%TO.C,R3*%
X146615950Y-100883721D02*
X146615950Y-100548479D01*
X147375950Y-100883721D02*
X147375950Y-100548479D01*
%TO.C,R4*%
X147866975Y-100883721D02*
X147866975Y-100548479D01*
X148626975Y-100883721D02*
X148626975Y-100548479D01*
%TO.C,S1*%
X130382400Y-112246800D02*
X130352400Y-112246800D01*
X123922400Y-112246800D02*
X123952400Y-112246800D01*
X123922400Y-105786800D02*
X123952400Y-105786800D01*
X130352400Y-105786800D02*
X130382400Y-105786800D01*
X128452400Y-112246800D02*
X125852400Y-112246800D01*
X130382400Y-105786800D02*
X130382400Y-112246800D01*
X128452400Y-105786800D02*
X125852400Y-105786800D01*
X123922400Y-105786800D02*
X123922400Y-112246800D01*
%TO.C,C1*%
X143723900Y-100887367D02*
X143723900Y-100544833D01*
X144743900Y-100887367D02*
X144743900Y-100544833D01*
%TO.C,C2*%
X158380867Y-104011000D02*
X158038333Y-104011000D01*
X158380867Y-105031000D02*
X158038333Y-105031000D01*
%TO.C,D2*%
X136486800Y-96541901D02*
X134026800Y-96541901D01*
X134026800Y-96541901D02*
X134026800Y-98011901D01*
X134026800Y-98011901D02*
X136486800Y-98011901D01*
%TO.C,R6*%
X132560679Y-96896901D02*
X132895921Y-96896901D01*
X132560679Y-97656901D02*
X132895921Y-97656901D01*
%TO.C,S2*%
X131372850Y-105786800D02*
X131402850Y-105786800D01*
X137832850Y-105786800D02*
X137802850Y-105786800D01*
X137832850Y-112246800D02*
X137802850Y-112246800D01*
X131402850Y-112246800D02*
X131372850Y-112246800D01*
X133302850Y-105786800D02*
X135902850Y-105786800D01*
X131372850Y-112246800D02*
X131372850Y-105786800D01*
X133302850Y-112246800D02*
X135902850Y-112246800D01*
X137832850Y-112246800D02*
X137832850Y-105786800D01*
%TO.C,D3*%
X136486800Y-99236850D02*
X134026800Y-99236850D01*
X134026800Y-99236850D02*
X134026800Y-100706850D01*
X134026800Y-100706850D02*
X136486800Y-100706850D01*
%TO.C,R9*%
X132560679Y-100351850D02*
X132895921Y-100351850D01*
X132560679Y-99591850D02*
X132895921Y-99591850D01*
%TO.C,U2*%
X152675500Y-108602000D02*
X152675500Y-108887000D01*
X148695500Y-108887000D02*
X152675500Y-108887000D01*
X148695500Y-108602000D02*
X148695500Y-108887000D01*
X152675500Y-104727000D02*
X152675500Y-105012000D01*
X150685500Y-104727000D02*
X152675500Y-104727000D01*
%TO.C,J4*%
X162291100Y-108558100D02*
X162291100Y-111218100D01*
X167431100Y-108558100D02*
X162291100Y-108558100D01*
X167431100Y-111218100D02*
X162291100Y-111218100D01*
X167431100Y-108558100D02*
X167431100Y-111218100D01*
X168701100Y-108558100D02*
X170031100Y-108558100D01*
X170031100Y-108558100D02*
X170031100Y-109888100D01*
%TO.C,J1*%
X162309500Y-98801800D02*
X162309500Y-101461800D01*
X167449500Y-98801800D02*
X162309500Y-98801800D01*
X167449500Y-101461800D02*
X162309500Y-101461800D01*
X167449500Y-98801800D02*
X167449500Y-101461800D01*
X168719500Y-98801800D02*
X170049500Y-98801800D01*
X170049500Y-98801800D02*
X170049500Y-100131800D01*
%TO.C,J5*%
X147111000Y-111103100D02*
X147111000Y-112433100D01*
X145781000Y-111103100D02*
X147111000Y-111103100D01*
X144511000Y-111103100D02*
X144511000Y-113763100D01*
X144511000Y-113763100D02*
X139371000Y-113763100D01*
X144511000Y-111103100D02*
X139371000Y-111103100D01*
X139371000Y-111103100D02*
X139371000Y-113763100D01*
%TO.C,J2*%
X165985350Y-102408600D02*
X163325350Y-102408600D01*
X165985350Y-105008600D02*
X165985350Y-102408600D01*
X163325350Y-105008600D02*
X163325350Y-102408600D01*
X165985350Y-105008600D02*
X163325350Y-105008600D01*
X165985350Y-106278600D02*
X165985350Y-107608600D01*
X165985350Y-107608600D02*
X164655350Y-107608600D01*
%TO.C,R7*%
X149820900Y-98218879D02*
X149820900Y-98554121D01*
X149060900Y-98218879D02*
X149060900Y-98554121D01*
%TO.C,R5*%
X142151100Y-100482400D02*
G75*
G03*
X142151100Y-100482400I-920000J0D01*
G01*
X140311100Y-100482400D02*
X139691100Y-100482400D01*
%TO.C,J3*%
D13*
X150676800Y-101770286D02*
X150676800Y-102306001D01*
X150641085Y-102413143D01*
X150569657Y-102484572D01*
X150462514Y-102520286D01*
X150391085Y-102520286D01*
X150962514Y-101770286D02*
X151426800Y-101770286D01*
X151176800Y-102056001D01*
X151283942Y-102056001D01*
X151355371Y-102091715D01*
X151391085Y-102127429D01*
X151426800Y-102198858D01*
X151426800Y-102377429D01*
X151391085Y-102448858D01*
X151355371Y-102484572D01*
X151283942Y-102520286D01*
X151069657Y-102520286D01*
X150998228Y-102484572D01*
X150962514Y-102448858D01*
D10*
X151298942Y-100490642D02*
X150548942Y-100490642D01*
X151263228Y-100169214D02*
X151298942Y-100062071D01*
X151298942Y-99883500D01*
X151263228Y-99812071D01*
X151227514Y-99776357D01*
X151156085Y-99740642D01*
X151084657Y-99740642D01*
X151013228Y-99776357D01*
X150977514Y-99812071D01*
X150941799Y-99883500D01*
X150906085Y-100026357D01*
X150870371Y-100097785D01*
X150834657Y-100133500D01*
X150763228Y-100169214D01*
X150691799Y-100169214D01*
X150620371Y-100133500D01*
X150584657Y-100097785D01*
X150548942Y-100026357D01*
X150548942Y-99847785D01*
X150584657Y-99740642D01*
X151298942Y-99419214D02*
X150548942Y-99419214D01*
X150548942Y-99133500D01*
X150584657Y-99062071D01*
X150620371Y-99026357D01*
X150691799Y-98990642D01*
X150798942Y-98990642D01*
X150870371Y-99026357D01*
X150906085Y-99062071D01*
X150941799Y-99133500D01*
X150941799Y-99419214D01*
%TO.C,U1*%
X138747571Y-102141785D02*
X138747571Y-102748928D01*
X138783285Y-102820357D01*
X138819000Y-102856071D01*
X138890428Y-102891785D01*
X139033285Y-102891785D01*
X139104714Y-102856071D01*
X139140428Y-102820357D01*
X139176142Y-102748928D01*
X139176142Y-102141785D01*
X139926142Y-102891785D02*
X139497571Y-102891785D01*
X139711857Y-102891785D02*
X139711857Y-102141785D01*
X139640428Y-102248928D01*
X139569000Y-102320357D01*
X139497571Y-102356071D01*
%TO.C,D1*%
D13*
X133807157Y-101649571D02*
X133914300Y-101685285D01*
X134092871Y-101685285D01*
X134164300Y-101649571D01*
X134200014Y-101613857D01*
X134235728Y-101542428D01*
X134235728Y-101471000D01*
X134200014Y-101399571D01*
X134164300Y-101363857D01*
X134092871Y-101328142D01*
X133950014Y-101292428D01*
X133878585Y-101256714D01*
X133842871Y-101221000D01*
X133807157Y-101149571D01*
X133807157Y-101078142D01*
X133842871Y-101006714D01*
X133878585Y-100971000D01*
X133950014Y-100935285D01*
X134128585Y-100935285D01*
X134235728Y-100971000D01*
X134450014Y-100935285D02*
X134878585Y-100935285D01*
X134664300Y-101685285D02*
X134664300Y-100935285D01*
X135092871Y-101471000D02*
X135450014Y-101471000D01*
X135021442Y-101685285D02*
X135271442Y-100935285D01*
X135521442Y-101685285D01*
X135664300Y-100935285D02*
X136092871Y-100935285D01*
X135878585Y-101685285D02*
X135878585Y-100935285D01*
X136342871Y-100935285D02*
X136342871Y-101542428D01*
X136378585Y-101613857D01*
X136414300Y-101649571D01*
X136485728Y-101685285D01*
X136628585Y-101685285D01*
X136700014Y-101649571D01*
X136735728Y-101613857D01*
X136771442Y-101542428D01*
X136771442Y-100935285D01*
X137092871Y-101649571D02*
X137200014Y-101685285D01*
X137378585Y-101685285D01*
X137450014Y-101649571D01*
X137485728Y-101613857D01*
X137521442Y-101542428D01*
X137521442Y-101471000D01*
X137485728Y-101399571D01*
X137450014Y-101363857D01*
X137378585Y-101328142D01*
X137235728Y-101292428D01*
X137164300Y-101256714D01*
X137128585Y-101221000D01*
X137092871Y-101149571D01*
X137092871Y-101078142D01*
X137128585Y-101006714D01*
X137164300Y-100971000D01*
X137235728Y-100935285D01*
X137414300Y-100935285D01*
X137521442Y-100971000D01*
%TO.C,R1*%
X131504885Y-102794350D02*
X131147742Y-103044350D01*
X131504885Y-103222921D02*
X130754885Y-103222921D01*
X130754885Y-102937207D01*
X130790600Y-102865778D01*
X130826314Y-102830064D01*
X130897742Y-102794350D01*
X131004885Y-102794350D01*
X131076314Y-102830064D01*
X131112028Y-102865778D01*
X131147742Y-102937207D01*
X131147742Y-103222921D01*
X131504885Y-102080064D02*
X131504885Y-102508635D01*
X131504885Y-102294350D02*
X130754885Y-102294350D01*
X130862028Y-102365778D01*
X130933457Y-102437207D01*
X130969171Y-102508635D01*
%TO.C,R2*%
D10*
X145619925Y-99450085D02*
X145369925Y-99092942D01*
X145191353Y-99450085D02*
X145191353Y-98700085D01*
X145477067Y-98700085D01*
X145548496Y-98735800D01*
X145584210Y-98771514D01*
X145619925Y-98842942D01*
X145619925Y-98950085D01*
X145584210Y-99021514D01*
X145548496Y-99057228D01*
X145477067Y-99092942D01*
X145191353Y-99092942D01*
X145905639Y-98771514D02*
X145941353Y-98735800D01*
X146012782Y-98700085D01*
X146191353Y-98700085D01*
X146262782Y-98735800D01*
X146298496Y-98771514D01*
X146334210Y-98842942D01*
X146334210Y-98914371D01*
X146298496Y-99021514D01*
X145869925Y-99450085D01*
X146334210Y-99450085D01*
%TO.C,R3*%
X146870950Y-102701285D02*
X146620950Y-102344142D01*
X146442378Y-102701285D02*
X146442378Y-101951285D01*
X146728092Y-101951285D01*
X146799521Y-101987000D01*
X146835235Y-102022714D01*
X146870950Y-102094142D01*
X146870950Y-102201285D01*
X146835235Y-102272714D01*
X146799521Y-102308428D01*
X146728092Y-102344142D01*
X146442378Y-102344142D01*
X147120950Y-101951285D02*
X147585235Y-101951285D01*
X147335235Y-102237000D01*
X147442378Y-102237000D01*
X147513807Y-102272714D01*
X147549521Y-102308428D01*
X147585235Y-102379857D01*
X147585235Y-102558428D01*
X147549521Y-102629857D01*
X147513807Y-102665571D01*
X147442378Y-102701285D01*
X147228092Y-102701285D01*
X147156664Y-102665571D01*
X147120950Y-102629857D01*
%TO.C,R4*%
X148121975Y-99450085D02*
X147871975Y-99092942D01*
X147693403Y-99450085D02*
X147693403Y-98700085D01*
X147979117Y-98700085D01*
X148050546Y-98735800D01*
X148086260Y-98771514D01*
X148121975Y-98842942D01*
X148121975Y-98950085D01*
X148086260Y-99021514D01*
X148050546Y-99057228D01*
X147979117Y-99092942D01*
X147693403Y-99092942D01*
X148764832Y-98950085D02*
X148764832Y-99450085D01*
X148586260Y-98664371D02*
X148407689Y-99200085D01*
X148871975Y-99200085D01*
%TO.C,S1*%
X126759542Y-105307157D02*
X126723828Y-105342871D01*
X126616685Y-105378585D01*
X126545257Y-105378585D01*
X126438114Y-105342871D01*
X126366685Y-105271442D01*
X126330971Y-105200014D01*
X126295257Y-105057157D01*
X126295257Y-104950014D01*
X126330971Y-104807157D01*
X126366685Y-104735728D01*
X126438114Y-104664300D01*
X126545257Y-104628585D01*
X126616685Y-104628585D01*
X126723828Y-104664300D01*
X126759542Y-104700014D01*
X127045257Y-105164300D02*
X127402400Y-105164300D01*
X126973828Y-105378585D02*
X127223828Y-104628585D01*
X127473828Y-105378585D01*
X128080971Y-105378585D02*
X127723828Y-105378585D01*
X127723828Y-104628585D01*
%TO.C,C1*%
X144108900Y-98807157D02*
X144073185Y-98842871D01*
X143966042Y-98878585D01*
X143894614Y-98878585D01*
X143787471Y-98842871D01*
X143716042Y-98771442D01*
X143680328Y-98700014D01*
X143644614Y-98557157D01*
X143644614Y-98450014D01*
X143680328Y-98307157D01*
X143716042Y-98235728D01*
X143787471Y-98164300D01*
X143894614Y-98128585D01*
X143966042Y-98128585D01*
X144073185Y-98164300D01*
X144108900Y-98200014D01*
X144823185Y-98878585D02*
X144394614Y-98878585D01*
X144608900Y-98878585D02*
X144608900Y-98128585D01*
X144537471Y-98235728D01*
X144466042Y-98307157D01*
X144394614Y-98342871D01*
%TO.C,C2*%
D13*
X156354157Y-104646000D02*
X156389871Y-104681714D01*
X156425585Y-104788857D01*
X156425585Y-104860285D01*
X156389871Y-104967428D01*
X156318442Y-105038857D01*
X156247014Y-105074571D01*
X156104157Y-105110285D01*
X155997014Y-105110285D01*
X155854157Y-105074571D01*
X155782728Y-105038857D01*
X155711300Y-104967428D01*
X155675585Y-104860285D01*
X155675585Y-104788857D01*
X155711300Y-104681714D01*
X155747014Y-104646000D01*
X155747014Y-104360285D02*
X155711300Y-104324571D01*
X155675585Y-104253142D01*
X155675585Y-104074571D01*
X155711300Y-104003142D01*
X155747014Y-103967428D01*
X155818442Y-103931714D01*
X155889871Y-103931714D01*
X155997014Y-103967428D01*
X156425585Y-104396000D01*
X156425585Y-103931714D01*
%TO.C,D2*%
X133932157Y-96249685D02*
X133932157Y-95499685D01*
X134217871Y-95499685D01*
X134289300Y-95535400D01*
X134325014Y-95571114D01*
X134360728Y-95642542D01*
X134360728Y-95749685D01*
X134325014Y-95821114D01*
X134289300Y-95856828D01*
X134217871Y-95892542D01*
X133932157Y-95892542D01*
X134825014Y-95499685D02*
X134967871Y-95499685D01*
X135039300Y-95535400D01*
X135110728Y-95606828D01*
X135146442Y-95749685D01*
X135146442Y-95999685D01*
X135110728Y-96142542D01*
X135039300Y-96213971D01*
X134967871Y-96249685D01*
X134825014Y-96249685D01*
X134753585Y-96213971D01*
X134682157Y-96142542D01*
X134646442Y-95999685D01*
X134646442Y-95749685D01*
X134682157Y-95606828D01*
X134753585Y-95535400D01*
X134825014Y-95499685D01*
X135396442Y-95499685D02*
X135575014Y-96249685D01*
X135717871Y-95713971D01*
X135860728Y-96249685D01*
X136039300Y-95499685D01*
X136325014Y-95856828D02*
X136575014Y-95856828D01*
X136682157Y-96249685D02*
X136325014Y-96249685D01*
X136325014Y-95499685D01*
X136682157Y-95499685D01*
X137432157Y-96249685D02*
X137182157Y-95892542D01*
X137003585Y-96249685D02*
X137003585Y-95499685D01*
X137289300Y-95499685D01*
X137360728Y-95535400D01*
X137396442Y-95571114D01*
X137432157Y-95642542D01*
X137432157Y-95749685D01*
X137396442Y-95821114D01*
X137360728Y-95856828D01*
X137289300Y-95892542D01*
X137003585Y-95892542D01*
%TO.C,R6*%
X131504885Y-97407000D02*
X131147742Y-97657000D01*
X131504885Y-97835571D02*
X130754885Y-97835571D01*
X130754885Y-97549857D01*
X130790600Y-97478428D01*
X130826314Y-97442714D01*
X130897742Y-97407000D01*
X131004885Y-97407000D01*
X131076314Y-97442714D01*
X131112028Y-97478428D01*
X131147742Y-97549857D01*
X131147742Y-97835571D01*
X130754885Y-96764142D02*
X130754885Y-96907000D01*
X130790600Y-96978428D01*
X130826314Y-97014142D01*
X130933457Y-97085571D01*
X131076314Y-97121285D01*
X131362028Y-97121285D01*
X131433457Y-97085571D01*
X131469171Y-97049857D01*
X131504885Y-96978428D01*
X131504885Y-96835571D01*
X131469171Y-96764142D01*
X131433457Y-96728428D01*
X131362028Y-96692714D01*
X131183457Y-96692714D01*
X131112028Y-96728428D01*
X131076314Y-96764142D01*
X131040600Y-96835571D01*
X131040600Y-96978428D01*
X131076314Y-97049857D01*
X131112028Y-97085571D01*
X131183457Y-97121285D01*
%TO.C,S2*%
D10*
X133819200Y-105378585D02*
X133569200Y-105021442D01*
X133390628Y-105378585D02*
X133390628Y-104628585D01*
X133676342Y-104628585D01*
X133747771Y-104664300D01*
X133783485Y-104700014D01*
X133819200Y-104771442D01*
X133819200Y-104878585D01*
X133783485Y-104950014D01*
X133747771Y-104985728D01*
X133676342Y-105021442D01*
X133390628Y-105021442D01*
X134104914Y-105342871D02*
X134212057Y-105378585D01*
X134390628Y-105378585D01*
X134462057Y-105342871D01*
X134497771Y-105307157D01*
X134533485Y-105235728D01*
X134533485Y-105164300D01*
X134497771Y-105092871D01*
X134462057Y-105057157D01*
X134390628Y-105021442D01*
X134247771Y-104985728D01*
X134176342Y-104950014D01*
X134140628Y-104914300D01*
X134104914Y-104842871D01*
X134104914Y-104771442D01*
X134140628Y-104700014D01*
X134176342Y-104664300D01*
X134247771Y-104628585D01*
X134426342Y-104628585D01*
X134533485Y-104664300D01*
X134854914Y-104985728D02*
X135104914Y-104985728D01*
X135212057Y-105378585D02*
X134854914Y-105378585D01*
X134854914Y-104628585D01*
X135212057Y-104628585D01*
X135426342Y-104628585D02*
X135854914Y-104628585D01*
X135640628Y-105378585D02*
X135640628Y-104628585D01*
%TO.C,D3*%
D13*
X134439571Y-98648278D02*
X134189571Y-98648278D01*
X134189571Y-99041135D02*
X134189571Y-98291135D01*
X134546714Y-98291135D01*
X134796714Y-98826850D02*
X135153857Y-98826850D01*
X134725285Y-99041135D02*
X134975285Y-98291135D01*
X135225285Y-99041135D01*
X135475285Y-98291135D02*
X135475285Y-98898278D01*
X135511000Y-98969707D01*
X135546714Y-99005421D01*
X135618142Y-99041135D01*
X135761000Y-99041135D01*
X135832428Y-99005421D01*
X135868142Y-98969707D01*
X135903857Y-98898278D01*
X135903857Y-98291135D01*
X136618142Y-99041135D02*
X136261000Y-99041135D01*
X136261000Y-98291135D01*
X136761000Y-98291135D02*
X137189571Y-98291135D01*
X136975285Y-99041135D02*
X136975285Y-98291135D01*
%TO.C,R9*%
X131504885Y-100096850D02*
X131147742Y-100346850D01*
X131504885Y-100525421D02*
X130754885Y-100525421D01*
X130754885Y-100239707D01*
X130790600Y-100168278D01*
X130826314Y-100132564D01*
X130897742Y-100096850D01*
X131004885Y-100096850D01*
X131076314Y-100132564D01*
X131112028Y-100168278D01*
X131147742Y-100239707D01*
X131147742Y-100525421D01*
X131504885Y-99739707D02*
X131504885Y-99596850D01*
X131469171Y-99525421D01*
X131433457Y-99489707D01*
X131326314Y-99418278D01*
X131183457Y-99382564D01*
X130897742Y-99382564D01*
X130826314Y-99418278D01*
X130790600Y-99453992D01*
X130754885Y-99525421D01*
X130754885Y-99668278D01*
X130790600Y-99739707D01*
X130826314Y-99775421D01*
X130897742Y-99811135D01*
X131076314Y-99811135D01*
X131147742Y-99775421D01*
X131183457Y-99739707D01*
X131219171Y-99668278D01*
X131219171Y-99525421D01*
X131183457Y-99453992D01*
X131147742Y-99418278D01*
X131076314Y-99382564D01*
%TO.C,U2*%
D10*
X150114071Y-103496285D02*
X150114071Y-104103428D01*
X150149785Y-104174857D01*
X150185500Y-104210571D01*
X150256928Y-104246285D01*
X150399785Y-104246285D01*
X150471214Y-104210571D01*
X150506928Y-104174857D01*
X150542642Y-104103428D01*
X150542642Y-103496285D01*
X150864071Y-103567714D02*
X150899785Y-103532000D01*
X150971214Y-103496285D01*
X151149785Y-103496285D01*
X151221214Y-103532000D01*
X151256928Y-103567714D01*
X151292642Y-103639142D01*
X151292642Y-103710571D01*
X151256928Y-103817714D01*
X150828357Y-104246285D01*
X151292642Y-104246285D01*
%TO.C,J4*%
X170340785Y-110138100D02*
X170876500Y-110138100D01*
X170983642Y-110173814D01*
X171055071Y-110245242D01*
X171090785Y-110352385D01*
X171090785Y-110423814D01*
X170590785Y-109459528D02*
X171090785Y-109459528D01*
X170305071Y-109638100D02*
X170840785Y-109816671D01*
X170840785Y-109352385D01*
X161260285Y-110638101D02*
X161260285Y-110495243D01*
X161296000Y-110423815D01*
X161367428Y-110352386D01*
X161510285Y-110316672D01*
X161760285Y-110316672D01*
X161903142Y-110352386D01*
X161974571Y-110423815D01*
X162010285Y-110495243D01*
X162010285Y-110638101D01*
X161974571Y-110709529D01*
X161903142Y-110780958D01*
X161760285Y-110816672D01*
X161510285Y-110816672D01*
X161367428Y-110780958D01*
X161296000Y-110709529D01*
X161260285Y-110638101D01*
X161260285Y-109995243D02*
X161867428Y-109995243D01*
X161938857Y-109959529D01*
X161974571Y-109923815D01*
X162010285Y-109852386D01*
X162010285Y-109709529D01*
X161974571Y-109638101D01*
X161938857Y-109602386D01*
X161867428Y-109566672D01*
X161260285Y-109566672D01*
X161260285Y-109316672D02*
X161260285Y-108888101D01*
X162010285Y-109102386D02*
X161260285Y-109102386D01*
%TO.C,J1*%
X170340785Y-100381800D02*
X170876500Y-100381800D01*
X170983642Y-100417514D01*
X171055071Y-100488942D01*
X171090785Y-100596085D01*
X171090785Y-100667514D01*
X171090785Y-99631800D02*
X171090785Y-100060371D01*
X171090785Y-99846085D02*
X170340785Y-99846085D01*
X170447928Y-99917514D01*
X170519357Y-99988942D01*
X170555071Y-100060371D01*
X162010285Y-100858942D02*
X161260285Y-100858942D01*
X161331714Y-100537514D02*
X161296000Y-100501800D01*
X161260285Y-100430371D01*
X161260285Y-100251800D01*
X161296000Y-100180371D01*
X161331714Y-100144657D01*
X161403142Y-100108942D01*
X161474571Y-100108942D01*
X161581714Y-100144657D01*
X162010285Y-100573228D01*
X162010285Y-100108942D01*
X161938857Y-99358942D02*
X161974571Y-99394657D01*
X162010285Y-99501800D01*
X162010285Y-99573228D01*
X161974571Y-99680371D01*
X161903142Y-99751800D01*
X161831714Y-99787514D01*
X161688857Y-99823228D01*
X161581714Y-99823228D01*
X161438857Y-99787514D01*
X161367428Y-99751800D01*
X161296000Y-99680371D01*
X161260285Y-99573228D01*
X161260285Y-99501800D01*
X161296000Y-99394657D01*
X161331714Y-99358942D01*
%TO.C,J5*%
X138307000Y-111969885D02*
X138307000Y-112505600D01*
X138271285Y-112612742D01*
X138199857Y-112684171D01*
X138092714Y-112719885D01*
X138021285Y-112719885D01*
X139021285Y-111969885D02*
X138664142Y-111969885D01*
X138628428Y-112327028D01*
X138664142Y-112291314D01*
X138735571Y-112255600D01*
X138914142Y-112255600D01*
X138985571Y-112291314D01*
X139021285Y-112327028D01*
X139057000Y-112398457D01*
X139057000Y-112577028D01*
X139021285Y-112648457D01*
X138985571Y-112684171D01*
X138914142Y-112719885D01*
X138735571Y-112719885D01*
X138664142Y-112684171D01*
X138628428Y-112648457D01*
X148258571Y-114165242D02*
X148294285Y-114058100D01*
X148294285Y-113879528D01*
X148258571Y-113808100D01*
X148222857Y-113772385D01*
X148151428Y-113736671D01*
X148080000Y-113736671D01*
X148008571Y-113772385D01*
X147972857Y-113808100D01*
X147937142Y-113879528D01*
X147901428Y-114022385D01*
X147865714Y-114093814D01*
X147830000Y-114129528D01*
X147758571Y-114165242D01*
X147687142Y-114165242D01*
X147615714Y-114129528D01*
X147580000Y-114093814D01*
X147544285Y-114022385D01*
X147544285Y-113843814D01*
X147580000Y-113736671D01*
X147901428Y-113415242D02*
X147901428Y-113165242D01*
X148294285Y-113058100D02*
X148294285Y-113415242D01*
X147544285Y-113415242D01*
X147544285Y-113058100D01*
X148294285Y-112308100D02*
X147937142Y-112558100D01*
X148294285Y-112736671D02*
X147544285Y-112736671D01*
X147544285Y-112450957D01*
X147580000Y-112379528D01*
X147615714Y-112343814D01*
X147687142Y-112308100D01*
X147794285Y-112308100D01*
X147865714Y-112343814D01*
X147901428Y-112379528D01*
X147937142Y-112450957D01*
X147937142Y-112736671D01*
X148294285Y-111986671D02*
X147544285Y-111986671D01*
X148080000Y-111665242D02*
X148080000Y-111308100D01*
X148294285Y-111736671D02*
X147544285Y-111486671D01*
X148294285Y-111236671D01*
X148294285Y-110629528D02*
X148294285Y-110986671D01*
X147544285Y-110986671D01*
%TO.C,J2*%
X167254685Y-105246049D02*
X167790400Y-105246049D01*
X167897542Y-105281763D01*
X167968971Y-105353191D01*
X168004685Y-105460334D01*
X168004685Y-105531763D01*
X167326114Y-104924620D02*
X167290400Y-104888906D01*
X167254685Y-104817477D01*
X167254685Y-104638906D01*
X167290400Y-104567477D01*
X167326114Y-104531763D01*
X167397542Y-104496049D01*
X167468971Y-104496049D01*
X167576114Y-104531763D01*
X168004685Y-104960334D01*
X168004685Y-104496049D01*
X166992235Y-106728192D02*
X166242235Y-106728192D01*
X166242235Y-106442478D01*
X166277950Y-106371050D01*
X166313664Y-106335335D01*
X166385092Y-106299621D01*
X166492235Y-106299621D01*
X166563664Y-106335335D01*
X166599378Y-106371050D01*
X166635092Y-106442478D01*
X166635092Y-106728192D01*
X166242235Y-105835335D02*
X166242235Y-105692478D01*
X166277950Y-105621050D01*
X166349378Y-105549621D01*
X166492235Y-105513907D01*
X166742235Y-105513907D01*
X166885092Y-105549621D01*
X166956521Y-105621050D01*
X166992235Y-105692478D01*
X166992235Y-105835335D01*
X166956521Y-105906764D01*
X166885092Y-105978192D01*
X166742235Y-106013907D01*
X166492235Y-106013907D01*
X166349378Y-105978192D01*
X166277950Y-105906764D01*
X166242235Y-105835335D01*
X166242235Y-105263907D02*
X166992235Y-105085335D01*
X166456521Y-104942478D01*
X166992235Y-104799621D01*
X166242235Y-104621050D01*
X166599378Y-104335335D02*
X166599378Y-104085335D01*
X166992235Y-103978192D02*
X166992235Y-104335335D01*
X166242235Y-104335335D01*
X166242235Y-103978192D01*
X166992235Y-103228192D02*
X166635092Y-103478192D01*
X166992235Y-103656764D02*
X166242235Y-103656764D01*
X166242235Y-103371050D01*
X166277950Y-103299621D01*
X166313664Y-103263907D01*
X166385092Y-103228192D01*
X166492235Y-103228192D01*
X166563664Y-103263907D01*
X166599378Y-103299621D01*
X166635092Y-103371050D01*
X166635092Y-103656764D01*
%TO.C,R7*%
X149315900Y-97100585D02*
X149065900Y-96743442D01*
X148887328Y-97100585D02*
X148887328Y-96350585D01*
X149173042Y-96350585D01*
X149244471Y-96386300D01*
X149280185Y-96422014D01*
X149315900Y-96493442D01*
X149315900Y-96600585D01*
X149280185Y-96672014D01*
X149244471Y-96707728D01*
X149173042Y-96743442D01*
X148887328Y-96743442D01*
X149565900Y-96350585D02*
X150065900Y-96350585D01*
X149744471Y-97100585D01*
%TO.C,R5*%
X143176185Y-100607400D02*
X142819042Y-100857400D01*
X143176185Y-101035971D02*
X142426185Y-101035971D01*
X142426185Y-100750257D01*
X142461900Y-100678828D01*
X142497614Y-100643114D01*
X142569042Y-100607400D01*
X142676185Y-100607400D01*
X142747614Y-100643114D01*
X142783328Y-100678828D01*
X142819042Y-100750257D01*
X142819042Y-101035971D01*
X142426185Y-99928828D02*
X142426185Y-100285971D01*
X142783328Y-100321685D01*
X142747614Y-100285971D01*
X142711900Y-100214542D01*
X142711900Y-100035971D01*
X142747614Y-99964542D01*
X142783328Y-99928828D01*
X142854757Y-99893114D01*
X143033328Y-99893114D01*
X143104757Y-99928828D01*
X143140471Y-99964542D01*
X143176185Y-100035971D01*
X143176185Y-100214542D01*
X143140471Y-100285971D01*
X143104757Y-100321685D01*
%TD*%
M02*
