%TF.GenerationSoftware,KiCad,Pcbnew,(5.1.9)-1*%
%TF.CreationDate,2021-03-20T03:42:34+00:00*%
%TF.ProjectId,filaSens-attiny84,66696c61-5365-46e7-932d-617474696e79,rev?*%
%TF.SameCoordinates,Original*%
%TF.FileFunction,Legend,Bot*%
%TF.FilePolarity,Positive*%
%FSLAX46Y46*%
G04 Gerber Fmt 4.6, Leading zero omitted, Abs format (unit mm)*
G04 Created by KiCad (PCBNEW (5.1.9)-1) date 2021-03-20 03:42:34*
%MOMM*%
%LPD*%
G01*
G04 APERTURE LIST*
%ADD10C,0.100000*%
%ADD11C,0.010000*%
%ADD12C,0.120000*%
%ADD13C,0.130000*%
G04 APERTURE END LIST*
D10*
X138401533Y-103307066D02*
X138401533Y-102840400D01*
X138401533Y-102973733D02*
X138368200Y-102907066D01*
X138334866Y-102873733D01*
X138268200Y-102840400D01*
X138201533Y-102840400D01*
X137701533Y-103273733D02*
X137768200Y-103307066D01*
X137901533Y-103307066D01*
X137968200Y-103273733D01*
X138001533Y-103207066D01*
X138001533Y-102940400D01*
X137968200Y-102873733D01*
X137901533Y-102840400D01*
X137768200Y-102840400D01*
X137701533Y-102873733D01*
X137668200Y-102940400D01*
X137668200Y-103007066D01*
X138001533Y-103073733D01*
X137434866Y-102840400D02*
X137268200Y-103307066D01*
X137101533Y-102840400D01*
X136468200Y-103307066D02*
X136868200Y-103307066D01*
X136668200Y-103307066D02*
X136668200Y-102607066D01*
X136734866Y-102707066D01*
X136801533Y-102773733D01*
X136868200Y-102807066D01*
X135634866Y-103040400D02*
X135101533Y-103040400D01*
X134234866Y-103307066D02*
X134234866Y-102607066D01*
X134001533Y-103107066D01*
X133768200Y-102607066D01*
X133768200Y-103307066D01*
X133334866Y-103307066D02*
X133401533Y-103273733D01*
X133434866Y-103240400D01*
X133468200Y-103173733D01*
X133468200Y-102973733D01*
X133434866Y-102907066D01*
X133401533Y-102873733D01*
X133334866Y-102840400D01*
X133234866Y-102840400D01*
X133168200Y-102873733D01*
X133134866Y-102907066D01*
X133101533Y-102973733D01*
X133101533Y-103173733D01*
X133134866Y-103240400D01*
X133168200Y-103273733D01*
X133234866Y-103307066D01*
X133334866Y-103307066D01*
X132501533Y-103307066D02*
X132501533Y-102607066D01*
X132501533Y-103273733D02*
X132568200Y-103307066D01*
X132701533Y-103307066D01*
X132768200Y-103273733D01*
X132801533Y-103240400D01*
X132834866Y-103173733D01*
X132834866Y-102973733D01*
X132801533Y-102907066D01*
X132768200Y-102873733D01*
X132701533Y-102840400D01*
X132568200Y-102840400D01*
X132501533Y-102873733D01*
X132168200Y-103307066D02*
X132168200Y-102840400D01*
X132168200Y-102607066D02*
X132201533Y-102640400D01*
X132168200Y-102673733D01*
X132134866Y-102640400D01*
X132168200Y-102607066D01*
X132168200Y-102673733D01*
X131934866Y-102840400D02*
X131668200Y-102840400D01*
X131834866Y-103307066D02*
X131834866Y-102707066D01*
X131801533Y-102640400D01*
X131734866Y-102607066D01*
X131668200Y-102607066D01*
X131434866Y-103307066D02*
X131434866Y-102840400D01*
X131434866Y-102607066D02*
X131468200Y-102640400D01*
X131434866Y-102673733D01*
X131401533Y-102640400D01*
X131434866Y-102607066D01*
X131434866Y-102673733D01*
X130834866Y-103273733D02*
X130901533Y-103307066D01*
X131034866Y-103307066D01*
X131101533Y-103273733D01*
X131134866Y-103207066D01*
X131134866Y-102940400D01*
X131101533Y-102873733D01*
X131034866Y-102840400D01*
X130901533Y-102840400D01*
X130834866Y-102873733D01*
X130801533Y-102940400D01*
X130801533Y-103007066D01*
X131134866Y-103073733D01*
X130201533Y-103307066D02*
X130201533Y-102607066D01*
X130201533Y-103273733D02*
X130268200Y-103307066D01*
X130401533Y-103307066D01*
X130468200Y-103273733D01*
X130501533Y-103240400D01*
X130534866Y-103173733D01*
X130534866Y-102973733D01*
X130501533Y-102907066D01*
X130468200Y-102873733D01*
X130401533Y-102840400D01*
X130268200Y-102840400D01*
X130201533Y-102873733D01*
X129434866Y-102607066D02*
X129201533Y-103307066D01*
X128968200Y-102607066D01*
X128601533Y-102607066D02*
X128534866Y-102607066D01*
X128468200Y-102640400D01*
X128434866Y-102673733D01*
X128401533Y-102740400D01*
X128368200Y-102873733D01*
X128368200Y-103040400D01*
X128401533Y-103173733D01*
X128434866Y-103240400D01*
X128468200Y-103273733D01*
X128534866Y-103307066D01*
X128601533Y-103307066D01*
X128668200Y-103273733D01*
X128701533Y-103240400D01*
X128734866Y-103173733D01*
X128768200Y-103040400D01*
X128768200Y-102873733D01*
X128734866Y-102740400D01*
X128701533Y-102673733D01*
X128668200Y-102640400D01*
X128601533Y-102607066D01*
X128068200Y-103240400D02*
X128034866Y-103273733D01*
X128068200Y-103307066D01*
X128101533Y-103273733D01*
X128068200Y-103240400D01*
X128068200Y-103307066D01*
X127801533Y-102607066D02*
X127368200Y-102607066D01*
X127601533Y-102873733D01*
X127501533Y-102873733D01*
X127434866Y-102907066D01*
X127401533Y-102940400D01*
X127368200Y-103007066D01*
X127368200Y-103173733D01*
X127401533Y-103240400D01*
X127434866Y-103273733D01*
X127501533Y-103307066D01*
X127701533Y-103307066D01*
X127768200Y-103273733D01*
X127801533Y-103240400D01*
X138168200Y-105240400D02*
X138401533Y-105240400D01*
X138401533Y-105607066D02*
X138401533Y-104907066D01*
X138068200Y-104907066D01*
X137801533Y-105607066D02*
X137801533Y-105140400D01*
X137801533Y-104907066D02*
X137834866Y-104940400D01*
X137801533Y-104973733D01*
X137768200Y-104940400D01*
X137801533Y-104907066D01*
X137801533Y-104973733D01*
X137368200Y-105607066D02*
X137434866Y-105573733D01*
X137468200Y-105507066D01*
X137468200Y-104907066D01*
X136801533Y-105607066D02*
X136801533Y-105240400D01*
X136834866Y-105173733D01*
X136901533Y-105140400D01*
X137034866Y-105140400D01*
X137101533Y-105173733D01*
X136801533Y-105573733D02*
X136868200Y-105607066D01*
X137034866Y-105607066D01*
X137101533Y-105573733D01*
X137134866Y-105507066D01*
X137134866Y-105440400D01*
X137101533Y-105373733D01*
X137034866Y-105340400D01*
X136868200Y-105340400D01*
X136801533Y-105307066D01*
X136468200Y-105607066D02*
X136468200Y-105140400D01*
X136468200Y-105207066D02*
X136434866Y-105173733D01*
X136368200Y-105140400D01*
X136268200Y-105140400D01*
X136201533Y-105173733D01*
X136168200Y-105240400D01*
X136168200Y-105607066D01*
X136168200Y-105240400D02*
X136134866Y-105173733D01*
X136068200Y-105140400D01*
X135968200Y-105140400D01*
X135901533Y-105173733D01*
X135868200Y-105240400D01*
X135868200Y-105607066D01*
X135268200Y-105573733D02*
X135334866Y-105607066D01*
X135468200Y-105607066D01*
X135534866Y-105573733D01*
X135568200Y-105507066D01*
X135568200Y-105240400D01*
X135534866Y-105173733D01*
X135468200Y-105140400D01*
X135334866Y-105140400D01*
X135268200Y-105173733D01*
X135234866Y-105240400D01*
X135234866Y-105307066D01*
X135568200Y-105373733D01*
X134934866Y-105140400D02*
X134934866Y-105607066D01*
X134934866Y-105207066D02*
X134901533Y-105173733D01*
X134834866Y-105140400D01*
X134734866Y-105140400D01*
X134668200Y-105173733D01*
X134634866Y-105240400D01*
X134634866Y-105607066D01*
X134401533Y-105140400D02*
X134134866Y-105140400D01*
X134301533Y-104907066D02*
X134301533Y-105507066D01*
X134268200Y-105573733D01*
X134201533Y-105607066D01*
X134134866Y-105607066D01*
X133368200Y-105607066D02*
X133368200Y-104907066D01*
X133201533Y-104907066D01*
X133101533Y-104940400D01*
X133034866Y-105007066D01*
X133001533Y-105073733D01*
X132968200Y-105207066D01*
X132968200Y-105307066D01*
X133001533Y-105440400D01*
X133034866Y-105507066D01*
X133101533Y-105573733D01*
X133201533Y-105607066D01*
X133368200Y-105607066D01*
X132668200Y-105607066D02*
X132668200Y-105140400D01*
X132668200Y-104907066D02*
X132701533Y-104940400D01*
X132668200Y-104973733D01*
X132634866Y-104940400D01*
X132668200Y-104907066D01*
X132668200Y-104973733D01*
X132034866Y-105607066D02*
X132034866Y-105240400D01*
X132068200Y-105173733D01*
X132134866Y-105140400D01*
X132268200Y-105140400D01*
X132334866Y-105173733D01*
X132034866Y-105573733D02*
X132101533Y-105607066D01*
X132268200Y-105607066D01*
X132334866Y-105573733D01*
X132368200Y-105507066D01*
X132368200Y-105440400D01*
X132334866Y-105373733D01*
X132268200Y-105340400D01*
X132101533Y-105340400D01*
X132034866Y-105307066D01*
X131701533Y-105607066D02*
X131701533Y-105140400D01*
X131701533Y-105207066D02*
X131668200Y-105173733D01*
X131601533Y-105140400D01*
X131501533Y-105140400D01*
X131434866Y-105173733D01*
X131401533Y-105240400D01*
X131401533Y-105607066D01*
X131401533Y-105240400D02*
X131368200Y-105173733D01*
X131301533Y-105140400D01*
X131201533Y-105140400D01*
X131134866Y-105173733D01*
X131101533Y-105240400D01*
X131101533Y-105607066D01*
X130501533Y-105573733D02*
X130568200Y-105607066D01*
X130701533Y-105607066D01*
X130768200Y-105573733D01*
X130801533Y-105507066D01*
X130801533Y-105240400D01*
X130768200Y-105173733D01*
X130701533Y-105140400D01*
X130568200Y-105140400D01*
X130501533Y-105173733D01*
X130468200Y-105240400D01*
X130468200Y-105307066D01*
X130801533Y-105373733D01*
X130268200Y-105140400D02*
X130001533Y-105140400D01*
X130168200Y-104907066D02*
X130168200Y-105507066D01*
X130134866Y-105573733D01*
X130068200Y-105607066D01*
X130001533Y-105607066D01*
X129501533Y-105573733D02*
X129568200Y-105607066D01*
X129701533Y-105607066D01*
X129768200Y-105573733D01*
X129801533Y-105507066D01*
X129801533Y-105240400D01*
X129768200Y-105173733D01*
X129701533Y-105140400D01*
X129568200Y-105140400D01*
X129501533Y-105173733D01*
X129468200Y-105240400D01*
X129468200Y-105307066D01*
X129801533Y-105373733D01*
X129168200Y-105607066D02*
X129168200Y-105140400D01*
X129168200Y-105273733D02*
X129134866Y-105207066D01*
X129101533Y-105173733D01*
X129034866Y-105140400D01*
X128968200Y-105140400D01*
X128234866Y-105573733D02*
X128134866Y-105607066D01*
X127968200Y-105607066D01*
X127901533Y-105573733D01*
X127868200Y-105540400D01*
X127834866Y-105473733D01*
X127834866Y-105407066D01*
X127868200Y-105340400D01*
X127901533Y-105307066D01*
X127968200Y-105273733D01*
X128101533Y-105240400D01*
X128168200Y-105207066D01*
X128201533Y-105173733D01*
X128234866Y-105107066D01*
X128234866Y-105040400D01*
X128201533Y-104973733D01*
X128168200Y-104940400D01*
X128101533Y-104907066D01*
X127934866Y-104907066D01*
X127834866Y-104940400D01*
X127268200Y-105573733D02*
X127334866Y-105607066D01*
X127468200Y-105607066D01*
X127534866Y-105573733D01*
X127568200Y-105507066D01*
X127568200Y-105240400D01*
X127534866Y-105173733D01*
X127468200Y-105140400D01*
X127334866Y-105140400D01*
X127268200Y-105173733D01*
X127234866Y-105240400D01*
X127234866Y-105307066D01*
X127568200Y-105373733D01*
X126934866Y-105140400D02*
X126934866Y-105607066D01*
X126934866Y-105207066D02*
X126901533Y-105173733D01*
X126834866Y-105140400D01*
X126734866Y-105140400D01*
X126668200Y-105173733D01*
X126634866Y-105240400D01*
X126634866Y-105607066D01*
X126334866Y-105573733D02*
X126268200Y-105607066D01*
X126134866Y-105607066D01*
X126068200Y-105573733D01*
X126034866Y-105507066D01*
X126034866Y-105473733D01*
X126068200Y-105407066D01*
X126134866Y-105373733D01*
X126234866Y-105373733D01*
X126301533Y-105340400D01*
X126334866Y-105273733D01*
X126334866Y-105240400D01*
X126301533Y-105173733D01*
X126234866Y-105140400D01*
X126134866Y-105140400D01*
X126068200Y-105173733D01*
X125634866Y-105607066D02*
X125701533Y-105573733D01*
X125734866Y-105540400D01*
X125768200Y-105473733D01*
X125768200Y-105273733D01*
X125734866Y-105207066D01*
X125701533Y-105173733D01*
X125634866Y-105140400D01*
X125534866Y-105140400D01*
X125468200Y-105173733D01*
X125434866Y-105207066D01*
X125401533Y-105273733D01*
X125401533Y-105473733D01*
X125434866Y-105540400D01*
X125468200Y-105573733D01*
X125534866Y-105607066D01*
X125634866Y-105607066D01*
X125101533Y-105607066D02*
X125101533Y-105140400D01*
X125101533Y-105273733D02*
X125068200Y-105207066D01*
X125034866Y-105173733D01*
X124968200Y-105140400D01*
X124901533Y-105140400D01*
X138068200Y-106757066D02*
X138401533Y-106757066D01*
X138401533Y-106057066D01*
X137834866Y-106757066D02*
X137834866Y-106290400D01*
X137834866Y-106057066D02*
X137868200Y-106090400D01*
X137834866Y-106123733D01*
X137801533Y-106090400D01*
X137834866Y-106057066D01*
X137834866Y-106123733D01*
X137201533Y-106723733D02*
X137268200Y-106757066D01*
X137401533Y-106757066D01*
X137468200Y-106723733D01*
X137501533Y-106690400D01*
X137534866Y-106623733D01*
X137534866Y-106423733D01*
X137501533Y-106357066D01*
X137468200Y-106323733D01*
X137401533Y-106290400D01*
X137268200Y-106290400D01*
X137201533Y-106323733D01*
X136634866Y-106723733D02*
X136701533Y-106757066D01*
X136834866Y-106757066D01*
X136901533Y-106723733D01*
X136934866Y-106657066D01*
X136934866Y-106390400D01*
X136901533Y-106323733D01*
X136834866Y-106290400D01*
X136701533Y-106290400D01*
X136634866Y-106323733D01*
X136601533Y-106390400D01*
X136601533Y-106457066D01*
X136934866Y-106523733D01*
X136301533Y-106290400D02*
X136301533Y-106757066D01*
X136301533Y-106357066D02*
X136268200Y-106323733D01*
X136201533Y-106290400D01*
X136101533Y-106290400D01*
X136034866Y-106323733D01*
X136001533Y-106390400D01*
X136001533Y-106757066D01*
X135701533Y-106723733D02*
X135634866Y-106757066D01*
X135501533Y-106757066D01*
X135434866Y-106723733D01*
X135401533Y-106657066D01*
X135401533Y-106623733D01*
X135434866Y-106557066D01*
X135501533Y-106523733D01*
X135601533Y-106523733D01*
X135668200Y-106490400D01*
X135701533Y-106423733D01*
X135701533Y-106390400D01*
X135668200Y-106323733D01*
X135601533Y-106290400D01*
X135501533Y-106290400D01*
X135434866Y-106323733D01*
X134834866Y-106723733D02*
X134901533Y-106757066D01*
X135034866Y-106757066D01*
X135101533Y-106723733D01*
X135134866Y-106657066D01*
X135134866Y-106390400D01*
X135101533Y-106323733D01*
X135034866Y-106290400D01*
X134901533Y-106290400D01*
X134834866Y-106323733D01*
X134801533Y-106390400D01*
X134801533Y-106457066D01*
X135134866Y-106523733D01*
X134201533Y-106757066D02*
X134201533Y-106057066D01*
X134201533Y-106723733D02*
X134268200Y-106757066D01*
X134401533Y-106757066D01*
X134468200Y-106723733D01*
X134501533Y-106690400D01*
X134534866Y-106623733D01*
X134534866Y-106423733D01*
X134501533Y-106357066D01*
X134468200Y-106323733D01*
X134401533Y-106290400D01*
X134268200Y-106290400D01*
X134201533Y-106323733D01*
X133034866Y-106757066D02*
X133034866Y-106390400D01*
X133068200Y-106323733D01*
X133134866Y-106290400D01*
X133268200Y-106290400D01*
X133334866Y-106323733D01*
X133034866Y-106723733D02*
X133101533Y-106757066D01*
X133268200Y-106757066D01*
X133334866Y-106723733D01*
X133368200Y-106657066D01*
X133368200Y-106590400D01*
X133334866Y-106523733D01*
X133268200Y-106490400D01*
X133101533Y-106490400D01*
X133034866Y-106457066D01*
X132734866Y-106723733D02*
X132668200Y-106757066D01*
X132534866Y-106757066D01*
X132468200Y-106723733D01*
X132434866Y-106657066D01*
X132434866Y-106623733D01*
X132468200Y-106557066D01*
X132534866Y-106523733D01*
X132634866Y-106523733D01*
X132701533Y-106490400D01*
X132734866Y-106423733D01*
X132734866Y-106390400D01*
X132701533Y-106323733D01*
X132634866Y-106290400D01*
X132534866Y-106290400D01*
X132468200Y-106323733D01*
X131601533Y-106757066D02*
X131601533Y-106057066D01*
X131334866Y-106057066D01*
X131268200Y-106090400D01*
X131234866Y-106123733D01*
X131201533Y-106190400D01*
X131201533Y-106290400D01*
X131234866Y-106357066D01*
X131268200Y-106390400D01*
X131334866Y-106423733D01*
X131601533Y-106423733D01*
X130601533Y-106290400D02*
X130601533Y-106757066D01*
X130901533Y-106290400D02*
X130901533Y-106657066D01*
X130868200Y-106723733D01*
X130801533Y-106757066D01*
X130701533Y-106757066D01*
X130634866Y-106723733D01*
X130601533Y-106690400D01*
X130268200Y-106757066D02*
X130268200Y-106057066D01*
X130268200Y-106323733D02*
X130201533Y-106290400D01*
X130068200Y-106290400D01*
X130001533Y-106323733D01*
X129968200Y-106357066D01*
X129934866Y-106423733D01*
X129934866Y-106623733D01*
X129968200Y-106690400D01*
X130001533Y-106723733D01*
X130068200Y-106757066D01*
X130201533Y-106757066D01*
X130268200Y-106723733D01*
X129534866Y-106757066D02*
X129601533Y-106723733D01*
X129634866Y-106657066D01*
X129634866Y-106057066D01*
X129268200Y-106757066D02*
X129268200Y-106290400D01*
X129268200Y-106057066D02*
X129301533Y-106090400D01*
X129268200Y-106123733D01*
X129234866Y-106090400D01*
X129268200Y-106057066D01*
X129268200Y-106123733D01*
X128634866Y-106723733D02*
X128701533Y-106757066D01*
X128834866Y-106757066D01*
X128901533Y-106723733D01*
X128934866Y-106690400D01*
X128968200Y-106623733D01*
X128968200Y-106423733D01*
X128934866Y-106357066D01*
X128901533Y-106323733D01*
X128834866Y-106290400D01*
X128701533Y-106290400D01*
X128634866Y-106323733D01*
X127801533Y-106757066D02*
X127801533Y-106057066D01*
X127634866Y-106057066D01*
X127534866Y-106090400D01*
X127468200Y-106157066D01*
X127434866Y-106223733D01*
X127401533Y-106357066D01*
X127401533Y-106457066D01*
X127434866Y-106590400D01*
X127468200Y-106657066D01*
X127534866Y-106723733D01*
X127634866Y-106757066D01*
X127801533Y-106757066D01*
X127001533Y-106757066D02*
X127068200Y-106723733D01*
X127101533Y-106690400D01*
X127134866Y-106623733D01*
X127134866Y-106423733D01*
X127101533Y-106357066D01*
X127068200Y-106323733D01*
X127001533Y-106290400D01*
X126901533Y-106290400D01*
X126834866Y-106323733D01*
X126801533Y-106357066D01*
X126768200Y-106423733D01*
X126768200Y-106623733D01*
X126801533Y-106690400D01*
X126834866Y-106723733D01*
X126901533Y-106757066D01*
X127001533Y-106757066D01*
X126468200Y-106757066D02*
X126468200Y-106290400D01*
X126468200Y-106357066D02*
X126434866Y-106323733D01*
X126368200Y-106290400D01*
X126268200Y-106290400D01*
X126201533Y-106323733D01*
X126168200Y-106390400D01*
X126168200Y-106757066D01*
X126168200Y-106390400D02*
X126134866Y-106323733D01*
X126068200Y-106290400D01*
X125968200Y-106290400D01*
X125901533Y-106323733D01*
X125868200Y-106390400D01*
X125868200Y-106757066D01*
X125234866Y-106757066D02*
X125234866Y-106390400D01*
X125268200Y-106323733D01*
X125334866Y-106290400D01*
X125468200Y-106290400D01*
X125534866Y-106323733D01*
X125234866Y-106723733D02*
X125301533Y-106757066D01*
X125468200Y-106757066D01*
X125534866Y-106723733D01*
X125568200Y-106657066D01*
X125568200Y-106590400D01*
X125534866Y-106523733D01*
X125468200Y-106490400D01*
X125301533Y-106490400D01*
X125234866Y-106457066D01*
X124901533Y-106757066D02*
X124901533Y-106290400D01*
X124901533Y-106057066D02*
X124934866Y-106090400D01*
X124901533Y-106123733D01*
X124868200Y-106090400D01*
X124901533Y-106057066D01*
X124901533Y-106123733D01*
X124568200Y-106290400D02*
X124568200Y-106757066D01*
X124568200Y-106357066D02*
X124534866Y-106323733D01*
X124468200Y-106290400D01*
X124368200Y-106290400D01*
X124301533Y-106323733D01*
X124268200Y-106390400D01*
X124268200Y-106757066D01*
X138401533Y-109057066D02*
X138401533Y-108357066D01*
X138234866Y-108357066D01*
X138134866Y-108390400D01*
X138068200Y-108457066D01*
X138034866Y-108523733D01*
X138001533Y-108657066D01*
X138001533Y-108757066D01*
X138034866Y-108890400D01*
X138068200Y-108957066D01*
X138134866Y-109023733D01*
X138234866Y-109057066D01*
X138401533Y-109057066D01*
X137434866Y-109023733D02*
X137501533Y-109057066D01*
X137634866Y-109057066D01*
X137701533Y-109023733D01*
X137734866Y-108957066D01*
X137734866Y-108690400D01*
X137701533Y-108623733D01*
X137634866Y-108590400D01*
X137501533Y-108590400D01*
X137434866Y-108623733D01*
X137401533Y-108690400D01*
X137401533Y-108757066D01*
X137734866Y-108823733D01*
X137134866Y-109023733D02*
X137068200Y-109057066D01*
X136934866Y-109057066D01*
X136868200Y-109023733D01*
X136834866Y-108957066D01*
X136834866Y-108923733D01*
X136868200Y-108857066D01*
X136934866Y-108823733D01*
X137034866Y-108823733D01*
X137101533Y-108790400D01*
X137134866Y-108723733D01*
X137134866Y-108690400D01*
X137101533Y-108623733D01*
X137034866Y-108590400D01*
X136934866Y-108590400D01*
X136868200Y-108623733D01*
X136534866Y-109057066D02*
X136534866Y-108590400D01*
X136534866Y-108357066D02*
X136568200Y-108390400D01*
X136534866Y-108423733D01*
X136501533Y-108390400D01*
X136534866Y-108357066D01*
X136534866Y-108423733D01*
X135901533Y-108590400D02*
X135901533Y-109157066D01*
X135934866Y-109223733D01*
X135968200Y-109257066D01*
X136034866Y-109290400D01*
X136134866Y-109290400D01*
X136201533Y-109257066D01*
X135901533Y-109023733D02*
X135968200Y-109057066D01*
X136101533Y-109057066D01*
X136168200Y-109023733D01*
X136201533Y-108990400D01*
X136234866Y-108923733D01*
X136234866Y-108723733D01*
X136201533Y-108657066D01*
X136168200Y-108623733D01*
X136101533Y-108590400D01*
X135968200Y-108590400D01*
X135901533Y-108623733D01*
X135568200Y-108590400D02*
X135568200Y-109057066D01*
X135568200Y-108657066D02*
X135534866Y-108623733D01*
X135468200Y-108590400D01*
X135368200Y-108590400D01*
X135301533Y-108623733D01*
X135268200Y-108690400D01*
X135268200Y-109057066D01*
X134668200Y-109023733D02*
X134734866Y-109057066D01*
X134868200Y-109057066D01*
X134934866Y-109023733D01*
X134968200Y-108957066D01*
X134968200Y-108690400D01*
X134934866Y-108623733D01*
X134868200Y-108590400D01*
X134734866Y-108590400D01*
X134668200Y-108623733D01*
X134634866Y-108690400D01*
X134634866Y-108757066D01*
X134968200Y-108823733D01*
X134034866Y-109057066D02*
X134034866Y-108357066D01*
X134034866Y-109023733D02*
X134101533Y-109057066D01*
X134234866Y-109057066D01*
X134301533Y-109023733D01*
X134334866Y-108990400D01*
X134368200Y-108923733D01*
X134368200Y-108723733D01*
X134334866Y-108657066D01*
X134301533Y-108623733D01*
X134234866Y-108590400D01*
X134101533Y-108590400D01*
X134034866Y-108623733D01*
X133168200Y-109057066D02*
X133168200Y-108357066D01*
X133168200Y-108623733D02*
X133101533Y-108590400D01*
X132968200Y-108590400D01*
X132901533Y-108623733D01*
X132868200Y-108657066D01*
X132834866Y-108723733D01*
X132834866Y-108923733D01*
X132868200Y-108990400D01*
X132901533Y-109023733D01*
X132968200Y-109057066D01*
X133101533Y-109057066D01*
X133168200Y-109023733D01*
X132601533Y-108590400D02*
X132434866Y-109057066D01*
X132268200Y-108590400D02*
X132434866Y-109057066D01*
X132501533Y-109223733D01*
X132534866Y-109257066D01*
X132601533Y-109290400D01*
X138501533Y-109507066D02*
X138101533Y-109507066D01*
X138301533Y-110207066D02*
X138301533Y-109507066D01*
X137868200Y-110207066D02*
X137868200Y-109507066D01*
X137568200Y-110207066D02*
X137568200Y-109840400D01*
X137601533Y-109773733D01*
X137668200Y-109740400D01*
X137768200Y-109740400D01*
X137834866Y-109773733D01*
X137868200Y-109807066D01*
X137134866Y-110207066D02*
X137201533Y-110173733D01*
X137234866Y-110140400D01*
X137268200Y-110073733D01*
X137268200Y-109873733D01*
X137234866Y-109807066D01*
X137201533Y-109773733D01*
X137134866Y-109740400D01*
X137034866Y-109740400D01*
X136968200Y-109773733D01*
X136934866Y-109807066D01*
X136901533Y-109873733D01*
X136901533Y-110073733D01*
X136934866Y-110140400D01*
X136968200Y-110173733D01*
X137034866Y-110207066D01*
X137134866Y-110207066D01*
X136601533Y-110207066D02*
X136601533Y-109740400D01*
X136601533Y-109807066D02*
X136568200Y-109773733D01*
X136501533Y-109740400D01*
X136401533Y-109740400D01*
X136334866Y-109773733D01*
X136301533Y-109840400D01*
X136301533Y-110207066D01*
X136301533Y-109840400D02*
X136268200Y-109773733D01*
X136201533Y-109740400D01*
X136101533Y-109740400D01*
X136034866Y-109773733D01*
X136001533Y-109840400D01*
X136001533Y-110207066D01*
X135368200Y-110207066D02*
X135368200Y-109840400D01*
X135401533Y-109773733D01*
X135468200Y-109740400D01*
X135601533Y-109740400D01*
X135668200Y-109773733D01*
X135368200Y-110173733D02*
X135434866Y-110207066D01*
X135601533Y-110207066D01*
X135668200Y-110173733D01*
X135701533Y-110107066D01*
X135701533Y-110040400D01*
X135668200Y-109973733D01*
X135601533Y-109940400D01*
X135434866Y-109940400D01*
X135368200Y-109907066D01*
X135068200Y-110173733D02*
X135001533Y-110207066D01*
X134868200Y-110207066D01*
X134801533Y-110173733D01*
X134768200Y-110107066D01*
X134768200Y-110073733D01*
X134801533Y-110007066D01*
X134868200Y-109973733D01*
X134968200Y-109973733D01*
X135034866Y-109940400D01*
X135068200Y-109873733D01*
X135068200Y-109840400D01*
X135034866Y-109773733D01*
X134968200Y-109740400D01*
X134868200Y-109740400D01*
X134801533Y-109773733D01*
X133968200Y-110173733D02*
X133868200Y-110207066D01*
X133701533Y-110207066D01*
X133634866Y-110173733D01*
X133601533Y-110140400D01*
X133568200Y-110073733D01*
X133568200Y-110007066D01*
X133601533Y-109940400D01*
X133634866Y-109907066D01*
X133701533Y-109873733D01*
X133834866Y-109840400D01*
X133901533Y-109807066D01*
X133934866Y-109773733D01*
X133968200Y-109707066D01*
X133968200Y-109640400D01*
X133934866Y-109573733D01*
X133901533Y-109540400D01*
X133834866Y-109507066D01*
X133668200Y-109507066D01*
X133568200Y-109540400D01*
X132968200Y-110207066D02*
X132968200Y-109840400D01*
X133001533Y-109773733D01*
X133068200Y-109740400D01*
X133201533Y-109740400D01*
X133268200Y-109773733D01*
X132968200Y-110173733D02*
X133034866Y-110207066D01*
X133201533Y-110207066D01*
X133268200Y-110173733D01*
X133301533Y-110107066D01*
X133301533Y-110040400D01*
X133268200Y-109973733D01*
X133201533Y-109940400D01*
X133034866Y-109940400D01*
X132968200Y-109907066D01*
X132634866Y-109740400D02*
X132634866Y-110207066D01*
X132634866Y-109807066D02*
X132601533Y-109773733D01*
X132534866Y-109740400D01*
X132434866Y-109740400D01*
X132368200Y-109773733D01*
X132334866Y-109840400D01*
X132334866Y-110207066D01*
X131901533Y-110207066D02*
X131968200Y-110173733D01*
X132001533Y-110107066D01*
X132001533Y-109507066D01*
X131334866Y-110207066D02*
X131334866Y-109840400D01*
X131368200Y-109773733D01*
X131434866Y-109740400D01*
X131568200Y-109740400D01*
X131634866Y-109773733D01*
X131334866Y-110173733D02*
X131401533Y-110207066D01*
X131568200Y-110207066D01*
X131634866Y-110173733D01*
X131668200Y-110107066D01*
X131668200Y-110040400D01*
X131634866Y-109973733D01*
X131568200Y-109940400D01*
X131401533Y-109940400D01*
X131334866Y-109907066D01*
X130701533Y-110207066D02*
X130701533Y-109507066D01*
X130701533Y-110173733D02*
X130768200Y-110207066D01*
X130901533Y-110207066D01*
X130968200Y-110173733D01*
X131001533Y-110140400D01*
X131034866Y-110073733D01*
X131034866Y-109873733D01*
X131001533Y-109807066D01*
X130968200Y-109773733D01*
X130901533Y-109740400D01*
X130768200Y-109740400D01*
X130701533Y-109773733D01*
X130101533Y-110173733D02*
X130168200Y-110207066D01*
X130301533Y-110207066D01*
X130368200Y-110173733D01*
X130401533Y-110107066D01*
X130401533Y-109840400D01*
X130368200Y-109773733D01*
X130301533Y-109740400D01*
X130168200Y-109740400D01*
X130101533Y-109773733D01*
X130068200Y-109840400D01*
X130068200Y-109907066D01*
X130401533Y-109973733D01*
X129768200Y-110207066D02*
X129768200Y-109740400D01*
X129768200Y-109873733D02*
X129734866Y-109807066D01*
X129701533Y-109773733D01*
X129634866Y-109740400D01*
X129568200Y-109740400D01*
X129068200Y-110173733D02*
X129134866Y-110207066D01*
X129268200Y-110207066D01*
X129334866Y-110173733D01*
X129368200Y-110107066D01*
X129368200Y-109840400D01*
X129334866Y-109773733D01*
X129268200Y-109740400D01*
X129134866Y-109740400D01*
X129068200Y-109773733D01*
X129034866Y-109840400D01*
X129034866Y-109907066D01*
X129368200Y-109973733D01*
X128734866Y-110207066D02*
X128734866Y-109740400D01*
X128734866Y-109873733D02*
X128701533Y-109807066D01*
X128668200Y-109773733D01*
X128601533Y-109740400D01*
X128534866Y-109740400D01*
X138401533Y-112507066D02*
X138401533Y-111807066D01*
X138168200Y-112307066D01*
X137934866Y-111807066D01*
X137934866Y-112507066D01*
X137501533Y-112507066D02*
X137568200Y-112473733D01*
X137601533Y-112440400D01*
X137634866Y-112373733D01*
X137634866Y-112173733D01*
X137601533Y-112107066D01*
X137568200Y-112073733D01*
X137501533Y-112040400D01*
X137401533Y-112040400D01*
X137334866Y-112073733D01*
X137301533Y-112107066D01*
X137268200Y-112173733D01*
X137268200Y-112373733D01*
X137301533Y-112440400D01*
X137334866Y-112473733D01*
X137401533Y-112507066D01*
X137501533Y-112507066D01*
X136668200Y-112507066D02*
X136668200Y-111807066D01*
X136668200Y-112473733D02*
X136734866Y-112507066D01*
X136868200Y-112507066D01*
X136934866Y-112473733D01*
X136968200Y-112440400D01*
X137001533Y-112373733D01*
X137001533Y-112173733D01*
X136968200Y-112107066D01*
X136934866Y-112073733D01*
X136868200Y-112040400D01*
X136734866Y-112040400D01*
X136668200Y-112073733D01*
X136334866Y-112507066D02*
X136334866Y-112040400D01*
X136334866Y-111807066D02*
X136368200Y-111840400D01*
X136334866Y-111873733D01*
X136301533Y-111840400D01*
X136334866Y-111807066D01*
X136334866Y-111873733D01*
X136101533Y-112040400D02*
X135834866Y-112040400D01*
X136001533Y-112507066D02*
X136001533Y-111907066D01*
X135968200Y-111840400D01*
X135901533Y-111807066D01*
X135834866Y-111807066D01*
X135601533Y-112507066D02*
X135601533Y-112040400D01*
X135601533Y-111807066D02*
X135634866Y-111840400D01*
X135601533Y-111873733D01*
X135568200Y-111840400D01*
X135601533Y-111807066D01*
X135601533Y-111873733D01*
X135001533Y-112473733D02*
X135068200Y-112507066D01*
X135201533Y-112507066D01*
X135268200Y-112473733D01*
X135301533Y-112407066D01*
X135301533Y-112140400D01*
X135268200Y-112073733D01*
X135201533Y-112040400D01*
X135068200Y-112040400D01*
X135001533Y-112073733D01*
X134968200Y-112140400D01*
X134968200Y-112207066D01*
X135301533Y-112273733D01*
X134368200Y-112507066D02*
X134368200Y-111807066D01*
X134368200Y-112473733D02*
X134434866Y-112507066D01*
X134568200Y-112507066D01*
X134634866Y-112473733D01*
X134668200Y-112440400D01*
X134701533Y-112373733D01*
X134701533Y-112173733D01*
X134668200Y-112107066D01*
X134634866Y-112073733D01*
X134568200Y-112040400D01*
X134434866Y-112040400D01*
X134368200Y-112073733D01*
X133501533Y-112507066D02*
X133501533Y-111807066D01*
X133501533Y-112073733D02*
X133434866Y-112040400D01*
X133301533Y-112040400D01*
X133234866Y-112073733D01*
X133201533Y-112107066D01*
X133168200Y-112173733D01*
X133168200Y-112373733D01*
X133201533Y-112440400D01*
X133234866Y-112473733D01*
X133301533Y-112507066D01*
X133434866Y-112507066D01*
X133501533Y-112473733D01*
X132934866Y-112040400D02*
X132768200Y-112507066D01*
X132601533Y-112040400D02*
X132768200Y-112507066D01*
X132834866Y-112673733D01*
X132868200Y-112707066D01*
X132934866Y-112740400D01*
X138401533Y-113657066D02*
X138401533Y-112957066D01*
X138168200Y-113457066D01*
X137934866Y-112957066D01*
X137934866Y-113657066D01*
X137601533Y-113657066D02*
X137601533Y-113190400D01*
X137601533Y-112957066D02*
X137634866Y-112990400D01*
X137601533Y-113023733D01*
X137568200Y-112990400D01*
X137601533Y-112957066D01*
X137601533Y-113023733D01*
X137268200Y-113657066D02*
X137268200Y-112957066D01*
X137201533Y-113390400D02*
X137001533Y-113657066D01*
X137001533Y-113190400D02*
X137268200Y-113457066D01*
X136434866Y-113623733D02*
X136501533Y-113657066D01*
X136634866Y-113657066D01*
X136701533Y-113623733D01*
X136734866Y-113557066D01*
X136734866Y-113290400D01*
X136701533Y-113223733D01*
X136634866Y-113190400D01*
X136501533Y-113190400D01*
X136434866Y-113223733D01*
X136401533Y-113290400D01*
X136401533Y-113357066D01*
X136734866Y-113423733D01*
X135601533Y-112957066D02*
X135601533Y-113090400D01*
X135334866Y-112957066D02*
X135334866Y-113090400D01*
X135034866Y-113657066D02*
X135034866Y-112957066D01*
X134801533Y-113457066D01*
X134568200Y-112957066D01*
X134568200Y-113657066D01*
X134234866Y-113657066D02*
X134234866Y-113190400D01*
X134234866Y-112957066D02*
X134268200Y-112990400D01*
X134234866Y-113023733D01*
X134201533Y-112990400D01*
X134234866Y-112957066D01*
X134234866Y-113023733D01*
X133601533Y-113190400D02*
X133601533Y-113757066D01*
X133634866Y-113823733D01*
X133668200Y-113857066D01*
X133734866Y-113890400D01*
X133834866Y-113890400D01*
X133901533Y-113857066D01*
X133601533Y-113623733D02*
X133668200Y-113657066D01*
X133801533Y-113657066D01*
X133868200Y-113623733D01*
X133901533Y-113590400D01*
X133934866Y-113523733D01*
X133934866Y-113323733D01*
X133901533Y-113257066D01*
X133868200Y-113223733D01*
X133801533Y-113190400D01*
X133668200Y-113190400D01*
X133601533Y-113223733D01*
X132968200Y-113190400D02*
X132968200Y-113757066D01*
X133001533Y-113823733D01*
X133034866Y-113857066D01*
X133101533Y-113890400D01*
X133201533Y-113890400D01*
X133268200Y-113857066D01*
X132968200Y-113623733D02*
X133034866Y-113657066D01*
X133168200Y-113657066D01*
X133234866Y-113623733D01*
X133268200Y-113590400D01*
X133301533Y-113523733D01*
X133301533Y-113323733D01*
X133268200Y-113257066D01*
X133234866Y-113223733D01*
X133168200Y-113190400D01*
X133034866Y-113190400D01*
X132968200Y-113223733D01*
X132701533Y-113190400D02*
X132534866Y-113657066D01*
X132368200Y-113190400D02*
X132534866Y-113657066D01*
X132601533Y-113823733D01*
X132634866Y-113857066D01*
X132701533Y-113890400D01*
X132101533Y-113657066D02*
X132101533Y-112957066D01*
X131868200Y-113457066D01*
X131634866Y-112957066D01*
X131634866Y-113657066D01*
X131001533Y-113657066D02*
X131001533Y-113290400D01*
X131034866Y-113223733D01*
X131101533Y-113190400D01*
X131234866Y-113190400D01*
X131301533Y-113223733D01*
X131001533Y-113623733D02*
X131068200Y-113657066D01*
X131234866Y-113657066D01*
X131301533Y-113623733D01*
X131334866Y-113557066D01*
X131334866Y-113490400D01*
X131301533Y-113423733D01*
X131234866Y-113390400D01*
X131068200Y-113390400D01*
X131001533Y-113357066D01*
X130668200Y-113190400D02*
X130668200Y-113657066D01*
X130668200Y-113257066D02*
X130634866Y-113223733D01*
X130568200Y-113190400D01*
X130468200Y-113190400D01*
X130401533Y-113223733D01*
X130368200Y-113290400D01*
X130368200Y-113657066D01*
X130068200Y-112957066D02*
X130068200Y-113090400D01*
X129801533Y-112957066D02*
X129801533Y-113090400D01*
X129034866Y-112957066D02*
X128868200Y-113657066D01*
X128734866Y-113157066D01*
X128601533Y-113657066D01*
X128434866Y-112957066D01*
X128068200Y-113657066D02*
X128134866Y-113623733D01*
X128168200Y-113590400D01*
X128201533Y-113523733D01*
X128201533Y-113323733D01*
X128168200Y-113257066D01*
X128134866Y-113223733D01*
X128068200Y-113190400D01*
X127968200Y-113190400D01*
X127901533Y-113223733D01*
X127868200Y-113257066D01*
X127834866Y-113323733D01*
X127834866Y-113523733D01*
X127868200Y-113590400D01*
X127901533Y-113623733D01*
X127968200Y-113657066D01*
X128068200Y-113657066D01*
X127434866Y-113657066D02*
X127501533Y-113623733D01*
X127534866Y-113590400D01*
X127568200Y-113523733D01*
X127568200Y-113323733D01*
X127534866Y-113257066D01*
X127501533Y-113223733D01*
X127434866Y-113190400D01*
X127334866Y-113190400D01*
X127268200Y-113223733D01*
X127234866Y-113257066D01*
X127201533Y-113323733D01*
X127201533Y-113523733D01*
X127234866Y-113590400D01*
X127268200Y-113623733D01*
X127334866Y-113657066D01*
X127434866Y-113657066D01*
X126601533Y-113657066D02*
X126601533Y-112957066D01*
X126601533Y-113623733D02*
X126668200Y-113657066D01*
X126801533Y-113657066D01*
X126868200Y-113623733D01*
X126901533Y-113590400D01*
X126934866Y-113523733D01*
X126934866Y-113323733D01*
X126901533Y-113257066D01*
X126868200Y-113223733D01*
X126801533Y-113190400D01*
X126668200Y-113190400D01*
X126601533Y-113223733D01*
X126301533Y-113623733D02*
X126234866Y-113657066D01*
X126101533Y-113657066D01*
X126034866Y-113623733D01*
X126001533Y-113557066D01*
X126001533Y-113523733D01*
X126034866Y-113457066D01*
X126101533Y-113423733D01*
X126201533Y-113423733D01*
X126268200Y-113390400D01*
X126301533Y-113323733D01*
X126301533Y-113290400D01*
X126268200Y-113223733D01*
X126201533Y-113190400D01*
X126101533Y-113190400D01*
X126034866Y-113223733D01*
D11*
%TO.C,REF\u002A\u002A*%
G36*
X158330805Y-102528059D02*
G01*
X158234530Y-102552297D01*
X158147946Y-102595129D01*
X158073135Y-102654907D01*
X158012180Y-102729982D01*
X157967161Y-102818708D01*
X157940898Y-102915018D01*
X157935048Y-103012283D01*
X157949902Y-103106142D01*
X157983602Y-103193999D01*
X158034290Y-103273258D01*
X158100107Y-103341324D01*
X158179196Y-103395600D01*
X158269696Y-103433490D01*
X158320962Y-103445914D01*
X158365460Y-103453435D01*
X158399761Y-103456407D01*
X158432722Y-103454582D01*
X158473196Y-103447713D01*
X158506293Y-103440738D01*
X158599709Y-103409229D01*
X158683381Y-103358105D01*
X158755427Y-103288917D01*
X158813962Y-103203216D01*
X158827910Y-103175977D01*
X158844348Y-103139610D01*
X158854656Y-103109070D01*
X158860222Y-103076938D01*
X158862431Y-103035795D01*
X158862710Y-102989710D01*
X158858623Y-102905353D01*
X158845208Y-102836074D01*
X158820018Y-102775449D01*
X158780608Y-102717055D01*
X158742060Y-102672790D01*
X158670168Y-102606972D01*
X158595075Y-102561541D01*
X158512324Y-102534338D01*
X158434690Y-102524064D01*
X158330805Y-102528059D01*
G37*
X158330805Y-102528059D02*
X158234530Y-102552297D01*
X158147946Y-102595129D01*
X158073135Y-102654907D01*
X158012180Y-102729982D01*
X157967161Y-102818708D01*
X157940898Y-102915018D01*
X157935048Y-103012283D01*
X157949902Y-103106142D01*
X157983602Y-103193999D01*
X158034290Y-103273258D01*
X158100107Y-103341324D01*
X158179196Y-103395600D01*
X158269696Y-103433490D01*
X158320962Y-103445914D01*
X158365460Y-103453435D01*
X158399761Y-103456407D01*
X158432722Y-103454582D01*
X158473196Y-103447713D01*
X158506293Y-103440738D01*
X158599709Y-103409229D01*
X158683381Y-103358105D01*
X158755427Y-103288917D01*
X158813962Y-103203216D01*
X158827910Y-103175977D01*
X158844348Y-103139610D01*
X158854656Y-103109070D01*
X158860222Y-103076938D01*
X158862431Y-103035795D01*
X158862710Y-102989710D01*
X158858623Y-102905353D01*
X158845208Y-102836074D01*
X158820018Y-102775449D01*
X158780608Y-102717055D01*
X158742060Y-102672790D01*
X158670168Y-102606972D01*
X158595075Y-102561541D01*
X158512324Y-102534338D01*
X158434690Y-102524064D01*
X158330805Y-102528059D01*
G36*
X149871255Y-104973733D02*
G01*
X149871236Y-105208150D01*
X149871210Y-105421091D01*
X149871137Y-105613656D01*
X149870980Y-105786947D01*
X149870698Y-105942064D01*
X149870253Y-106080108D01*
X149869606Y-106202180D01*
X149868717Y-106309382D01*
X149867549Y-106402814D01*
X149866061Y-106483578D01*
X149864216Y-106552774D01*
X149861973Y-106611503D01*
X149859293Y-106660867D01*
X149856139Y-106701966D01*
X149852470Y-106735901D01*
X149848249Y-106763774D01*
X149843435Y-106786686D01*
X149837989Y-106805737D01*
X149831874Y-106822028D01*
X149825050Y-106836661D01*
X149817477Y-106850737D01*
X149809117Y-106865356D01*
X149803923Y-106874462D01*
X149769658Y-106935177D01*
X150627807Y-106935177D01*
X150627807Y-106839221D01*
X150628538Y-106795858D01*
X150630490Y-106762693D01*
X150633299Y-106744912D01*
X150634541Y-106743266D01*
X150645963Y-106750150D01*
X150668678Y-106767993D01*
X150691377Y-106787367D01*
X150745962Y-106828102D01*
X150815441Y-106869105D01*
X150892492Y-106906611D01*
X150969797Y-106936852D01*
X151000649Y-106946500D01*
X151069146Y-106961066D01*
X151151998Y-106971027D01*
X151241391Y-106976071D01*
X151329514Y-106975884D01*
X151408555Y-106970154D01*
X151446251Y-106964346D01*
X151584348Y-106926285D01*
X151711649Y-106868561D01*
X151827470Y-106791699D01*
X151931125Y-106696227D01*
X152021929Y-106582667D01*
X152088731Y-106471869D01*
X152143598Y-106355113D01*
X152185599Y-106235764D01*
X152215595Y-106109771D01*
X152234451Y-105973082D01*
X152243030Y-105821646D01*
X152243756Y-105744199D01*
X152241662Y-105687422D01*
X151412545Y-105687422D01*
X151412338Y-105780490D01*
X151409425Y-105868180D01*
X151403762Y-105945260D01*
X151395307Y-106006497D01*
X151392724Y-106018838D01*
X151360922Y-106126121D01*
X151319264Y-106213146D01*
X151267399Y-106280130D01*
X151204981Y-106327293D01*
X151131662Y-106354853D01*
X151047093Y-106363029D01*
X150950927Y-106352039D01*
X150887451Y-106336317D01*
X150838308Y-106318127D01*
X150784179Y-106292279D01*
X150743518Y-106268577D01*
X150672962Y-106222209D01*
X150672962Y-105072018D01*
X150740370Y-105028450D01*
X150818895Y-104987528D01*
X150903081Y-104960877D01*
X150988205Y-104948953D01*
X151069546Y-104952210D01*
X151142382Y-104971103D01*
X151174336Y-104986672D01*
X151232261Y-105029669D01*
X151281218Y-105086441D01*
X151322372Y-105159063D01*
X151356888Y-105249609D01*
X151385929Y-105360154D01*
X151387210Y-105366021D01*
X151397381Y-105428276D01*
X151405023Y-105506082D01*
X151410092Y-105594208D01*
X151412545Y-105687422D01*
X152241662Y-105687422D01*
X152235905Y-105531383D01*
X152213960Y-105335547D01*
X152177976Y-105156820D01*
X152128003Y-104995333D01*
X152064094Y-104851214D01*
X151986300Y-104724594D01*
X151894673Y-104615603D01*
X151789265Y-104524371D01*
X151744100Y-104493420D01*
X151643151Y-104437273D01*
X151539861Y-104397662D01*
X151429773Y-104373502D01*
X151308432Y-104363707D01*
X151215926Y-104364753D01*
X151086272Y-104375719D01*
X150973678Y-104397534D01*
X150874887Y-104431202D01*
X150786641Y-104477724D01*
X150737776Y-104511936D01*
X150708409Y-104533850D01*
X150686719Y-104548821D01*
X150678509Y-104553221D01*
X150676894Y-104542392D01*
X150675603Y-104511739D01*
X150674624Y-104464014D01*
X150673945Y-104401967D01*
X150673552Y-104328350D01*
X150673432Y-104245915D01*
X150673574Y-104157413D01*
X150673965Y-104065595D01*
X150674591Y-103973212D01*
X150675442Y-103883016D01*
X150676502Y-103797759D01*
X150677761Y-103720191D01*
X150679206Y-103653064D01*
X150680824Y-103599129D01*
X150682601Y-103561138D01*
X150683093Y-103554155D01*
X150690670Y-103483739D01*
X150702231Y-103428590D01*
X150719970Y-103381469D01*
X150746080Y-103335135D01*
X150752347Y-103325555D01*
X150776779Y-103288866D01*
X149871451Y-103288866D01*
X149871255Y-104973733D01*
G37*
X149871255Y-104973733D02*
X149871236Y-105208150D01*
X149871210Y-105421091D01*
X149871137Y-105613656D01*
X149870980Y-105786947D01*
X149870698Y-105942064D01*
X149870253Y-106080108D01*
X149869606Y-106202180D01*
X149868717Y-106309382D01*
X149867549Y-106402814D01*
X149866061Y-106483578D01*
X149864216Y-106552774D01*
X149861973Y-106611503D01*
X149859293Y-106660867D01*
X149856139Y-106701966D01*
X149852470Y-106735901D01*
X149848249Y-106763774D01*
X149843435Y-106786686D01*
X149837989Y-106805737D01*
X149831874Y-106822028D01*
X149825050Y-106836661D01*
X149817477Y-106850737D01*
X149809117Y-106865356D01*
X149803923Y-106874462D01*
X149769658Y-106935177D01*
X150627807Y-106935177D01*
X150627807Y-106839221D01*
X150628538Y-106795858D01*
X150630490Y-106762693D01*
X150633299Y-106744912D01*
X150634541Y-106743266D01*
X150645963Y-106750150D01*
X150668678Y-106767993D01*
X150691377Y-106787367D01*
X150745962Y-106828102D01*
X150815441Y-106869105D01*
X150892492Y-106906611D01*
X150969797Y-106936852D01*
X151000649Y-106946500D01*
X151069146Y-106961066D01*
X151151998Y-106971027D01*
X151241391Y-106976071D01*
X151329514Y-106975884D01*
X151408555Y-106970154D01*
X151446251Y-106964346D01*
X151584348Y-106926285D01*
X151711649Y-106868561D01*
X151827470Y-106791699D01*
X151931125Y-106696227D01*
X152021929Y-106582667D01*
X152088731Y-106471869D01*
X152143598Y-106355113D01*
X152185599Y-106235764D01*
X152215595Y-106109771D01*
X152234451Y-105973082D01*
X152243030Y-105821646D01*
X152243756Y-105744199D01*
X152241662Y-105687422D01*
X151412545Y-105687422D01*
X151412338Y-105780490D01*
X151409425Y-105868180D01*
X151403762Y-105945260D01*
X151395307Y-106006497D01*
X151392724Y-106018838D01*
X151360922Y-106126121D01*
X151319264Y-106213146D01*
X151267399Y-106280130D01*
X151204981Y-106327293D01*
X151131662Y-106354853D01*
X151047093Y-106363029D01*
X150950927Y-106352039D01*
X150887451Y-106336317D01*
X150838308Y-106318127D01*
X150784179Y-106292279D01*
X150743518Y-106268577D01*
X150672962Y-106222209D01*
X150672962Y-105072018D01*
X150740370Y-105028450D01*
X150818895Y-104987528D01*
X150903081Y-104960877D01*
X150988205Y-104948953D01*
X151069546Y-104952210D01*
X151142382Y-104971103D01*
X151174336Y-104986672D01*
X151232261Y-105029669D01*
X151281218Y-105086441D01*
X151322372Y-105159063D01*
X151356888Y-105249609D01*
X151385929Y-105360154D01*
X151387210Y-105366021D01*
X151397381Y-105428276D01*
X151405023Y-105506082D01*
X151410092Y-105594208D01*
X151412545Y-105687422D01*
X152241662Y-105687422D01*
X152235905Y-105531383D01*
X152213960Y-105335547D01*
X152177976Y-105156820D01*
X152128003Y-104995333D01*
X152064094Y-104851214D01*
X151986300Y-104724594D01*
X151894673Y-104615603D01*
X151789265Y-104524371D01*
X151744100Y-104493420D01*
X151643151Y-104437273D01*
X151539861Y-104397662D01*
X151429773Y-104373502D01*
X151308432Y-104363707D01*
X151215926Y-104364753D01*
X151086272Y-104375719D01*
X150973678Y-104397534D01*
X150874887Y-104431202D01*
X150786641Y-104477724D01*
X150737776Y-104511936D01*
X150708409Y-104533850D01*
X150686719Y-104548821D01*
X150678509Y-104553221D01*
X150676894Y-104542392D01*
X150675603Y-104511739D01*
X150674624Y-104464014D01*
X150673945Y-104401967D01*
X150673552Y-104328350D01*
X150673432Y-104245915D01*
X150673574Y-104157413D01*
X150673965Y-104065595D01*
X150674591Y-103973212D01*
X150675442Y-103883016D01*
X150676502Y-103797759D01*
X150677761Y-103720191D01*
X150679206Y-103653064D01*
X150680824Y-103599129D01*
X150682601Y-103561138D01*
X150683093Y-103554155D01*
X150690670Y-103483739D01*
X150702231Y-103428590D01*
X150719970Y-103381469D01*
X150746080Y-103335135D01*
X150752347Y-103325555D01*
X150776779Y-103288866D01*
X149871451Y-103288866D01*
X149871255Y-104973733D01*
G36*
X153384188Y-104368040D02*
G01*
X153232270Y-104388055D01*
X153097006Y-104421690D01*
X152977523Y-104469213D01*
X152872947Y-104530893D01*
X152795338Y-104594453D01*
X152726497Y-104668587D01*
X152672756Y-104748359D01*
X152629852Y-104840579D01*
X152614378Y-104883649D01*
X152601518Y-104922630D01*
X152590316Y-104958777D01*
X152580642Y-104993922D01*
X152572366Y-105029898D01*
X152565359Y-105068538D01*
X152559490Y-105111673D01*
X152554631Y-105161137D01*
X152550652Y-105218761D01*
X152547422Y-105286379D01*
X152544813Y-105365822D01*
X152542695Y-105458924D01*
X152540938Y-105567515D01*
X152539413Y-105693430D01*
X152537990Y-105838500D01*
X152536737Y-105981266D01*
X152535411Y-106137456D01*
X152534206Y-106272727D01*
X152532996Y-106388734D01*
X152531656Y-106487133D01*
X152530062Y-106569581D01*
X152528087Y-106637734D01*
X152525606Y-106693248D01*
X152522493Y-106737780D01*
X152518624Y-106772986D01*
X152513873Y-106800522D01*
X152508114Y-106822044D01*
X152501223Y-106839210D01*
X152493073Y-106853674D01*
X152483539Y-106867094D01*
X152472496Y-106881126D01*
X152468196Y-106886559D01*
X152452376Y-106909398D01*
X152445340Y-106924951D01*
X152445318Y-106925410D01*
X152456195Y-106927609D01*
X152487180Y-106929635D01*
X152535805Y-106931430D01*
X152599599Y-106932939D01*
X152676093Y-106934104D01*
X152762818Y-106934868D01*
X152857305Y-106935174D01*
X152868212Y-106935177D01*
X153291105Y-106935177D01*
X153294367Y-106839110D01*
X153297629Y-106743044D01*
X153359718Y-106794031D01*
X153457048Y-106861545D01*
X153566949Y-106916237D01*
X153653413Y-106946466D01*
X153722484Y-106961154D01*
X153805837Y-106971147D01*
X153895603Y-106976134D01*
X153983917Y-106975801D01*
X154062911Y-106969839D01*
X154099140Y-106964126D01*
X154239159Y-106926264D01*
X154365584Y-106871420D01*
X154477502Y-106800412D01*
X154574000Y-106714056D01*
X154654162Y-106613167D01*
X154717075Y-106498564D01*
X154761450Y-106372472D01*
X154773784Y-106315889D01*
X154781394Y-106253690D01*
X154785023Y-106178851D01*
X154785517Y-106144955D01*
X154785452Y-106141770D01*
X154025514Y-106141770D01*
X154016221Y-106216821D01*
X153988034Y-106280648D01*
X153939565Y-106336286D01*
X153934508Y-106340699D01*
X153886214Y-106375525D01*
X153834505Y-106398108D01*
X153773773Y-106410028D01*
X153698410Y-106412871D01*
X153680303Y-106412466D01*
X153626484Y-106409813D01*
X153586454Y-106404397D01*
X153551438Y-106394233D01*
X153512659Y-106377338D01*
X153502017Y-106372160D01*
X153441366Y-106336332D01*
X153394547Y-106293700D01*
X153381810Y-106278461D01*
X153337140Y-106221950D01*
X153337140Y-106026074D01*
X153337676Y-105947427D01*
X153339366Y-105889476D01*
X153342334Y-105850363D01*
X153346705Y-105828229D01*
X153350790Y-105821762D01*
X153366715Y-105818599D01*
X153400498Y-105815976D01*
X153447422Y-105814143D01*
X153502769Y-105813345D01*
X153511656Y-105813330D01*
X153632432Y-105818584D01*
X153735102Y-105834751D01*
X153821656Y-105862449D01*
X153894081Y-105902296D01*
X153949011Y-105949246D01*
X153993558Y-106007133D01*
X154018282Y-106070181D01*
X154025514Y-106141770D01*
X154785452Y-106141770D01*
X154783584Y-106051200D01*
X154775240Y-105972300D01*
X154758994Y-105901078D01*
X154733357Y-105830352D01*
X154709361Y-105777981D01*
X154650742Y-105682684D01*
X154572645Y-105594658D01*
X154477447Y-105515505D01*
X154367524Y-105446828D01*
X154245252Y-105390229D01*
X154113007Y-105347309D01*
X154048340Y-105332370D01*
X153912158Y-105310265D01*
X153763713Y-105295682D01*
X153612257Y-105289301D01*
X153485698Y-105290933D01*
X153323812Y-105297712D01*
X153331232Y-105238733D01*
X153350524Y-105139580D01*
X153381658Y-105058860D01*
X153425493Y-104995954D01*
X153482891Y-104950244D01*
X153554714Y-104921110D01*
X153641821Y-104907935D01*
X153745076Y-104910099D01*
X153783051Y-104914100D01*
X153924242Y-104939268D01*
X154061055Y-104980302D01*
X154155584Y-105018303D01*
X154200744Y-105037678D01*
X154239177Y-105053248D01*
X154265528Y-105062893D01*
X154273216Y-105064940D01*
X154282960Y-105055862D01*
X154299679Y-105026893D01*
X154323530Y-104977705D01*
X154354669Y-104907972D01*
X154393255Y-104817367D01*
X154399852Y-104801577D01*
X154429909Y-104729260D01*
X154456888Y-104663913D01*
X154479626Y-104608394D01*
X154496956Y-104565560D01*
X154507714Y-104538269D01*
X154510821Y-104529430D01*
X154500822Y-104524675D01*
X154474545Y-104519398D01*
X154446273Y-104515719D01*
X154416116Y-104510962D01*
X154368329Y-104501516D01*
X154307150Y-104488308D01*
X154236816Y-104472264D01*
X154161568Y-104454308D01*
X154133007Y-104447285D01*
X154027946Y-104421697D01*
X153940282Y-104401635D01*
X153865694Y-104386457D01*
X153799859Y-104375523D01*
X153738455Y-104368192D01*
X153677160Y-104363823D01*
X153611652Y-104361775D01*
X153553634Y-104361377D01*
X153384188Y-104368040D01*
G37*
X153384188Y-104368040D02*
X153232270Y-104388055D01*
X153097006Y-104421690D01*
X152977523Y-104469213D01*
X152872947Y-104530893D01*
X152795338Y-104594453D01*
X152726497Y-104668587D01*
X152672756Y-104748359D01*
X152629852Y-104840579D01*
X152614378Y-104883649D01*
X152601518Y-104922630D01*
X152590316Y-104958777D01*
X152580642Y-104993922D01*
X152572366Y-105029898D01*
X152565359Y-105068538D01*
X152559490Y-105111673D01*
X152554631Y-105161137D01*
X152550652Y-105218761D01*
X152547422Y-105286379D01*
X152544813Y-105365822D01*
X152542695Y-105458924D01*
X152540938Y-105567515D01*
X152539413Y-105693430D01*
X152537990Y-105838500D01*
X152536737Y-105981266D01*
X152535411Y-106137456D01*
X152534206Y-106272727D01*
X152532996Y-106388734D01*
X152531656Y-106487133D01*
X152530062Y-106569581D01*
X152528087Y-106637734D01*
X152525606Y-106693248D01*
X152522493Y-106737780D01*
X152518624Y-106772986D01*
X152513873Y-106800522D01*
X152508114Y-106822044D01*
X152501223Y-106839210D01*
X152493073Y-106853674D01*
X152483539Y-106867094D01*
X152472496Y-106881126D01*
X152468196Y-106886559D01*
X152452376Y-106909398D01*
X152445340Y-106924951D01*
X152445318Y-106925410D01*
X152456195Y-106927609D01*
X152487180Y-106929635D01*
X152535805Y-106931430D01*
X152599599Y-106932939D01*
X152676093Y-106934104D01*
X152762818Y-106934868D01*
X152857305Y-106935174D01*
X152868212Y-106935177D01*
X153291105Y-106935177D01*
X153294367Y-106839110D01*
X153297629Y-106743044D01*
X153359718Y-106794031D01*
X153457048Y-106861545D01*
X153566949Y-106916237D01*
X153653413Y-106946466D01*
X153722484Y-106961154D01*
X153805837Y-106971147D01*
X153895603Y-106976134D01*
X153983917Y-106975801D01*
X154062911Y-106969839D01*
X154099140Y-106964126D01*
X154239159Y-106926264D01*
X154365584Y-106871420D01*
X154477502Y-106800412D01*
X154574000Y-106714056D01*
X154654162Y-106613167D01*
X154717075Y-106498564D01*
X154761450Y-106372472D01*
X154773784Y-106315889D01*
X154781394Y-106253690D01*
X154785023Y-106178851D01*
X154785517Y-106144955D01*
X154785452Y-106141770D01*
X154025514Y-106141770D01*
X154016221Y-106216821D01*
X153988034Y-106280648D01*
X153939565Y-106336286D01*
X153934508Y-106340699D01*
X153886214Y-106375525D01*
X153834505Y-106398108D01*
X153773773Y-106410028D01*
X153698410Y-106412871D01*
X153680303Y-106412466D01*
X153626484Y-106409813D01*
X153586454Y-106404397D01*
X153551438Y-106394233D01*
X153512659Y-106377338D01*
X153502017Y-106372160D01*
X153441366Y-106336332D01*
X153394547Y-106293700D01*
X153381810Y-106278461D01*
X153337140Y-106221950D01*
X153337140Y-106026074D01*
X153337676Y-105947427D01*
X153339366Y-105889476D01*
X153342334Y-105850363D01*
X153346705Y-105828229D01*
X153350790Y-105821762D01*
X153366715Y-105818599D01*
X153400498Y-105815976D01*
X153447422Y-105814143D01*
X153502769Y-105813345D01*
X153511656Y-105813330D01*
X153632432Y-105818584D01*
X153735102Y-105834751D01*
X153821656Y-105862449D01*
X153894081Y-105902296D01*
X153949011Y-105949246D01*
X153993558Y-106007133D01*
X154018282Y-106070181D01*
X154025514Y-106141770D01*
X154785452Y-106141770D01*
X154783584Y-106051200D01*
X154775240Y-105972300D01*
X154758994Y-105901078D01*
X154733357Y-105830352D01*
X154709361Y-105777981D01*
X154650742Y-105682684D01*
X154572645Y-105594658D01*
X154477447Y-105515505D01*
X154367524Y-105446828D01*
X154245252Y-105390229D01*
X154113007Y-105347309D01*
X154048340Y-105332370D01*
X153912158Y-105310265D01*
X153763713Y-105295682D01*
X153612257Y-105289301D01*
X153485698Y-105290933D01*
X153323812Y-105297712D01*
X153331232Y-105238733D01*
X153350524Y-105139580D01*
X153381658Y-105058860D01*
X153425493Y-104995954D01*
X153482891Y-104950244D01*
X153554714Y-104921110D01*
X153641821Y-104907935D01*
X153745076Y-104910099D01*
X153783051Y-104914100D01*
X153924242Y-104939268D01*
X154061055Y-104980302D01*
X154155584Y-105018303D01*
X154200744Y-105037678D01*
X154239177Y-105053248D01*
X154265528Y-105062893D01*
X154273216Y-105064940D01*
X154282960Y-105055862D01*
X154299679Y-105026893D01*
X154323530Y-104977705D01*
X154354669Y-104907972D01*
X154393255Y-104817367D01*
X154399852Y-104801577D01*
X154429909Y-104729260D01*
X154456888Y-104663913D01*
X154479626Y-104608394D01*
X154496956Y-104565560D01*
X154507714Y-104538269D01*
X154510821Y-104529430D01*
X154500822Y-104524675D01*
X154474545Y-104519398D01*
X154446273Y-104515719D01*
X154416116Y-104510962D01*
X154368329Y-104501516D01*
X154307150Y-104488308D01*
X154236816Y-104472264D01*
X154161568Y-104454308D01*
X154133007Y-104447285D01*
X154027946Y-104421697D01*
X153940282Y-104401635D01*
X153865694Y-104386457D01*
X153799859Y-104375523D01*
X153738455Y-104368192D01*
X153677160Y-104363823D01*
X153611652Y-104361775D01*
X153553634Y-104361377D01*
X153384188Y-104368040D01*
G36*
X155729333Y-103450559D02*
G01*
X155569192Y-103471733D01*
X155405252Y-103511873D01*
X155235449Y-103571377D01*
X155057719Y-103650642D01*
X155046452Y-103656187D01*
X154988757Y-103684213D01*
X154937210Y-103708290D01*
X154895571Y-103726737D01*
X154867600Y-103737874D01*
X154858029Y-103740421D01*
X154838812Y-103745429D01*
X154834201Y-103749635D01*
X154839304Y-103760068D01*
X154855344Y-103786356D01*
X154880474Y-103825745D01*
X154912848Y-103875479D01*
X154950619Y-103932803D01*
X154991940Y-103994964D01*
X155034964Y-104059206D01*
X155077845Y-104122773D01*
X155118736Y-104182913D01*
X155155791Y-104236868D01*
X155187162Y-104281885D01*
X155211003Y-104315209D01*
X155225468Y-104334085D01*
X155227453Y-104336275D01*
X155237571Y-104331626D01*
X155259912Y-104314450D01*
X155290482Y-104287928D01*
X155306226Y-104273452D01*
X155402715Y-104198170D01*
X155509426Y-104142729D01*
X155624930Y-104107629D01*
X155747800Y-104093368D01*
X155817201Y-104094539D01*
X155938339Y-104111700D01*
X156047557Y-104147582D01*
X156145180Y-104202447D01*
X156231534Y-104276558D01*
X156306947Y-104370176D01*
X156371744Y-104483564D01*
X156409161Y-104570155D01*
X156453014Y-104705854D01*
X156485334Y-104853338D01*
X156506205Y-105008802D01*
X156515711Y-105168444D01*
X156513935Y-105328461D01*
X156500959Y-105485049D01*
X156476868Y-105634406D01*
X156441744Y-105772728D01*
X156395670Y-105896212D01*
X156379389Y-105930466D01*
X156311142Y-106044552D01*
X156230683Y-106141045D01*
X156139192Y-106219158D01*
X156037851Y-106278105D01*
X155927842Y-106317100D01*
X155810347Y-106335356D01*
X155768879Y-106336699D01*
X155647321Y-106325778D01*
X155526884Y-106292962D01*
X155409096Y-106238927D01*
X155295485Y-106164353D01*
X155204077Y-106086027D01*
X155157547Y-106041496D01*
X154976279Y-106338759D01*
X154931182Y-106412921D01*
X154889943Y-106481134D01*
X154854027Y-106540947D01*
X154824896Y-106589908D01*
X154804012Y-106625567D01*
X154792838Y-106645472D01*
X154791387Y-106648567D01*
X154799616Y-106658206D01*
X154825195Y-106675487D01*
X154864889Y-106698771D01*
X154915465Y-106726422D01*
X154973688Y-106756803D01*
X155036325Y-106788278D01*
X155100141Y-106819210D01*
X155161902Y-106847961D01*
X155218374Y-106872896D01*
X155266324Y-106892377D01*
X155289776Y-106900806D01*
X155423541Y-106938621D01*
X155561435Y-106963624D01*
X155709140Y-106976628D01*
X155835929Y-106978956D01*
X155903884Y-106977861D01*
X155969485Y-106975763D01*
X156026915Y-106972922D01*
X156070359Y-106969594D01*
X156084464Y-106967910D01*
X156223478Y-106939075D01*
X156365005Y-106893956D01*
X156502487Y-106835238D01*
X156629368Y-106765608D01*
X156706873Y-106712929D01*
X156834281Y-106604727D01*
X156952584Y-106478159D01*
X157059590Y-106336354D01*
X157153110Y-106182439D01*
X157230952Y-106019541D01*
X157274806Y-105902244D01*
X157325054Y-105718616D01*
X157358553Y-105524069D01*
X157375313Y-105322813D01*
X157375346Y-105119056D01*
X157358661Y-104917009D01*
X157325269Y-104720880D01*
X157275182Y-104534879D01*
X157271365Y-104523291D01*
X157208481Y-104361238D01*
X157131734Y-104213320D01*
X157038520Y-104075353D01*
X156926235Y-103943149D01*
X156882370Y-103897887D01*
X156746228Y-103773945D01*
X156606271Y-103671403D01*
X156460351Y-103589144D01*
X156306320Y-103526052D01*
X156142030Y-103481011D01*
X156046473Y-103463521D01*
X155887739Y-103447954D01*
X155729333Y-103450559D01*
G37*
X155729333Y-103450559D02*
X155569192Y-103471733D01*
X155405252Y-103511873D01*
X155235449Y-103571377D01*
X155057719Y-103650642D01*
X155046452Y-103656187D01*
X154988757Y-103684213D01*
X154937210Y-103708290D01*
X154895571Y-103726737D01*
X154867600Y-103737874D01*
X154858029Y-103740421D01*
X154838812Y-103745429D01*
X154834201Y-103749635D01*
X154839304Y-103760068D01*
X154855344Y-103786356D01*
X154880474Y-103825745D01*
X154912848Y-103875479D01*
X154950619Y-103932803D01*
X154991940Y-103994964D01*
X155034964Y-104059206D01*
X155077845Y-104122773D01*
X155118736Y-104182913D01*
X155155791Y-104236868D01*
X155187162Y-104281885D01*
X155211003Y-104315209D01*
X155225468Y-104334085D01*
X155227453Y-104336275D01*
X155237571Y-104331626D01*
X155259912Y-104314450D01*
X155290482Y-104287928D01*
X155306226Y-104273452D01*
X155402715Y-104198170D01*
X155509426Y-104142729D01*
X155624930Y-104107629D01*
X155747800Y-104093368D01*
X155817201Y-104094539D01*
X155938339Y-104111700D01*
X156047557Y-104147582D01*
X156145180Y-104202447D01*
X156231534Y-104276558D01*
X156306947Y-104370176D01*
X156371744Y-104483564D01*
X156409161Y-104570155D01*
X156453014Y-104705854D01*
X156485334Y-104853338D01*
X156506205Y-105008802D01*
X156515711Y-105168444D01*
X156513935Y-105328461D01*
X156500959Y-105485049D01*
X156476868Y-105634406D01*
X156441744Y-105772728D01*
X156395670Y-105896212D01*
X156379389Y-105930466D01*
X156311142Y-106044552D01*
X156230683Y-106141045D01*
X156139192Y-106219158D01*
X156037851Y-106278105D01*
X155927842Y-106317100D01*
X155810347Y-106335356D01*
X155768879Y-106336699D01*
X155647321Y-106325778D01*
X155526884Y-106292962D01*
X155409096Y-106238927D01*
X155295485Y-106164353D01*
X155204077Y-106086027D01*
X155157547Y-106041496D01*
X154976279Y-106338759D01*
X154931182Y-106412921D01*
X154889943Y-106481134D01*
X154854027Y-106540947D01*
X154824896Y-106589908D01*
X154804012Y-106625567D01*
X154792838Y-106645472D01*
X154791387Y-106648567D01*
X154799616Y-106658206D01*
X154825195Y-106675487D01*
X154864889Y-106698771D01*
X154915465Y-106726422D01*
X154973688Y-106756803D01*
X155036325Y-106788278D01*
X155100141Y-106819210D01*
X155161902Y-106847961D01*
X155218374Y-106872896D01*
X155266324Y-106892377D01*
X155289776Y-106900806D01*
X155423541Y-106938621D01*
X155561435Y-106963624D01*
X155709140Y-106976628D01*
X155835929Y-106978956D01*
X155903884Y-106977861D01*
X155969485Y-106975763D01*
X156026915Y-106972922D01*
X156070359Y-106969594D01*
X156084464Y-106967910D01*
X156223478Y-106939075D01*
X156365005Y-106893956D01*
X156502487Y-106835238D01*
X156629368Y-106765608D01*
X156706873Y-106712929D01*
X156834281Y-106604727D01*
X156952584Y-106478159D01*
X157059590Y-106336354D01*
X157153110Y-106182439D01*
X157230952Y-106019541D01*
X157274806Y-105902244D01*
X157325054Y-105718616D01*
X157358553Y-105524069D01*
X157375313Y-105322813D01*
X157375346Y-105119056D01*
X157358661Y-104917009D01*
X157325269Y-104720880D01*
X157275182Y-104534879D01*
X157271365Y-104523291D01*
X157208481Y-104361238D01*
X157131734Y-104213320D01*
X157038520Y-104075353D01*
X156926235Y-103943149D01*
X156882370Y-103897887D01*
X156746228Y-103773945D01*
X156606271Y-103671403D01*
X156460351Y-103589144D01*
X156306320Y-103526052D01*
X156142030Y-103481011D01*
X156046473Y-103463521D01*
X155887739Y-103447954D01*
X155729333Y-103450559D01*
G36*
X159004162Y-102990542D02*
G01*
X158993297Y-103104481D01*
X158961680Y-103212104D01*
X158910777Y-103311103D01*
X158842055Y-103399172D01*
X158756981Y-103474004D01*
X158659994Y-103531872D01*
X158553726Y-103571493D01*
X158446712Y-103590061D01*
X158341062Y-103588922D01*
X158238887Y-103569418D01*
X158142296Y-103532894D01*
X158053400Y-103480693D01*
X157974308Y-103414161D01*
X157907131Y-103334640D01*
X157853979Y-103243475D01*
X157816961Y-103142011D01*
X157798189Y-103031590D01*
X157796251Y-102981694D01*
X157796251Y-102893755D01*
X157744322Y-102893755D01*
X157708015Y-102896599D01*
X157681117Y-102908399D01*
X157654011Y-102932137D01*
X157615629Y-102970519D01*
X157615629Y-105162090D01*
X157615638Y-105424227D01*
X157615670Y-105664729D01*
X157615734Y-105884536D01*
X157615838Y-106084589D01*
X157615989Y-106265832D01*
X157616196Y-106429204D01*
X157616468Y-106575648D01*
X157616812Y-106706105D01*
X157617236Y-106821517D01*
X157617749Y-106922826D01*
X157618359Y-107010972D01*
X157619074Y-107086898D01*
X157619902Y-107151545D01*
X157620851Y-107205855D01*
X157621929Y-107250768D01*
X157623145Y-107287228D01*
X157624507Y-107316175D01*
X157626023Y-107338551D01*
X157627700Y-107355297D01*
X157629548Y-107367356D01*
X157631575Y-107375668D01*
X157633787Y-107381175D01*
X157634870Y-107383025D01*
X157639033Y-107390037D01*
X157642567Y-107396484D01*
X157646397Y-107402388D01*
X157651444Y-107407774D01*
X157658633Y-107412666D01*
X157668885Y-107417086D01*
X157683126Y-107421060D01*
X157702276Y-107424609D01*
X157727261Y-107427758D01*
X157759002Y-107430530D01*
X157798424Y-107432949D01*
X157846448Y-107435039D01*
X157903999Y-107436823D01*
X157971999Y-107438325D01*
X158051372Y-107439568D01*
X158143041Y-107440577D01*
X158247928Y-107441373D01*
X158366958Y-107441982D01*
X158501052Y-107442427D01*
X158651135Y-107442731D01*
X158818129Y-107442918D01*
X159002958Y-107443012D01*
X159206545Y-107443036D01*
X159429812Y-107443013D01*
X159673684Y-107442968D01*
X159939083Y-107442925D01*
X159977466Y-107442920D01*
X160244444Y-107442877D01*
X160489764Y-107442806D01*
X160714345Y-107442701D01*
X160919107Y-107442554D01*
X161104968Y-107442357D01*
X161272850Y-107442104D01*
X161423670Y-107441788D01*
X161558349Y-107441401D01*
X161677806Y-107440935D01*
X161782961Y-107440385D01*
X161874733Y-107439741D01*
X161954041Y-107438999D01*
X162021805Y-107438149D01*
X162078944Y-107437185D01*
X162126379Y-107436099D01*
X162165028Y-107434885D01*
X162195811Y-107433535D01*
X162219647Y-107432043D01*
X162237456Y-107430399D01*
X162250157Y-107428599D01*
X162258670Y-107426633D01*
X162263028Y-107424965D01*
X162271490Y-107421394D01*
X162279259Y-107418758D01*
X162286364Y-107416122D01*
X162292835Y-107412550D01*
X162298701Y-107407109D01*
X162303991Y-107398863D01*
X162308736Y-107386878D01*
X162312964Y-107370219D01*
X162316705Y-107347951D01*
X162319989Y-107319140D01*
X162322845Y-107282851D01*
X162325302Y-107238149D01*
X162327391Y-107184099D01*
X162329140Y-107119767D01*
X162330579Y-107044218D01*
X162331738Y-106956518D01*
X162332645Y-106855731D01*
X162333331Y-106740922D01*
X162333825Y-106611158D01*
X162334157Y-106465503D01*
X162334355Y-106303023D01*
X162334449Y-106122783D01*
X162334470Y-105923848D01*
X162334447Y-105705284D01*
X162334408Y-105466156D01*
X162334384Y-105205528D01*
X162334384Y-105163377D01*
X162334398Y-104900480D01*
X162334423Y-104659220D01*
X162334433Y-104438653D01*
X162334404Y-104237840D01*
X162334310Y-104055837D01*
X162334124Y-103891704D01*
X162333821Y-103744499D01*
X162333376Y-103613280D01*
X162332796Y-103503355D01*
X162029959Y-103503355D01*
X161990169Y-103561199D01*
X161978998Y-103576967D01*
X161968928Y-103590929D01*
X161959900Y-103604272D01*
X161951859Y-103618181D01*
X161944748Y-103633844D01*
X161938509Y-103652446D01*
X161933087Y-103675174D01*
X161928424Y-103703215D01*
X161924463Y-103737755D01*
X161921147Y-103779980D01*
X161918421Y-103831077D01*
X161916226Y-103892232D01*
X161914507Y-103964632D01*
X161913206Y-104049463D01*
X161912267Y-104147910D01*
X161911632Y-104261162D01*
X161911246Y-104390404D01*
X161911050Y-104536822D01*
X161910989Y-104701604D01*
X161911005Y-104885935D01*
X161911042Y-105091001D01*
X161911051Y-105213621D01*
X161911027Y-105430570D01*
X161910993Y-105626130D01*
X161911005Y-105801487D01*
X161911120Y-105957829D01*
X161911392Y-106096345D01*
X161911880Y-106218222D01*
X161912638Y-106324648D01*
X161913724Y-106416810D01*
X161915193Y-106495897D01*
X161917102Y-106563096D01*
X161919506Y-106619595D01*
X161922463Y-106666581D01*
X161926028Y-106705243D01*
X161930257Y-106736768D01*
X161935208Y-106762343D01*
X161940935Y-106783158D01*
X161947495Y-106800399D01*
X161954945Y-106815253D01*
X161963341Y-106828910D01*
X161972738Y-106842557D01*
X161983194Y-106857381D01*
X161989285Y-106866271D01*
X162028058Y-106923888D01*
X161496494Y-106923888D01*
X161373245Y-106923853D01*
X161270749Y-106923703D01*
X161187182Y-106923366D01*
X161120718Y-106922774D01*
X161069533Y-106921855D01*
X161031803Y-106920539D01*
X161005702Y-106918757D01*
X160989406Y-106916439D01*
X160981090Y-106913514D01*
X160978930Y-106909912D01*
X160981101Y-106905563D01*
X160982297Y-106904133D01*
X161007447Y-106867061D01*
X161033345Y-106814260D01*
X161056954Y-106752258D01*
X161065223Y-106725845D01*
X161069840Y-106707904D01*
X161073741Y-106686843D01*
X161077010Y-106660577D01*
X161079728Y-106627020D01*
X161081977Y-106584087D01*
X161083839Y-106529692D01*
X161085398Y-106461750D01*
X161086734Y-106378176D01*
X161087931Y-106276883D01*
X161089070Y-106155788D01*
X161089447Y-106111088D01*
X161090464Y-105985937D01*
X161091222Y-105881570D01*
X161091665Y-105796195D01*
X161091732Y-105728021D01*
X161091367Y-105675253D01*
X161090510Y-105636102D01*
X161089103Y-105608773D01*
X161087087Y-105591474D01*
X161084405Y-105582414D01*
X161080998Y-105579800D01*
X161076806Y-105581839D01*
X161072333Y-105586155D01*
X161061978Y-105599090D01*
X161039920Y-105628164D01*
X161007719Y-105671247D01*
X160966936Y-105726206D01*
X160919132Y-105790911D01*
X160865867Y-105863230D01*
X160808702Y-105941032D01*
X160749199Y-106022186D01*
X160688917Y-106104560D01*
X160629417Y-106186024D01*
X160572260Y-106264445D01*
X160519007Y-106337692D01*
X160471219Y-106403635D01*
X160430455Y-106460142D01*
X160398278Y-106505081D01*
X160376247Y-106536322D01*
X160371679Y-106542954D01*
X160348758Y-106579857D01*
X160321950Y-106627847D01*
X160296551Y-106677385D01*
X160293330Y-106684065D01*
X160271652Y-106732260D01*
X160259066Y-106769822D01*
X160253336Y-106805648D01*
X160252218Y-106847688D01*
X160252852Y-106923888D01*
X159098413Y-106923888D01*
X159189577Y-106830157D01*
X159236374Y-106780263D01*
X159286661Y-106723783D01*
X159332706Y-106669514D01*
X159353131Y-106644161D01*
X159383569Y-106604616D01*
X159423624Y-106551404D01*
X159472123Y-106486155D01*
X159527897Y-106410499D01*
X159589773Y-106326065D01*
X159656581Y-106234482D01*
X159727149Y-106137380D01*
X159800307Y-106036389D01*
X159874883Y-105933138D01*
X159949706Y-105829256D01*
X160023605Y-105726373D01*
X160095408Y-105626119D01*
X160163946Y-105530124D01*
X160228046Y-105440015D01*
X160286537Y-105357424D01*
X160338248Y-105283980D01*
X160382009Y-105221312D01*
X160416647Y-105171049D01*
X160440992Y-105134822D01*
X160453873Y-105114259D01*
X160455631Y-105110156D01*
X160447672Y-105098830D01*
X160426877Y-105071650D01*
X160394609Y-105030317D01*
X160352232Y-104976532D01*
X160301109Y-104911994D01*
X160242603Y-104838406D01*
X160178076Y-104757466D01*
X160108893Y-104670876D01*
X160036415Y-104580336D01*
X159962008Y-104487548D01*
X159902279Y-104413190D01*
X158891273Y-104413190D01*
X158885364Y-104426147D01*
X158871034Y-104448396D01*
X158869987Y-104449879D01*
X158851200Y-104480032D01*
X158831553Y-104516863D01*
X158827654Y-104524999D01*
X158824118Y-104533428D01*
X158820992Y-104543547D01*
X158818248Y-104556748D01*
X158815854Y-104574426D01*
X158813781Y-104597972D01*
X158811997Y-104628781D01*
X158810474Y-104668245D01*
X158809181Y-104717757D01*
X158808088Y-104778711D01*
X158807165Y-104852499D01*
X158806381Y-104940516D01*
X158805707Y-105044153D01*
X158805112Y-105164804D01*
X158804567Y-105303862D01*
X158804041Y-105462720D01*
X158803507Y-105641577D01*
X158802968Y-105826695D01*
X158802534Y-105990633D01*
X158802271Y-106134791D01*
X158802246Y-106260567D01*
X158802527Y-106369359D01*
X158803181Y-106462565D01*
X158804276Y-106541585D01*
X158805880Y-106607816D01*
X158808059Y-106662658D01*
X158810881Y-106707509D01*
X158814413Y-106743766D01*
X158818723Y-106772829D01*
X158823879Y-106796097D01*
X158829947Y-106814967D01*
X158836995Y-106830839D01*
X158845091Y-106845110D01*
X158854302Y-106859179D01*
X158862802Y-106871646D01*
X158879938Y-106897940D01*
X158890084Y-106915525D01*
X158891273Y-106918745D01*
X158880366Y-106919822D01*
X158849173Y-106920823D01*
X158799985Y-106921723D01*
X158735095Y-106922498D01*
X158656792Y-106923125D01*
X158567369Y-106923579D01*
X158469118Y-106923837D01*
X158400207Y-106923888D01*
X158295214Y-106923668D01*
X158198372Y-106923036D01*
X158111869Y-106922037D01*
X158037894Y-106920715D01*
X157978636Y-106919114D01*
X157936282Y-106917279D01*
X157913022Y-106915253D01*
X157909140Y-106913981D01*
X157916838Y-106899079D01*
X157924836Y-106891048D01*
X157938008Y-106873922D01*
X157955247Y-106843671D01*
X157967169Y-106819110D01*
X157993807Y-106760199D01*
X157996882Y-105583333D01*
X157999957Y-104406466D01*
X158445615Y-104406466D01*
X158543432Y-104406630D01*
X158633826Y-104407099D01*
X158714392Y-104407835D01*
X158782724Y-104408804D01*
X158836418Y-104409968D01*
X158873067Y-104411291D01*
X158890266Y-104412737D01*
X158891273Y-104413190D01*
X159902279Y-104413190D01*
X159887032Y-104394210D01*
X159812852Y-104302025D01*
X159740831Y-104212692D01*
X159672331Y-104127912D01*
X159608717Y-104049386D01*
X159551350Y-103978814D01*
X159501595Y-103917897D01*
X159460814Y-103868335D01*
X159443650Y-103847666D01*
X159357358Y-103747004D01*
X159280759Y-103663747D01*
X159211945Y-103595926D01*
X159149010Y-103541577D01*
X159139629Y-103534210D01*
X159100118Y-103503605D01*
X160231878Y-103503355D01*
X160226589Y-103551332D01*
X160229892Y-103608676D01*
X160251423Y-103676951D01*
X160291397Y-103756700D01*
X160336705Y-103828983D01*
X160352923Y-103851628D01*
X160380976Y-103889184D01*
X160419192Y-103939509D01*
X160465899Y-104000461D01*
X160519423Y-104069899D01*
X160578093Y-104145682D01*
X160640237Y-104225668D01*
X160704183Y-104307716D01*
X160768257Y-104389684D01*
X160830789Y-104469431D01*
X160890105Y-104544815D01*
X160944533Y-104613695D01*
X160992401Y-104673930D01*
X161032037Y-104723377D01*
X161061768Y-104759896D01*
X161079923Y-104781346D01*
X161082982Y-104784644D01*
X161085841Y-104776637D01*
X161088055Y-104746343D01*
X161089619Y-104694044D01*
X161090529Y-104620019D01*
X161090782Y-104524551D01*
X161090375Y-104407922D01*
X161089466Y-104287933D01*
X161088144Y-104155821D01*
X161086619Y-104044082D01*
X161084643Y-103950513D01*
X161081968Y-103872907D01*
X161078344Y-103809062D01*
X161073523Y-103756771D01*
X161067256Y-103713832D01*
X161059294Y-103678039D01*
X161049389Y-103647188D01*
X161037293Y-103619074D01*
X161022755Y-103591493D01*
X161008073Y-103566454D01*
X160970076Y-103503355D01*
X162029959Y-103503355D01*
X162332796Y-103503355D01*
X162332763Y-103497105D01*
X162331957Y-103395032D01*
X162330932Y-103306121D01*
X162329662Y-103229429D01*
X162328122Y-103164015D01*
X162326286Y-103108937D01*
X162324129Y-103063253D01*
X162321625Y-103026022D01*
X162318749Y-102996301D01*
X162315475Y-102973150D01*
X162311777Y-102955627D01*
X162307631Y-102942789D01*
X162303009Y-102933696D01*
X162297888Y-102927406D01*
X162292240Y-102922976D01*
X162286041Y-102919466D01*
X162279266Y-102915933D01*
X162273270Y-102912364D01*
X162268037Y-102909788D01*
X162259861Y-102907460D01*
X162247648Y-102905366D01*
X162230303Y-102903495D01*
X162206731Y-102901835D01*
X162175839Y-102900372D01*
X162136530Y-102899096D01*
X162087712Y-102897992D01*
X162028289Y-102897049D01*
X161957166Y-102896255D01*
X161873250Y-102895597D01*
X161775445Y-102895063D01*
X161662656Y-102894641D01*
X161533791Y-102894317D01*
X161387753Y-102894080D01*
X161223448Y-102893918D01*
X161039782Y-102893818D01*
X160835659Y-102893768D01*
X160624515Y-102893755D01*
X159004162Y-102893755D01*
X159004162Y-102990542D01*
G37*
X159004162Y-102990542D02*
X158993297Y-103104481D01*
X158961680Y-103212104D01*
X158910777Y-103311103D01*
X158842055Y-103399172D01*
X158756981Y-103474004D01*
X158659994Y-103531872D01*
X158553726Y-103571493D01*
X158446712Y-103590061D01*
X158341062Y-103588922D01*
X158238887Y-103569418D01*
X158142296Y-103532894D01*
X158053400Y-103480693D01*
X157974308Y-103414161D01*
X157907131Y-103334640D01*
X157853979Y-103243475D01*
X157816961Y-103142011D01*
X157798189Y-103031590D01*
X157796251Y-102981694D01*
X157796251Y-102893755D01*
X157744322Y-102893755D01*
X157708015Y-102896599D01*
X157681117Y-102908399D01*
X157654011Y-102932137D01*
X157615629Y-102970519D01*
X157615629Y-105162090D01*
X157615638Y-105424227D01*
X157615670Y-105664729D01*
X157615734Y-105884536D01*
X157615838Y-106084589D01*
X157615989Y-106265832D01*
X157616196Y-106429204D01*
X157616468Y-106575648D01*
X157616812Y-106706105D01*
X157617236Y-106821517D01*
X157617749Y-106922826D01*
X157618359Y-107010972D01*
X157619074Y-107086898D01*
X157619902Y-107151545D01*
X157620851Y-107205855D01*
X157621929Y-107250768D01*
X157623145Y-107287228D01*
X157624507Y-107316175D01*
X157626023Y-107338551D01*
X157627700Y-107355297D01*
X157629548Y-107367356D01*
X157631575Y-107375668D01*
X157633787Y-107381175D01*
X157634870Y-107383025D01*
X157639033Y-107390037D01*
X157642567Y-107396484D01*
X157646397Y-107402388D01*
X157651444Y-107407774D01*
X157658633Y-107412666D01*
X157668885Y-107417086D01*
X157683126Y-107421060D01*
X157702276Y-107424609D01*
X157727261Y-107427758D01*
X157759002Y-107430530D01*
X157798424Y-107432949D01*
X157846448Y-107435039D01*
X157903999Y-107436823D01*
X157971999Y-107438325D01*
X158051372Y-107439568D01*
X158143041Y-107440577D01*
X158247928Y-107441373D01*
X158366958Y-107441982D01*
X158501052Y-107442427D01*
X158651135Y-107442731D01*
X158818129Y-107442918D01*
X159002958Y-107443012D01*
X159206545Y-107443036D01*
X159429812Y-107443013D01*
X159673684Y-107442968D01*
X159939083Y-107442925D01*
X159977466Y-107442920D01*
X160244444Y-107442877D01*
X160489764Y-107442806D01*
X160714345Y-107442701D01*
X160919107Y-107442554D01*
X161104968Y-107442357D01*
X161272850Y-107442104D01*
X161423670Y-107441788D01*
X161558349Y-107441401D01*
X161677806Y-107440935D01*
X161782961Y-107440385D01*
X161874733Y-107439741D01*
X161954041Y-107438999D01*
X162021805Y-107438149D01*
X162078944Y-107437185D01*
X162126379Y-107436099D01*
X162165028Y-107434885D01*
X162195811Y-107433535D01*
X162219647Y-107432043D01*
X162237456Y-107430399D01*
X162250157Y-107428599D01*
X162258670Y-107426633D01*
X162263028Y-107424965D01*
X162271490Y-107421394D01*
X162279259Y-107418758D01*
X162286364Y-107416122D01*
X162292835Y-107412550D01*
X162298701Y-107407109D01*
X162303991Y-107398863D01*
X162308736Y-107386878D01*
X162312964Y-107370219D01*
X162316705Y-107347951D01*
X162319989Y-107319140D01*
X162322845Y-107282851D01*
X162325302Y-107238149D01*
X162327391Y-107184099D01*
X162329140Y-107119767D01*
X162330579Y-107044218D01*
X162331738Y-106956518D01*
X162332645Y-106855731D01*
X162333331Y-106740922D01*
X162333825Y-106611158D01*
X162334157Y-106465503D01*
X162334355Y-106303023D01*
X162334449Y-106122783D01*
X162334470Y-105923848D01*
X162334447Y-105705284D01*
X162334408Y-105466156D01*
X162334384Y-105205528D01*
X162334384Y-105163377D01*
X162334398Y-104900480D01*
X162334423Y-104659220D01*
X162334433Y-104438653D01*
X162334404Y-104237840D01*
X162334310Y-104055837D01*
X162334124Y-103891704D01*
X162333821Y-103744499D01*
X162333376Y-103613280D01*
X162332796Y-103503355D01*
X162029959Y-103503355D01*
X161990169Y-103561199D01*
X161978998Y-103576967D01*
X161968928Y-103590929D01*
X161959900Y-103604272D01*
X161951859Y-103618181D01*
X161944748Y-103633844D01*
X161938509Y-103652446D01*
X161933087Y-103675174D01*
X161928424Y-103703215D01*
X161924463Y-103737755D01*
X161921147Y-103779980D01*
X161918421Y-103831077D01*
X161916226Y-103892232D01*
X161914507Y-103964632D01*
X161913206Y-104049463D01*
X161912267Y-104147910D01*
X161911632Y-104261162D01*
X161911246Y-104390404D01*
X161911050Y-104536822D01*
X161910989Y-104701604D01*
X161911005Y-104885935D01*
X161911042Y-105091001D01*
X161911051Y-105213621D01*
X161911027Y-105430570D01*
X161910993Y-105626130D01*
X161911005Y-105801487D01*
X161911120Y-105957829D01*
X161911392Y-106096345D01*
X161911880Y-106218222D01*
X161912638Y-106324648D01*
X161913724Y-106416810D01*
X161915193Y-106495897D01*
X161917102Y-106563096D01*
X161919506Y-106619595D01*
X161922463Y-106666581D01*
X161926028Y-106705243D01*
X161930257Y-106736768D01*
X161935208Y-106762343D01*
X161940935Y-106783158D01*
X161947495Y-106800399D01*
X161954945Y-106815253D01*
X161963341Y-106828910D01*
X161972738Y-106842557D01*
X161983194Y-106857381D01*
X161989285Y-106866271D01*
X162028058Y-106923888D01*
X161496494Y-106923888D01*
X161373245Y-106923853D01*
X161270749Y-106923703D01*
X161187182Y-106923366D01*
X161120718Y-106922774D01*
X161069533Y-106921855D01*
X161031803Y-106920539D01*
X161005702Y-106918757D01*
X160989406Y-106916439D01*
X160981090Y-106913514D01*
X160978930Y-106909912D01*
X160981101Y-106905563D01*
X160982297Y-106904133D01*
X161007447Y-106867061D01*
X161033345Y-106814260D01*
X161056954Y-106752258D01*
X161065223Y-106725845D01*
X161069840Y-106707904D01*
X161073741Y-106686843D01*
X161077010Y-106660577D01*
X161079728Y-106627020D01*
X161081977Y-106584087D01*
X161083839Y-106529692D01*
X161085398Y-106461750D01*
X161086734Y-106378176D01*
X161087931Y-106276883D01*
X161089070Y-106155788D01*
X161089447Y-106111088D01*
X161090464Y-105985937D01*
X161091222Y-105881570D01*
X161091665Y-105796195D01*
X161091732Y-105728021D01*
X161091367Y-105675253D01*
X161090510Y-105636102D01*
X161089103Y-105608773D01*
X161087087Y-105591474D01*
X161084405Y-105582414D01*
X161080998Y-105579800D01*
X161076806Y-105581839D01*
X161072333Y-105586155D01*
X161061978Y-105599090D01*
X161039920Y-105628164D01*
X161007719Y-105671247D01*
X160966936Y-105726206D01*
X160919132Y-105790911D01*
X160865867Y-105863230D01*
X160808702Y-105941032D01*
X160749199Y-106022186D01*
X160688917Y-106104560D01*
X160629417Y-106186024D01*
X160572260Y-106264445D01*
X160519007Y-106337692D01*
X160471219Y-106403635D01*
X160430455Y-106460142D01*
X160398278Y-106505081D01*
X160376247Y-106536322D01*
X160371679Y-106542954D01*
X160348758Y-106579857D01*
X160321950Y-106627847D01*
X160296551Y-106677385D01*
X160293330Y-106684065D01*
X160271652Y-106732260D01*
X160259066Y-106769822D01*
X160253336Y-106805648D01*
X160252218Y-106847688D01*
X160252852Y-106923888D01*
X159098413Y-106923888D01*
X159189577Y-106830157D01*
X159236374Y-106780263D01*
X159286661Y-106723783D01*
X159332706Y-106669514D01*
X159353131Y-106644161D01*
X159383569Y-106604616D01*
X159423624Y-106551404D01*
X159472123Y-106486155D01*
X159527897Y-106410499D01*
X159589773Y-106326065D01*
X159656581Y-106234482D01*
X159727149Y-106137380D01*
X159800307Y-106036389D01*
X159874883Y-105933138D01*
X159949706Y-105829256D01*
X160023605Y-105726373D01*
X160095408Y-105626119D01*
X160163946Y-105530124D01*
X160228046Y-105440015D01*
X160286537Y-105357424D01*
X160338248Y-105283980D01*
X160382009Y-105221312D01*
X160416647Y-105171049D01*
X160440992Y-105134822D01*
X160453873Y-105114259D01*
X160455631Y-105110156D01*
X160447672Y-105098830D01*
X160426877Y-105071650D01*
X160394609Y-105030317D01*
X160352232Y-104976532D01*
X160301109Y-104911994D01*
X160242603Y-104838406D01*
X160178076Y-104757466D01*
X160108893Y-104670876D01*
X160036415Y-104580336D01*
X159962008Y-104487548D01*
X159902279Y-104413190D01*
X158891273Y-104413190D01*
X158885364Y-104426147D01*
X158871034Y-104448396D01*
X158869987Y-104449879D01*
X158851200Y-104480032D01*
X158831553Y-104516863D01*
X158827654Y-104524999D01*
X158824118Y-104533428D01*
X158820992Y-104543547D01*
X158818248Y-104556748D01*
X158815854Y-104574426D01*
X158813781Y-104597972D01*
X158811997Y-104628781D01*
X158810474Y-104668245D01*
X158809181Y-104717757D01*
X158808088Y-104778711D01*
X158807165Y-104852499D01*
X158806381Y-104940516D01*
X158805707Y-105044153D01*
X158805112Y-105164804D01*
X158804567Y-105303862D01*
X158804041Y-105462720D01*
X158803507Y-105641577D01*
X158802968Y-105826695D01*
X158802534Y-105990633D01*
X158802271Y-106134791D01*
X158802246Y-106260567D01*
X158802527Y-106369359D01*
X158803181Y-106462565D01*
X158804276Y-106541585D01*
X158805880Y-106607816D01*
X158808059Y-106662658D01*
X158810881Y-106707509D01*
X158814413Y-106743766D01*
X158818723Y-106772829D01*
X158823879Y-106796097D01*
X158829947Y-106814967D01*
X158836995Y-106830839D01*
X158845091Y-106845110D01*
X158854302Y-106859179D01*
X158862802Y-106871646D01*
X158879938Y-106897940D01*
X158890084Y-106915525D01*
X158891273Y-106918745D01*
X158880366Y-106919822D01*
X158849173Y-106920823D01*
X158799985Y-106921723D01*
X158735095Y-106922498D01*
X158656792Y-106923125D01*
X158567369Y-106923579D01*
X158469118Y-106923837D01*
X158400207Y-106923888D01*
X158295214Y-106923668D01*
X158198372Y-106923036D01*
X158111869Y-106922037D01*
X158037894Y-106920715D01*
X157978636Y-106919114D01*
X157936282Y-106917279D01*
X157913022Y-106915253D01*
X157909140Y-106913981D01*
X157916838Y-106899079D01*
X157924836Y-106891048D01*
X157938008Y-106873922D01*
X157955247Y-106843671D01*
X157967169Y-106819110D01*
X157993807Y-106760199D01*
X157996882Y-105583333D01*
X157999957Y-104406466D01*
X158445615Y-104406466D01*
X158543432Y-104406630D01*
X158633826Y-104407099D01*
X158714392Y-104407835D01*
X158782724Y-104408804D01*
X158836418Y-104409968D01*
X158873067Y-104411291D01*
X158890266Y-104412737D01*
X158891273Y-104413190D01*
X159902279Y-104413190D01*
X159887032Y-104394210D01*
X159812852Y-104302025D01*
X159740831Y-104212692D01*
X159672331Y-104127912D01*
X159608717Y-104049386D01*
X159551350Y-103978814D01*
X159501595Y-103917897D01*
X159460814Y-103868335D01*
X159443650Y-103847666D01*
X159357358Y-103747004D01*
X159280759Y-103663747D01*
X159211945Y-103595926D01*
X159149010Y-103541577D01*
X159139629Y-103534210D01*
X159100118Y-103503605D01*
X160231878Y-103503355D01*
X160226589Y-103551332D01*
X160229892Y-103608676D01*
X160251423Y-103676951D01*
X160291397Y-103756700D01*
X160336705Y-103828983D01*
X160352923Y-103851628D01*
X160380976Y-103889184D01*
X160419192Y-103939509D01*
X160465899Y-104000461D01*
X160519423Y-104069899D01*
X160578093Y-104145682D01*
X160640237Y-104225668D01*
X160704183Y-104307716D01*
X160768257Y-104389684D01*
X160830789Y-104469431D01*
X160890105Y-104544815D01*
X160944533Y-104613695D01*
X160992401Y-104673930D01*
X161032037Y-104723377D01*
X161061768Y-104759896D01*
X161079923Y-104781346D01*
X161082982Y-104784644D01*
X161085841Y-104776637D01*
X161088055Y-104746343D01*
X161089619Y-104694044D01*
X161090529Y-104620019D01*
X161090782Y-104524551D01*
X161090375Y-104407922D01*
X161089466Y-104287933D01*
X161088144Y-104155821D01*
X161086619Y-104044082D01*
X161084643Y-103950513D01*
X161081968Y-103872907D01*
X161078344Y-103809062D01*
X161073523Y-103756771D01*
X161067256Y-103713832D01*
X161059294Y-103678039D01*
X161049389Y-103647188D01*
X161037293Y-103619074D01*
X161022755Y-103591493D01*
X161008073Y-103566454D01*
X160970076Y-103503355D01*
X162029959Y-103503355D01*
X162332796Y-103503355D01*
X162332763Y-103497105D01*
X162331957Y-103395032D01*
X162330932Y-103306121D01*
X162329662Y-103229429D01*
X162328122Y-103164015D01*
X162326286Y-103108937D01*
X162324129Y-103063253D01*
X162321625Y-103026022D01*
X162318749Y-102996301D01*
X162315475Y-102973150D01*
X162311777Y-102955627D01*
X162307631Y-102942789D01*
X162303009Y-102933696D01*
X162297888Y-102927406D01*
X162292240Y-102922976D01*
X162286041Y-102919466D01*
X162279266Y-102915933D01*
X162273270Y-102912364D01*
X162268037Y-102909788D01*
X162259861Y-102907460D01*
X162247648Y-102905366D01*
X162230303Y-102903495D01*
X162206731Y-102901835D01*
X162175839Y-102900372D01*
X162136530Y-102899096D01*
X162087712Y-102897992D01*
X162028289Y-102897049D01*
X161957166Y-102896255D01*
X161873250Y-102895597D01*
X161775445Y-102895063D01*
X161662656Y-102894641D01*
X161533791Y-102894317D01*
X161387753Y-102894080D01*
X161223448Y-102893918D01*
X161039782Y-102893818D01*
X160835659Y-102893768D01*
X160624515Y-102893755D01*
X159004162Y-102893755D01*
X159004162Y-102990542D01*
D12*
%TO.C,U3*%
X141991100Y-98429400D02*
X142141100Y-98279400D01*
X141291100Y-99079400D02*
X141541100Y-98829400D01*
X138041100Y-98429400D02*
X137891100Y-98279400D01*
X138691100Y-99079400D02*
X138441100Y-98829400D01*
X141291100Y-99079400D02*
X138691100Y-99079400D01*
X142141100Y-98279400D02*
X142141100Y-97329400D01*
X137891100Y-97329400D02*
X137891100Y-98279400D01*
D13*
X140582528Y-96058485D02*
X140582528Y-96665628D01*
X140546814Y-96737057D01*
X140511100Y-96772771D01*
X140439671Y-96808485D01*
X140296814Y-96808485D01*
X140225385Y-96772771D01*
X140189671Y-96737057D01*
X140153957Y-96665628D01*
X140153957Y-96058485D01*
X139868242Y-96058485D02*
X139403957Y-96058485D01*
X139653957Y-96344200D01*
X139546814Y-96344200D01*
X139475385Y-96379914D01*
X139439671Y-96415628D01*
X139403957Y-96487057D01*
X139403957Y-96665628D01*
X139439671Y-96737057D01*
X139475385Y-96772771D01*
X139546814Y-96808485D01*
X139761100Y-96808485D01*
X139832528Y-96772771D01*
X139868242Y-96737057D01*
%TD*%
M02*
